<?xml version="1.0" standalone="no"?><!DOCTYPE svg PUBLIC "-//W3C//DTD SVG 1.1//EN" "http://www.w3.org/Graphics/SVG/1.1/DTD/svg11.dtd"><svg height="400" node-id="1" sillyvg="true" template-height="400" template-width="600" version="1.1" viewBox="0 0 600 400" width="600" xmlns="http://www.w3.org/2000/svg" xmlns:xlink="http://www.w3.org/1999/xlink"><defs node-id="70"></defs><path d="M 0.00 0.00 L 600.00 0.00 L 600.00 400.00 L 0.00 400.00 Z" fill="#ffffff" fill-rule="evenodd" node-id="73" stroke="none" target-height="400" target-width="600" target-x="0" target-y="0"></path><g node-id="107"><path d="M 162.30 225.50 L 158.30 213.30 L 153.00 200.90 L 149.50 194.10 L 145.40 186.90 L 139.10 177.60 L 131.60 168.80 L 127.40 164.90 L 123.00 161.40 L 118.20 158.30 L 113.20 155.70 L 107.90 153.70 L 103.80 152.60 L 99.50 152.00 L 94.90 151.70 L 90.10 151.90 L 85.40 152.60 L 80.50 153.80 L 75.10 155.60 L 69.50 158.00 L 64.20 160.70 L 58.50 164.20 L 52.40 168.50 L 45.90 173.80 L 67.10 170.30 L 60.10 177.80 L 79.30 191.40 L 96.00 178.30 L 88.70 187.90 L 81.70 195.80 L 83.20 197.10 L 85.90 198.70 L 92.30 201.70 L 107.10 207.10 L 111.40 190.10 L 110.70 198.40 L 109.70 205.50 L 108.20 211.50 L 128.60 217.30 L 132.70 206.40 L 138.90 216.90 L 162.30 225.50 Z" fill="#8ae6b9" fill-rule="nonzero" group-id="1" id="Path" node-id="7" stroke="none" target-height="73.8" target-width="116.4" target-x="45.9" target-y="151.7"></path><path d="M 160.50 229.10 L 159.10 215.50 L 158.10 209.00 L 154.80 193.10 L 152.30 184.30 L 149.40 175.40 L 145.70 166.50 L 139.80 155.10 L 136.30 149.70 L 132.50 144.60 L 128.30 139.90 L 123.70 135.60 L 120.00 132.80 L 116.00 130.20 L 111.80 128.00 L 107.30 126.10 L 102.70 124.70 L 97.70 123.70 L 92.40 123.10 L 86.60 123.00 L 81.10 123.40 L 75.00 124.30 L 68.40 125.80 L 61.30 128.00 L 81.50 140.00 L 81.00 148.10 L 94.70 167.40 L 107.60 154.30 L 105.40 161.30 L 104.20 164.10 L 101.80 168.10 L 99.50 169.80 L 102.70 175.00 L 112.20 187.10 L 119.70 172.50 L 119.10 180.90 L 117.70 186.10 L 116.50 188.10 L 130.40 206.40 L 136.50 197.60 L 132.60 209.10 L 160.50 229.10 Z" fill="#1eaf69" fill-rule="nonzero" group-id="1" id="Path" node-id="8" stroke="none" target-height="106.100006" target-width="99.2" target-x="61.3" target-y="123"></path><path d="M 160.60 229.10 L 159.20 204.00 L 157.00 183.90 L 153.10 161.30 L 150.50 149.80 L 146.10 134.90 L 143.50 127.90 L 140.50 121.00 L 137.30 114.60 L 133.80 108.90 L 130.80 104.70 L 127.70 101.10 L 124.40 97.80 L 121.00 95.00 L 117.30 92.60 L 113.30 90.70 L 109.10 89.30 L 104.70 88.40 L 100.20 88.20 L 95.40 88.50 L 90.10 89.50 L 84.40 91.30 L 98.50 113.80 L 112.40 111.10 L 97.90 118.90 L 104.90 136.50 L 123.70 135.20 L 116.10 141.20 L 121.50 164.50 L 131.90 157.80 L 129.80 165.80 L 127.50 170.20 L 126.10 171.80 L 136.10 195.10 L 143.40 188.90 L 137.60 198.60 L 160.60 229.10 Z" fill="#2ccd7f" fill-rule="nonzero" group-id="1" id="Path" node-id="9" stroke="none" target-height="140.90001" target-width="76.200005" target-x="84.4" target-y="88.2"></path></g><g node-id="108"><path d="M 395.10 78.80 L 393.20 79.00 L 391.40 74.80 L 389.10 70.90 L 386.30 67.40 L 383.10 64.30 L 379.50 61.70 L 375.50 59.60 L 372.40 58.40 L 365.60 56.90 L 362.00 56.70 L 358.40 56.90 L 351.60 58.40 L 348.50 59.60 L 344.50 61.70 L 340.90 64.30 L 337.70 67.40 L 334.90 70.90 L 332.60 74.80 L 330.80 79.00 L 328.90 78.80 L 325.80 79.00 L 323.00 79.60 L 317.70 81.80 L 314.60 84.00 L 312.00 86.60 L 309.80 89.70 L 307.60 94.90 L 306.80 100.80 L 307.60 106.70 L 309.80 112.00 L 312.00 115.10 L 314.60 117.70 L 317.70 119.90 L 320.30 121.20 L 325.80 122.70 L 328.90 122.90 L 395.10 122.90 L 401.10 122.10 L 406.30 119.90 L 409.40 117.70 L 412.00 115.10 L 414.20 112.00 L 415.50 109.40 L 417.00 103.90 L 417.20 100.80 L 416.40 94.90 L 414.20 89.70 L 412.00 86.60 L 409.40 84.00 L 406.30 81.80 L 403.70 80.50 L 398.20 79.00 L 395.10 78.80 Z" fill="#e7f4fe" fill-rule="nonzero" group-id="2" id="Path" node-id="11" stroke="none" target-height="66.2" target-width="110.400024" target-x="306.8" target-y="56.7"></path></g><g node-id="109"><path d="M 457.90 136.50 L 457.90 325.00 L 457.70 326.20 L 456.60 328.10 L 454.60 329.30 L 453.40 329.50 L 129.70 329.50 L 127.40 328.80 L 125.80 327.20 L 125.20 325.00 L 125.20 136.50 L 457.90 136.50 Z" fill="#f3f9ff" fill-rule="nonzero" group-id="3" id="Path" node-id="13" stroke="none" target-height="193" target-width="332.7" target-x="125.2" target-y="136.5"></path><path d="M 457.90 118.40 L 457.90 138.70 L 125.20 138.70 L 125.20 118.40 L 125.50 116.40 L 126.30 114.50 L 127.50 113.00 L 129.00 111.70 L 130.90 111.00 L 133.00 110.70 L 450.10 110.70 L 452.20 111.00 L 454.00 111.70 L 455.60 113.00 L 456.80 114.50 L 457.60 116.40 L 457.90 118.40 Z" fill="#224380" fill-rule="nonzero" group-id="3" id="Path" node-id="14" stroke="none" target-height="28" target-width="332.7" target-x="125.2" target-y="110.7"></path><path d="M 153.90 124.30 L 153.80 125.60 L 152.50 127.70 L 150.40 129.00 L 149.00 129.20 L 146.60 128.50 L 144.80 126.70 L 144.30 125.60 L 144.10 124.30 L 144.80 121.80 L 146.60 120.00 L 149.00 119.40 L 150.40 119.50 L 152.50 120.80 L 153.80 122.90 L 153.90 124.30 Z" fill="#ffcb01" fill-rule="nonzero" group-id="3" id="Oval" node-id="15" stroke="none" target-height="9.799995" target-width="9.799988" target-x="144.1" target-y="119.4"></path><path d="M 171.40 124.30 L 171.20 125.60 L 170.00 127.70 L 167.80 129.00 L 166.50 129.20 L 165.20 129.00 L 163.00 127.70 L 161.80 125.60 L 161.60 124.30 L 161.80 122.90 L 163.00 120.80 L 165.20 119.50 L 166.50 119.40 L 167.80 119.50 L 170.00 120.80 L 171.20 122.90 L 171.40 124.30 Z" fill="#44d690" fill-rule="nonzero" group-id="3" id="Oval" node-id="16" stroke="none" target-height="9.799995" target-width="9.799988" target-x="161.6" target-y="119.4"></path><path d="M 254.70 289.40 L 168.70 289.40 L 165.20 288.80 L 163.60 288.00 L 161.00 285.80 L 159.20 282.80 L 158.60 279.20 L 158.60 193.40 L 159.20 189.90 L 161.00 186.90 L 163.60 184.60 L 166.90 183.40 L 254.70 183.20 L 258.20 183.90 L 259.80 184.60 L 262.40 186.90 L 264.20 189.90 L 264.80 193.40 L 264.80 279.20 L 264.20 282.80 L 263.40 284.40 L 261.20 287.00 L 258.20 288.80 L 254.70 289.40 Z" fill="#dae7ff" fill-rule="nonzero" group-id="3" id="Path" node-id="17" stroke="none" target-height="106.2" target-width="106.19998" target-x="158.6" target-y="183.2"></path><path d="M 233.90 281.50 L 148.00 281.50 L 144.50 280.90 L 142.90 280.20 L 140.30 277.90 L 138.50 274.90 L 137.90 271.40 L 137.90 185.50 L 138.50 182.00 L 140.30 179.00 L 142.90 176.80 L 146.20 175.50 L 233.90 175.40 L 237.50 176.00 L 239.10 176.80 L 241.70 179.00 L 243.50 182.00 L 244.10 185.50 L 244.10 271.40 L 243.50 274.90 L 241.70 277.90 L 239.10 280.20 L 237.50 280.90 L 233.90 281.50 Z" fill="#7266d5" fill-rule="nonzero" group-id="3" id="Path" node-id="18" stroke="none" target-height="106.100006" target-width="106.20001" target-x="137.9" target-y="175.4"></path><path d="M 176.90 210.80 L 176.90 246.10 L 205.10 228.50 Z" fill="#ffffff" fill-rule="nonzero" group-id="3" id="Path" node-id="19" stroke="none" target-height="35.300003" target-width="28.200012" target-x="176.9" target-y="210.8"></path><g node-id="114"><path d="M 328.90 195.60 L 280.80 195.40 L 278.80 194.20 L 277.60 192.10 L 277.40 183.20 L 277.60 181.90 L 278.80 179.90 L 280.80 178.70 L 282.10 178.50 L 330.20 178.70 L 332.20 179.90 L 333.40 181.90 L 333.60 190.90 L 333.40 192.10 L 332.20 194.20 L 330.20 195.40 L 328.90 195.60 Z" fill="#baddfe" fill-rule="nonzero" group-id="3,8" id="Path" node-id="21" stroke="none" target-height="17.100006" target-width="56.200012" target-x="277.4" target-y="178.5"></path><path d="M 425.50 195.60 L 344.30 195.40 L 342.30 194.20 L 341.10 192.10 L 340.90 183.20 L 341.10 181.90 L 342.30 179.90 L 344.30 178.70 L 345.60 178.50 L 426.70 178.70 L 428.80 179.90 L 430.00 181.90 L 430.20 190.90 L 430.00 192.10 L 428.80 194.20 L 426.70 195.40 L 425.50 195.60 Z" fill="#baddfe" fill-rule="nonzero" group-id="3,8" id="Path" node-id="22" stroke="none" target-height="17.100006" target-width="89.30002" target-x="340.9" target-y="178.5"></path><path d="M 427.50 211.20 L 280.10 211.20 L 279.00 210.90 L 277.60 209.50 L 277.40 208.50 L 277.60 207.40 L 279.00 206.00 L 280.10 205.80 L 427.50 205.80 L 428.50 206.00 L 429.40 206.50 L 429.90 207.40 L 430.20 208.50 L 429.90 209.50 L 429.40 210.40 L 428.50 210.90 L 427.50 211.20 Z" fill="#dae7ff" fill-rule="nonzero" group-id="3,8" id="Path" node-id="23" stroke="none" target-height="5.399994" target-width="152.80002" target-x="277.4" target-y="205.8"></path><path d="M 427.50 226.50 L 280.10 226.50 L 279.00 226.20 L 277.60 224.80 L 277.40 223.80 L 277.60 222.70 L 279.00 221.30 L 280.10 221.10 L 427.50 221.10 L 428.50 221.30 L 429.40 221.80 L 429.90 222.70 L 430.20 223.80 L 429.90 224.80 L 429.40 225.70 L 428.50 226.20 L 427.50 226.50 Z" fill="#dae7ff" fill-rule="nonzero" group-id="3,8" id="Path" node-id="24" stroke="none" target-height="5.399994" target-width="152.80002" target-x="277.4" target-y="221.1"></path><path d="M 427.50 241.80 L 280.10 241.80 L 279.00 241.50 L 277.60 240.10 L 277.40 239.10 L 277.60 238.00 L 279.00 236.60 L 280.10 236.40 L 427.50 236.40 L 428.50 236.60 L 429.40 237.10 L 429.90 238.00 L 430.20 239.10 L 429.90 240.10 L 429.40 241.00 L 428.50 241.50 L 427.50 241.80 Z" fill="#dae7ff" fill-rule="nonzero" group-id="3,8" id="Path" node-id="25" stroke="none" target-height="5.400009" target-width="152.80002" target-x="277.4" target-y="236.4"></path><path d="M 427.50 257.10 L 280.10 257.10 L 279.00 256.80 L 277.60 255.40 L 277.40 254.40 L 277.60 253.30 L 279.00 251.90 L 280.10 251.70 L 427.50 251.70 L 428.50 251.90 L 429.40 252.40 L 429.90 253.30 L 430.20 254.40 L 429.90 255.40 L 429.40 256.30 L 428.50 256.80 L 427.50 257.10 Z" fill="#dae7ff" fill-rule="nonzero" group-id="3,8" id="Path" node-id="26" stroke="none" target-height="5.400009" target-width="152.80002" target-x="277.4" target-y="251.7"></path></g></g><g node-id="110"><g node-id="115"><g node-id="117"><path d="M 92.30 218.00 L 89.90 218.40 L 88.30 219.20 L 87.30 220.10 L 86.70 221.30 L 86.20 224.30 L 87.50 233.10 L 86.70 237.80 L 84.80 243.80 L 95.00 245.50 L 95.70 239.00 L 96.40 238.20 L 97.40 237.80 L 99.90 237.50 L 101.10 235.60 L 101.70 232.80 L 102.10 232.30 L 103.80 231.80 L 104.10 230.80 L 102.40 227.70 L 101.60 223.20 L 100.30 220.90 L 98.80 219.60 L 96.90 218.60 L 94.70 218.00 L 92.30 218.00 Z" fill="#f1b282" fill-rule="nonzero" group-id="4,9,11" node-id="103" stroke="none" target-height="27.5" target-width="19.299995" target-x="84.8" target-y="218"></path><path d="M 98.40 237.70 L 97.00 238.00 L 96.00 238.50 L 95.00 236.30 L 98.40 237.70 Z" fill="#cd916a" fill-rule="nonzero" group-id="4,9,11" node-id="105" stroke="none" target-height="2.199997" target-width="3.4000015" target-x="95" target-y="236.3"></path></g><path d="M 94.60 213.70 L 89.80 214.20 L 88.00 214.80 L 85.70 216.30 L 83.90 217.90 L 80.00 223.30 L 78.10 225.20 L 76.10 225.60 L 74.20 225.20 L 72.70 224.50 L 73.50 227.10 L 74.90 229.20 L 72.20 229.20 L 73.50 233.60 L 74.50 235.30 L 76.00 236.80 L 78.60 238.30 L 80.50 238.60 L 83.10 238.70 L 85.00 238.20 L 86.60 237.40 L 87.70 236.40 L 89.20 233.90 L 91.90 233.80 L 93.20 233.20 L 94.40 232.30 L 95.60 230.10 L 97.10 222.10 L 101.00 221.80 L 102.90 220.30 L 103.30 219.40 L 103.30 218.30 L 102.20 216.30 L 99.30 214.50 L 94.60 213.70 Z" fill="#0b224e" fill-rule="nonzero" group-id="4,9" id="Path" node-id="32" stroke="none" target-height="25" target-width="31.100006" target-x="72.2" target-y="213.7"></path></g><path d="M 54.00 368.90 L 54.90 365.40 L 57.40 359.40 L 51.00 357.80 L 48.00 368.10 L 48.70 369.70 L 52.70 375.20 L 56.20 374.90 L 54.80 372.50 L 54.00 368.90 Z" fill="#f1b282" fill-rule="nonzero" group-id="4" id="Path" node-id="33" stroke="none" target-height="17.400024" target-width="9.400002" target-x="48" target-y="357.8"></path><path d="M 101.60 371.70 L 101.10 370.10 L 100.60 366.70 L 100.40 357.80 L 92.40 357.80 L 95.90 373.70 L 97.30 374.90 L 103.40 377.90 L 106.30 375.90 L 103.90 374.50 L 101.60 371.70 Z" fill="#f1b282" fill-rule="nonzero" group-id="4" id="Path" node-id="34" stroke="none" target-height="20.100006" target-width="13.900002" target-x="92.4" target-y="357.8"></path><path d="M 59.20 379.20 L 58.20 379.60 L 56.20 379.20 L 48.20 374.90 L 47.70 373.80 L 47.90 370.90 L 47.60 369.50 L 46.40 370.20 L 44.50 373.00 L 43.00 372.20 L 45.40 368.40 L 46.30 364.50 L 48.20 362.60 L 49.70 362.10 L 50.10 367.30 L 50.90 369.90 L 52.00 371.40 L 53.30 372.60 L 55.30 373.70 L 56.70 375.10 L 58.50 377.50 L 59.20 379.20 Z" fill="#0b224e" fill-rule="nonzero" group-id="4" id="Path" node-id="35" stroke="none" target-height="17.5" target-width="16.2" target-x="43" target-y="362.1"></path><path d="M 111.00 378.40 L 110.30 379.10 L 108.30 379.80 L 99.20 379.70 L 98.20 379.00 L 97.10 376.30 L 96.10 375.20 L 95.40 376.40 L 95.10 379.80 L 93.40 379.80 L 93.70 375.20 L 92.70 371.40 L 93.40 368.80 L 94.60 367.70 L 97.30 372.10 L 99.30 374.00 L 100.90 374.80 L 102.70 375.30 L 104.90 375.30 L 106.80 375.90 L 109.60 377.20 L 111.00 378.40 Z" fill="#0b224e" fill-rule="nonzero" group-id="4" id="Path" node-id="36" stroke="none" target-height="12.099976" target-width="18.300003" target-x="92.7" target-y="367.7"></path><path d="M 83.90 281.80 L 89.20 291.10 L 96.20 305.30 L 99.90 315.30 L 100.90 319.70 L 101.50 324.10 L 101.90 335.20 L 101.50 352.30 L 100.70 363.80 L 93.20 363.60 L 90.90 353.00 L 88.60 338.20 L 88.30 329.50 L 88.70 326.60 L 76.60 307.60 L 73.30 300.50 L 72.60 297.50 L 72.80 296.10 L 73.60 294.00 L 76.40 289.40 L 80.10 284.80 L 83.90 281.80 Z" fill="#0b224e" fill-rule="nonzero" group-id="4" id="Path" node-id="37" stroke="none" target-height="82" target-width="29.300003" target-x="72.6" target-y="281.8"></path><path d="M 65.50 279.60 L 63.50 283.10 L 62.30 286.20 L 61.30 289.60 L 60.50 294.30 L 60.10 299.80 L 59.90 319.20 L 59.60 323.50 L 57.20 327.50 L 54.60 335.00 L 52.20 345.10 L 49.80 360.60 L 56.40 362.40 L 67.30 339.90 L 72.70 327.90 L 76.80 316.80 L 78.50 311.00 L 80.00 304.90 L 81.20 298.20 L 81.80 289.20 L 81.60 284.60 L 78.80 282.70 L 74.30 280.60 L 71.60 279.80 L 68.60 279.40 L 65.50 279.60 Z" fill="#102b5e" fill-rule="nonzero" group-id="4" id="Path" node-id="38" stroke="none" target-height="83" target-width="32.000004" target-x="49.8" target-y="279.4"></path><path d="M 109.70 257.90 L 111.90 261.30 L 114.10 263.70 L 116.40 265.20 L 124.70 265.60 L 132.60 265.20 L 133.30 264.60 L 134.00 263.10 L 135.70 255.10 L 136.40 253.70 L 137.00 253.20 L 137.50 253.50 L 138.30 256.30 L 138.70 263.20 L 138.30 267.50 L 137.30 270.20 L 135.40 271.60 L 132.20 271.90 L 123.80 273.50 L 117.50 274.30 L 111.90 274.00 L 109.70 273.20 L 107.60 271.90 L 104.00 268.50 L 100.70 263.90 L 104.70 259.80 L 107.90 258.20 L 109.70 257.90 Z" fill="#f1b282" fill-rule="nonzero" group-id="4" id="Path" node-id="39" stroke="none" target-height="21.09999" target-width="38" target-x="100.7" target-y="253.2"></path><path d="M 106.00 256.70 L 105.50 257.80 L 102.90 260.40 L 102.20 261.60 L 101.10 266.20 L 99.50 268.50 L 97.50 269.70 L 92.60 270.70 L 92.00 271.00 L 91.00 272.40 L 89.90 275.90 L 89.00 288.20 L 88.20 289.10 L 85.60 288.60 L 78.10 285.60 L 74.80 284.80 L 66.10 285.70 L 63.70 285.70 L 61.80 285.20 L 60.90 284.70 L 60.30 283.80 L 60.10 282.60 L 61.00 280.80 L 62.10 279.50 L 69.00 273.30 L 72.60 269.00 L 74.40 265.20 L 76.70 255.30 L 78.00 250.90 L 79.50 247.20 L 80.70 245.00 L 82.20 243.30 L 83.90 241.90 L 85.90 241.00 L 88.40 240.60 L 91.50 240.60 L 93.80 241.10 L 97.80 242.90 L 100.50 244.90 L 102.70 247.20 L 104.40 249.80 L 106.10 254.00 L 106.00 256.70 Z" fill="#1b90fb" fill-rule="nonzero" group-id="4" id="Path" node-id="40" stroke="none" target-height="48.5" target-width="46" target-x="60.1" target-y="240.6"></path><path d="M 101.10 266.20 L 99.50 268.50 L 97.50 269.70 L 95.00 264.60 L 93.50 260.20 L 92.40 255.90 L 91.70 250.20 L 101.10 266.20 Z" fill="#1277d7" fill-rule="nonzero" group-id="4" id="Path" node-id="41" stroke="none" target-height="19.500015" target-width="9.400002" target-x="91.7" target-y="250.2"></path><path d="M 99.60 244.90 L 101.40 245.60 L 102.60 246.60 L 111.20 258.00 L 110.40 259.20 L 107.50 261.90 L 103.90 264.80 L 101.30 266.50 L 100.70 266.60 L 99.20 265.70 L 98.00 264.40 L 94.20 258.60 L 92.60 255.30 L 91.40 252.30 L 91.10 250.60 L 91.60 247.90 L 93.40 246.10 L 96.80 245.10 L 99.60 244.90 Z" fill="#1b90fb" fill-rule="nonzero" group-id="4" id="Path" node-id="42" stroke="none" target-height="21.700012" target-width="20.099998" target-x="91.1" target-y="244.9"></path></g><g node-id="111"><path d="M 357.00 342.00 L 317.10 276.90 L 316.80 275.90 L 316.80 274.90 L 317.30 273.90 L 318.00 273.20 L 319.10 272.80 L 320.10 272.90 L 321.00 273.30 L 321.80 274.10 L 361.60 339.20 L 362.00 340.20 L 361.90 341.30 L 361.50 342.20 L 360.70 342.90 L 359.70 343.30 L 358.70 343.30 L 357.70 342.80 L 357.00 342.00 Z" fill="#dae7ff" fill-rule="nonzero" group-id="5" id="Path" node-id="44" stroke="none" target-height="70.5" target-width="45.200012" target-x="316.8" target-y="272.8"></path><g node-id="116"><g node-id="118"><path d="M 403.10 297.20 L 397.90 292.80 L 395.90 290.00 L 395.80 281.20 L 394.80 277.20 L 393.50 275.40 L 390.70 274.70 L 388.20 274.50 L 383.40 274.90 L 381.10 276.00 L 380.10 277.90 L 380.10 281.30 L 378.80 285.30 L 380.90 287.40 L 381.40 290.40 L 382.10 291.40 L 382.80 291.80 L 386.90 292.70 L 387.40 293.10 L 387.60 294.30 L 387.00 298.60 L 385.60 302.00 L 386.10 310.30 L 388.80 310.70 L 390.70 310.70 L 392.70 310.30 L 396.40 308.40 L 399.40 305.20 L 400.70 303.20 L 403.10 297.20 Z" fill="#f1b282" fill-rule="nonzero" group-id="5,10,12" id="Path" node-id="47" stroke="none" target-height="36.200012" target-width="24.300018" target-x="378.8" target-y="274.5"></path><path d="M 402.60 277.80 L 402.30 276.60 L 401.60 275.60 L 402.30 274.50 L 402.50 273.30 L 402.20 272.00 L 401.40 270.90 L 400.40 270.30 L 399.00 270.00 L 398.60 268.90 L 397.90 268.00 L 396.90 267.50 L 395.60 267.30 L 394.00 267.80 L 392.80 266.20 L 390.90 265.70 L 389.80 265.90 L 388.30 267.10 L 386.60 266.00 L 385.60 265.80 L 383.50 266.60 L 382.40 268.50 L 381.00 268.80 L 380.00 269.50 L 379.30 270.60 L 378.30 274.90 L 378.50 275.80 L 379.10 276.40 L 380.10 276.80 L 386.10 277.20 L 388.50 277.80 L 390.20 279.70 L 392.10 285.30 L 392.40 285.10 L 393.50 282.90 L 394.30 282.70 L 394.90 282.90 L 395.20 283.80 L 395.20 288.60 L 395.50 289.40 L 396.10 289.70 L 396.90 289.40 L 397.90 288.40 L 398.80 287.10 L 400.40 283.20 L 401.00 280.80 L 402.20 279.60 L 402.60 277.80 Z" fill="#0b224e" fill-rule="nonzero" group-id="5,10,12" id="Path" node-id="48" stroke="none" target-height="24" target-width="24.300018" target-x="378.3" target-y="265.7"></path></g><path d="M 375.90 312.30 L 369.60 318.90 L 350.10 312.70 L 345.10 309.00 L 344.50 309.20 L 344.20 309.70 L 344.70 312.20 L 344.50 312.90 L 343.60 313.40 L 339.30 312.40 L 337.80 312.60 L 337.50 313.30 L 337.60 314.50 L 338.30 315.90 L 340.40 318.30 L 342.50 319.60 L 344.20 319.80 L 349.30 319.40 L 366.90 326.90 L 371.10 327.80 L 374.20 326.80 L 379.30 323.60 L 382.10 321.30 L 385.10 318.20 L 386.50 315.70 L 386.60 314.80 L 386.10 313.50 L 385.10 312.50 L 383.60 311.80 L 381.90 311.40 L 378.40 311.30 L 375.90 312.30 Z" fill="#f1b282" fill-rule="nonzero" group-id="5,10" id="Path" node-id="49" stroke="none" target-height="18.799988" target-width="49.100006" target-x="337.5" target-y="309"></path><path d="M 430.30 356.90 L 423.00 359.00 L 421.00 367.70 L 428.90 365.60 L 429.70 364.80 L 430.70 362.00 L 430.80 359.90 L 430.30 356.90 Z" fill="#f1b282" fill-rule="nonzero" group-id="5,10" id="Path" node-id="50" stroke="none" target-height="10.800018" target-width="9.799988" target-x="421" target-y="356.9"></path><path d="M 429.30 357.20 L 429.70 356.70 L 430.50 356.40 L 431.70 356.50 L 436.50 358.20 L 437.20 359.40 L 435.90 363.80 L 431.50 375.30 L 430.70 376.60 L 429.30 377.70 L 427.70 378.60 L 425.50 379.30 L 425.00 379.00 L 424.80 377.80 L 426.20 374.60 L 426.70 372.40 L 426.00 365.50 L 427.70 363.40 L 428.60 361.70 L 429.30 357.20 Z" fill="#0b224e" fill-rule="nonzero" group-id="5,10" id="Path" node-id="51" stroke="none" target-height="22.899994" target-width="12.400024" target-x="424.8" target-y="356.4"></path><path d="M 370.30 337.40 L 368.70 338.30 L 367.80 339.60 L 367.30 341.20 L 367.50 345.00 L 368.20 347.40 L 369.60 350.90 L 373.60 358.10 L 380.80 368.30 L 388.90 363.70 L 385.60 350.80 L 390.00 352.10 L 392.70 352.50 L 395.70 352.70 L 399.10 352.00 L 402.30 349.50 L 403.70 347.60 L 406.00 342.40 L 392.30 338.20 L 382.70 336.50 L 375.10 336.30 L 370.30 337.40 Z" fill="#0b224e" fill-rule="nonzero" group-id="5,10" id="Path" node-id="52" stroke="none" target-height="32" target-width="38.700012" target-x="367.3" target-y="336.3"></path><path d="M 425.40 356.90 L 424.50 356.80 L 422.30 357.00 L 416.50 358.40 L 409.10 360.80 L 412.60 357.80 L 417.40 352.40 L 419.70 347.80 L 420.30 345.30 L 420.40 342.80 L 419.90 340.20 L 418.20 337.00 L 417.40 336.20 L 415.80 335.40 L 412.90 335.60 L 408.80 337.50 L 401.50 342.20 L 392.30 349.50 L 382.90 358.00 L 378.80 362.20 L 375.20 366.60 L 372.80 370.20 L 371.60 372.80 L 371.10 374.80 L 371.30 376.40 L 371.80 377.40 L 373.90 378.90 L 375.60 379.50 L 381.00 380.00 L 384.50 379.90 L 389.90 379.40 L 401.30 377.40 L 418.20 372.90 L 419.10 372.60 L 420.60 370.70 L 422.70 367.10 L 424.70 362.90 L 425.90 359.20 L 425.90 357.70 L 425.40 356.90 Z" fill="#102b5e" fill-rule="nonzero" group-id="5,10" id="Path" node-id="53" stroke="none" target-height="44.600006" target-width="54.799988" target-x="371.1" target-y="335.4"></path><path d="M 409.30 360.50 L 392.60 371.60 L 403.70 369.70 L 408.70 368.40 L 412.10 367.10 L 413.70 365.70 L 414.80 363.90 L 416.60 358.80 L 409.30 360.50 Z" fill="#0b224e" fill-rule="nonzero" group-id="5,10" id="Path" node-id="54" stroke="none" target-height="12.800018" target-width="24" target-x="392.6" target-y="358.8"></path><path d="M 407.40 343.00 L 403.70 343.40 L 394.70 345.50 L 393.50 345.30 L 391.90 344.20 L 391.50 342.40 L 391.60 335.50 L 390.80 331.70 L 388.40 326.20 L 386.30 322.50 L 384.90 318.80 L 381.30 312.60 L 380.20 310.00 L 379.60 307.10 L 379.50 305.20 L 379.90 303.40 L 380.80 301.40 L 382.10 299.70 L 384.20 298.00 L 391.80 294.20 L 394.20 293.30 L 396.70 293.00 L 398.80 293.20 L 401.00 294.10 L 403.70 296.50 L 405.10 298.40 L 407.60 303.40 L 411.30 314.40 L 413.90 320.50 L 416.70 326.10 L 423.40 337.80 L 424.80 340.50 L 425.30 342.20 L 425.20 343.20 L 424.70 343.80 L 421.90 344.30 L 407.40 343.00 Z" fill="#ffcb01" fill-rule="nonzero" group-id="5,10" id="Path" node-id="55" stroke="none" target-height="52.5" target-width="45.799988" target-x="379.5" target-y="293"></path><path d="M 393.20 304.00 L 393.30 308.30 L 392.00 313.40 L 389.40 318.40 L 386.30 322.50 L 384.90 318.80 L 383.90 316.90 L 384.10 314.40 L 385.90 311.30 L 388.90 307.90 L 393.20 304.00 Z" fill="#f0b701" fill-rule="nonzero" group-id="5,10" id="Path" node-id="56" stroke="none" target-height="18.5" target-width="9.399994" target-x="383.9" target-y="304"></path><path d="M 381.90 300.00 L 379.10 305.10 L 376.60 309.20 L 373.60 312.90 L 373.60 313.50 L 375.10 315.00 L 382.00 319.00 L 383.40 320.60 L 384.00 320.70 L 384.80 320.40 L 387.50 317.30 L 391.40 310.20 L 393.10 304.30 L 393.50 300.00 L 393.20 298.10 L 392.40 296.90 L 391.60 296.30 L 390.50 296.10 L 387.20 296.90 L 381.90 300.00 Z" fill="#ffcb01" fill-rule="nonzero" group-id="5,10" id="Path" node-id="57" stroke="none" target-height="24.600006" target-width="19.899994" target-x="373.6" target-y="296.1"></path><path d="M 385.60 350.80 L 382.60 349.40 L 385.10 353.60 L 387.10 356.30 L 385.60 350.80 Z" fill="#102b5e" fill-rule="nonzero" group-id="5,10" id="Path" node-id="58" stroke="none" target-height="6.899994" target-width="4.5" target-x="382.6" target-y="349.4"></path></g></g><g node-id="112"><path d="M 489.00 77.10 L 488.80 73.40 L 487.30 66.80 L 486.00 63.60 L 483.80 59.70 L 481.00 56.20 L 477.80 53.10 L 472.30 49.40 L 465.90 47.00 L 462.50 46.30 L 459.10 46.00 L 455.40 46.10 L 451.60 46.60 L 447.60 47.60 L 443.90 49.20 L 440.40 51.30 L 437.20 53.70 L 434.40 56.60 L 431.90 59.80 L 429.90 63.30 L 428.30 67.10 L 427.30 71.10 L 426.80 75.40 L 426.80 79.40 L 427.40 83.30 L 428.40 87.10 L 429.90 90.70 L 434.30 98.40 L 436.40 102.90 L 438.00 107.70 L 439.20 112.50 L 439.90 117.50 L 440.10 123.70 L 475.70 123.80 L 475.90 118.60 L 476.50 113.50 L 477.60 108.40 L 479.20 103.40 L 481.30 98.70 L 486.60 89.00 L 488.40 83.30 L 489.00 77.10 Z" fill="#ffcb01" fill-rule="nonzero" group-id="6" id="Path" node-id="60" stroke="none" target-height="77.8" target-width="62.200012" target-x="426.8" target-y="46"></path><path d="M 451.60 46.60 L 450.90 46.70 L 454.40 47.70 L 460.80 50.60 L 466.30 54.90 L 470.60 60.20 L 473.80 66.40 L 474.80 69.80 L 475.40 73.30 L 475.70 77.10 L 475.10 83.20 L 473.30 89.00 L 467.90 98.70 L 465.80 103.40 L 464.30 108.30 L 463.20 113.40 L 462.60 118.50 L 462.30 123.70 L 475.70 123.80 L 475.90 118.60 L 476.50 113.50 L 477.60 108.40 L 479.20 103.40 L 481.30 98.70 L 486.60 89.00 L 488.40 83.20 L 489.00 77.10 L 488.80 73.40 L 487.30 66.80 L 486.00 63.60 L 483.80 59.70 L 481.00 56.20 L 477.80 53.10 L 472.30 49.40 L 465.90 47.00 L 462.50 46.30 L 459.10 46.00 L 455.40 46.10 L 451.60 46.60 Z" fill="#f0b701" fill-rule="nonzero" group-id="6" id="Path" node-id="61" stroke="none" target-height="77.8" target-width="38.100006" target-x="450.9" target-y="46"></path><path d="M 466.80 152.40 L 449.00 152.40 L 444.50 143.50 L 471.20 143.50 Z" fill="#0b224e" fill-rule="nonzero" group-id="6" id="Path" node-id="62" stroke="none" target-height="8.899994" target-width="26.700012" target-x="444.5" target-y="143.5"></path><path d="M 472.90 143.70 L 442.90 143.70 L 440.90 143.50 L 439.20 142.70 L 437.80 141.60 L 436.60 140.20 L 435.90 138.50 L 435.60 136.50 L 435.60 121.50 L 480.10 121.50 L 480.10 136.50 L 479.90 138.50 L 479.10 140.20 L 478.00 141.60 L 476.60 142.70 L 474.90 143.50 L 472.90 143.70 Z" fill="#102b5e" fill-rule="nonzero" group-id="6" id="Path" node-id="63" stroke="none" target-height="22.199997" target-width="44.5" target-x="435.6" target-y="121.5"></path><path d="M 471.20 143.50 L 447.30 149.00 L 444.50 143.50 Z" fill="#03193f" fill-rule="nonzero" group-id="6" id="Path" node-id="64" stroke="none" target-height="5.5" target-width="26.700012" target-x="444.5" target-y="143.5"></path></g><g node-id="113"><path d="M 522.90 278.20 L 529.70 277.20 L 535.50 275.80 L 540.30 274.10 L 544.30 272.00 L 547.40 269.90 L 550.00 267.60 L 552.20 264.90 L 554.10 262.00 L 555.70 258.70 L 557.00 254.40 L 558.00 249.50 L 558.50 243.80 L 558.40 237.30 L 557.10 227.60 L 556.00 223.40 L 553.80 217.50 L 551.20 212.10 L 542.40 197.30 L 538.20 189.00 L 537.00 185.40 L 531.30 163.50 L 527.50 152.10 L 523.40 143.10 L 521.50 140.00 L 520.10 138.30 L 518.80 137.40 L 517.80 137.00 L 516.40 137.10 L 515.20 137.60 L 514.00 138.70 L 512.50 140.80 L 506.30 154.00 L 504.30 157.20 L 501.90 160.00 L 499.40 162.20 L 491.90 167.50 L 489.80 169.40 L 487.50 172.60 L 486.70 174.60 L 485.90 179.40 L 485.90 182.80 L 487.00 190.30 L 489.20 199.70 L 489.70 203.40 L 489.20 209.50 L 487.50 214.50 L 485.60 217.80 L 478.60 227.60 L 476.40 231.30 L 474.50 235.80 L 473.60 239.00 L 472.70 247.10 L 472.90 252.00 L 473.60 256.30 L 474.80 260.00 L 476.50 263.30 L 478.60 266.40 L 481.10 269.10 L 484.00 271.50 L 487.30 273.50 L 490.90 275.10 L 498.90 277.50 L 503.50 278.20 L 509.50 278.70 L 516.00 278.70 L 522.90 278.20 Z" fill="#f3f9ff" fill-rule="nonzero" group-id="7" id="Path" node-id="66" stroke="none" target-height="141.70001" target-width="85.79999" target-x="472.7" target-y="137"></path><path d="M 515.60 328.70 L 517.70 316.80 L 519.40 304.40 L 520.50 292.40 L 520.80 283.70 L 520.70 274.90 L 520.20 266.20 L 519.20 257.40 L 518.10 251.60 L 523.90 244.00 L 528.10 236.00 L 530.90 227.50 L 532.10 218.70 L 531.10 224.10 L 529.50 229.30 L 527.30 234.40 L 524.50 239.30 L 521.30 243.90 L 517.50 248.30 L 515.30 235.40 L 514.60 228.90 L 514.10 213.70 L 515.00 199.40 L 517.10 188.10 L 515.70 193.70 L 513.80 205.00 L 513.10 213.60 L 513.00 227.90 L 508.20 223.60 L 504.30 218.80 L 502.00 214.70 L 500.20 210.60 L 499.00 206.40 L 499.80 210.60 L 501.10 214.80 L 503.10 219.10 L 507.20 225.20 L 509.80 227.90 L 513.10 230.60 L 513.70 237.30 L 516.40 257.30 L 517.20 273.00 L 517.10 281.20 L 516.30 293.40 L 514.90 305.50 L 512.90 317.40 L 510.60 328.70 L 515.60 328.70 Z" fill="#d0e7fe" fill-rule="nonzero" group-id="7" id="Path" node-id="67" stroke="none" target-height="140.6" target-width="33.099976" target-x="499" target-y="188.1"></path></g><path d="M 155.10 21.90 L 158.30 22.10 L 164.00 23.50 L 166.70 24.70 L 170.00 26.80 L 172.90 29.30 L 175.40 32.30 L 177.50 35.60 L 178.90 39.30 L 179.90 43.20 L 182.00 41.40 L 184.50 40.00 L 187.30 39.10 L 190.30 38.80 L 194.70 39.50 L 198.60 41.40 L 201.70 44.40 L 202.90 46.20 L 204.40 50.30 L 206.10 48.20 L 208.10 46.50 L 210.40 45.00 L 212.90 44.00 L 215.50 43.30 L 218.40 43.00 L 221.50 43.30 L 224.40 44.10 L 227.10 45.40 L 229.50 47.10 L 231.50 49.10 L 233.20 51.50 L 234.50 54.20 L 235.30 57.00 L 235.50 60.20 L 234.80 65.10 L 236.60 64.10 L 238.50 63.40 L 240.70 63.20 L 244.20 63.80 L 245.80 64.50 L 248.40 66.70 L 250.10 69.60 L 250.70 73.10 L 250.50 74.90 L 249.40 78.20 L 247.20 80.70 L 245.80 81.70 L 242.60 82.90 L 240.70 83.10 L 128.70 83.10 L 126.20 82.90 L 124.00 82.30 L 120.10 80.00 L 117.20 76.50 L 116.20 74.50 L 115.60 72.30 L 115.40 69.80 L 115.60 67.40 L 116.20 65.20 L 118.50 61.30 L 122.00 58.40 L 124.00 57.40 L 126.20 56.80 L 128.70 56.60 L 132.20 57.10 L 131.00 53.90 L 130.30 50.50 L 130.00 46.90 L 130.30 43.50 L 130.90 40.30 L 132.00 37.20 L 133.50 34.30 L 135.30 31.60 L 137.40 29.20 L 139.80 27.10 L 142.40 25.30 L 145.40 23.90 L 148.40 22.80 L 151.70 22.10 L 155.10 21.90 Z" fill="#f3f9ff" fill-rule="nonzero" id="cloud_3_" node-id="68" stroke="none" target-height="61.199997" target-width="135.29999" target-x="115.4" target-y="21.9"></path></svg>