<?xml version="1.0" standalone="no"?><!DOCTYPE svg PUBLIC "-//W3C//DTD SVG 1.1//EN" "http://www.w3.org/Graphics/SVG/1.1/DTD/svg11.dtd"><svg height="400" node-id="1" sillyvg="true" template-height="400" template-width="600" version="1.1" viewBox="0 0 600 400" width="600" xmlns="http://www.w3.org/2000/svg" xmlns:xlink="http://www.w3.org/1999/xlink"><defs node-id="55"></defs><path d="M 0.00 0.00 L 600.00 0.00 L 600.00 400.00 L 0.00 400.00 Z" fill="#ffffff" fill-rule="evenodd" node-id="58" stroke="none" target-height="400" target-width="600" target-x="0" target-y="0"></path><path d="M 137.50 343.60 L 122.60 342.80 L 109.40 340.50 L 103.30 338.90 L 95.80 336.30 L 88.80 333.30 L 82.30 329.80 L 76.30 325.90 L 70.50 321.50 L 65.20 316.70 L 60.40 311.60 L 55.90 306.00 L 51.80 300.20 L 48.10 294.00 L 44.80 287.50 L 41.80 280.70 L 39.20 273.70 L 35.20 259.00 L 33.60 251.30 L 32.20 240.90 L 31.30 230.30 L 31.00 219.40 L 31.30 209.30 L 32.00 199.90 L 33.00 191.20 L 34.50 182.90 L 36.40 175.20 L 38.70 167.40 L 41.40 160.10 L 44.40 153.50 L 47.60 147.50 L 51.10 142.00 L 55.10 136.60 L 59.30 131.80 L 63.70 127.60 L 68.30 124.00 L 73.10 121.00 L 78.20 118.30 L 83.50 116.30 L 89.00 114.80 L 94.60 114.00 L 100.50 113.60 L 106.00 113.90 L 110.60 114.70 L 114.50 115.80 L 118.20 117.40 L 121.40 119.30 L 124.20 121.40 L 128.00 125.10 L 138.30 137.40 L 143.40 142.60 L 149.60 147.10 L 153.40 149.00 L 157.80 150.60 L 162.30 151.70 L 167.70 152.50 L 174.20 152.80 L 178.50 152.50 L 182.60 151.70 L 186.60 150.50 L 190.50 148.80 L 195.50 146.00 L 200.60 142.50 L 205.60 138.30 L 215.20 128.90 L 242.50 97.90 L 250.50 89.60 L 256.10 84.30 L 261.90 79.30 L 267.90 74.80 L 277.40 68.90 L 287.50 64.30 L 292.80 62.60 L 298.40 61.40 L 304.20 60.60 L 310.30 60.30 L 315.90 60.60 L 320.60 61.20 L 324.70 62.10 L 328.20 63.30 L 331.70 65.00 L 334.60 66.90 L 337.20 69.00 L 339.40 71.30 L 341.90 74.80 L 344.00 78.70 L 345.70 82.90 L 347.60 89.60 L 349.00 96.70 L 352.20 118.20 L 353.70 124.90 L 355.10 129.10 L 356.80 133.00 L 358.90 136.50 L 360.80 138.80 L 362.90 141.00 L 365.50 142.80 L 368.40 144.50 L 371.40 145.70 L 375.00 146.60 L 379.20 147.20 L 384.00 147.50 L 395.00 147.20 L 438.40 145.10 L 448.50 145.20 L 455.10 145.70 L 461.40 146.50 L 467.30 147.70 L 475.90 150.40 L 483.50 154.30 L 487.00 156.80 L 490.20 159.60 L 493.20 162.90 L 496.10 166.70 L 498.50 170.70 L 500.60 175.20 L 502.60 180.40 L 504.20 186.40 L 505.40 192.20 L 506.30 198.90 L 506.90 206.40 L 507.40 221.70 L 509.00 234.40 L 510.30 240.40 L 512.70 248.30 L 515.40 255.80 L 518.60 263.00 L 522.20 270.00 L 530.00 282.80 L 536.40 291.80 L 542.70 299.90 L 559.90 320.60 L 566.30 329.50 L 567.90 332.50 L 568.70 334.90 L 569.00 336.80 L 568.80 338.50 L 568.20 340.00 L 567.10 341.30 L 563.70 343.40 L 557.00 345.20 L 545.40 346.30 L 536.60 346.40 L 328.80 345.20 L 137.50 343.60 Z" fill="#f3f9ff" fill-rule="nonzero" id="bg" node-id="6" stroke="none" target-height="286.1" target-width="538" target-x="31" target-y="60.3"></path><g node-id="60"><path d="M 350.70 302.50 L 349.10 302.00 L 347.40 301.90 L 345.90 302.20 L 336.10 308.20 L 330.90 310.20 L 328.80 310.50 L 326.00 310.20 L 323.40 309.60 L 321.00 308.50 L 318.60 307.00 L 314.60 303.20 L 312.90 300.80 L 311.40 298.00 L 309.90 294.20 L 309.00 289.90 L 308.60 285.30 L 309.00 280.70 L 309.90 276.50 L 311.40 272.60 L 314.60 267.50 L 318.60 263.60 L 321.00 262.10 L 323.40 261.10 L 326.00 260.40 L 328.80 260.20 L 330.90 260.40 L 336.10 262.50 L 344.40 267.70 L 345.90 268.40 L 347.40 268.80 L 349.10 268.70 L 350.60 268.10 L 352.00 267.20 L 353.00 265.90 L 353.70 264.40 L 353.90 262.80 L 353.90 224.90 L 316.10 224.90 L 314.50 224.70 L 313.00 224.10 L 311.70 223.00 L 310.70 221.70 L 310.20 220.10 L 310.10 218.50 L 310.40 216.90 L 316.40 207.10 L 318.40 201.90 L 318.70 199.80 L 318.50 197.00 L 317.80 194.40 L 316.80 192.00 L 315.30 189.60 L 311.40 185.60 L 309.00 183.90 L 306.20 182.40 L 302.40 180.90 L 298.20 180.00 L 293.50 179.70 L 288.90 180.00 L 284.70 180.90 L 280.80 182.40 L 278.10 183.90 L 273.60 187.50 L 270.30 192.00 L 269.30 194.40 L 268.60 197.00 L 268.40 199.80 L 268.70 201.90 L 269.50 204.50 L 272.30 209.90 L 276.70 216.90 L 277.00 218.50 L 276.90 220.10 L 276.40 221.70 L 275.40 223.00 L 274.10 224.10 L 272.60 224.70 L 271.00 224.90 L 233.20 224.90 L 233.20 325.60 L 233.50 329.20 L 234.40 332.60 L 235.90 335.70 L 237.90 338.60 L 240.30 341.00 L 243.10 343.00 L 246.30 344.40 L 249.60 345.40 L 253.30 345.70 L 353.90 345.70 L 353.90 307.90 L 353.70 306.20 L 353.00 304.70 L 352.00 303.50 L 350.70 302.50 Z" fill="#1b90fb" fill-rule="nonzero" group-id="1" id="Path" node-id="8" stroke="none" target-height="166.00002" target-width="120.7" target-x="233.2" target-y="179.7"></path><path d="M 357.20 147.40 L 358.80 147.90 L 360.40 148.00 L 362.00 147.70 L 371.80 141.70 L 377.00 139.70 L 379.10 139.40 L 381.80 139.70 L 384.40 140.30 L 386.90 141.40 L 389.20 142.80 L 393.30 146.70 L 395.00 149.10 L 396.50 151.90 L 397.90 155.70 L 398.90 159.90 L 399.20 164.60 L 398.90 169.20 L 397.90 173.40 L 396.50 177.30 L 393.30 182.40 L 389.20 186.30 L 386.90 187.80 L 384.40 188.80 L 381.80 189.50 L 379.10 189.70 L 377.00 189.40 L 371.80 187.40 L 363.50 182.20 L 362.00 181.40 L 360.40 181.10 L 358.80 181.20 L 357.20 181.80 L 355.80 182.70 L 354.80 184.00 L 354.20 185.50 L 353.90 187.10 L 353.90 224.90 L 391.70 224.90 L 393.40 225.20 L 394.90 225.80 L 396.10 226.90 L 397.10 228.20 L 397.70 229.80 L 397.80 231.40 L 397.40 233.00 L 391.50 242.80 L 389.40 248.00 L 389.10 250.10 L 389.40 252.90 L 390.00 255.40 L 391.10 257.90 L 392.60 260.30 L 396.50 264.30 L 398.90 266.00 L 401.60 267.50 L 405.50 269.00 L 409.70 269.90 L 414.30 270.20 L 418.90 269.90 L 423.10 269.00 L 427.00 267.50 L 429.80 266.00 L 434.20 262.40 L 437.50 257.90 L 438.60 255.40 L 439.20 252.90 L 439.50 250.10 L 439.20 248.00 L 438.40 245.40 L 435.60 240.00 L 431.20 233.00 L 430.80 231.40 L 430.90 229.80 L 431.50 228.20 L 432.50 226.90 L 433.70 225.80 L 435.20 225.20 L 436.90 224.90 L 474.70 224.90 L 474.70 124.30 L 474.30 120.60 L 473.40 117.30 L 471.90 114.20 L 469.90 111.30 L 467.50 108.90 L 464.70 106.90 L 461.60 105.40 L 458.20 104.50 L 454.60 104.20 L 353.90 104.20 L 353.90 142.00 L 354.20 143.60 L 354.80 145.10 L 355.80 146.40 L 357.20 147.40 Z" fill="#2ccd7f" fill-rule="nonzero" group-id="1" id="Path" node-id="9" stroke="none" target-height="166.00002" target-width="120.80002" target-x="353.9" target-y="104.2"></path><path d="M 431.50 228.20 L 430.90 229.80 L 430.80 231.40 L 431.20 233.00 L 437.10 242.80 L 439.20 248.00 L 439.50 250.10 L 439.20 252.90 L 438.60 255.40 L 437.50 257.90 L 436.00 260.30 L 432.20 264.30 L 429.80 266.00 L 427.00 267.50 L 423.10 269.00 L 418.90 269.90 L 414.30 270.20 L 409.70 269.90 L 405.50 269.00 L 401.60 267.50 L 396.50 264.30 L 392.60 260.30 L 391.10 257.90 L 390.00 255.40 L 389.40 252.90 L 389.10 250.10 L 389.40 248.00 L 391.50 242.80 L 396.60 234.50 L 397.40 233.00 L 397.80 231.40 L 397.70 229.80 L 397.10 228.20 L 396.10 226.90 L 394.90 225.80 L 393.40 225.20 L 391.70 224.90 L 353.90 224.90 L 353.90 262.80 L 353.70 264.40 L 353.00 265.90 L 352.00 267.20 L 350.60 268.10 L 349.10 268.70 L 347.40 268.80 L 345.90 268.40 L 336.10 262.50 L 330.90 260.40 L 328.80 260.20 L 326.00 260.40 L 323.40 261.10 L 321.00 262.10 L 318.60 263.60 L 314.60 267.50 L 312.90 269.90 L 311.40 272.60 L 309.90 276.50 L 309.00 280.70 L 308.60 285.30 L 309.00 289.90 L 309.90 294.20 L 311.40 298.00 L 312.90 300.80 L 316.50 305.30 L 321.00 308.50 L 323.40 309.60 L 326.00 310.20 L 328.80 310.50 L 330.90 310.20 L 333.50 309.40 L 338.90 306.60 L 345.90 302.20 L 347.40 301.90 L 349.10 302.00 L 350.70 302.50 L 352.00 303.50 L 353.00 304.70 L 353.70 306.20 L 353.90 307.90 L 353.90 345.70 L 454.60 345.70 L 458.20 345.40 L 461.60 344.40 L 464.70 343.00 L 467.50 341.00 L 469.90 338.60 L 471.90 335.70 L 473.40 332.60 L 474.30 329.20 L 474.70 325.60 L 474.70 224.90 L 436.90 224.90 L 435.20 225.20 L 433.70 225.80 L 432.50 226.80 L 431.50 228.20 Z" fill="#224380" fill-rule="nonzero" group-id="1" id="Path" node-id="10" stroke="none" target-height="120.80002" target-width="166.1" target-x="308.6" target-y="224.9"></path></g><g node-id="61"><path d="M 211.60 68.60 L 192.60 78.10 L 135.60 52.80 Z" fill="#9e95e3" fill-rule="nonzero" group-id="2" id="Path" node-id="12" stroke="none" target-height="25.3" target-width="76" target-x="135.6" target-y="52.8"></path><path d="M 189.40 93.90 L 192.60 78.10 L 135.60 52.80 Z" fill="#877cd8" fill-rule="nonzero" group-id="2" id="Path" node-id="13" stroke="none" target-height="41.100002" target-width="57" target-x="135.6" target-y="52.8"></path><path d="M 189.40 93.90 L 183.10 81.30 L 167.20 78.10 Z" fill="#7266d5" fill-rule="nonzero" group-id="2" id="Path" node-id="14" stroke="none" target-height="15.800003" target-width="22.199997" target-x="167.2" target-y="78.1"></path><path d="M 183.10 81.30 L 167.20 87.60 L 135.60 52.80 Z" fill="#9e95e3" fill-rule="nonzero" group-id="2" id="Path" node-id="15" stroke="none" target-height="34.8" target-width="47.5" target-x="135.6" target-y="52.8"></path></g><g node-id="62"><path d="M 522.00 281.70 L 523.90 283.60 L 525.90 284.90 L 527.90 285.80 L 532.20 286.40 L 534.40 286.20 L 537.60 285.50 L 543.60 282.90 L 546.20 281.40 L 551.40 277.50 L 547.30 276.80 L 544.20 275.70 L 542.00 274.10 L 545.90 273.70 L 551.10 272.40 L 553.60 271.20 L 556.50 268.70 L 557.50 267.00 L 552.70 266.70 L 549.50 265.50 L 553.40 263.90 L 554.90 263.00 L 556.10 261.90 L 556.90 260.50 L 557.20 258.90 L 556.80 256.70 L 555.30 253.30 L 554.00 252.00 L 552.40 251.00 L 550.40 250.30 L 549.20 252.40 L 548.10 253.70 L 546.70 254.90 L 544.80 255.90 L 544.50 252.50 L 544.90 251.40 L 545.80 250.50 L 542.70 250.10 L 540.60 250.40 L 537.70 251.60 L 536.00 252.70 L 533.20 256.10 L 531.80 258.80 L 531.80 255.50 L 532.80 250.50 L 526.70 254.70 L 521.90 259.50 L 519.80 262.50 L 518.20 265.80 L 517.60 268.10 L 517.40 270.60 L 517.70 273.30 L 518.40 275.80 L 519.80 278.60 L 522.00 281.70 Z" fill="#ffe994" fill-rule="nonzero" group-id="3" id="Path" node-id="17" stroke="none" target-height="36.299988" target-width="40.099976" target-x="517.4" target-y="250.1"></path><path d="M 488.90 280.90 L 490.30 282.70 L 491.30 284.80 L 491.80 287.10 L 491.70 289.50 L 491.10 291.90 L 489.80 294.30 L 488.10 296.50 L 485.70 298.50 L 482.40 300.30 L 479.80 301.30 L 473.00 302.60 L 468.70 302.80 L 468.00 300.00 L 468.20 296.30 L 468.90 294.50 L 469.70 293.50 L 472.50 291.80 L 470.10 290.50 L 467.90 290.60 L 468.10 288.80 L 469.30 286.80 L 470.70 285.90 L 472.40 285.30 L 475.20 285.20 L 473.00 282.80 L 471.10 281.90 L 475.20 279.40 L 477.20 278.60 L 481.70 277.80 L 485.70 278.70 L 488.90 280.90 Z" fill="#ffe994" fill-rule="nonzero" group-id="3" id="Path" node-id="18" stroke="none" target-height="25" target-width="23.899994" target-x="467.9" target-y="277.8"></path><path d="M 501.10 269.80 L 504.20 267.90 L 506.60 265.90 L 508.40 263.90 L 509.90 261.50 L 511.70 257.20 L 512.40 254.10 L 512.60 249.60 L 507.30 253.50 L 508.70 250.80 L 509.70 246.50 L 509.70 243.90 L 508.80 240.40 L 507.80 238.50 L 505.30 242.50 L 504.10 243.70 L 502.90 244.20 L 503.60 239.50 L 503.60 233.00 L 502.90 229.50 L 502.00 227.40 L 500.90 225.40 L 499.30 223.70 L 493.80 230.40 L 491.70 232.20 L 493.20 226.50 L 493.50 221.50 L 493.00 219.00 L 492.00 216.80 L 490.90 215.60 L 489.50 214.70 L 487.60 213.90 L 482.90 212.90 L 480.10 212.70 L 476.80 213.30 L 476.10 213.90 L 475.10 221.60 L 475.50 225.80 L 476.10 227.10 L 472.70 222.70 L 472.00 220.80 L 471.90 219.00 L 470.30 221.70 L 469.70 223.90 L 469.40 226.40 L 469.80 229.70 L 471.50 234.50 L 473.20 237.50 L 468.30 235.20 L 466.50 233.90 L 465.10 232.20 L 465.50 236.10 L 467.00 241.90 L 468.30 245.20 L 470.10 248.30 L 472.40 251.30 L 474.30 253.10 L 479.10 255.90 L 474.20 257.10 L 471.30 256.80 L 470.10 256.20 L 471.80 259.80 L 475.10 264.70 L 477.50 267.20 L 480.20 269.40 L 483.50 271.20 L 485.80 272.10 L 488.40 272.50 L 491.30 272.70 L 494.20 272.30 L 497.50 271.40 L 501.10 269.80 Z" fill="#ffe994" fill-rule="nonzero" group-id="3" id="Path" node-id="19" stroke="none" target-height="60.000015" target-width="47.49997" target-x="465.1" target-y="212.7"></path><path d="M 479.20 290.90 L 481.70 288.10 L 484.50 285.60 L 487.70 283.50 L 489.50 282.90 L 491.60 282.70 L 493.60 283.10 L 495.30 284.10 L 498.10 286.80 L 500.30 289.90 L 502.00 293.30 L 504.00 299.70 L 504.60 303.10 L 504.90 306.50 L 504.30 313.20 L 503.50 316.40 L 502.30 319.50 L 500.60 322.50 L 502.70 315.40 L 503.10 311.80 L 503.00 304.50 L 501.60 297.40 L 500.40 294.00 L 498.90 290.70 L 497.00 287.70 L 494.50 285.10 L 493.10 284.20 L 491.50 283.80 L 489.20 284.10 L 485.00 286.10 L 479.20 290.90 Z" fill="#ffcb01" fill-rule="nonzero" group-id="3" id="Path" node-id="20" stroke="none" target-height="39.799988" target-width="25.699982" target-x="479.2" target-y="282.7"></path><path d="M 482.90 230.40 L 482.50 233.30 L 482.70 239.10 L 483.70 243.30 L 485.30 247.30 L 487.40 251.10 L 495.70 261.20 L 500.90 268.30 L 503.10 272.10 L 504.90 276.20 L 507.30 284.70 L 508.00 289.10 L 508.50 295.70 L 508.60 302.30 L 508.00 311.10 L 506.90 319.80 L 505.20 328.40 L 506.30 315.30 L 506.80 302.30 L 506.30 289.30 L 504.80 280.80 L 503.50 276.70 L 501.90 272.70 L 499.80 268.90 L 494.90 261.90 L 489.30 255.10 L 486.70 251.50 L 484.70 247.60 L 483.60 244.90 L 482.30 239.10 L 482.30 233.30 L 482.90 230.40 Z" fill="#ffcb01" fill-rule="nonzero" group-id="3" id="Path" node-id="21" stroke="none" target-height="98" target-width="26.300018" target-x="482.3" target-y="230.4"></path><path d="M 542.30 262.70 L 541.10 265.30 L 539.40 267.60 L 537.40 269.60 L 532.70 272.90 L 525.10 276.80 L 520.40 279.70 L 518.40 281.50 L 516.70 283.60 L 515.40 286.00 L 513.90 291.20 L 513.50 295.30 L 513.70 303.70 L 515.20 316.30 L 513.50 310.90 L 512.40 305.30 L 511.70 299.60 L 511.70 295.30 L 512.20 290.90 L 512.90 288.10 L 514.00 285.40 L 515.50 282.80 L 517.50 280.50 L 519.70 278.70 L 524.60 275.80 L 532.30 272.20 L 537.10 269.20 L 539.10 267.30 L 542.30 262.70 Z" fill="#ffcb01" fill-rule="nonzero" group-id="3" id="Path" node-id="22" stroke="none" target-height="53.599976" target-width="30.599976" target-x="511.7" target-y="262.7"></path><path d="M 491.90 299.50 L 526.30 299.50 L 526.30 347.20 L 491.90 347.20 Z" fill="#dceefd" fill-rule="nonzero" group-id="3" id="Rectangle" node-id="23" stroke="none" target-height="47.700012" target-width="34.399994" target-x="491.9" target-y="299.5"></path></g><g node-id="63"><path d="M 197.20 157.40 L 195.90 154.70 L 195.20 148.10 L 194.60 145.90 L 193.70 143.80 L 192.60 142.60 L 190.80 141.70 L 186.50 140.90 L 182.70 141.00 L 181.00 141.60 L 181.30 142.20 L 182.10 142.70 L 185.90 143.90 L 187.30 144.70 L 188.40 145.80 L 189.10 147.50 L 189.10 148.50 L 188.70 149.30 L 187.60 149.90 L 186.90 149.30 L 184.70 145.50 L 184.10 145.30 L 183.70 145.70 L 183.20 148.80 L 183.40 150.90 L 184.00 152.80 L 185.10 154.40 L 190.50 160.00 L 192.90 164.00 L 193.90 164.10 L 195.70 162.40 L 197.10 159.70 L 197.40 158.40 L 197.20 157.40 Z" fill="#f1b282" fill-rule="nonzero" group-id="4" id="Path" node-id="25" stroke="none" target-height="23.200012" target-width="16.399994" target-x="181" target-y="140.9"></path><path d="M 200.20 157.10 L 199.50 156.60 L 198.70 156.80 L 189.90 162.80 L 189.40 164.00 L 203.40 185.30 L 209.40 193.30 L 212.50 196.80 L 217.10 201.10 L 220.00 202.50 L 228.70 189.20 L 210.40 170.00 L 206.10 165.10 L 200.20 157.10 Z" fill="#f0b701" fill-rule="nonzero" group-id="4" id="Path" node-id="26" stroke="none" target-height="45.899994" target-width="39.300003" target-x="189.4" target-y="156.6"></path><path d="M 235.60 183.60 L 233.50 184.30 L 227.60 184.70 L 215.50 183.40 L 213.80 183.80 L 212.30 184.70 L 211.00 185.90 L 210.20 187.50 L 209.80 189.10 L 209.80 190.90 L 210.30 192.50 L 227.50 228.80 L 191.20 245.90 L 189.50 246.40 L 187.80 246.50 L 186.10 246.10 L 184.60 245.20 L 183.30 243.90 L 182.50 242.40 L 182.10 240.80 L 182.20 239.00 L 183.40 228.70 L 183.00 222.80 L 182.30 220.60 L 180.80 218.10 L 179.00 215.90 L 176.90 214.00 L 174.40 212.50 L 171.80 211.20 L 165.70 209.80 L 159.20 209.80 L 152.50 211.30 L 149.10 212.70 L 143.00 216.50 L 138.10 221.20 L 134.70 226.40 L 133.50 229.30 L 132.80 232.20 L 132.40 235.00 L 132.50 237.90 L 133.10 240.70 L 134.10 243.40 L 135.30 245.30 L 137.30 247.40 L 142.40 251.40 L 149.80 256.10 L 150.80 257.40 L 151.40 259.00 L 151.60 260.80 L 151.30 262.50 L 150.60 264.10 L 149.40 265.40 L 148.00 266.40 L 111.70 283.50 L 66.10 187.00 L 65.10 184.30 L 64.10 178.80 L 64.10 176.10 L 64.80 172.50 L 66.00 169.10 L 67.80 165.90 L 71.50 161.80 L 73.70 160.10 L 76.30 158.60 L 172.70 113.00 L 189.90 149.30 L 190.80 150.80 L 192.10 151.90 L 193.70 152.60 L 195.40 152.90 L 197.20 152.80 L 198.80 152.10 L 200.20 151.10 L 204.90 143.70 L 208.80 138.60 L 210.90 136.60 L 212.80 135.40 L 215.60 134.40 L 218.30 133.80 L 221.20 133.70 L 224.10 134.10 L 226.90 134.80 L 232.50 137.50 L 237.60 141.70 L 241.80 147.20 L 243.50 150.40 L 245.90 157.20 L 246.60 163.90 L 245.90 170.10 L 245.00 173.10 L 243.80 175.70 L 242.20 178.20 L 240.30 180.30 L 238.10 182.20 L 235.60 183.60 Z" fill="#355aa2" fill-rule="nonzero" group-id="4" id="Path" node-id="27" stroke="none" target-height="170.5" target-width="182.5" target-x="64.1" target-y="113"></path><path d="M 211.30 331.60 L 210.00 337.30 L 210.70 338.80 L 213.00 340.20 L 215.30 340.60 L 217.60 340.60 L 220.60 339.70 L 222.10 338.50 L 223.50 331.10 L 221.60 330.90 L 211.30 331.60 Z" fill="#f1b282" fill-rule="nonzero" group-id="4" id="Path" node-id="28" stroke="none" target-height="9.700012" target-width="13.5" target-x="210" target-y="330.9"></path><path d="M 212.00 335.80 L 211.10 335.30 L 210.00 335.50 L 202.70 339.90 L 195.10 342.70 L 193.50 344.10 L 193.50 345.30 L 195.40 346.10 L 200.70 346.70 L 214.80 346.70 L 221.40 346.20 L 222.80 344.80 L 223.00 343.70 L 223.00 337.30 L 222.30 336.90 L 219.60 338.10 L 217.00 338.70 L 215.60 338.40 L 214.20 337.70 L 212.00 335.80 Z" fill="#0b224e" fill-rule="nonzero" group-id="4" id="Path" node-id="29" stroke="none" target-height="11.400024" target-width="29.5" target-x="193.5" target-y="335.3"></path><path d="M 256.60 312.10 L 260.90 316.10 L 262.50 316.30 L 264.90 315.00 L 266.50 313.30 L 267.70 311.30 L 268.40 308.20 L 268.20 306.40 L 262.50 301.30 L 261.40 302.90 L 256.60 312.10 Z" fill="#f1b282" fill-rule="nonzero" group-id="4" id="Path" node-id="30" stroke="none" target-height="15" target-width="11.799988" target-x="256.6" target-y="301.3"></path><path d="M 260.60 313.60 L 259.70 314.10 L 259.40 315.10 L 259.30 323.70 L 257.80 331.60 L 258.30 333.80 L 258.80 334.30 L 259.30 334.40 L 261.00 333.20 L 264.20 328.90 L 271.40 316.90 L 274.40 310.90 L 273.90 309.00 L 273.10 308.30 L 267.60 305.00 L 266.90 305.40 L 266.50 308.30 L 265.70 310.80 L 264.70 311.90 L 263.40 312.70 L 260.60 313.60 Z" fill="#0b224e" fill-rule="nonzero" group-id="4" id="Path" node-id="31" stroke="none" target-height="29.399994" target-width="16.600006" target-x="257.8" target-y="305"></path><path d="M 220.20 247.40 L 213.30 262.60 L 210.30 270.60 L 208.40 277.70 L 208.40 279.60 L 209.10 281.90 L 210.60 284.50 L 214.90 289.70 L 223.20 296.60 L 229.10 300.80 L 235.50 304.60 L 242.00 308.10 L 248.70 311.20 L 255.60 313.80 L 256.80 313.30 L 257.20 312.80 L 265.10 298.80 L 265.40 298.10 L 265.00 296.70 L 231.00 274.20 L 240.10 247.40 L 220.20 247.40 Z" fill="#0b224e" fill-rule="nonzero" group-id="4" id="Path" node-id="32" stroke="none" target-height="66.399994" target-width="57" target-x="208.4" target-y="247.4"></path><path d="M 250.20 242.30 L 250.00 246.20 L 247.80 256.40 L 239.10 284.80 L 237.90 289.70 L 236.00 301.10 L 233.80 310.50 L 227.30 334.30 L 226.50 335.40 L 225.20 335.60 L 211.20 332.80 L 209.80 331.80 L 209.60 330.10 L 214.00 314.40 L 217.80 299.40 L 218.20 292.90 L 218.90 264.90 L 220.10 253.70 L 221.10 249.30 L 222.00 247.10 L 223.10 245.30 L 224.60 243.90 L 228.20 241.90 L 230.40 241.30 L 233.70 240.70 L 240.50 240.70 L 250.20 242.30 Z" fill="#102b5e" fill-rule="nonzero" group-id="4" id="Path" node-id="33" stroke="none" target-height="94.90001" target-width="40.59999" target-x="209.6" target-y="240.7"></path><path d="M 194.80 239.80 L 186.70 238.90 L 182.00 239.50 L 179.60 240.20 L 178.90 240.60 L 178.70 240.90 L 179.00 241.10 L 185.80 242.30 L 184.80 243.40 L 182.80 244.50 L 177.70 245.20 L 176.20 245.90 L 177.60 246.70 L 181.00 247.80 L 184.90 248.50 L 186.80 248.50 L 197.90 245.10 L 194.80 239.80 Z" fill="#f1b282" fill-rule="nonzero" group-id="4" id="Path" node-id="34" stroke="none" target-height="9.600006" target-width="21.699997" target-x="176.2" target-y="238.9"></path><path d="M 222.80 186.60 L 221.20 181.10 L 220.10 180.70 L 217.50 181.60 L 215.60 181.30 L 213.10 176.70 L 211.30 177.00 L 210.70 175.80 L 210.50 169.20 L 211.30 163.70 L 212.20 161.70 L 213.30 160.50 L 217.20 158.30 L 221.80 157.40 L 224.00 157.50 L 226.40 158.60 L 227.20 159.50 L 228.00 161.10 L 230.20 169.60 L 232.10 183.00 L 222.80 186.60 Z" fill="#f1b282" fill-rule="nonzero" group-id="4" id="Path" node-id="35" stroke="none" target-height="29.200012" target-width="21.600006" target-x="210.5" target-y="157.4"></path><path d="M 223.40 169.70 L 222.90 169.70 L 222.60 169.30 L 222.20 165.10 L 221.80 164.30 L 221.20 163.80 L 214.00 165.20 L 211.70 165.40 L 209.70 165.10 L 208.60 164.50 L 207.70 163.50 L 207.00 162.10 L 206.80 158.80 L 208.10 155.50 L 211.10 152.50 L 214.50 150.50 L 219.00 149.40 L 221.10 149.20 L 226.20 149.50 L 228.70 150.20 L 231.90 152.00 L 233.30 153.30 L 235.50 156.80 L 236.40 159.30 L 237.20 165.10 L 236.50 169.30 L 235.00 172.30 L 233.50 173.80 L 232.10 174.70 L 230.80 175.00 L 230.20 174.90 L 229.90 174.30 L 229.20 170.30 L 228.20 168.90 L 226.60 168.40 L 223.40 169.70 Z" fill="#0b224e" fill-rule="nonzero" group-id="4" id="Path" node-id="36" stroke="none" target-height="25.800003" target-width="30.399994" target-x="206.8" target-y="149.2"></path><path d="M 232.10 180.10 L 230.10 180.10 L 226.60 181.10 L 221.90 183.10 L 221.50 183.50 L 221.00 187.50 L 221.10 189.70 L 221.50 190.40 L 222.00 190.50 L 224.70 189.20 L 234.00 183.40 L 234.20 183.00 L 233.40 181.50 L 232.10 180.10 Z" fill="#ffe270" fill-rule="nonzero" group-id="4" id="Path" node-id="37" stroke="none" target-height="10.399994" target-width="13.199997" target-x="221" target-y="180.1"></path><path d="M 216.10 253.30 L 216.60 254.30 L 217.30 254.90 L 218.40 255.30 L 220.30 255.30 L 223.00 254.90 L 234.90 251.00 L 240.30 249.70 L 243.20 249.50 L 251.60 249.80 L 254.00 249.50 L 256.00 248.60 L 257.00 247.80 L 257.80 246.40 L 258.50 244.50 L 258.70 242.40 L 258.50 240.10 L 256.30 233.90 L 250.40 222.20 L 248.80 218.40 L 248.00 215.20 L 246.30 205.30 L 243.20 195.70 L 241.20 191.50 L 239.00 188.00 L 237.10 185.70 L 235.20 184.00 L 234.00 183.50 L 232.70 183.60 L 228.80 185.30 L 221.60 189.90 L 220.00 193.90 L 218.90 197.70 L 218.30 201.30 L 217.90 206.60 L 218.20 211.40 L 220.10 224.10 L 220.40 227.40 L 220.00 231.20 L 216.40 244.80 L 215.90 247.70 L 215.80 250.50 L 216.10 253.30 Z" fill="#ffcb01" fill-rule="nonzero" group-id="4" id="Path" node-id="38" stroke="none" target-height="71.8" target-width="42.90001" target-x="215.8" target-y="183.5"></path><path d="M 217.10 241.90 L 226.90 239.00 L 234.10 236.00 L 239.00 232.90 L 241.20 230.20 L 241.80 228.50 L 242.10 224.40 L 240.80 217.60 L 238.30 210.90 L 234.90 204.00 L 235.90 209.50 L 236.30 218.50 L 235.50 224.80 L 234.60 227.70 L 233.30 230.10 L 231.90 232.10 L 228.90 234.30 L 225.00 235.30 L 219.10 235.20 L 217.10 241.90 Z" fill="#f0b701" fill-rule="nonzero" group-id="4" id="Path" node-id="39" stroke="none" target-height="37.899994" target-width="25" target-x="217.1" target-y="204"></path><path d="M 194.30 247.00 L 204.20 244.10 L 213.30 241.00 L 226.70 235.50 L 229.90 233.80 L 231.60 232.50 L 233.10 230.70 L 234.20 228.50 L 235.30 224.90 L 235.90 220.90 L 236.00 212.80 L 234.90 204.00 L 219.20 206.70 L 219.80 219.70 L 194.40 235.50 L 193.80 236.80 L 193.40 240.40 L 193.80 245.40 L 194.30 247.00 Z" fill="#ffcb01" fill-rule="nonzero" group-id="4" id="Path" node-id="40" stroke="none" target-height="43" target-width="42.600006" target-x="193.4" target-y="204"></path></g><g node-id="64"><path d="M 88.90 221.40 L 90.00 221.80 L 90.80 222.60 L 92.90 226.40 L 94.50 228.00 L 95.50 229.60 L 93.90 232.10 L 94.50 235.20 L 94.10 237.40 L 93.40 238.30 L 90.90 240.00 L 90.30 241.00 L 90.00 242.10 L 90.70 246.10 L 90.50 248.40 L 89.30 249.80 L 88.40 250.10 L 85.80 249.80 L 81.20 248.50 L 78.80 247.20 L 76.70 245.60 L 75.60 244.30 L 74.90 242.70 L 74.60 240.80 L 74.50 237.40 L 75.30 230.60 L 76.30 227.70 L 77.30 225.90 L 78.50 224.60 L 80.00 223.50 L 84.00 221.70 L 86.80 221.20 L 88.90 221.40 Z" fill="#f1b282" fill-rule="nonzero" group-id="5" id="Path" node-id="42" stroke="none" target-height="28.90001" target-width="21" target-x="74.5" target-y="221.2"></path><path d="M 116.00 346.60 L 110.30 346.60 L 108.70 342.30 L 108.20 338.80 L 108.30 334.80 L 108.80 334.10 L 109.70 333.50 L 112.30 332.90 L 115.00 333.00 L 116.50 333.40 L 118.20 336.20 L 120.60 338.00 L 131.90 342.00 L 132.70 342.50 L 133.60 343.90 L 133.60 345.50 L 132.50 346.50 L 131.80 346.70 L 120.60 346.90 L 116.00 344.70 L 116.00 346.60 Z" fill="#03193f" fill-rule="evenodd" group-id="5" id="Path" node-id="43" stroke="none" target-height="14" target-width="25.40001" target-x="108.2" target-y="332.9"></path><path d="M 117.70 293.50 L 115.80 291.70 L 113.70 290.50 L 110.20 289.10 L 100.70 286.30 L 84.90 283.20 L 76.20 282.20 L 72.80 282.10 L 71.20 282.30 L 68.70 283.30 L 66.90 284.50 L 65.50 285.90 L 64.50 287.40 L 63.90 289.20 L 63.70 291.30 L 64.00 292.70 L 64.90 294.30 L 66.70 296.20 L 68.80 297.80 L 75.00 301.00 L 78.50 302.20 L 87.20 304.30 L 91.80 304.80 L 102.10 304.90 L 103.60 320.00 L 105.70 334.00 L 106.90 337.10 L 109.70 337.60 L 117.10 336.90 L 120.80 335.70 L 121.20 335.10 L 120.90 319.90 L 120.30 309.40 L 119.30 299.90 L 118.50 295.90 L 117.70 293.50 Z" fill="#0b224e" fill-rule="nonzero" group-id="5" id="Path" node-id="44" stroke="none" target-height="55.5" target-width="57.499996" target-x="63.7" target-y="282.1"></path><path d="M 55.10 331.90 L 51.50 332.40 L 47.00 334.10 L 44.90 335.60 L 43.70 336.90 L 42.80 338.50 L 42.30 340.50 L 40.60 340.40 L 44.60 325.50 L 53.90 324.60 L 55.10 331.90 Z" fill="#f1b282" fill-rule="nonzero" group-id="5" id="Path" node-id="45" stroke="none" target-height="15.899994" target-width="14.5" target-x="40.6" target-y="324.6"></path><path d="M 43.20 324.90 L 48.30 325.20 L 47.00 330.20 L 47.00 331.60 L 47.50 332.50 L 49.10 334.20 L 47.20 335.40 L 45.30 337.20 L 37.80 345.80 L 37.20 346.30 L 35.70 346.80 L 34.20 346.30 L 33.50 345.10 L 33.60 344.40 L 36.10 334.70 L 39.20 331.00 L 37.50 330.60 L 38.90 325.30 L 43.20 324.90 Z" fill="#03193f" fill-rule="evenodd" group-id="5" id="Path" node-id="46" stroke="none" target-height="21.899994" target-width="15.599998" target-x="33.5" target-y="324.9"></path><path d="M 90.10 292.60 L 75.20 290.50 L 69.20 290.30 L 66.70 290.80 L 66.30 291.20 L 65.80 293.10 L 66.20 299.70 L 68.00 308.00 L 72.00 320.00 L 55.40 321.20 L 49.30 322.00 L 46.60 322.60 L 46.60 323.40 L 49.50 330.00 L 52.10 334.60 L 53.80 337.00 L 57.40 337.20 L 65.20 336.90 L 74.60 336.20 L 83.30 335.10 L 86.90 334.30 L 88.90 333.50 L 90.10 331.60 L 90.70 329.50 L 91.40 321.60 L 91.40 312.00 L 90.10 292.60 Z" fill="#102b5e" fill-rule="nonzero" group-id="5" id="Path" node-id="47" stroke="none" target-height="46.900024" target-width="44.800003" target-x="46.6" target-y="290.3"></path><path d="M 116.80 275.90 L 121.40 273.80 L 123.20 273.30 L 127.80 273.10 L 128.50 273.30 L 128.60 273.80 L 128.40 274.30 L 125.70 275.70 L 124.20 275.90 L 128.00 275.70 L 131.10 276.20 L 132.20 276.70 L 132.50 277.30 L 132.40 278.30 L 130.70 281.10 L 129.40 282.30 L 127.80 283.10 L 126.10 283.20 L 123.00 282.50 L 115.70 279.70 L 116.80 275.90 Z" fill="#f1b282" fill-rule="nonzero" group-id="5" id="Path" node-id="48" stroke="none" target-height="10.100006" target-width="16.800003" target-x="115.7" target-y="273.1"></path><path d="M 90.20 250.20 L 91.00 244.90 L 90.80 243.40 L 86.00 241.40 L 81.00 240.50 L 80.20 242.20 L 79.50 246.60 L 90.20 250.20 Z" fill="#1277d7" fill-rule="nonzero" group-id="5" id="Path" node-id="49" stroke="none" target-height="9.699997" target-width="11.5" target-x="79.5" target-y="240.5"></path><path d="M 117.60 274.40 L 112.30 273.30 L 109.10 272.20 L 104.60 269.60 L 102.10 267.40 L 99.80 264.90 L 97.40 261.70 L 94.90 257.40 L 91.80 250.90 L 89.70 247.80 L 85.80 245.20 L 83.00 243.80 L 81.00 243.40 L 78.60 245.40 L 75.40 250.10 L 73.80 254.60 L 72.80 259.50 L 72.10 261.80 L 64.70 277.40 L 63.10 282.10 L 62.40 285.30 L 62.10 288.50 L 62.30 291.70 L 63.50 295.10 L 64.30 295.90 L 66.40 296.80 L 69.70 296.50 L 76.10 295.40 L 77.60 295.60 L 85.50 299.50 L 87.30 300.10 L 89.40 300.00 L 90.20 299.50 L 90.80 298.30 L 91.40 295.30 L 92.00 287.00 L 92.10 277.20 L 94.60 279.20 L 97.70 281.00 L 101.40 282.60 L 105.30 283.70 L 110.00 284.40 L 115.70 284.60 L 116.40 284.20 L 117.10 283.00 L 118.00 279.70 L 118.30 276.30 L 118.00 275.00 L 117.60 274.40 Z" fill="#1b90fb" fill-rule="nonzero" group-id="5" id="Path" node-id="50" stroke="none" target-height="56.700012" target-width="56.200005" target-x="62.1" target-y="243.4"></path><path d="M 91.10 297.30 L 87.10 292.70 L 85.00 289.30 L 83.00 284.90 L 81.90 281.80 L 81.20 278.30 L 80.90 274.30 L 81.10 270.30 L 81.90 265.90 L 83.50 261.00 L 83.90 264.00 L 85.60 268.60 L 87.10 271.40 L 89.20 274.20 L 92.10 277.20 L 91.70 292.00 L 91.10 297.30 Z" fill="#1277d7" fill-rule="nonzero" group-id="5" id="Path" node-id="51" stroke="none" target-height="36.299988" target-width="11.199997" target-x="80.9" target-y="261"></path><path d="M 102.10 304.90 L 108.10 304.10 L 103.40 318.90 Z" fill="#03193f" fill-rule="nonzero" group-id="5" id="Path" node-id="52" stroke="none" target-height="14.799988" target-width="6" target-x="102.1" target-y="304.1"></path><path d="M 52.10 271.30 L 54.20 272.80 L 56.40 273.80 L 58.80 274.30 L 61.40 274.30 L 63.90 273.90 L 66.60 273.10 L 71.30 270.40 L 75.20 266.60 L 76.50 264.50 L 77.40 262.20 L 78.30 257.50 L 79.60 244.80 L 80.90 242.20 L 84.30 238.60 L 84.50 238.00 L 84.50 236.40 L 82.20 231.50 L 81.80 229.30 L 82.10 228.50 L 83.00 227.80 L 88.40 225.00 L 91.50 222.60 L 92.30 220.50 L 92.10 219.30 L 91.50 218.20 L 89.20 216.30 L 86.80 215.50 L 83.80 215.10 L 81.80 215.20 L 77.50 216.40 L 75.50 217.50 L 71.70 220.90 L 69.60 224.00 L 68.20 226.70 L 67.40 229.40 L 65.60 239.20 L 64.60 241.80 L 61.70 245.50 L 52.40 254.30 L 50.40 256.90 L 49.00 259.50 L 48.20 263.20 L 48.40 265.20 L 49.00 267.00 L 50.20 269.00 L 52.10 271.30 Z" fill="#0b224e" fill-rule="nonzero" group-id="5" id="Path" node-id="53" stroke="none" target-height="59.19998" target-width="44.100002" target-x="48.2" target-y="215.1"></path></g></svg>