<?xml version="1.0" standalone="no"?><!DOCTYPE svg PUBLIC "-//W3C//DTD SVG 1.1//EN" "http://www.w3.org/Graphics/SVG/1.1/DTD/svg11.dtd"><svg height="1024" node-id="1" sillyvg="true" template-height="1024" template-width="1024" version="1.1" viewBox="0 0 1024 1024" width="1024" xmlns="http://www.w3.org/2000/svg" xmlns:xlink="http://www.w3.org/1999/xlink"><defs node-id="63"><clipPath id="clip-客户" node-id="9"><path d="M 0.00 0.00 L 1024.00 0.00 L 1024.00 1024.00 L 0.00 1024.00 Z" fill="#000000" fill-rule="nonzero" node-id="66" stroke="none" target-height="1024" target-width="1024" target-x="0" target-y="0"></path></clipPath><clipPath id="clip-path" node-id="3"><path d="M 648.80 576.50 L 645.50 603.40 L 644.00 620.00 L 642.50 646.60 L 642.60 663.00 L 643.10 670.00 L 644.70 683.60 L 646.70 697.10 L 649.20 710.60 L 652.10 723.90 L 655.50 737.20 L 661.90 759.00 L 673.30 796.30 L 676.30 799.10 L 680.60 801.60 L 685.20 802.70 L 687.70 802.80 L 690.40 802.50 L 693.60 801.60 L 700.60 798.50 L 704.00 796.10 L 704.70 795.20 L 705.00 794.10 L 692.10 740.30 L 687.90 719.40 L 687.70 710.20 L 688.30 696.00 L 690.80 662.00 L 693.60 631.90 L 687.90 571.50 Z" fill="#000000" fill-rule="nonzero" id="路径_1386" node-id="4" stroke="none" target-height="231.29999" target-width="62.5" target-x="642.5" target-y="571.5"></path></clipPath><clipPath id="clip-path-2" node-id="5"><path d="M 735.20 573.70 L 738.60 587.60 L 740.20 598.10 L 740.70 609.10 L 739.30 626.40 L 739.50 641.60 L 740.80 658.10 L 742.00 666.30 L 744.70 679.00 L 747.70 687.40 L 753.30 699.20 L 760.80 714.20 L 777.90 745.60 L 785.40 758.10 L 792.10 767.70 L 792.80 769.50 L 793.00 771.30 L 792.40 774.80 L 789.90 778.90 L 788.00 781.10 L 784.10 784.40 L 781.50 786.00 L 775.80 788.20 L 773.90 788.50 L 771.90 788.50 L 770.10 788.10 L 768.40 787.10 L 764.20 782.30 L 756.80 772.70 L 738.00 747.10 L 729.70 735.10 L 723.90 726.40 L 718.80 716.90 L 704.70 686.20 L 691.60 654.90 L 687.60 644.50 L 680.80 621.70 L 670.00 582.50 L 720.80 574.80 Z" fill="#000000" fill-rule="nonzero" id="路径_1390" node-id="6" stroke="none" target-height="214.79999" target-width="123" target-x="670" target-y="573.7"></path></clipPath><clipPath id="clip-path-3" node-id="7"><path d="M 683.50 403.80 L 668.50 418.10 L 661.80 405.30 L 648.60 406.80 L 643.10 408.10 L 641.00 409.00 L 640.10 409.90 L 639.70 411.20 L 638.60 424.80 L 638.10 453.30 L 638.80 475.30 L 647.30 577.00 L 655.90 580.60 L 660.20 582.10 L 671.10 584.90 L 677.40 585.90 L 683.90 586.50 L 690.80 586.50 L 697.80 585.90 L 704.60 584.80 L 711.20 583.40 L 723.00 579.90 L 731.90 576.50 L 734.60 575.20 L 736.90 573.60 L 721.60 469.20 L 714.70 428.50 L 713.20 420.80 L 710.90 412.20 L 709.80 409.90 L 707.80 408.70 L 704.90 407.60 L 698.10 405.80 L 683.50 403.80 Z" fill="#000000" fill-rule="nonzero" id="路径_1383" node-id="8" stroke="none" target-height="182.70001" target-width="98.80005" target-x="638.1" target-y="403.8"></path></clipPath></defs><g clip-path="url(#clip-客户)" id="客户" node-id="11"><path d="M 0.00 0.00 L 1024.00 0.00 L 1024.00 1024.00 L 0.00 1024.00 Z" fill="#ffffff" fill-rule="nonzero" node-id="80" stroke="none" target-height="1024" target-width="1024" target-x="0" target-y="0"></path><path d="M 222.70 156.20 L 834.70 156.20 L 837.80 156.50 L 840.60 157.20 L 843.20 158.50 L 845.60 160.20 L 847.60 162.20 L 849.30 164.60 L 850.60 167.20 L 851.40 170.10 L 851.70 173.20 L 851.70 633.20 L 205.70 633.20 L 205.70 173.20 L 205.90 170.10 L 206.70 167.20 L 208.00 164.60 L 209.70 162.20 L 211.70 160.20 L 214.10 158.50 L 216.70 157.20 L 219.60 156.50 L 222.70 156.20 Z" fill="#eef3fe" fill-rule="nonzero" group-id="1,7" id="矩形_2406" node-id="14" stroke="none" target-height="477" target-width="646" target-x="205.7" target-y="156.2"></path><path d="M 222.70 156.20 L 834.70 156.20 L 837.80 156.50 L 840.60 157.20 L 843.20 158.50 L 845.60 160.20 L 847.60 162.20 L 849.30 164.60 L 850.60 167.20 L 851.40 170.10 L 851.70 173.20 L 851.70 212.20 L 205.70 212.20 L 205.70 173.20 L 205.90 170.10 L 206.70 167.20 L 208.00 164.60 L 209.70 162.20 L 211.70 160.20 L 214.10 158.50 L 216.70 157.20 L 219.60 156.50 L 222.70 156.20 Z" fill="#2f7fff" fill-rule="nonzero" group-id="1,8" id="矩形_2407" node-id="15" stroke="none" target-height="56" target-width="646" target-x="205.7" target-y="156.2"></path><path d="M 276.70 187.20 L 276.00 190.70 L 274.30 193.60 L 271.70 195.80 L 270.20 196.50 L 266.70 197.20 L 263.20 196.50 L 260.20 194.80 L 258.00 192.20 L 256.80 189.00 L 256.80 185.30 L 257.30 183.70 L 259.00 180.70 L 261.60 178.50 L 263.20 177.80 L 266.70 177.20 L 270.20 177.80 L 273.10 179.50 L 275.30 182.10 L 276.00 183.70 L 276.70 187.20 Z" fill="#ffffff" fill-rule="nonzero" group-id="1,9" id="椭圆_706" node-id="16" stroke="none" target-height="20" target-width="19.900024" target-x="256.8" target-y="177.2"></path><path d="M 310.70 187.20 L 310.00 190.70 L 309.30 192.20 L 307.10 194.80 L 304.20 196.50 L 300.70 197.20 L 297.20 196.50 L 294.20 194.80 L 292.00 192.20 L 291.30 190.70 L 290.70 187.20 L 291.30 183.70 L 293.00 180.70 L 295.60 178.50 L 297.20 177.80 L 300.70 177.20 L 304.20 177.80 L 307.10 179.50 L 309.30 182.10 L 310.00 183.70 L 310.70 187.20 Z" fill="#ffffff" fill-rule="nonzero" group-id="1,10" id="椭圆_707" node-id="17" stroke="none" target-height="20" target-width="20" target-x="290.7" target-y="177.2"></path><path d="M 344.70 187.20 L 344.00 190.70 L 343.20 192.20 L 340.90 194.80 L 337.80 196.50 L 334.20 197.20 L 330.50 196.50 L 327.40 194.80 L 325.10 192.20 L 323.80 189.00 L 323.80 185.30 L 324.30 183.70 L 326.10 180.70 L 328.90 178.50 L 330.50 177.80 L 334.20 177.20 L 337.80 177.80 L 340.90 179.50 L 343.20 182.10 L 344.00 183.70 L 344.70 187.20 Z" fill="#ffffff" fill-rule="nonzero" group-id="1,11" id="椭圆_708" node-id="18" stroke="none" target-height="20" target-width="20.900024" target-x="323.8" target-y="177.2"></path><path d="M 293.70 232.70 L 634.70 232.70 L 637.80 233.00 L 640.60 233.70 L 643.20 235.00 L 645.60 236.70 L 647.60 238.70 L 649.30 241.10 L 650.60 243.70 L 651.40 246.60 L 651.70 249.70 L 651.70 539.70 L 651.40 542.80 L 650.60 545.60 L 649.30 548.20 L 647.60 550.60 L 645.60 552.70 L 643.20 554.30 L 640.60 555.60 L 637.80 556.40 L 634.70 556.70 L 293.70 556.70 L 290.60 556.40 L 287.70 555.60 L 285.10 554.30 L 282.70 552.70 L 280.70 550.60 L 279.00 548.20 L 277.70 545.60 L 276.90 542.80 L 276.70 539.70 L 276.70 249.70 L 276.90 246.60 L 277.70 243.70 L 279.00 241.10 L 280.70 238.70 L 282.70 236.70 L 285.10 235.00 L 287.70 233.70 L 290.60 233.00 L 293.70 232.70 Z" fill="#ffffff" fill-rule="nonzero" group-id="1,12" id="矩形_2411" node-id="19" stroke="none" target-height="324" target-width="375" target-x="276.7" target-y="232.7"></path><path d="M 313.10 260.00 L 386.70 260.00 L 388.80 260.30 L 390.70 261.10 L 392.30 262.30 L 393.60 264.00 L 394.40 265.90 L 394.70 268.00 L 394.40 270.10 L 393.60 272.00 L 392.30 273.60 L 390.70 274.90 L 388.80 275.70 L 386.70 276.00 L 313.10 276.00 L 311.00 275.70 L 309.10 274.90 L 307.50 273.60 L 306.20 272.00 L 305.40 270.10 L 305.20 268.00 L 305.40 265.90 L 306.20 264.00 L 307.50 262.30 L 309.10 261.10 L 311.00 260.30 L 313.10 260.00 Z" fill="#ced7ec" fill-rule="nonzero" group-id="1,13" id="矩形_2437" node-id="20" stroke="none" target-height="16" target-width="89.5" target-x="305.2" target-y="260"></path><path d="M 313.10 291.20 L 360.40 291.20 L 362.60 291.50 L 364.50 292.30 L 366.10 293.50 L 367.30 295.20 L 368.10 297.10 L 368.40 299.20 L 368.10 301.30 L 367.30 303.20 L 366.10 304.80 L 364.50 306.10 L 362.60 306.90 L 360.40 307.20 L 313.10 307.20 L 311.00 306.90 L 309.10 306.10 L 307.50 304.80 L 306.20 303.20 L 305.40 301.30 L 305.20 299.20 L 305.40 297.10 L 306.20 295.20 L 307.50 293.50 L 309.10 292.30 L 311.00 291.50 L 313.10 291.20 Z" fill="#ced7ec" fill-rule="nonzero" group-id="1,14" id="矩形_2438" node-id="21" stroke="none" target-height="16" target-width="63.19998" target-x="305.2" target-y="291.2"></path><path d="M 474.60 468.20 L 474.90 463.20 L 475.60 458.40 L 476.80 453.60 L 478.50 448.90 L 480.50 444.60 L 483.00 440.50 L 485.80 436.70 L 489.00 433.20 L 492.40 430.00 L 496.20 427.20 L 500.30 424.70 L 506.60 421.80 L 503.80 419.10 L 501.60 416.10 L 499.80 412.70 L 498.40 409.20 L 497.60 405.50 L 497.40 401.70 L 497.60 398.00 L 498.30 394.60 L 499.40 391.40 L 500.90 388.30 L 502.80 385.50 L 505.00 383.00 L 507.50 380.70 L 510.30 378.80 L 513.40 377.30 L 516.60 376.10 L 520.00 375.40 L 523.60 375.20 L 527.20 375.40 L 530.60 376.10 L 533.90 377.30 L 536.90 378.80 L 539.70 380.70 L 542.20 383.00 L 544.40 385.50 L 546.30 388.30 L 547.80 391.40 L 549.00 394.60 L 549.60 398.00 L 549.90 401.70 L 549.60 405.50 L 548.80 409.20 L 547.50 412.70 L 545.70 416.10 L 543.40 419.10 L 540.70 421.80 L 547.00 424.70 L 551.00 427.20 L 554.80 430.00 L 558.30 433.20 L 561.40 436.70 L 564.20 440.50 L 566.70 444.60 L 568.80 448.90 L 570.40 453.60 L 571.60 458.40 L 572.40 463.20 L 572.60 468.20 Z" fill="#3f88fe" fill-rule="nonzero" group-id="1,15" id="联合_304" node-id="22" stroke="none" target-height="93" target-width="97.99997" target-x="474.6" target-y="375.2"></path><path d="M 517.60 501.70 L 339.60 501.70 L 339.90 489.50 L 340.70 482.40 L 342.10 475.50 L 344.10 468.70 L 346.60 462.00 L 351.70 451.80 L 358.10 442.30 L 365.70 433.70 L 369.80 429.80 L 378.80 422.90 L 384.60 419.30 L 390.60 416.20 L 385.90 409.60 L 383.40 405.00 L 381.30 399.90 L 379.80 394.70 L 378.90 389.30 L 378.60 383.70 L 378.90 378.60 L 379.60 373.70 L 380.80 368.90 L 382.50 364.20 L 384.60 359.80 L 387.10 355.80 L 390.00 351.90 L 393.30 348.30 L 396.90 345.00 L 400.70 342.20 L 404.80 339.70 L 409.10 337.60 L 413.90 335.90 L 418.60 334.70 L 423.60 333.90 L 428.60 333.70 L 433.70 333.90 L 438.60 334.70 L 443.40 335.90 L 448.10 337.60 L 452.40 339.70 L 456.50 342.20 L 460.40 345.00 L 464.00 348.30 L 467.20 351.90 L 470.10 355.80 L 472.60 359.80 L 474.70 364.20 L 476.40 368.90 L 477.60 373.70 L 478.40 378.60 L 478.60 383.70 L 478.30 389.30 L 477.40 394.70 L 475.90 399.90 L 473.90 405.00 L 471.30 409.60 L 466.60 416.20 L 472.60 419.30 L 478.40 422.90 L 487.40 429.80 L 491.50 433.70 L 499.10 442.30 L 505.50 451.80 L 510.60 462.00 L 513.10 468.70 L 515.10 475.50 L 516.50 482.40 L 517.30 489.50 L 517.60 501.70 Z" fill="#3f88fe" fill-rule="nonzero" group-id="1,16" node-id="120" stroke="none" target-height="168" target-width="177.99997" target-x="339.6" target-y="333.7"></path><path d="M 512.60 496.70 L 512.60 496.70 M 512.60 496.70 L 512.30 489.90 L 511.50 483.20 L 510.20 476.70 L 508.40 470.30 L 506.00 464.00 L 503.70 459.10 L 498.30 449.70 L 491.70 441.20 L 488.00 437.30 L 479.90 430.20 L 471.00 424.10 L 466.20 421.50 L 457.80 417.90 L 463.70 411.80 L 468.40 404.70 L 470.20 400.90 L 471.70 396.80 L 472.70 392.60 L 473.40 388.20 L 473.60 383.70 L 473.40 379.00 L 472.70 374.50 L 471.60 370.30 L 470.10 366.20 L 468.20 362.20 L 465.90 358.50 L 463.30 355.10 L 460.40 351.80 L 457.20 348.90 L 453.80 346.40 L 450.10 344.10 L 446.10 342.20 L 442.00 340.70 L 437.70 339.60 L 433.30 338.90 L 428.60 338.70 L 423.90 338.90 L 419.50 339.60 L 415.20 340.70 L 411.10 342.20 L 407.10 344.10 L 403.40 346.40 L 400.00 348.90 L 396.80 351.80 L 393.90 355.10 L 391.30 358.50 L 389.10 362.20 L 387.10 366.20 L 385.60 370.30 L 384.50 374.50 L 383.90 379.00 L 383.60 383.70 L 383.80 388.20 L 384.50 392.60 L 385.60 396.80 L 387.00 400.90 L 388.80 404.70 L 393.50 411.80 L 399.40 417.90 L 391.00 421.50 L 386.20 424.10 L 377.30 430.20 L 369.20 437.30 L 365.50 441.20 L 359.00 449.70 L 353.50 459.10 L 351.20 464.00 L 348.80 470.30 L 347.00 476.70 L 345.70 483.20 L 344.90 489.90 L 344.60 496.70 L 512.60 496.70 M 522.60 506.70 L 334.60 506.70 L 334.90 489.10 L 335.80 481.60 L 337.30 474.30 L 339.30 467.10 L 342.00 460.10 L 344.50 454.60 L 350.70 444.10 L 358.00 434.60 L 362.10 430.20 L 371.20 422.30 L 376.00 418.70 L 383.00 414.40 L 380.20 409.80 L 377.90 404.90 L 376.00 399.80 L 374.70 394.60 L 373.90 389.20 L 373.60 383.70 L 373.90 377.60 L 374.90 371.80 L 376.40 366.30 L 378.50 360.90 L 381.10 355.90 L 384.20 351.20 L 387.80 346.80 L 391.80 342.90 L 396.10 339.30 L 400.90 336.20 L 405.90 333.60 L 411.20 331.50 L 416.80 329.90 L 422.60 329.00 L 428.60 328.70 L 434.70 329.00 L 440.40 329.90 L 446.00 331.50 L 451.30 333.60 L 456.40 336.20 L 461.10 339.30 L 465.40 342.90 L 469.40 346.80 L 473.00 351.20 L 476.10 355.90 L 478.70 360.90 L 480.80 366.30 L 482.30 371.80 L 483.30 377.60 L 483.60 383.70 L 483.30 389.20 L 482.50 394.60 L 481.20 399.80 L 479.30 404.90 L 477.00 409.80 L 474.20 414.40 L 481.20 418.70 L 486.00 422.30 L 495.10 430.20 L 499.20 434.60 L 506.50 444.10 L 512.70 454.60 L 515.20 460.10 L 517.90 467.10 L 519.90 474.30 L 521.40 481.60 L 522.30 489.10 L 522.60 506.70 Z" fill="#ffffff" fill-rule="nonzero" group-id="1,16" node-id="122" stroke="none" target-height="178" target-width="187.99997" target-x="334.6" target-y="328.7"></path><path d="M 106.40 472.10 L 373.20 472.10 L 438.40 533.80 L 438.40 717.10 L 438.10 719.60 L 437.50 722.00 L 436.50 724.10 L 435.10 726.10 L 431.40 729.20 L 429.30 730.20 L 426.90 730.80 L 424.40 731.10 L 106.40 731.10 L 103.80 730.80 L 101.50 730.20 L 99.30 729.20 L 97.40 727.80 L 95.70 726.10 L 94.30 724.10 L 93.30 722.00 L 92.60 719.60 L 92.40 717.10 L 92.40 486.10 L 92.60 483.50 L 93.30 481.20 L 94.30 479.00 L 95.70 477.00 L 97.40 475.40 L 99.30 474.00 L 101.50 473.00 L 103.80 472.30 L 106.40 472.10 Z" fill="#307eff" fill-rule="nonzero" group-id="2,17" id="路径_1158" node-id="27" stroke="none" target-height="258.99997" target-width="346" target-x="92.4" target-y="472.1"></path><path d="M 373.30 533.90 L 438.30 533.80 L 373.30 472.10 Z" fill="#a4c5fd" fill-rule="nonzero" group-id="2" id="路径_1159" node-id="28" stroke="none" target-height="61.80002" target-width="65" target-x="373.3" target-y="472.1"></path><path d="M 130.40 450.10 L 167.40 450.10 L 167.40 509.10 L 130.40 509.10 Z" fill="#00d785" fill-rule="nonzero" group-id="2,18" id="矩形_2399" node-id="29" stroke="none" target-height="59" target-width="37" target-x="130.4" target-y="450.1"></path><path d="M 180.40 561.10 L 400.40 561.10 L 400.40 584.10 L 180.40 584.10 Z" fill="#dfe5f3" fill-rule="nonzero" group-id="2,19" id="矩形_2400" node-id="30" stroke="none" target-height="23" target-width="220" target-x="180.4" target-y="561.1"></path><path d="M 180.40 610.10 L 400.40 610.10 L 400.40 633.10 L 180.40 633.10 Z" fill="#dfe5f3" fill-rule="nonzero" group-id="2,20" id="矩形_2401" node-id="31" stroke="none" target-height="23" target-width="220" target-x="180.4" target-y="610.1"></path><path d="M 180.40 656.10 L 400.40 656.10 L 400.40 679.10 L 180.40 679.10 Z" fill="#dfe5f3" fill-rule="nonzero" group-id="2,21" id="矩形_2402" node-id="32" stroke="none" target-height="23" target-width="220" target-x="180.4" target-y="656.1"></path><path d="M 162.40 572.60 L 162.10 575.40 L 161.40 578.00 L 160.30 580.40 L 158.70 582.60 L 156.90 584.40 L 154.70 586.00 L 152.30 587.10 L 149.70 587.80 L 146.90 588.10 L 144.10 587.80 L 141.50 587.10 L 139.10 586.00 L 136.90 584.40 L 135.00 582.60 L 133.50 580.40 L 132.40 578.00 L 131.60 575.40 L 131.40 572.60 L 131.60 569.70 L 132.40 567.20 L 133.50 564.80 L 135.00 562.60 L 136.90 560.70 L 139.10 559.20 L 141.50 558.00 L 144.10 557.30 L 146.90 557.10 L 149.70 557.30 L 152.30 558.00 L 154.70 559.20 L 156.90 560.70 L 158.70 562.60 L 160.30 564.80 L 161.40 567.20 L 162.10 569.70 L 162.40 572.60 Z" fill="#00d785" fill-rule="nonzero" group-id="2,22" id="椭圆_697" node-id="33" stroke="none" target-height="31" target-width="31" target-x="131.4" target-y="557.1"></path><path d="M 162.40 621.60 L 162.10 624.40 L 161.40 627.00 L 160.30 629.40 L 158.70 631.60 L 156.90 633.40 L 154.70 635.00 L 152.30 636.10 L 149.70 636.80 L 146.90 637.10 L 144.10 636.80 L 141.50 636.10 L 139.10 635.00 L 136.90 633.40 L 135.00 631.60 L 133.50 629.40 L 132.40 627.00 L 131.60 624.40 L 131.40 621.60 L 131.60 618.70 L 132.40 616.20 L 133.50 613.80 L 135.00 611.60 L 136.90 609.70 L 139.10 608.20 L 141.50 607.00 L 144.10 606.30 L 146.90 606.10 L 149.70 606.30 L 152.30 607.00 L 154.70 608.20 L 156.90 609.70 L 158.70 611.60 L 160.30 613.80 L 161.40 616.20 L 162.10 618.70 L 162.40 621.60 Z" fill="#fbd635" fill-rule="nonzero" group-id="2,23" id="椭圆_698" node-id="34" stroke="none" target-height="31" target-width="31" target-x="131.4" target-y="606.1"></path><path d="M 162.40 667.60 L 162.10 670.40 L 161.40 673.00 L 160.30 675.40 L 158.70 677.60 L 156.90 679.40 L 154.70 681.00 L 152.30 682.10 L 149.70 682.80 L 146.90 683.10 L 144.10 682.80 L 141.50 682.10 L 139.10 681.00 L 136.90 679.40 L 135.00 677.60 L 133.50 675.40 L 132.40 673.00 L 131.60 670.40 L 131.40 667.60 L 131.60 664.70 L 132.40 662.20 L 133.50 659.80 L 135.00 657.60 L 136.90 655.70 L 139.10 654.20 L 141.50 653.00 L 144.10 652.30 L 146.90 652.10 L 149.70 652.30 L 152.30 653.00 L 154.70 654.20 L 156.90 655.70 L 158.70 657.60 L 160.30 659.80 L 161.40 662.20 L 162.10 664.70 L 162.40 667.60 Z" fill="#abcaff" fill-rule="nonzero" group-id="2,24" id="椭圆_699" node-id="35" stroke="none" target-height="31" target-width="31" target-x="131.4" target-y="652.1"></path><path d="M 846.00 457.40 L 851.90 457.70 L 857.70 458.30 L 853.80 484.20 L 846.00 540.00 L 923.30 516.70 L 924.80 523.00 L 925.70 529.20 L 926.10 535.50 L 926.00 541.70 L 925.40 547.90 L 924.40 553.90 L 922.90 559.80 L 921.00 565.70 L 918.60 571.40 L 915.80 576.80 L 912.60 582.00 L 909.00 587.10 L 905.00 591.80 L 900.60 596.20 L 895.80 600.30 L 890.60 604.10 L 885.10 607.50 L 879.40 610.40 L 873.70 612.80 L 867.80 614.70 L 861.70 616.10 L 855.70 617.10 L 849.60 617.60 L 843.40 617.60 L 837.30 617.20 L 831.30 616.30 L 825.30 615.00 L 819.30 613.10 L 813.60 610.90 L 808.00 608.10 L 802.50 604.90 L 797.30 601.20 L 792.30 597.00 L 787.80 592.60 L 783.70 588.00 L 780.00 583.00 L 776.60 577.70 L 773.80 572.30 L 771.30 566.70 L 769.30 560.90 L 767.80 554.90 L 766.70 548.90 L 766.00 542.80 L 765.80 536.60 L 766.20 530.40 L 767.00 524.20 L 768.30 518.00 L 770.10 511.80 L 772.40 505.80 L 775.10 500.10 L 778.20 494.70 L 781.80 489.60 L 785.70 484.80 L 789.90 480.30 L 794.40 476.20 L 799.30 472.40 L 804.40 469.10 L 809.80 466.10 L 815.30 463.50 L 821.20 461.40 L 827.10 459.70 L 833.20 458.50 L 839.50 457.70 L 846.00 457.40 Z" fill="#00d785" fill-rule="nonzero" group-id="3" id="路径_1157" node-id="36" stroke="none" target-height="160.19998" target-width="160.29999" target-x="765.8" target-y="457.4"></path><path d="M 867.10 450.10 L 872.80 451.20 L 878.30 452.60 L 888.70 456.60 L 898.50 462.00 L 907.40 468.60 L 915.20 476.40 L 922.00 485.30 L 924.90 490.10 L 927.50 495.10 L 931.60 505.70 L 852.40 532.00 L 862.00 476.10 L 866.20 453.70 L 867.10 450.10 Z" fill="#fbd635" fill-rule="nonzero" group-id="4" id="路径_1158-2" node-id="37" stroke="none" target-height="81.899994" target-width="79.19995" target-x="852.4" target-y="450.1"></path><path d="M 869.40 826.30 L 869.10 828.90 L 868.30 831.50 L 866.90 834.10 L 864.90 836.70 L 862.10 839.40 L 858.50 842.30 L 854.00 845.10 L 848.50 848.00 L 841.90 850.80 L 828.20 855.50 L 811.00 859.80 L 799.20 862.10 L 786.10 864.10 L 771.90 865.70 L 757.70 866.90 L 742.70 867.60 L 726.90 867.80 L 711.10 867.60 L 696.10 866.90 L 681.80 865.70 L 667.60 864.10 L 654.60 862.10 L 642.70 859.80 L 625.60 855.50 L 611.90 850.80 L 605.30 848.00 L 599.80 845.10 L 595.30 842.30 L 591.60 839.40 L 588.90 836.70 L 586.90 834.10 L 585.50 831.50 L 584.70 828.90 L 584.40 826.30 L 584.70 823.70 L 585.50 821.20 L 586.90 818.60 L 588.90 815.90 L 591.60 813.20 L 595.30 810.40 L 599.80 807.60 L 605.30 804.70 L 611.90 801.80 L 625.60 797.10 L 642.70 792.80 L 654.60 790.60 L 667.60 788.60 L 681.80 786.90 L 696.10 785.80 L 711.10 785.10 L 726.90 784.80 L 742.70 785.10 L 757.70 785.80 L 771.90 786.90 L 786.10 788.60 L 799.20 790.60 L 811.00 792.80 L 828.20 797.10 L 841.90 801.80 L 848.50 804.70 L 854.00 807.60 L 858.50 810.40 L 862.10 813.20 L 864.90 815.90 L 866.90 818.60 L 868.30 821.20 L 869.10 823.70 L 869.40 826.30 Z" fill="#e1ebfa" fill-rule="nonzero" group-id="5" id="椭圆_798" node-id="38" stroke="none" target-height="83" target-width="285" target-x="584.4" target-y="784.8"></path><path d="M 793.10 772.10 L 805.50 780.50 L 809.40 783.40 L 810.60 784.90 L 811.50 786.70 L 811.90 790.20 L 810.80 793.80 L 807.00 800.50 L 797.30 815.40 L 789.80 825.40 L 786.20 829.40 L 781.60 833.60 L 779.80 834.60 L 776.60 835.80 L 773.80 836.30 L 771.40 836.20 L 769.10 835.60 L 767.20 834.50 L 765.70 832.90 L 764.70 831.00 L 764.10 828.70 L 764.10 825.80 L 764.70 822.50 L 765.90 819.20 L 769.20 813.00 L 774.00 805.40 L 774.00 786.10 Z" fill="#f9aa03" fill-rule="nonzero" group-id="6,25,28" id="路径_1391" node-id="41" stroke="none" target-height="64.20001" target-width="47.80005" target-x="764.1" target-y="772.1"></path><path d="M 702.20 794.30 L 701.90 804.60 L 702.20 808.00 L 702.70 809.10 L 708.30 816.40 L 709.60 818.80 L 710.50 821.40 L 710.80 824.20 L 710.50 826.60 L 709.80 828.50 L 708.80 829.90 L 705.60 832.10 L 703.40 833.10 L 679.50 842.30 L 665.80 846.90 L 658.10 848.30 L 655.30 848.20 L 652.60 847.60 L 648.70 845.60 L 647.20 844.10 L 646.30 842.50 L 645.80 840.80 L 645.80 839.00 L 646.30 836.90 L 647.50 834.60 L 649.10 832.70 L 651.70 830.50 L 658.20 826.30 L 670.90 818.60 L 673.00 816.90 L 673.90 815.70 L 675.00 812.10 L 678.80 795.40 Z" fill="#f9aa03" fill-rule="nonzero" group-id="6,25,29" id="路径_1392" node-id="42" stroke="none" target-height="54" target-width="65" target-x="645.8" target-y="794.3"></path><path d="M 648.80 576.50 L 645.50 603.40 L 644.00 620.00 L 642.50 646.60 L 642.60 663.00 L 643.10 670.00 L 644.70 683.60 L 646.70 697.10 L 649.20 710.60 L 652.10 723.90 L 655.50 737.20 L 661.90 759.00 L 673.30 796.30 L 676.30 799.10 L 680.60 801.60 L 685.20 802.70 L 687.70 802.80 L 690.40 802.50 L 693.60 801.60 L 700.60 798.50 L 704.00 796.10 L 704.70 795.20 L 705.00 794.10 L 692.10 740.30 L 687.90 719.40 L 687.70 710.20 L 688.30 696.00 L 690.80 662.00 L 693.60 631.90 L 687.90 571.50 Z" fill="#1e2889" fill-rule="nonzero" group-id="6,25,30" id="路径_1384" node-id="43" stroke="none" target-height="231.29999" target-width="62.5" target-x="642.5" target-y="571.5"></path><g clip-path="url(#clip-path)" group-id="6,25,31" node-id="188"><path d="M 673.70 581.10 L 672.80 619.90 L 673.30 638.30 L 677.00 663.60 L 681.90 689.30 L 684.40 699.60 L 686.80 705.90 L 687.80 706.30 L 689.40 704.70 L 690.90 701.80 L 695.20 691.40 L 702.30 669.80 L 714.20 628.00 Z" fill="#171e6f" fill-rule="nonzero" group-id="6,25,31,44" id="路径_1385" node-id="45" stroke="none" target-height="125.20001" target-width="41.400024" target-x="672.8" target-y="581.1"></path></g><path d="M 735.20 573.70 L 738.60 587.60 L 740.20 598.10 L 740.70 609.10 L 739.30 626.40 L 739.50 641.60 L 740.80 658.10 L 742.00 666.30 L 744.70 679.00 L 747.70 687.40 L 753.30 699.20 L 760.80 714.20 L 777.90 745.60 L 785.40 758.10 L 792.10 767.70 L 792.80 769.50 L 793.00 771.30 L 792.40 774.80 L 789.90 778.90 L 788.00 781.10 L 784.10 784.40 L 781.50 786.00 L 775.80 788.20 L 773.90 788.50 L 771.90 788.50 L 770.10 788.10 L 768.40 787.10 L 764.20 782.30 L 756.80 772.70 L 738.00 747.10 L 729.70 735.10 L 723.90 726.40 L 718.80 716.90 L 704.70 686.20 L 691.60 654.90 L 687.60 644.50 L 680.80 621.70 L 670.00 582.50 L 720.80 574.80 Z" fill="#0441bd" fill-rule="nonzero" group-id="6,25,32" id="路径_1387" node-id="46" stroke="none" target-height="214.79999" target-width="123" target-x="670" target-y="573.7"></path><path d="M 729.30 593.70 L 708.00 599.10 L 705.20 600.00 L 704.90 601.20 L 705.20 602.10 L 706.20 603.10 L 707.60 603.90 L 710.10 604.40 L 713.10 604.30 L 717.90 603.60 L 721.20 602.70 L 725.30 600.90 L 727.50 599.10 L 728.60 597.60 L 729.30 596.00 L 729.30 593.70 Z" fill="#152175" fill-rule="nonzero" group-id="6,25,33" id="路径_1388" node-id="47" stroke="none" target-height="10.700012" target-width="24.399963" target-x="704.9" target-y="593.7"></path><g clip-path="url(#clip-path-2)" group-id="6,25,34" node-id="202"><path d="M 731.50 739.70 L 717.60 699.20 L 708.00 667.60 L 698.20 626.60 L 683.40 571.20 L 663.50 582.40 L 675.80 654.90 L 703.40 718.40 Z" fill="#033fa7" fill-rule="nonzero" group-id="6,25,34,45" id="路径_1389" node-id="49" stroke="none" target-height="168.5" target-width="68" target-x="663.5" target-y="571.2"></path></g><path d="M 680.50 380.80 L 680.50 403.90 L 686.50 403.90 L 673.30 417.10 L 662.70 422.10 L 662.70 383.70 L 675.50 375.50 Z" fill="#ee908b" fill-rule="nonzero" group-id="6,26,35" id="路径_1374" node-id="51" stroke="none" target-height="46.600006" target-width="23.799988" target-x="662.7" target-y="375.5"></path><path d="M 680.70 372.00 L 675.50 377.90 L 670.40 383.20 L 664.80 388.00 L 662.00 389.80 L 656.70 391.80 L 650.10 393.00 L 647.00 392.90 L 645.00 392.50 L 643.20 391.60 L 641.50 390.30 L 640.10 388.70 L 639.00 386.40 L 638.00 383.20 L 636.60 374.10 L 635.70 363.80 L 634.80 344.10 L 647.30 337.30 L 667.30 342.70 L 689.20 357.80 Z" fill="#feaba5" fill-rule="nonzero" group-id="6,26,36" id="路径_1375" node-id="52" stroke="none" target-height="55.700012" target-width="54.400024" target-x="634.8" target-y="337.3"></path><path d="M 650.20 343.50 L 649.60 343.20 L 647.70 343.40 L 635.70 346.70 L 635.30 348.50 L 635.70 358.20 L 632.20 357.30 L 630.00 356.30 L 628.00 354.90 L 626.10 352.80 L 625.20 351.20 L 624.50 349.20 L 624.20 346.70 L 624.30 343.20 L 624.90 340.80 L 625.80 338.80 L 629.40 333.90 L 629.80 328.70 L 630.70 325.20 L 632.40 323.20 L 635.40 321.60 L 640.50 320.50 L 651.30 319.70 L 652.80 319.30 L 654.60 318.50 L 661.60 314.50 L 666.20 313.40 L 669.60 313.40 L 673.00 314.10 L 676.30 315.30 L 679.10 316.70 L 683.40 320.10 L 688.90 326.30 L 697.20 331.10 L 699.50 333.80 L 700.50 336.30 L 701.20 342.00 L 700.20 354.20 L 702.80 365.30 L 702.90 367.90 L 702.30 371.40 L 700.10 375.20 L 696.70 378.50 L 693.80 380.30 L 691.00 381.40 L 688.30 382.00 L 685.10 382.10 L 683.30 383.60 L 681.10 386.80 L 680.30 387.50 L 679.30 387.70 L 676.70 387.00 L 673.90 385.00 L 672.70 383.60 L 671.80 381.30 L 672.40 379.30 L 673.20 379.30 L 674.40 378.50 L 676.80 375.40 L 677.80 373.30 L 679.10 368.70 L 679.20 366.50 L 678.30 364.10 L 676.30 362.40 L 672.40 361.80 L 663.50 358.50 L 657.80 355.10 L 655.20 352.90 L 653.00 350.20 L 650.90 346.00 L 650.20 343.50 Z" fill="#1c258a" fill-rule="nonzero" group-id="6,26,37" id="路径_1376" node-id="53" stroke="none" target-height="74.30002" target-width="78.70001" target-x="624.2" target-y="313.4"></path><path d="M 537.00 398.50 L 532.80 390.30 L 528.50 383.00 L 526.10 379.50 L 521.80 374.60 L 518.70 372.50 L 513.20 370.60 L 510.70 370.20 L 508.80 370.30 L 507.80 370.70 L 507.00 371.40 L 506.40 373.60 L 507.20 377.80 L 508.70 381.20 L 511.70 385.60 L 518.10 392.10 L 519.50 394.50 L 526.30 408.20 Z" fill="#f9aa9c" fill-rule="nonzero" group-id="6,27,38" id="路径_1377" node-id="55" stroke="none" target-height="38" target-width="30.600006" target-x="506.4" target-y="370.2"></path><path d="M 642.60 408.20 L 639.90 410.80 L 624.20 427.80 L 610.80 439.60 L 605.30 443.00 L 602.30 444.00 L 597.70 444.50 L 595.00 444.30 L 591.40 443.60 L 587.80 442.40 L 584.20 440.70 L 579.10 437.60 L 574.30 434.00 L 565.50 426.40 L 559.70 420.60 L 538.70 398.40 L 535.30 398.40 L 533.20 398.80 L 531.20 399.60 L 529.30 400.90 L 527.80 402.70 L 526.80 404.40 L 526.00 407.60 L 526.10 408.90 L 526.50 409.70 L 542.00 428.30 L 555.00 443.40 L 565.50 454.50 L 573.10 460.90 L 580.10 465.10 L 584.00 466.60 L 588.10 467.70 L 592.60 468.30 L 595.60 468.30 L 602.50 467.30 L 607.80 465.80 L 613.30 463.80 L 623.70 459.10 L 632.70 454.30 L 641.30 449.00 Z" fill="#5bb6fe" fill-rule="nonzero" group-id="6,27,39" id="路径_1378" node-id="56" stroke="none" target-height="69.899994" target-width="116.599976" target-x="526" target-y="398.4"></path><path d="M 683.50 403.80 L 668.50 418.10 L 661.80 405.30 L 648.60 406.80 L 643.10 408.10 L 641.00 409.00 L 640.10 409.90 L 639.70 411.20 L 638.60 424.80 L 638.10 453.30 L 638.80 475.30 L 647.30 577.00 L 655.90 580.60 L 660.20 582.10 L 671.10 584.90 L 677.40 585.90 L 683.90 586.50 L 690.80 586.50 L 697.80 585.90 L 704.60 584.80 L 711.20 583.40 L 723.00 579.90 L 731.90 576.50 L 734.60 575.20 L 736.90 573.60 L 721.60 469.20 L 714.70 428.50 L 713.20 420.80 L 710.90 412.20 L 709.80 409.90 L 707.80 408.70 L 704.90 407.60 L 698.10 405.80 L 683.50 403.80 Z" fill="#3b96ff" fill-rule="nonzero" group-id="6,27,40" id="路径_1379" node-id="57" stroke="none" target-height="182.70001" target-width="98.80005" target-x="638.1" target-y="403.8"></path><path d="M 726.90 575.50 L 727.30 593.60 L 726.90 597.30 L 726.40 598.60 L 724.20 601.20 L 721.80 602.90 L 718.80 604.20 L 716.70 604.80 L 712.40 604.90 L 710.40 604.30 L 708.80 603.30 L 707.50 601.70 L 705.70 597.50 L 705.00 591.10 L 705.10 587.30 L 705.60 584.50 L 706.50 581.80 L 709.00 576.90 L 712.40 572.10 Z" fill="#f9aa9c" fill-rule="nonzero" group-id="6,27,41" id="路径_1380" node-id="58" stroke="none" target-height="32.80005" target-width="22.299988" target-x="705" target-y="572.1"></path><path d="M 711.20 409.70 L 709.20 409.30 L 707.80 409.70 L 706.00 410.50 L 704.30 411.80 L 702.60 413.70 L 701.10 416.20 L 699.90 419.60 L 698.90 426.30 L 698.80 430.00 L 699.20 435.50 L 700.10 441.00 L 702.80 451.50 L 719.00 492.60 L 721.10 500.20 L 721.50 503.80 L 721.40 513.40 L 720.90 519.00 L 719.30 530.60 L 710.60 571.40 L 713.50 574.10 L 715.70 575.60 L 718.20 576.80 L 721.10 577.60 L 726.20 577.60 L 731.20 576.10 L 743.90 513.60 L 744.60 509.40 L 744.60 504.70 L 743.40 494.80 L 741.20 485.20 L 736.60 470.10 L 729.50 449.60 L 718.70 419.70 L 716.60 416.10 L 714.10 412.70 L 711.20 409.70 Z" fill="#5bb6fe" fill-rule="nonzero" group-id="6,27,42" id="路径_1381" node-id="59" stroke="none" target-height="168.29999" target-width="45.799988" target-x="698.8" target-y="409.3"></path><g clip-path="url(#clip-path-3)" group-id="6,27,43" node-id="244"><path d="M 654.10 403.80 L 652.90 417.70 L 652.20 441.00 L 652.70 459.70 L 653.60 469.30 L 654.80 478.80 L 656.60 487.90 L 660.80 504.70 L 666.10 523.70 L 677.30 561.00 L 686.50 589.90 L 652.70 583.90 L 637.00 577.50 L 628.10 495.70 L 634.20 408.90 Z" fill="#3f8afd" fill-rule="nonzero" group-id="6,27,43,46" id="路径_1382" node-id="61" stroke="none" target-height="186.10004" target-width="58.400024" target-x="628.1" target-y="403.8"></path></g></g></svg>