<?xml version="1.0" standalone="no"?><!DOCTYPE svg PUBLIC "-//W3C//DTD SVG 1.1//EN" "http://www.w3.org/Graphics/SVG/1.1/DTD/svg11.dtd"><svg height="1024" node-id="1" sillyvg="true" template-height="1024" template-width="1024" version="1.1" viewBox="0 0 1024 1024" width="1024" xmlns="http://www.w3.org/2000/svg" xmlns:xlink="http://www.w3.org/1999/xlink"><defs node-id="162"><linearGradient gradientUnits="objectBoundingBox" id="linearGradient1" node-id="164" spreadMethod="pad" x1="0" x2="1" y1="0.418" y2="0.457"><stop offset="0" stop-color="#c3d2ef"></stop><stop offset="1" stop-color="#ffffff"></stop></linearGradient><linearGradient gradientUnits="objectBoundingBox" id="linear-gradient" node-id="5" spreadMethod="pad" x1="0" x2="1" y1="0.418" y2="0.457"><stop offset="0" stop-color="#c3d2ef"></stop><stop offset="1" stop-color="#ffffff"></stop></linearGradient><clipPath id="clip-工作汇报-2" node-id="8"><path d="M 0.00 0.00 L 1024.00 0.00 L 1024.00 1024.00 L 0.00 1024.00 Z" fill="#000000" fill-rule="nonzero" node-id="178" stroke="none" target-height="1024" target-width="1024" target-x="0" target-y="0"></path></clipPath><clipPath id="clip-path" node-id="3"><path d="M 0.00 0.00 L 1024.00 0.00 L 1024.00 1024.00 L 0.00 1024.00 Z" fill="#000000" fill-rule="nonzero" id="工作汇报" node-id="4" stroke="none" target-height="1024" target-width="1024" target-x="0" target-y="0"></path></clipPath></defs><g clip-path="url(#clip-工作汇报-2)" id="工作汇报-2" node-id="10"><path d="M 0.00 0.00 L 1024.00 0.00 L 1024.00 1024.00 L 0.00 1024.00 Z" fill="#ffffff" fill-rule="nonzero" node-id="186" stroke="none" target-height="1024" target-width="1024" target-x="0" target-y="0"></path><g clip-path="url(#clip-path)" group-id="1" id="工作汇报-3" node-id="12"><path d="M 0.00 0.00 L 1024.00 0.00 L 1024.00 1024.00 L 0.00 1024.00 Z" fill="#ffffff" fill-rule="nonzero" group-id="1,2" id="工作汇报-4" node-id="13" stroke="none" target-height="1024" target-width="1024" target-x="0" target-y="0"></path><path d="M 56.30 346.70 L 61.60 332.10 L 64.50 325.60 L 70.90 314.20 L 75.50 307.50 L 80.40 301.50 L 85.60 296.20 L 90.90 291.40 L 96.70 287.00 L 102.70 283.20 L 108.80 279.80 L 115.20 276.80 L 128.40 272.20 L 142.20 269.00 L 151.60 267.70 L 161.00 266.80 L 170.60 266.50 L 189.70 266.90 L 213.10 269.30 L 239.20 273.40 L 271.30 279.30 L 280.00 280.50 L 286.40 280.90 L 331.00 281.40 L 370.70 282.30 L 445.50 285.10 L 502.70 288.20 L 532.80 290.30 L 593.80 295.40 L 624.40 298.50 L 654.50 302.00 L 693.90 307.40 L 731.60 313.70 L 749.50 317.20 L 766.40 320.80 L 783.30 324.80 L 798.80 329.00 L 813.10 333.30 L 823.90 337.00 L 833.70 340.70 L 850.70 348.30 L 858.90 352.60 L 865.90 357.00 L 871.90 361.40 L 877.10 365.80 L 880.90 369.80 L 884.10 373.80 L 886.60 377.90 L 888.50 382.00 L 894.70 402.70 L 897.60 410.70 L 905.40 428.60 L 910.50 438.50 L 915.80 448.00 L 924.20 461.90 L 957.50 513.10 L 964.40 525.00 L 968.60 533.00 L 972.00 540.90 L 974.90 548.50 L 976.60 554.40 L 977.90 560.20 L 978.70 566.00 L 979.00 571.80 L 978.80 577.60 L 978.00 583.40 L 976.70 589.30 L 974.70 595.40 L 972.20 601.10 L 968.90 607.10 L 964.80 613.30 L 947.00 635.70 L 936.00 650.10 L 899.80 700.70 L 891.60 711.50 L 883.50 721.50 L 871.90 734.00 L 865.80 739.80 L 859.30 745.30 L 852.20 750.60 L 844.60 755.70 L 836.60 760.40 L 827.80 765.10 L 811.10 773.00 L 805.00 776.60 L 799.50 780.60 L 794.30 785.00 L 784.70 794.50 L 778.10 802.10 L 764.90 818.20 L 752.90 831.80 L 741.60 842.30 L 735.40 847.20 L 728.40 852.00 L 720.60 856.60 L 714.60 859.70 L 700.70 865.40 L 684.90 870.30 L 666.60 874.20 L 645.70 876.90 L 622.00 878.20 L 595.00 878.20 L 564.70 876.50 L 526.80 872.60 L 492.30 868.00 L 461.80 862.90 L 449.40 860.30 L 426.10 854.70 L 416.80 852.00 L 399.40 846.10 L 392.50 843.30 L 382.70 838.80 L 374.80 834.60 L 367.50 830.20 L 361.50 826.10 L 340.90 810.80 L 335.70 807.60 L 329.70 804.60 L 320.80 801.20 L 315.30 799.70 L 303.30 797.40 L 295.80 796.40 L 287.50 795.80 L 278.80 795.70 L 269.70 796.10 L 251.30 798.00 L 227.60 802.20 L 171.20 814.60 L 158.20 817.10 L 141.40 819.70 L 133.70 820.40 L 126.10 820.70 L 119.10 820.60 L 112.70 819.90 L 107.90 819.00 L 103.60 817.70 L 99.70 816.00 L 96.10 814.00 L 92.70 811.60 L 89.80 808.70 L 87.20 805.30 L 84.90 801.40 L 83.10 797.20 L 81.80 792.40 L 80.70 786.80 L 80.20 780.30 L 79.50 748.30 L 80.20 724.00 L 82.00 705.00 L 87.20 664.90 L 88.20 645.60 L 88.30 633.50 L 87.90 626.30 L 86.90 618.30 L 85.20 609.60 L 82.00 596.50 L 77.70 581.90 L 62.90 533.60 L 57.90 515.60 L 52.10 490.70 L 49.60 477.60 L 47.70 464.40 L 46.20 450.70 L 45.30 436.60 L 45.00 426.00 L 45.10 415.30 L 45.70 404.20 L 46.80 392.90 L 48.30 381.80 L 50.40 370.40 L 53.00 358.70 L 56.30 346.70 Z" fill="#f2f6fe" fill-rule="nonzero" group-id="1,3" id="路径_1166" node-id="14" stroke="none" target-height="611.7" target-width="934" target-x="45" target-y="266.5"></path><path d="M 762.70 152.50 L 762.70 138.20 L 748.30 138.20 L 747.10 137.90 L 746.10 137.30 L 745.50 136.30 L 745.20 135.10 L 745.50 133.90 L 746.10 132.90 L 747.10 132.30 L 748.30 132.00 L 762.70 132.00 L 762.70 117.70 L 762.90 116.50 L 763.60 115.50 L 764.50 114.90 L 765.70 114.60 L 766.90 114.90 L 767.90 115.50 L 768.60 116.50 L 768.80 117.70 L 768.80 132.00 L 783.20 132.00 L 784.40 132.30 L 785.30 132.90 L 786.00 133.90 L 786.20 135.10 L 786.00 136.30 L 785.30 137.30 L 784.40 137.90 L 783.20 138.20 L 768.80 138.20 L 768.80 152.50 L 768.60 153.70 L 767.90 154.70 L 766.90 155.40 L 765.70 155.60 L 764.50 155.40 L 763.60 154.70 L 762.90 153.70 L 762.70 152.50 Z" fill="#d1e6ff" fill-rule="nonzero" group-id="1,4" id="联合_163" node-id="15" stroke="none" target-height="41.000008" target-width="41" target-x="745.2" target-y="114.6"></path><path d="M 822.30 245.40 L 820.20 245.20 L 818.30 244.50 L 816.50 243.40 L 815.10 242.00 L 814.00 240.30 L 813.30 238.30 L 813.00 236.10 L 813.20 234.10 L 813.90 232.20 L 815.00 230.50 L 816.40 229.00 L 818.10 227.80 L 818.20 224.80 L 818.70 222.80 L 819.40 220.90 L 821.60 217.70 L 824.70 215.20 L 826.60 214.30 L 830.70 213.40 L 834.60 213.80 L 838.30 215.40 L 841.30 217.90 L 843.50 221.40 L 846.70 220.70 L 850.00 221.50 L 852.50 223.70 L 853.80 226.90 L 855.50 227.00 L 858.40 228.10 L 860.30 229.60 L 861.80 231.50 L 862.90 234.50 L 863.00 236.20 L 862.90 237.90 L 861.80 240.90 L 860.30 242.70 L 858.40 244.20 L 855.40 245.30 L 853.70 245.40 Z" fill="#e2efff" fill-rule="nonzero" group-id="1,5" id="联合_164" node-id="16" stroke="none" target-height="32" target-width="50" target-x="813" target-y="213.4"></path><path d="M 648.30 196.90 L 646.50 196.70 L 644.90 196.00 L 643.50 195.00 L 642.40 193.60 L 641.80 192.00 L 641.50 190.20 L 641.80 188.30 L 642.40 186.70 L 643.50 185.40 L 644.90 184.30 L 646.40 183.60 L 648.30 183.40 L 649.20 181.10 L 651.00 179.50 L 653.50 178.90 L 655.80 179.40 L 656.90 177.40 L 658.40 175.90 L 660.20 174.70 L 662.30 173.90 L 664.40 173.60 L 666.70 173.80 L 668.90 174.50 L 670.70 175.70 L 672.20 177.20 L 673.40 179.10 L 674.10 181.10 L 674.30 184.10 L 676.70 186.00 L 677.90 188.70 L 677.90 191.70 L 676.60 194.40 L 674.20 196.30 L 671.30 196.90 Z" fill="#e2efff" fill-rule="nonzero" group-id="1,6" id="联合_165" node-id="17" stroke="none" target-height="23.299988" target-width="36.400024" target-x="641.5" target-y="173.6"></path><path d="M 891.70 271.80 L 894.60 272.10 L 897.30 272.80 L 899.80 274.00 L 902.00 275.60 L 903.90 277.50 L 905.50 279.70 L 906.70 282.20 L 907.40 284.90 L 907.70 287.80 L 907.70 574.80 L 907.40 577.80 L 906.70 580.40 L 905.50 582.90 L 903.90 585.20 L 902.00 587.10 L 899.80 588.70 L 897.30 589.80 L 894.60 590.60 L 891.70 590.80 L 479.30 590.80 L 476.40 590.60 L 473.70 589.80 L 471.30 588.70 L 469.00 587.10 L 467.10 585.20 L 465.50 582.90 L 464.30 580.40 L 463.60 577.80 L 463.30 574.80 L 463.30 287.80 L 463.60 284.90 L 464.30 282.20 L 465.50 279.70 L 467.10 277.50 L 469.00 275.60 L 471.30 274.00 L 473.70 272.80 L 476.40 272.10 L 479.30 271.80 Z" fill="#458cfb" fill-rule="nonzero" group-id="1,7,15" id="矩形_1402" node-id="19" stroke="none" target-height="319" target-width="444.40002" target-x="463.3" target-y="271.8"></path><path d="M 876.90 320.10 L 880.40 320.70 L 883.40 322.50 L 885.50 325.10 L 886.30 326.60 L 886.90 330.10 L 886.90 561.30 L 886.30 564.80 L 884.60 567.80 L 882.00 570.00 L 880.40 570.70 L 876.90 571.30 L 493.10 571.30 L 491.20 571.20 L 488.00 570.00 L 486.60 569.00 L 484.40 566.40 L 483.20 563.10 L 483.10 561.30 L 483.10 330.10 L 483.70 326.60 L 485.40 323.70 L 488.00 321.50 L 489.60 320.70 L 493.10 320.10 Z" fill="#cde2fc" fill-rule="nonzero" group-id="1,7,16" id="矩形_1404" node-id="20" stroke="none" target-height="251.19998" target-width="403.80002" target-x="483.1" target-y="320.1"></path><path d="M 550.90 299.90 L 551.20 298.30 L 551.80 296.80 L 552.70 295.60 L 554.00 294.60 L 555.40 294.00 L 557.10 293.80 L 558.80 294.00 L 560.20 294.60 L 561.50 295.60 L 562.40 296.80 L 563.00 298.30 L 563.30 299.90 L 563.00 301.60 L 562.40 303.00 L 561.50 304.30 L 560.20 305.30 L 558.80 305.90 L 557.10 306.10 L 555.40 305.90 L 554.00 305.30 L 552.70 304.30 L 551.80 303.00 L 551.20 301.60 L 550.90 299.90 Z" fill="#152e77" fill-rule="nonzero" group-id="1,7,17,46" id="椭圆_365" node-id="22" stroke="none" target-height="12.300018" target-width="12.399963" target-x="550.9" target-y="293.8"></path><path d="M 808.80 299.90 L 809.00 298.30 L 809.60 296.80 L 810.60 295.60 L 811.80 294.60 L 813.20 294.00 L 814.90 293.80 L 816.60 294.00 L 818.00 294.60 L 819.30 295.60 L 820.30 296.80 L 820.90 298.30 L 821.10 299.90 L 820.90 301.60 L 820.30 303.00 L 819.30 304.30 L 818.00 305.30 L 816.60 305.90 L 814.90 306.10 L 813.20 305.90 L 811.80 305.30 L 810.60 304.30 L 809.60 303.00 L 809.00 301.60 L 808.80 299.90 Z" fill="#152e77" fill-rule="nonzero" group-id="1,7,17,47" id="椭圆_366" node-id="23" stroke="none" target-height="12.300018" target-width="12.299988" target-x="808.8" target-y="293.8"></path><path d="M 760.60 293.80 L 762.30 294.00 L 763.80 294.60 L 765.00 295.60 L 766.00 296.80 L 766.60 298.30 L 766.80 299.90 L 766.60 301.60 L 766.00 303.00 L 765.00 304.30 L 763.80 305.30 L 762.30 305.90 L 760.60 306.10 L 612.60 306.10 L 610.90 305.90 L 609.50 305.30 L 608.20 304.30 L 607.30 303.00 L 606.70 301.60 L 606.40 299.90 L 606.70 298.30 L 607.30 296.80 L 608.20 295.60 L 609.50 294.60 L 610.90 294.00 L 612.60 293.80 Z" fill="#152e77" fill-rule="nonzero" group-id="1,7,17,48" id="矩形_1431" node-id="24" stroke="none" target-height="12.300018" target-width="160.39996" target-x="606.4" target-y="293.8"></path><path d="M 586.70 352.40 L 590.20 353.00 L 593.20 354.70 L 595.30 357.30 L 596.10 358.90 L 596.70 362.40 L 596.50 418.20 L 595.30 421.40 L 593.20 424.00 L 590.20 425.80 L 586.70 426.40 L 532.70 426.40 L 529.20 425.80 L 527.60 425.00 L 525.00 422.80 L 523.30 419.90 L 522.70 416.40 L 522.90 360.60 L 524.10 357.30 L 526.20 354.70 L 529.20 353.00 L 532.70 352.40 Z" fill="#f1f7ff" fill-rule="nonzero" group-id="1,7,18,49" id="矩形_1432" node-id="26" stroke="none" target-height="74" target-width="74" target-x="522.7" target-y="352.4"></path><path d="M 541.20 390.00 L 541.50 386.70 L 542.30 383.70 L 543.60 381.00 L 545.40 378.50 L 547.50 376.30 L 550.10 374.60 L 552.80 373.20 L 555.80 372.40 L 559.10 372.10 L 562.30 372.40 L 565.30 373.20 L 568.10 374.60 L 570.60 376.30 L 572.70 378.50 L 574.50 381.00 L 575.80 383.70 L 576.70 386.70 L 577.00 390.00 L 576.70 393.30 L 575.80 396.30 L 574.50 399.00 L 572.70 401.50 L 570.60 403.70 L 568.10 405.40 L 565.30 406.80 L 562.30 407.60 L 559.10 407.90 L 555.80 407.60 L 552.80 406.80 L 550.10 405.40 L 547.50 403.70 L 545.40 401.50 L 543.60 399.00 L 542.30 396.30 L 541.50 393.30 L 541.20 390.00 Z" fill="none" group-id="1,7,18,50" node-id="238" stroke="none" target-height="35.799988" target-width="35.799988" target-x="541.2" target-y="372.1"></path><path d="M 559.10 374.10 L 555.90 374.40 L 553.00 375.30 L 550.30 376.80 L 547.80 378.80 L 545.80 381.20 L 544.40 383.90 L 543.50 386.90 L 543.20 390.00 L 543.50 393.10 L 544.40 396.10 L 545.80 398.80 L 547.80 401.20 L 550.30 403.20 L 553.00 404.70 L 555.90 405.60 L 559.10 405.90 L 562.20 405.60 L 565.20 404.70 L 567.90 403.20 L 570.30 401.20 L 572.30 398.80 L 573.80 396.10 L 574.70 393.10 L 575.00 390.00 L 574.70 386.90 L 573.80 383.90 L 572.30 381.20 L 570.30 378.80 L 567.90 376.80 L 565.20 375.30 L 562.20 374.40 L 559.10 374.10 M 559.10 372.10 L 562.30 372.40 L 565.30 373.20 L 568.10 374.60 L 570.60 376.30 L 572.70 378.50 L 574.50 381.00 L 575.80 383.70 L 576.70 386.70 L 577.00 390.00 L 576.70 393.30 L 575.80 396.30 L 574.50 399.00 L 572.70 401.50 L 570.60 403.70 L 568.10 405.40 L 565.30 406.80 L 562.30 407.60 L 559.10 407.90 L 555.80 407.60 L 552.80 406.80 L 550.10 405.40 L 547.50 403.70 L 545.40 401.50 L 543.60 399.00 L 542.30 396.30 L 541.50 393.30 L 541.20 390.00 L 541.50 386.70 L 542.30 383.70 L 543.60 381.00 L 545.40 378.50 L 547.50 376.30 L 550.10 374.60 L 552.80 373.20 L 555.80 372.40 L 559.10 372.10 Z" fill="#a1c7f6" fill-rule="nonzero" group-id="1,7,18,50" node-id="240" stroke="none" target-height="35.799988" target-width="35.799988" target-x="541.2" target-y="372.1"></path><path d="M 586.70 529.30 L 532.70 529.30 L 530.50 529.00 L 528.70 528.20 L 527.00 526.90 L 525.80 525.30 L 525.00 523.40 L 524.70 521.30 L 524.70 467.30 L 525.00 465.10 L 525.80 463.20 L 527.00 461.60 L 528.70 460.40 L 530.50 459.60 L 532.70 459.30 L 586.70 459.30 L 588.80 459.60 L 590.70 460.40 L 592.40 461.60 L 593.60 463.20 L 594.40 465.10 L 594.70 467.30 L 594.70 521.30 L 594.40 523.40 L 593.60 525.30 L 592.40 526.90 L 590.70 528.20 L 588.80 529.00 L 586.70 529.30 Z" fill="#4d91fd" fill-rule="nonzero" group-id="1,7,19,51" node-id="246" stroke="none" target-height="70" target-width="70" target-x="524.7" target-y="459.3"></path><path d="M 532.70 461.30 L 531.10 461.50 L 528.40 463.00 L 526.90 465.60 L 526.70 467.30 L 526.70 521.30 L 526.90 522.90 L 527.50 524.30 L 528.40 525.50 L 531.10 527.10 L 532.70 527.30 L 586.70 527.30 L 588.30 527.10 L 590.90 525.50 L 592.50 522.90 L 592.70 521.30 L 592.70 467.30 L 592.50 465.60 L 591.90 464.20 L 590.90 463.00 L 589.70 462.10 L 588.30 461.50 L 586.70 461.30 L 532.70 461.30 M 532.70 457.30 L 586.70 457.30 L 590.20 457.90 L 591.80 458.60 L 594.30 460.80 L 596.10 463.80 L 596.70 467.30 L 596.50 523.10 L 595.30 526.30 L 593.20 528.90 L 590.20 530.70 L 586.70 531.30 L 532.70 531.30 L 529.20 530.70 L 527.60 529.90 L 525.00 527.70 L 523.30 524.80 L 522.70 521.30 L 522.90 465.40 L 524.10 462.20 L 526.20 459.60 L 529.20 457.90 L 532.70 457.30 Z" fill="#eef5ff" fill-rule="nonzero" group-id="1,7,19,51" node-id="248" stroke="none" target-height="74" target-width="74" target-x="522.7" target-y="457.3"></path><path d="M 541.20 494.90 L 541.50 491.60 L 542.30 488.60 L 543.60 485.90 L 545.40 483.40 L 547.50 481.20 L 550.10 479.40 L 552.80 478.10 L 555.80 477.30 L 559.10 477.00 L 562.30 477.30 L 565.30 478.10 L 568.10 479.40 L 570.60 481.20 L 572.70 483.40 L 574.50 485.90 L 575.80 488.60 L 576.70 491.60 L 577.00 494.90 L 576.70 498.20 L 575.80 501.10 L 574.50 503.90 L 572.70 506.40 L 570.60 508.60 L 568.10 510.30 L 565.30 511.70 L 562.30 512.50 L 559.10 512.80 L 555.80 512.50 L 552.80 511.70 L 550.10 510.30 L 547.50 508.60 L 545.40 506.40 L 543.60 503.90 L 542.30 501.10 L 541.50 498.20 L 541.20 494.90 Z" fill="none" group-id="1,7,19,52" node-id="252" stroke="none" target-height="35.799988" target-width="35.799988" target-x="541.2" target-y="477"></path><path d="M 559.10 479.00 L 555.90 479.30 L 553.00 480.20 L 550.30 481.70 L 547.80 483.70 L 545.80 486.10 L 544.40 488.80 L 543.50 491.80 L 543.20 494.90 L 543.50 498.00 L 544.40 501.00 L 545.80 503.70 L 547.80 506.10 L 550.30 508.10 L 553.00 509.60 L 555.90 510.50 L 559.10 510.80 L 562.20 510.50 L 565.20 509.60 L 567.90 508.10 L 570.30 506.10 L 572.30 503.70 L 573.80 501.00 L 574.70 498.00 L 575.00 494.90 L 574.70 491.80 L 573.80 488.80 L 572.30 486.10 L 570.30 483.70 L 567.90 481.70 L 565.20 480.20 L 562.20 479.30 L 559.10 479.00 M 559.10 477.00 L 562.30 477.30 L 565.30 478.10 L 568.10 479.40 L 570.60 481.20 L 572.70 483.40 L 574.50 485.90 L 575.80 488.60 L 576.70 491.60 L 577.00 494.90 L 576.70 498.20 L 575.80 501.10 L 574.50 503.90 L 572.70 506.40 L 570.60 508.60 L 568.10 510.30 L 565.30 511.70 L 562.30 512.50 L 559.10 512.80 L 555.80 512.50 L 552.80 511.70 L 550.10 510.30 L 547.50 508.60 L 545.40 506.40 L 543.60 503.90 L 542.30 501.10 L 541.50 498.20 L 541.20 494.90 L 541.50 491.60 L 542.30 488.60 L 543.60 485.90 L 545.40 483.40 L 547.50 481.20 L 550.10 479.40 L 552.80 478.10 L 555.80 477.30 L 559.10 477.00 Z" fill="#a1c7f6" fill-rule="nonzero" group-id="1,7,19,52" node-id="254" stroke="none" target-height="35.799988" target-width="35.799988" target-x="541.2" target-y="477"></path><path d="M 711.70 352.40 L 715.20 353.00 L 716.70 353.70 L 719.30 355.90 L 721.10 358.90 L 721.70 362.40 L 721.50 418.20 L 720.30 421.40 L 718.10 424.00 L 715.20 425.80 L 711.70 426.40 L 657.70 426.40 L 654.20 425.80 L 652.60 425.00 L 650.00 422.80 L 648.30 419.90 L 647.70 416.40 L 647.80 360.60 L 649.00 357.30 L 651.20 354.70 L 654.20 353.00 L 657.70 352.40 Z" fill="#f1f7ff" fill-rule="nonzero" group-id="1,7,20,53" id="矩形_1432-3" node-id="38" stroke="none" target-height="74" target-width="74" target-x="647.7" target-y="352.4"></path><path d="M 666.20 390.00 L 666.50 386.70 L 667.30 383.70 L 668.60 381.00 L 670.40 378.50 L 672.50 376.30 L 675.00 374.60 L 677.80 373.20 L 680.80 372.40 L 684.10 372.10 L 687.30 372.40 L 690.30 373.20 L 693.10 374.60 L 695.60 376.30 L 697.70 378.50 L 699.50 381.00 L 700.80 383.70 L 701.60 386.70 L 702.00 390.00 L 701.60 393.30 L 700.80 396.30 L 699.50 399.00 L 697.70 401.50 L 695.60 403.70 L 693.10 405.40 L 690.30 406.80 L 687.30 407.60 L 684.10 407.90 L 680.80 407.60 L 677.80 406.80 L 675.00 405.40 L 672.50 403.70 L 670.40 401.50 L 668.60 399.00 L 667.30 396.30 L 666.50 393.30 L 666.20 390.00 Z" fill="none" group-id="1,7,20,54" node-id="264" stroke="none" target-height="35.799988" target-width="35.799988" target-x="666.2" target-y="372.1"></path><path d="M 684.10 374.10 L 680.90 374.40 L 678.00 375.30 L 675.30 376.80 L 672.80 378.80 L 670.80 381.20 L 669.40 383.90 L 668.50 386.90 L 668.20 390.00 L 668.50 393.10 L 669.40 396.10 L 670.80 398.80 L 672.80 401.20 L 675.30 403.20 L 678.00 404.70 L 680.90 405.60 L 684.10 405.90 L 687.20 405.60 L 690.10 404.70 L 692.90 403.20 L 695.30 401.20 L 697.30 398.80 L 698.70 396.10 L 699.60 393.10 L 700.00 390.00 L 699.60 386.90 L 698.70 383.90 L 697.30 381.20 L 695.30 378.80 L 692.90 376.80 L 690.10 375.30 L 687.20 374.40 L 684.10 374.10 M 684.10 372.10 L 687.30 372.40 L 690.30 373.20 L 693.10 374.60 L 695.60 376.30 L 697.70 378.50 L 699.50 381.00 L 700.80 383.70 L 701.60 386.70 L 702.00 390.00 L 701.60 393.30 L 700.80 396.30 L 699.50 399.00 L 697.70 401.50 L 695.60 403.70 L 693.10 405.40 L 690.30 406.80 L 687.30 407.60 L 684.10 407.90 L 680.80 407.60 L 677.80 406.80 L 675.00 405.40 L 672.50 403.70 L 670.40 401.50 L 668.60 399.00 L 667.30 396.30 L 666.50 393.30 L 666.20 390.00 L 666.50 386.70 L 667.30 383.70 L 668.60 381.00 L 670.40 378.50 L 672.50 376.30 L 675.00 374.60 L 677.80 373.20 L 680.80 372.40 L 684.10 372.10 Z" fill="#a1c7f6" fill-rule="nonzero" group-id="1,7,20,54" node-id="266" stroke="none" target-height="35.799988" target-width="35.799988" target-x="666.2" target-y="372.1"></path><path d="M 837.30 352.40 L 840.80 353.00 L 842.30 353.70 L 844.90 355.90 L 846.70 358.90 L 847.30 362.40 L 847.10 418.20 L 845.90 421.40 L 843.70 424.00 L 840.80 425.80 L 837.30 426.40 L 783.30 426.40 L 779.80 425.80 L 778.20 425.00 L 775.60 422.80 L 773.90 419.90 L 773.30 416.40 L 773.40 360.60 L 774.60 357.30 L 776.80 354.70 L 779.80 353.00 L 783.30 352.40 Z" fill="#f1f7ff" fill-rule="nonzero" group-id="1,7,21,55" id="矩形_1432-4" node-id="43" stroke="none" target-height="74" target-width="74" target-x="773.3" target-y="352.4"></path><path d="M 791.80 390.00 L 792.10 386.70 L 792.90 383.70 L 794.20 381.00 L 796.00 378.50 L 798.10 376.30 L 800.60 374.60 L 803.40 373.20 L 806.40 372.40 L 809.70 372.10 L 812.90 372.40 L 815.90 373.20 L 818.70 374.60 L 821.20 376.30 L 823.30 378.50 L 825.10 381.00 L 826.40 383.70 L 827.30 386.70 L 827.60 390.00 L 827.30 393.30 L 826.40 396.30 L 825.10 399.00 L 823.30 401.50 L 821.20 403.70 L 818.70 405.40 L 815.90 406.80 L 812.90 407.60 L 809.70 407.90 L 806.40 407.60 L 803.40 406.80 L 800.60 405.40 L 798.10 403.70 L 796.00 401.50 L 794.20 399.00 L 792.90 396.30 L 792.10 393.30 L 791.80 390.00 Z" fill="none" group-id="1,7,21,56" node-id="276" stroke="none" target-height="35.799988" target-width="35.799988" target-x="791.8" target-y="372.1"></path><path d="M 809.70 374.10 L 806.50 374.40 L 803.60 375.30 L 800.90 376.80 L 798.40 378.80 L 796.40 381.20 L 795.00 383.90 L 794.10 386.90 L 793.80 390.00 L 794.10 393.10 L 795.00 396.10 L 796.40 398.80 L 798.40 401.20 L 800.90 403.20 L 803.60 404.70 L 806.50 405.60 L 809.70 405.90 L 812.80 405.60 L 815.80 404.70 L 818.50 403.20 L 820.90 401.20 L 822.90 398.80 L 824.40 396.10 L 825.20 393.10 L 825.60 390.00 L 825.20 386.90 L 824.40 383.90 L 822.90 381.20 L 820.90 378.80 L 818.50 376.80 L 815.80 375.30 L 812.80 374.40 L 809.70 374.10 M 809.70 372.10 L 812.90 372.40 L 815.90 373.20 L 818.70 374.60 L 821.20 376.30 L 823.30 378.50 L 825.10 381.00 L 826.40 383.70 L 827.30 386.70 L 827.60 390.00 L 827.30 393.30 L 826.40 396.30 L 825.10 399.00 L 823.30 401.50 L 821.20 403.70 L 818.70 405.40 L 815.90 406.80 L 812.90 407.60 L 809.70 407.90 L 806.40 407.60 L 803.40 406.80 L 800.60 405.40 L 798.10 403.70 L 796.00 401.50 L 794.20 399.00 L 792.90 396.30 L 792.10 393.30 L 791.80 390.00 L 792.10 386.70 L 792.90 383.70 L 794.20 381.00 L 796.00 378.50 L 798.10 376.30 L 800.60 374.60 L 803.40 373.20 L 806.40 372.40 L 809.70 372.10 Z" fill="#a1c7f6" fill-rule="nonzero" group-id="1,7,21,56" node-id="278" stroke="none" target-height="35.799988" target-width="35.799988" target-x="791.8" target-y="372.1"></path><path d="M 711.70 529.30 L 657.70 529.30 L 655.50 529.00 L 653.60 528.20 L 652.00 526.90 L 650.80 525.30 L 650.00 523.40 L 649.70 521.30 L 649.70 467.30 L 650.00 465.10 L 650.80 463.20 L 652.00 461.60 L 653.60 460.40 L 655.50 459.60 L 657.70 459.30 L 711.70 459.30 L 713.80 459.60 L 715.70 460.40 L 717.30 461.60 L 718.60 463.20 L 719.40 465.10 L 719.70 467.30 L 719.70 521.30 L 719.40 523.40 L 718.60 525.30 L 717.30 526.90 L 715.70 528.20 L 713.80 529.00 L 711.70 529.30 Z" fill="#4d91fd" fill-rule="nonzero" group-id="1,7,22,57" node-id="284" stroke="none" target-height="70" target-width="70" target-x="649.7" target-y="459.3"></path><path d="M 657.70 461.30 L 656.00 461.50 L 654.60 462.10 L 653.40 463.00 L 651.90 465.60 L 651.70 467.30 L 651.70 521.30 L 651.90 522.90 L 652.50 524.30 L 653.40 525.50 L 654.60 526.50 L 656.00 527.10 L 657.70 527.30 L 711.70 527.30 L 713.30 527.10 L 714.70 526.50 L 715.90 525.50 L 716.90 524.30 L 717.50 522.90 L 717.70 521.30 L 717.70 467.30 L 717.50 465.60 L 716.90 464.20 L 715.90 463.00 L 714.70 462.10 L 713.30 461.50 L 711.70 461.30 L 657.70 461.30 M 657.70 457.30 L 711.70 457.30 L 715.20 457.90 L 716.70 458.60 L 719.30 460.80 L 721.10 463.80 L 721.70 467.30 L 721.50 523.10 L 720.30 526.30 L 718.10 528.90 L 715.20 530.70 L 711.70 531.30 L 657.70 531.30 L 654.20 530.70 L 652.60 529.90 L 650.00 527.70 L 648.30 524.80 L 647.70 521.30 L 647.80 465.40 L 649.00 462.20 L 651.20 459.60 L 654.20 457.90 L 657.70 457.30 Z" fill="#eef5ff" fill-rule="nonzero" group-id="1,7,22,57" node-id="286" stroke="none" target-height="74" target-width="74" target-x="647.7" target-y="457.3"></path><path d="M 666.20 494.90 L 666.50 491.60 L 667.30 488.60 L 668.60 485.90 L 670.40 483.40 L 672.50 481.20 L 675.00 479.40 L 677.80 478.10 L 680.80 477.30 L 684.10 477.00 L 687.30 477.30 L 690.30 478.10 L 693.10 479.40 L 695.60 481.20 L 697.70 483.40 L 699.50 485.90 L 700.80 488.60 L 701.60 491.60 L 702.00 494.90 L 701.60 498.20 L 700.80 501.10 L 699.50 503.90 L 697.70 506.40 L 695.60 508.60 L 693.10 510.30 L 690.30 511.70 L 687.30 512.50 L 684.10 512.80 L 680.80 512.50 L 677.80 511.70 L 675.00 510.30 L 672.50 508.60 L 670.40 506.40 L 668.60 503.90 L 667.30 501.10 L 666.50 498.20 L 666.20 494.90 Z" fill="none" group-id="1,7,22,58" node-id="290" stroke="none" target-height="35.799988" target-width="35.799988" target-x="666.2" target-y="477"></path><path d="M 684.10 479.00 L 680.90 479.30 L 678.00 480.20 L 675.30 481.70 L 672.80 483.70 L 670.80 486.10 L 669.40 488.80 L 668.50 491.80 L 668.20 494.90 L 668.50 498.00 L 669.40 501.00 L 670.80 503.70 L 672.80 506.10 L 675.30 508.10 L 678.00 509.60 L 680.90 510.50 L 684.10 510.80 L 687.20 510.50 L 690.10 509.60 L 692.90 508.10 L 695.30 506.10 L 697.30 503.70 L 698.70 501.00 L 699.60 498.00 L 700.00 494.90 L 699.60 491.80 L 698.70 488.80 L 697.30 486.10 L 695.30 483.70 L 692.90 481.70 L 690.10 480.20 L 687.20 479.30 L 684.10 479.00 M 684.10 477.00 L 687.30 477.30 L 690.30 478.10 L 693.10 479.40 L 695.60 481.20 L 697.70 483.40 L 699.50 485.90 L 700.80 488.60 L 701.60 491.60 L 702.00 494.90 L 701.60 498.20 L 700.80 501.10 L 699.50 503.90 L 697.70 506.40 L 695.60 508.60 L 693.10 510.30 L 690.30 511.70 L 687.30 512.50 L 684.10 512.80 L 680.80 512.50 L 677.80 511.70 L 675.00 510.30 L 672.50 508.60 L 670.40 506.40 L 668.60 503.90 L 667.30 501.10 L 666.50 498.20 L 666.20 494.90 L 666.50 491.60 L 667.30 488.60 L 668.60 485.90 L 670.40 483.40 L 672.50 481.20 L 675.00 479.40 L 677.80 478.10 L 680.80 477.30 L 684.10 477.00 Z" fill="#a1c7f6" fill-rule="nonzero" group-id="1,7,22,58" node-id="292" stroke="none" target-height="35.799988" target-width="35.799988" target-x="666.2" target-y="477"></path><path d="M 837.30 529.30 L 783.30 529.30 L 781.10 529.00 L 779.20 528.20 L 777.60 526.90 L 776.40 525.30 L 775.60 523.40 L 775.30 521.30 L 775.30 467.30 L 775.60 465.10 L 776.40 463.20 L 777.60 461.60 L 779.20 460.40 L 781.10 459.60 L 783.30 459.30 L 837.30 459.30 L 839.40 459.60 L 841.30 460.40 L 842.90 461.60 L 844.20 463.20 L 845.00 465.10 L 845.30 467.30 L 845.30 521.30 L 845.00 523.40 L 844.20 525.30 L 842.90 526.90 L 841.30 528.20 L 839.40 529.00 L 837.30 529.30 Z" fill="#4d91fd" fill-rule="nonzero" group-id="1,7,23,59" node-id="298" stroke="none" target-height="70" target-width="70" target-x="775.3" target-y="459.3"></path><path d="M 783.30 461.30 L 781.60 461.50 L 779.00 463.00 L 777.50 465.60 L 777.30 467.30 L 777.30 521.30 L 777.50 522.90 L 778.10 524.30 L 779.00 525.50 L 780.30 526.50 L 781.60 527.10 L 783.30 527.30 L 837.30 527.30 L 838.90 527.10 L 840.30 526.50 L 841.50 525.50 L 842.50 524.30 L 843.10 522.90 L 843.30 521.30 L 843.30 467.30 L 843.10 465.60 L 841.50 463.00 L 840.30 462.10 L 838.90 461.50 L 837.30 461.30 L 783.30 461.30 M 783.30 457.30 L 837.30 457.30 L 840.80 457.90 L 842.30 458.60 L 844.90 460.80 L 846.70 463.80 L 847.30 467.30 L 847.10 523.10 L 845.90 526.30 L 843.70 528.90 L 840.80 530.70 L 837.30 531.30 L 783.30 531.30 L 779.80 530.70 L 778.20 529.90 L 775.60 527.70 L 773.90 524.80 L 773.30 521.30 L 773.40 465.40 L 774.60 462.20 L 776.80 459.60 L 779.80 457.90 L 783.30 457.30 Z" fill="#eef5ff" fill-rule="nonzero" group-id="1,7,23,59" node-id="300" stroke="none" target-height="74" target-width="74" target-x="773.3" target-y="457.3"></path><path d="M 791.80 494.90 L 792.10 491.60 L 792.90 488.60 L 794.20 485.90 L 796.00 483.40 L 798.10 481.20 L 800.60 479.40 L 803.40 478.10 L 806.40 477.30 L 809.70 477.00 L 812.90 477.30 L 815.90 478.10 L 818.70 479.40 L 821.20 481.20 L 823.30 483.40 L 825.10 485.90 L 826.40 488.60 L 827.30 491.60 L 827.60 494.90 L 827.30 498.20 L 826.40 501.10 L 825.10 503.90 L 823.30 506.40 L 821.20 508.60 L 818.70 510.30 L 815.90 511.70 L 812.90 512.50 L 809.70 512.80 L 806.40 512.50 L 803.40 511.70 L 800.60 510.30 L 798.10 508.60 L 796.00 506.40 L 794.20 503.90 L 792.90 501.10 L 792.10 498.20 L 791.80 494.90 Z" fill="none" group-id="1,7,23,60" node-id="304" stroke="none" target-height="35.799988" target-width="35.799988" target-x="791.8" target-y="477"></path><path d="M 809.70 479.00 L 806.50 479.30 L 803.60 480.20 L 800.90 481.70 L 798.40 483.70 L 796.40 486.10 L 795.00 488.80 L 794.10 491.80 L 793.80 494.90 L 794.10 498.00 L 795.00 501.00 L 796.40 503.70 L 798.40 506.10 L 800.90 508.10 L 803.60 509.60 L 806.50 510.50 L 809.70 510.80 L 812.80 510.50 L 815.80 509.60 L 818.50 508.10 L 820.90 506.10 L 822.90 503.70 L 824.40 501.00 L 825.20 498.00 L 825.60 494.90 L 825.20 491.80 L 824.40 488.80 L 822.90 486.10 L 820.90 483.70 L 818.50 481.70 L 815.80 480.20 L 812.80 479.30 L 809.70 479.00 M 809.70 477.00 L 812.90 477.30 L 815.90 478.10 L 818.70 479.40 L 821.20 481.20 L 823.30 483.40 L 825.10 485.90 L 826.40 488.60 L 827.30 491.60 L 827.60 494.90 L 827.30 498.20 L 826.40 501.10 L 825.10 503.90 L 823.30 506.40 L 821.20 508.60 L 818.70 510.30 L 815.90 511.70 L 812.90 512.50 L 809.70 512.80 L 806.40 512.50 L 803.40 511.70 L 800.60 510.30 L 798.10 508.60 L 796.00 506.40 L 794.20 503.90 L 792.90 501.10 L 792.10 498.20 L 791.80 494.90 L 792.10 491.60 L 792.90 488.60 L 794.20 485.90 L 796.00 483.40 L 798.10 481.20 L 800.60 479.40 L 803.40 478.10 L 806.40 477.30 L 809.70 477.00 Z" fill="#a1c7f6" fill-rule="nonzero" group-id="1,7,23,60" node-id="306" stroke="none" target-height="35.799988" target-width="35.799988" target-x="791.8" target-y="477"></path><path d="M 191.20 632.30 L 191.20 728.10 L 190.10 729.50 L 186.50 731.50 L 179.10 733.50 L 173.10 734.30 L 166.30 734.80 L 157.10 735.10 L 147.80 734.80 L 134.40 733.50 L 126.10 731.50 L 121.70 729.50 L 119.90 728.10 L 119.90 632.30 Z" fill="url(#linearGradient1)" fill-rule="nonzero" group-id="1,8,24" id="路径_1167" node-id="62" stroke="none" target-height="102.79999" target-width="71.299995" target-x="119.9" target-y="632.3"></path><path d="M 119.60 632.60 L 119.80 631.80 L 120.70 630.90 L 122.40 629.90 L 125.50 628.70 L 130.10 627.60 L 141.50 626.10 L 155.50 625.50 L 169.50 626.10 L 181.00 627.60 L 185.60 628.70 L 188.70 629.90 L 190.40 630.90 L 191.20 631.80 L 191.50 632.60 L 191.20 633.50 L 190.40 634.40 L 188.70 635.40 L 185.60 636.50 L 181.00 637.60 L 169.50 639.20 L 155.50 639.70 L 141.50 639.20 L 130.10 637.60 L 125.50 636.50 L 122.40 635.40 L 120.70 634.40 L 119.80 633.50 L 119.60 632.60 Z" fill="#b7bbc2" fill-rule="nonzero" group-id="1,8,25" id="椭圆_359" node-id="63" stroke="none" target-height="14.200012" target-width="71.9" target-x="119.6" target-y="625.5"></path><path d="M 123.40 635.50 L 123.70 634.90 L 124.90 634.20 L 127.70 633.30 L 132.30 632.50 L 146.40 631.40 L 155.10 631.20 L 163.70 631.40 L 177.80 632.50 L 182.40 633.30 L 185.30 634.20 L 186.50 634.90 L 186.80 635.50 L 186.50 636.10 L 185.30 636.80 L 182.40 637.60 L 177.80 638.40 L 163.70 639.60 L 155.10 639.70 L 146.40 639.60 L 132.30 638.40 L 127.70 637.60 L 124.90 636.80 L 123.70 636.10 L 123.40 635.50 Z" fill="#769be5" fill-rule="nonzero" group-id="1,8,26" id="椭圆_360" node-id="64" stroke="none" target-height="8.5" target-width="63.4" target-x="123.4" target-y="631.2"></path><path d="M 169.20 609.90 L 168.30 606.00 L 166.70 601.80 L 162.50 597.00 L 161.60 595.20 L 160.20 589.40 L 159.90 583.00 L 160.30 580.40 L 160.90 578.90 L 161.60 578.00 L 164.10 577.00 L 165.90 575.70 L 168.80 571.90 L 169.80 569.60 L 170.30 565.90 L 169.20 563.30 L 167.80 561.90 L 160.50 558.30 L 158.00 555.90 L 156.60 552.60 L 156.20 549.50 L 157.00 538.00 L 156.80 535.90 L 156.30 534.70 L 155.40 533.70 L 154.20 532.90 L 151.90 532.30 L 149.30 532.30 L 146.80 532.80 L 144.30 533.70 L 142.00 535.00 L 140.10 536.60 L 138.50 538.40 L 136.50 541.90 L 135.20 543.20 L 129.00 546.80 L 128.10 547.70 L 127.80 548.80 L 128.00 550.00 L 128.70 551.50 L 132.30 557.10 L 132.90 558.80 L 130.00 561.20 L 127.70 564.30 L 125.90 570.80 L 125.10 572.00 L 121.10 575.00 L 120.40 576.10 L 120.10 577.90 L 120.10 580.10 L 121.60 587.50 L 122.00 591.80 L 121.50 594.10 L 119.60 598.40 L 118.40 606.90 L 118.10 612.60 L 118.30 614.30 L 119.80 617.20 L 120.90 618.40 L 122.50 619.50 L 124.80 620.40 L 130.90 621.70 L 137.20 621.70 L 147.20 620.40 L 158.50 619.70 L 164.40 618.20 L 166.10 617.40 L 168.50 615.20 L 169.20 613.80 L 169.40 612.10 L 169.20 609.90 Z" fill="#adbbb4" fill-rule="nonzero" group-id="1,8,27,61" id="路径_1168" node-id="66" stroke="none" target-height="89.400024" target-width="52.200005" target-x="118.1" target-y="532.3"></path><path d="M 147.40 539.90 L 144.60 555.70 L 142.40 571.90 L 140.70 590.70 L 140.30 600.40 L 140.80 615.90 L 142.40 626.80 L 143.70 631.80 L 145.40 636.00 L 147.40 639.50" fill="none" group-id="1,8,27,62" id="路径_1169" node-id="67" stroke="#ababab" stroke-linecap="butt" stroke-width="0.6" target-height="99.599976" target-width="7.099991" target-x="140.3" target-y="539.9"></path><path d="M 152.30 549.30 L 144.00 559.80 L 139.60 553.90" fill="none" group-id="1,8,27,63" id="路径_1170" node-id="68" stroke="#ababab" stroke-linecap="butt" stroke-width="0.6" target-height="10.5" target-width="12.699997" target-x="139.6" target-y="549.3"></path><path d="M 157.70 566.60 L 154.40 568.10 L 151.30 570.10 L 148.60 572.40 L 146.30 574.70 L 141.90 580.50 L 136.00 572.60 L 132.70 569.20" fill="none" group-id="1,8,27,64" id="路径_1171" node-id="69" stroke="#ababab" stroke-linecap="butt" stroke-width="0.6" target-height="13.900024" target-width="25" target-x="132.7" target-y="566.6"></path><path d="M 155.90 588.80 L 153.10 590.10 L 150.20 592.00 L 147.50 594.20 L 145.10 596.60 L 140.10 602.70 L 138.20 598.30 L 134.80 592.60 L 130.80 588.20 L 126.90 585.80" fill="none" group-id="1,8,27,65" id="路径_1172" node-id="70" stroke="#ababab" stroke-linecap="butt" stroke-width="0.6" target-height="16.900024" target-width="28.999992" target-x="126.9" target-y="585.8"></path><path d="M 150.20 608.40 L 148.50 608.90 L 145.20 611.50 L 140.80 617.40 L 128.40 612.70" fill="none" group-id="1,8,27,66" id="路径_1173" node-id="71" stroke="#ababab" stroke-linecap="butt" stroke-width="0.6" target-height="9" target-width="21.800003" target-x="128.4" target-y="608.4"></path><path d="M 135.10 604.30 L 136.20 599.70 L 138.10 594.70 L 138.90 593.30 L 143.10 588.90 L 144.00 587.40 L 144.80 584.90 L 146.00 579.20 L 146.20 573.10 L 145.90 570.40 L 144.70 567.00 L 144.00 566.30 L 141.90 565.50 L 139.10 563.60 L 137.20 561.60 L 135.60 559.10 L 134.40 556.40 L 133.90 553.80 L 133.90 552.00 L 134.30 550.40 L 135.10 548.90 L 136.90 547.20 L 145.50 543.00 L 147.40 541.40 L 148.50 540.20 L 150.10 536.10 L 150.60 532.50 L 149.60 518.80 L 149.90 516.30 L 150.50 514.90 L 151.50 513.70 L 153.00 512.80 L 156.70 512.00 L 158.80 512.10 L 161.80 512.70 L 164.70 513.80 L 167.50 515.30 L 169.80 517.10 L 171.70 519.20 L 174.00 523.50 L 175.60 525.10 L 182.90 529.30 L 184.20 530.80 L 184.40 531.70 L 184.10 533.10 L 183.30 534.90 L 179.00 541.50 L 178.30 543.50 L 181.90 546.50 L 184.30 549.80 L 185.30 552.10 L 186.90 558.40 L 188.70 560.40 L 192.40 562.80 L 193.30 564.70 L 193.50 568.90 L 191.70 577.60 L 191.20 582.80 L 191.90 585.50 L 193.70 589.00 L 194.20 590.70 L 195.60 600.70 L 195.90 607.50 L 195.60 609.50 L 193.90 613.00 L 192.60 614.40 L 190.60 615.70 L 187.90 616.80 L 180.70 618.30 L 173.20 618.30 L 161.30 616.80 L 147.80 615.90 L 144.10 615.20 L 140.80 614.20 L 138.80 613.20 L 137.20 612.00 L 136.00 610.60 L 135.20 609.00 L 134.90 606.90 L 135.10 604.30 Z" fill="#cbd7d1" fill-rule="nonzero" group-id="1,8,28,67" id="路径_1168-2" node-id="73" stroke="none" target-height="106.29999" target-width="62" target-x="133.9" target-y="512"></path><path d="M 161.00 521.10 L 163.70 535.80 L 167.20 560.30 L 169.00 580.00 L 169.50 600.10 L 169.10 609.50 L 167.60 621.40 L 166.50 626.60 L 165.00 631.60 L 163.10 635.90 L 161.00 639.50" fill="none" group-id="1,8,28,68" id="路径_1169-2" node-id="74" stroke="#707070" stroke-linecap="butt" stroke-width="0.6" target-height="118.400024" target-width="8.5" target-x="161" target-y="521.1"></path><path d="M 155.20 532.20 L 165.10 544.70 L 170.30 537.70" fill="none" group-id="1,8,28,69" id="路径_1170-2" node-id="75" stroke="#707070" stroke-linecap="butt" stroke-width="0.6" target-height="12.5" target-width="15.100006" target-x="155.2" target-y="532.2"></path><path d="M 148.80 552.90 L 154.00 555.30 L 159.70 559.70 L 164.70 565.20 L 167.60 569.30 L 174.60 560.00 L 178.50 555.90" fill="none" group-id="1,8,28,70" id="路径_1171-2" node-id="76" stroke="#707070" stroke-linecap="butt" stroke-width="0.6" target-height="16.399963" target-width="29.699997" target-x="148.8" target-y="552.9"></path><path d="M 150.90 579.30 L 153.60 580.40 L 159.00 584.00 L 165.70 590.70 L 169.70 595.70 L 173.80 587.20 L 177.60 581.70 L 179.90 579.30 L 182.60 577.10 L 185.50 575.60" fill="none" group-id="1,8,28,71" id="路径_1172-2" node-id="77" stroke="#707070" stroke-linecap="butt" stroke-width="0.6" target-height="20.100037" target-width="34.600006" target-x="150.9" target-y="575.6"></path><path d="M 157.70 602.50 L 160.40 603.50 L 163.70 606.20 L 165.40 608.10 L 168.90 613.30 L 183.60 607.60" fill="none" group-id="1,8,28,72" id="路径_1173-2" node-id="78" stroke="#707070" stroke-linecap="butt" stroke-width="0.6" target-height="10.799988" target-width="25.90001" target-x="157.7" target-y="602.5"></path><path d="M 802.80 729.50 L 802.80 570.50 L 617.80 570.50 L 617.80 729.50 L 605.80 729.50 L 605.80 570.50 L 539.80 570.50 L 539.80 559.50 L 881.80 559.50 L 881.80 570.50 L 814.80 570.50 L 814.80 729.50 Z" fill="#000519" fill-rule="nonzero" group-id="1,9" id="联合_168" node-id="79" stroke="none" target-height="170" target-width="342" target-x="539.8" target-y="559.5"></path><path d="M 666.30 519.40 L 665.60 516.50 L 665.40 514.20 L 665.80 508.70 L 665.70 507.60 L 665.20 506.80 L 664.10 506.30 L 663.30 506.30 L 662.10 507.50 L 661.10 511.10 L 660.60 514.90 L 659.90 516.60 L 658.10 514.70 L 649.10 502.50 L 648.10 501.80 L 647.30 501.70 L 646.50 502.10 L 645.50 503.50 L 644.70 505.70 L 644.40 508.30 L 644.50 511.20 L 645.70 516.70 L 648.20 523.60 L 649.80 527.00 L 652.80 531.60 L 655.20 533.70 L 665.60 539.30 L 668.00 528.40 L 667.80 525.40 L 666.30 519.40 Z" fill="#ffa271" fill-rule="nonzero" group-id="1,10,29,73" id="路径_1228" node-id="82" stroke="none" target-height="37.599976" target-width="23.599976" target-x="644.4" target-y="501.7"></path><path d="M 722.80 619.90 L 701.00 619.80 L 699.60 620.00 L 698.60 620.50 L 695.80 623.70 L 694.30 626.30 L 693.20 629.40 L 692.10 636.30 L 692.50 643.30 L 693.20 647.00 L 696.10 656.00 L 707.80 657.00 L 724.50 657.50 L 734.60 657.00 L 739.30 656.20 L 776.20 633.20 L 769.80 600.50 L 724.90 614.70 L 725.30 617.20 L 725.20 618.10 L 724.00 619.60 L 722.80 619.90 Z" fill="#172065" fill-rule="nonzero" group-id="1,10,29,74" id="路径_1230" node-id="83" stroke="none" target-height="57" target-width="84.10004" target-x="692.1" target-y="600.5"></path><path d="M 745.40 493.80 L 765.50 493.80 L 765.50 517.00 L 745.40 517.00 Z" fill="#ffae80" fill-rule="nonzero" group-id="1,10,29,75,122" id="矩形_1512" node-id="85" stroke="none" target-height="23.200012" target-width="20.099976" target-x="745.4" target-y="493.8"></path><path d="M 743.60 506.90 L 743.10 509.00 L 743.00 511.10 L 743.40 513.20 L 767.30 512.80 L 768.50 509.30 L 765.10 506.70 L 760.10 504.80 L 754.40 504.30 L 751.40 504.60 L 747.80 505.40 L 743.60 506.90 Z" fill="#06083b" fill-rule="nonzero" group-id="1,10,29,75,123" id="路径_1225" node-id="86" stroke="none" target-height="8.900024" target-width="25.5" target-x="743" target-y="504.3"></path><path d="M 730.30 499.40 L 729.80 499.40 L 729.30 498.90 L 728.80 497.50 L 728.30 491.30 L 728.40 487.20 L 729.30 477.60 L 730.10 472.80 L 732.50 464.20 L 733.60 461.60 L 736.00 458.20 L 740.70 454.70 L 746.60 452.00 L 753.00 450.80 L 756.30 450.90 L 759.60 451.40 L 762.90 452.60 L 767.50 455.40 L 769.80 457.50 L 772.00 460.10 L 774.00 463.10 L 775.50 466.30 L 776.60 469.60 L 777.60 474.90 L 777.90 480.10 L 777.40 489.70 L 775.40 499.40 L 743.60 498.60 L 734.90 498.70 L 730.30 499.40 Z" fill="#182162" fill-rule="nonzero" group-id="1,10,29,75,124" id="路径_1224" node-id="87" stroke="none" target-height="48.600006" target-width="49.600037" target-x="728.3" target-y="450.8"></path><path d="M 725.00 615.30 L 772.00 616.10 L 770.20 599.20 L 732.50 602.10 L 724.90 607.40 Z" fill="#ffffff" fill-rule="nonzero" group-id="1,10,29,75,125" id="路径_1229" node-id="88" stroke="none" target-height="16.899963" target-width="47.099976" target-x="724.9" target-y="599.2"></path><path d="M 669.50 528.10 L 659.00 537.70 L 665.10 542.10 L 673.30 532.50 Z" fill="#06083b" fill-rule="nonzero" group-id="1,10,29,75,126" id="路径_1227" node-id="89" stroke="none" target-height="14" target-width="14.299988" target-x="659" target-y="528.1"></path><path d="M 792.60 520.30 L 790.70 517.90 L 788.40 515.80 L 782.80 512.30 L 776.50 510.10 L 771.60 509.10 L 767.10 508.80 L 749.90 508.80 L 740.80 509.10 L 733.30 510.00 L 729.30 511.70 L 727.10 513.40 L 724.00 516.30 L 720.70 520.00 L 703.20 542.30 L 694.90 554.10 L 673.30 531.60 L 662.50 540.70 L 687.60 575.20 L 690.70 578.00 L 692.30 578.80 L 694.20 579.20 L 697.00 579.00 L 698.70 578.30 L 701.90 575.90 L 710.80 565.10 L 724.90 549.40 L 724.90 608.30 L 765.00 609.40 L 784.00 582.20 L 784.00 549.40 L 792.60 565.60 L 809.10 561.60 L 799.20 534.50 L 795.70 526.10 L 792.60 520.30 Z" fill="#3f61ff" fill-rule="nonzero" group-id="1,10,29,75,127" id="路径_1226" node-id="90" stroke="none" target-height="100.60004" target-width="146.59998" target-x="662.5" target-y="508.8"></path><path d="M 677.20 623.30 L 673.70 624.00 L 671.30 625.10 L 668.90 626.60 L 666.30 629.10 L 663.50 633.50 L 662.20 636.70 L 661.40 639.90 L 660.80 644.00 L 660.40 662.70 L 659.40 680.30 L 656.60 718.80 L 653.90 751.00 L 662.90 752.50 L 682.70 664.10 L 684.60 662.20 L 688.70 659.70 L 699.00 654.50 L 699.00 623.30 Z" fill="#ffa37f" fill-rule="nonzero" group-id="1,10,29,76" id="路径_1231" node-id="91" stroke="none" target-height="129.20001" target-width="45.099976" target-x="653.9" target-y="623.3"></path><path d="M 726.40 748.00 L 725.10 748.50 L 718.10 748.70 L 704.30 694.50 L 698.90 671.50 L 698.10 666.80 L 698.50 665.60 L 699.70 664.50 L 701.30 663.50 L 707.80 661.00 L 713.00 659.80 L 721.50 665.30 L 726.40 748.00 Z" fill="#ffa27a" fill-rule="nonzero" group-id="1,10,29,77" id="路径_1232" node-id="92" stroke="none" target-height="88.900024" target-width="28.300049" target-x="698.1" target-y="659.8"></path><path d="M 665.70 773.50 L 661.00 773.50 L 661.00 759.50 L 654.70 764.90 L 649.80 769.60 L 646.50 773.80 L 626.10 774.00 L 628.00 769.00 L 629.70 766.50 L 632.20 763.70 L 634.20 762.10 L 636.70 760.60 L 644.20 756.80 L 647.70 754.50 L 655.20 748.50 L 665.70 748.20 Z" fill="#2c353a" fill-rule="nonzero" group-id="1,10,29,78" id="路径_1233" node-id="93" stroke="none" target-height="25.799988" target-width="39.600037" target-x="626.1" target-y="748.2"></path><path d="M 729.20 773.50 L 724.60 773.50 L 724.60 759.50 L 718.20 764.90 L 713.30 769.60 L 710.00 773.80 L 689.60 774.00 L 691.50 769.00 L 693.20 766.50 L 695.80 763.70 L 697.70 762.10 L 700.20 760.60 L 707.70 756.80 L 711.30 754.50 L 718.70 748.50 L 729.20 748.20 Z" fill="#2c353a" fill-rule="nonzero" group-id="1,10,29,79" id="路径_1234" node-id="94" stroke="none" target-height="25.799988" target-width="39.600037" target-x="689.6" target-y="748.2"></path><path d="M 805.70 774.80 L 796.80 774.80 L 782.70 668.80 L 790.50 668.80 Z" fill="#8a95d3" fill-rule="nonzero" group-id="1,10,30,80" id="路径_1237" node-id="96" stroke="none" target-height="106" target-width="23" target-x="782.7" target-y="668.8"></path><path d="M 762.70 774.80 L 753.80 774.80 L 739.70 668.80 L 747.40 668.80 Z" fill="#8a95d3" fill-rule="nonzero" group-id="1,10,30,81" id="路径_1238" node-id="97" stroke="none" target-height="106" target-width="23" target-x="739.7" target-y="668.8"></path><path d="M 708.60 774.80 L 717.50 774.80 L 731.60 668.80 L 723.80 668.80 Z" fill="#8a95d3" fill-rule="nonzero" group-id="1,10,30,82" id="路径_1239" node-id="98" stroke="none" target-height="106" target-width="23" target-x="708.6" target-y="668.8"></path><path d="M 665.60 774.80 L 674.50 774.80 L 688.50 668.80 L 680.80 668.80 Z" fill="#8a95d3" fill-rule="nonzero" group-id="1,10,30,83" id="路径_1240" node-id="99" stroke="none" target-height="106" target-width="22.900024" target-x="665.6" target-y="668.8"></path><path d="M 810.40 554.00 L 794.40 553.00 L 777.50 552.70 L 773.90 553.90 L 771.70 555.20 L 767.70 559.10 L 764.70 564.20 L 762.30 570.90 L 758.70 588.70 L 755.10 603.90 L 744.20 645.10 L 741.80 648.20 L 739.70 650.20 L 735.90 652.40 L 733.20 653.50 L 727.20 654.60 L 702.60 654.40 L 670.80 654.70 L 668.50 657.00 L 667.40 658.80 L 666.70 661.60 L 667.30 665.10 L 668.30 667.10 L 670.00 669.50 L 790.10 670.00 L 793.60 669.30 L 795.80 668.40 L 798.30 666.70 L 801.60 663.60 L 804.80 658.70 L 807.70 651.60 L 809.20 646.20 L 814.00 624.40 L 817.00 608.80 L 822.70 574.40 L 822.70 568.10 L 822.20 564.80 L 821.20 561.70 L 820.20 559.70 L 817.30 556.50 L 815.50 555.40 L 813.20 554.50 L 810.40 554.00 Z" fill="#98a6e8" fill-rule="nonzero" group-id="1,10,30,84" id="路径_1235" node-id="100" stroke="none" target-height="117.29999" target-width="156" target-x="666.7" target-y="552.7"></path><path d="M 810.40 554.00 L 790.40 552.80 L 782.30 552.70 L 778.70 553.90 L 776.50 555.20 L 774.00 557.40 L 771.00 561.30 L 768.20 567.20 L 767.10 570.90 L 763.40 588.90 L 759.90 604.50 L 748.90 647.50 L 746.50 650.60 L 744.20 652.60 L 740.30 654.80 L 737.60 655.90 L 731.50 657.00 L 705.80 656.70 L 670.70 657.10 L 668.50 658.60 L 667.40 659.90 L 666.70 662.20 L 667.20 665.30 L 670.00 669.50 L 790.10 670.00 L 793.60 669.30 L 795.80 668.40 L 798.30 666.70 L 801.60 663.60 L 804.80 658.70 L 807.70 651.60 L 809.20 646.20 L 814.00 624.40 L 817.00 608.80 L 822.70 574.40 L 822.70 568.10 L 822.20 564.80 L 821.20 561.70 L 820.20 559.70 L 817.30 556.50 L 815.50 555.40 L 813.20 554.50 L 810.40 554.00 Z" fill="#a3b1f2" fill-rule="nonzero" group-id="1,10,30,85" id="路径_1236" node-id="101" stroke="none" target-height="117.29999" target-width="156" target-x="666.7" target-y="552.7"></path><path d="M 233.60 373.80 L 214.90 341.40 L 191.40 341.40 L 187.80 341.10 L 184.40 340.20 L 181.30 338.70 L 178.50 336.70 L 176.10 334.30 L 174.10 331.50 L 172.70 328.40 L 171.80 325.10 L 171.40 321.40 L 171.40 217.40 L 171.80 213.80 L 172.70 210.40 L 174.10 207.30 L 176.10 204.50 L 178.50 202.20 L 181.30 200.20 L 184.40 198.70 L 187.80 197.80 L 191.40 197.40 L 468.40 197.40 L 472.10 197.80 L 475.40 198.70 L 478.50 200.20 L 481.30 202.20 L 483.70 204.50 L 485.70 207.30 L 487.20 210.40 L 488.10 213.80 L 488.40 217.40 L 488.40 321.40 L 488.10 325.10 L 487.20 328.40 L 485.70 331.50 L 483.70 334.30 L 481.30 336.70 L 478.50 338.70 L 475.40 340.20 L 472.10 341.10 L 468.40 341.40 L 260.70 341.40 L 239.80 374.70 L 238.00 375.60 L 235.90 375.60 L 234.20 374.60 L 233.60 373.80 Z" fill="#bcd5fb" fill-rule="nonzero" group-id="1,11,31" id="联合_170" node-id="103" stroke="none" target-height="178.20001" target-width="317" target-x="171.4" target-y="197.4"></path><path d="M 327.40 218.40 L 471.40 218.40 L 471.40 228.40 L 327.40 228.40 Z" fill="#ffffff" fill-rule="nonzero" group-id="1,11,32,86" id="矩形_1472" node-id="105" stroke="none" target-height="10" target-width="144" target-x="327.4" target-y="218.4"></path><path d="M 327.40 240.40 L 471.40 240.40 L 471.40 250.40 L 327.40 250.40 Z" fill="#ffffff" fill-rule="nonzero" group-id="1,11,32,87" id="矩形_1473" node-id="106" stroke="none" target-height="10" target-width="144" target-x="327.4" target-y="240.4"></path><path d="M 395.40 262.40 L 471.40 262.40 L 471.40 272.40 L 395.40 272.40 Z" fill="#ffffff" fill-rule="nonzero" group-id="1,11,32,88" id="矩形_1474" node-id="107" stroke="none" target-height="10" target-width="76" target-x="395.4" target-y="262.4"></path><path d="M 462.40 304.40 L 464.80 304.80 L 467.00 305.70 L 468.80 307.10 L 470.20 308.90 L 471.10 311.00 L 471.40 313.40 L 471.10 315.80 L 470.20 318.00 L 468.80 319.80 L 467.00 321.20 L 464.80 322.10 L 462.40 322.40 L 364.40 322.40 L 362.00 322.10 L 359.90 321.20 L 358.10 319.80 L 356.60 318.00 L 355.70 315.80 L 355.40 313.40 L 355.70 311.00 L 356.60 308.90 L 358.10 307.10 L 359.90 305.70 L 362.00 304.80 L 364.40 304.40 Z" fill="#458cfb" fill-rule="nonzero" group-id="1,11,32,89" id="矩形_1475" node-id="108" stroke="none" target-height="18" target-width="116" target-x="355.4" target-y="304.4"></path><path d="M 245.40 322.40 L 236.30 321.60 L 227.70 319.30 L 219.70 315.60 L 216.00 313.30 L 209.20 307.80 L 203.50 301.20 L 201.00 297.50 L 197.10 289.50 L 194.50 280.80 L 193.40 271.60 L 194.00 262.80 L 196.00 254.20 L 197.60 250.10 L 201.60 242.40 L 207.00 235.40 L 213.40 229.40 L 221.00 224.50 L 225.20 222.50 L 230.30 220.70 L 235.30 219.40 L 240.40 218.70 L 245.40 218.40 L 250.50 218.70 L 255.40 219.40 L 260.20 220.60 L 264.90 222.30 L 269.50 224.40 L 273.80 226.90 L 277.80 229.80 L 281.60 233.20 L 285.10 236.90 L 288.20 240.90 L 290.90 245.40 L 293.30 250.20 L 295.10 255.30 L 296.40 260.40 L 297.10 265.40 L 297.40 270.40 L 297.10 275.50 L 296.40 280.50 L 295.20 285.30 L 293.60 290.00 L 291.50 294.50 L 289.00 298.80 L 286.00 302.90 L 282.70 306.70 L 279.00 310.20 L 274.90 313.20 L 270.50 316.00 L 265.70 318.40 L 260.80 320.10 L 255.70 321.40 L 250.60 322.20 L 245.40 322.40 Z M 245.40 237.40 L 240.90 237.80 L 236.60 238.60 L 232.60 240.00 L 228.70 242.00 L 225.30 244.30 L 222.10 247.10 L 219.30 250.30 L 216.90 253.80 L 215.00 257.60 L 213.60 261.60 L 212.70 265.90 L 212.40 270.40 L 212.70 275.00 L 213.60 279.20 L 215.00 283.30 L 216.90 287.10 L 219.30 290.60 L 222.10 293.80 L 225.30 296.60 L 228.70 298.90 L 232.60 300.80 L 236.60 302.30 L 240.90 303.10 L 245.40 303.40 L 250.00 303.10 L 254.20 302.30 L 258.30 300.80 L 262.10 298.90 L 265.60 296.60 L 268.80 293.80 L 271.50 290.60 L 273.90 287.10 L 275.80 283.30 L 277.20 279.20 L 278.10 275.00 L 278.40 270.40 L 278.10 265.90 L 277.20 261.60 L 275.80 257.60 L 273.90 253.80 L 271.50 250.30 L 268.70 247.10 L 265.60 244.30 L 262.10 242.00 L 258.30 240.00 L 254.20 238.60 L 249.90 237.80 L 245.40 237.40 Z" fill="#458cfb" fill-rule="nonzero" group-id="1,11,33,90" id="减去_40" node-id="110" stroke="none" target-height="104" target-width="104" target-x="193.4" target-y="218.4"></path><path d="M 245.40 322.40 L 236.30 321.60 L 227.70 319.30 L 219.70 315.60 L 216.00 313.30 L 209.20 307.80 L 203.50 301.20 L 201.00 297.50 L 197.10 289.50 L 194.50 280.80 L 193.50 271.60 L 194.00 262.80 L 196.00 254.20 L 197.60 250.10 L 201.70 242.40 L 207.00 235.40 L 213.50 229.40 L 217.10 226.80 L 225.20 222.50 L 230.10 220.70 L 235.10 219.50 L 240.20 218.70 L 245.40 218.40 L 245.40 237.40 L 240.90 237.80 L 236.60 238.60 L 232.60 240.00 L 228.70 242.00 L 225.30 244.30 L 222.10 247.10 L 219.30 250.30 L 216.90 253.80 L 215.00 257.60 L 213.60 261.60 L 212.70 265.90 L 212.40 270.40 L 212.70 275.00 L 213.60 279.20 L 215.00 283.30 L 216.90 287.10 L 219.30 290.60 L 222.10 293.80 L 225.30 296.60 L 228.70 298.90 L 232.60 300.80 L 236.60 302.30 L 240.90 303.10 L 245.40 303.40 L 245.40 322.40 Z" fill="#fbb245" fill-rule="nonzero" group-id="1,11,33,91" id="减去_42" node-id="111" stroke="none" target-height="104" target-width="51.899994" target-x="193.5" target-y="218.4"></path><path d="M 245.40 322.40 L 240.20 322.20 L 235.10 321.40 L 230.10 320.10 L 225.20 318.40 L 220.60 316.20 L 216.40 313.60 L 212.40 310.60 L 208.70 307.20 L 205.30 303.50 L 202.30 299.50 L 199.70 295.20 L 197.50 290.70 L 196.00 286.70 L 194.00 278.40 L 213.40 278.40 L 214.50 282.10 L 216.00 285.40 L 217.80 288.60 L 220.00 291.50 L 225.10 296.50 L 231.20 300.20 L 234.50 301.60 L 238.00 302.60 L 241.60 303.20 L 245.40 303.40 L 245.40 322.40 Z" fill="#c62bcb" fill-rule="nonzero" group-id="1,11,33,92" id="减去_45" node-id="112" stroke="none" target-height="44" target-width="51.399994" target-x="194" target-y="278.4"></path><path d="M 321.00 695.10 L 310.00 695.10 L 310.00 679.30 L 320.60 681.40 Z" fill="#c77760" fill-rule="nonzero" group-id="1,12,34,93,128" id="路径_1163" node-id="116" stroke="none" target-height="15.799988" target-width="11" target-x="310" target-y="679.3"></path><path d="M 310.20 690.60 L 309.90 703.80 L 345.90 703.10 L 344.80 701.40 L 340.50 698.60 L 329.70 693.80 L 321.00 690.60 Z" fill="#272f31" fill-rule="nonzero" group-id="1,12,34,93,129" id="路径_1164" node-id="117" stroke="none" target-height="13.200012" target-width="36" target-x="309.9" target-y="690.6"></path><path d="M 247.30 695.10 L 258.20 695.10 L 258.20 679.30 L 247.60 681.40 Z" fill="#c77760" fill-rule="nonzero" group-id="1,12,34,94,130" id="路径_1163-2" node-id="119" stroke="none" target-height="15.799988" target-width="10.900009" target-x="247.3" target-y="679.3"></path><path d="M 258.10 690.60 L 258.40 703.80 L 222.30 703.10 L 223.40 701.40 L 227.70 698.60 L 238.60 693.80 L 247.30 690.60 Z" fill="#272f31" fill-rule="nonzero" group-id="1,12,34,94,131" id="路径_1164-2" node-id="120" stroke="none" target-height="13.200012" target-width="36.09999" target-x="222.3" target-y="690.6"></path><path d="M 318.90 596.10 L 320.60 627.10 L 322.50 683.80 L 317.00 684.40 L 312.40 684.50 L 308.90 683.80 L 308.30 683.10 L 307.50 680.00 L 306.10 671.00 L 304.60 658.30 L 299.00 600.50 L 288.40 561.10 L 285.70 552.40 L 284.30 548.80 L 283.00 551.50 L 280.80 558.70 L 269.30 601.20 L 260.60 687.30 L 246.20 687.30 L 246.50 638.30 L 247.20 605.60 L 247.80 595.50 L 255.20 521.00 L 256.20 504.80 L 256.60 504.60 L 258.80 504.40 L 265.80 504.80 L 286.20 507.10 L 306.10 509.80 L 318.90 596.10 Z" fill="#1b245d" fill-rule="nonzero" group-id="1,12,34,95" id="路径_1165" node-id="121" stroke="none" target-height="182.9" target-width="76.3" target-x="246.2" target-y="504.4"></path><path d="M 288.40 390.40 L 288.60 396.50 L 287.90 401.10 L 287.10 403.20 L 286.00 405.10 L 283.80 406.80 L 282.30 407.30 L 282.00 424.10 L 267.00 424.00 L 267.00 407.30 L 264.70 404.10 L 261.00 397.30 L 260.10 394.50 L 259.60 390.50 L 259.90 388.20 L 260.90 387.20 L 261.90 386.90 L 263.20 387.10 L 265.40 388.00 L 265.70 386.20 L 266.40 385.00 L 267.40 384.00 L 269.80 383.00 L 272.50 382.70 L 277.90 379.90 L 282.40 378.70 L 283.40 378.80 L 286.70 380.60 L 287.80 381.50 L 288.40 382.70 L 288.80 385.60 L 288.40 390.40 Z" fill="#c37163" fill-rule="nonzero" group-id="1,12,35,96" id="路径_1152" node-id="123" stroke="none" target-height="45.399994" target-width="29.199982" target-x="259.6" target-y="378.7"></path><path d="M 291.00 384.20 L 291.50 379.90 L 290.70 376.60 L 289.70 375.20 L 286.30 372.60 L 283.40 368.90 L 282.00 367.80 L 278.70 367.50 L 277.30 367.90 L 274.20 369.60 L 273.20 369.80 L 268.00 368.90 L 265.20 369.20 L 261.90 371.00 L 260.20 372.30 L 258.70 373.80 L 257.70 375.50 L 256.20 383.40 L 256.20 388.90 L 257.70 394.00 L 259.00 396.50 L 261.00 399.30 L 263.70 402.40 L 262.60 400.20 L 261.80 394.10 L 262.00 390.10 L 263.00 388.20 L 263.80 388.00 L 264.90 388.40 L 266.70 389.90 L 266.90 388.10 L 268.10 385.60 L 269.50 384.30 L 271.20 383.30 L 280.40 380.40 L 283.80 380.10 L 285.80 381.10 L 286.90 382.80 L 288.00 386.90 L 288.40 390.30 L 291.00 384.20 Z" fill="#1c2463" fill-rule="nonzero" group-id="1,12,35,97" id="路径_1153" node-id="124" stroke="none" target-height="34.899994" target-width="35.299988" target-x="256.2" target-y="367.5"></path><path d="M 286.90 415.70 L 285.80 418.10 L 284.30 420.20 L 282.40 421.90 L 280.20 423.10 L 277.80 423.90 L 275.10 424.00 L 272.40 423.80 L 270.00 423.10 L 267.70 421.90 L 265.70 420.30 L 264.00 418.30 L 262.80 415.90 L 266.80 415.70 L 269.10 418.00 L 272.10 419.30 L 273.70 419.40 L 278.10 418.70 L 279.80 418.00 L 281.20 417.10 L 282.40 415.70 Z" fill="#ffffff" fill-rule="nonzero" group-id="1,12,36,98" id="路径_1154" node-id="126" stroke="none" target-height="8.299988" target-width="24.100006" target-x="262.8" target-y="415.7"></path><path d="M 310.00 509.30 L 305.70 511.80 L 301.30 513.80 L 296.70 515.30 L 292.00 516.40 L 287.10 517.00 L 282.20 517.10 L 276.20 516.60 L 271.10 515.60 L 262.90 512.90 L 259.70 511.40 L 255.90 509.10 L 255.50 505.30 L 309.80 506.20 Z" fill="#ffffff" fill-rule="nonzero" group-id="1,12,36,99" id="路径_1156" node-id="127" stroke="none" target-height="11.799988" target-width="54.5" target-x="255.5" target-y="505.3"></path><path d="M 298.80 415.70 L 298.10 422.40 L 298.10 425.50 L 298.50 428.90 L 299.30 432.30 L 300.60 435.70 L 301.80 437.80 L 305.30 441.60 L 306.60 447.70 L 307.60 458.10 L 308.50 470.70 L 309.80 506.90 L 303.60 509.40 L 298.70 510.80 L 293.20 511.90 L 286.60 512.60 L 282.00 512.70 L 277.10 512.30 L 271.80 511.50 L 266.60 510.20 L 261.20 508.20 L 255.50 505.50 L 251.80 479.40 L 244.50 449.30 L 246.50 447.60 L 247.70 445.90 L 248.70 443.80 L 250.00 438.20 L 250.10 431.70 L 248.90 423.80 L 247.60 418.60 L 248.00 418.10 L 249.40 417.50 L 253.40 416.70 L 263.60 415.70 L 264.30 418.10 L 265.20 419.60 L 266.50 421.00 L 268.30 422.40 L 271.50 423.60 L 276.00 423.80 L 279.70 422.80 L 282.00 421.40 L 285.40 418.20 L 287.10 415.60 Z" fill="#192160" fill-rule="nonzero" group-id="1,12,36,100" id="路径_1155" node-id="128" stroke="none" target-height="97.100006" target-width="65.29999" target-x="244.5" target-y="415.6"></path><path d="M 286.30 456.50 L 288.30 452.50 L 290.20 447.00 L 290.40 445.20 L 290.10 443.80 L 289.50 442.70 L 288.50 441.70 L 287.70 441.40 L 285.80 441.70 L 284.40 442.70 L 279.00 447.80 L 278.20 448.30 L 277.50 448.30 L 277.20 447.80 L 276.70 443.40 L 276.50 443.10 L 275.80 443.10 L 274.80 443.80 L 274.00 445.10 L 273.20 447.60 L 270.30 457.10 L 270.60 458.70 L 273.20 463.60 L 276.10 463.40 L 280.30 462.20 L 283.80 459.80 L 286.30 456.50 Z" fill="#c37163" fill-rule="nonzero" group-id="1,12,37,101" id="路径_1159" node-id="130" stroke="none" target-height="22.200012" target-width="20.100006" target-x="270.3" target-y="441.4"></path><path d="M 274.50 464.20 L 269.90 467.10 L 265.00 457.60 L 270.30 455.10 L 272.90 457.60 L 273.80 458.90 L 274.40 460.40 L 274.70 462.20 L 274.50 464.20 Z" fill="#ffffff" fill-rule="nonzero" group-id="1,12,37,102" id="路径_1158" node-id="131" stroke="none" target-height="12" target-width="9.700012" target-x="265" target-y="455.1"></path><path d="M 244.40 449.20 L 239.60 458.00 L 237.80 462.00 L 237.30 463.60 L 237.30 464.60 L 237.60 465.20 L 239.30 465.90 L 241.10 466.00 L 243.40 465.70 L 248.40 464.40 L 252.90 462.40 L 262.30 456.00 L 264.70 454.90 L 267.10 454.40 L 268.10 455.80 L 269.80 459.90 L 271.10 465.90 L 271.00 467.90 L 266.10 470.90 L 249.60 478.30 L 234.60 483.90 L 230.20 484.90 L 227.90 485.10 L 224.50 484.40 L 222.60 482.60 L 221.70 479.60 L 221.80 477.20 L 223.20 469.80 L 226.20 459.60 L 230.30 448.00 L 235.10 436.50 L 240.20 426.70 L 242.80 422.80 L 245.00 420.20 L 246.70 418.90 L 248.10 418.40 L 249.30 418.50 L 250.60 419.10 L 251.60 420.20 L 252.40 421.80 L 252.90 424.60 L 253.00 428.10 L 251.80 435.60 L 249.50 442.70 L 248.10 445.80 L 245.80 448.90 L 244.40 449.20 Z" fill="#3b62fb" fill-rule="nonzero" group-id="1,12,37,103" id="路径_1157" node-id="132" stroke="none" target-height="66.70001" target-width="49.40001" target-x="221.7" target-y="418.4"></path><path d="M 313.70 506.20 L 311.40 507.40 L 308.00 508.40 L 303.60 508.90 L 303.00 508.70 L 302.90 508.20 L 303.10 507.20 L 304.40 504.80 L 308.60 499.20 L 310.90 493.60 L 311.50 491.40 L 312.50 491.60 L 317.50 494.70 L 316.40 499.80 L 315.20 503.70 L 313.70 506.20 Z" fill="#c37163" fill-rule="nonzero" group-id="1,12,38,104" id="路径_1162" node-id="134" stroke="none" target-height="17.5" target-width="14.600006" target-x="302.9" target-y="491.4"></path><path d="M 319.60 498.10 L 315.90 496.20 L 312.50 493.80 L 309.50 491.00 L 311.80 488.40 L 313.80 485.60 L 321.40 492.20 Z" fill="#ffffff" fill-rule="nonzero" group-id="1,12,38,105" id="路径_1161" node-id="135" stroke="none" target-height="12.5" target-width="11.899994" target-x="309.5" target-y="485.6"></path><path d="M 305.60 442.80 L 310.70 446.00 L 314.50 449.00 L 322.10 456.20 L 311.60 485.60 L 312.50 487.70 L 313.70 489.10 L 315.80 490.90 L 319.80 492.90 L 322.90 493.90 L 324.00 492.40 L 329.00 481.70 L 336.10 462.60 L 336.80 459.40 L 336.40 455.00 L 335.00 451.90 L 333.80 450.30 L 323.50 439.00 L 310.00 425.60 L 299.10 415.80 L 298.70 415.70 L 298.30 416.20 L 297.40 420.50 L 297.50 427.00 L 298.10 430.70 L 299.10 434.30 L 300.70 437.60 L 302.00 439.60 L 303.70 441.30 L 305.60 442.80 Z" fill="#3b62fb" fill-rule="nonzero" group-id="1,12,38,106" id="路径_1160" node-id="136" stroke="none" target-height="78.19998" target-width="39.399994" target-x="297.4" target-y="415.7"></path><path d="M 497.00 679.30 L 497.00 714.60 L 496.30 715.30 L 493.80 716.30 L 488.60 717.00 L 484.40 717.10 L 475.60 716.50 L 472.90 715.80 L 470.80 714.60 L 470.80 679.30 Z" fill="url(#linear-gradient)" fill-rule="nonzero" group-id="1,13,39" id="路径_1167-2" node-id="138" stroke="none" target-height="37.799988" target-width="26.200012" target-x="470.8" target-y="679.3"></path><path d="M 470.60 679.40 L 471.00 678.80 L 472.40 678.10 L 474.40 677.60 L 480.30 676.90 L 483.90 676.80 L 487.50 676.90 L 493.40 677.60 L 495.30 678.10 L 496.70 678.80 L 497.10 679.40 L 496.70 680.00 L 495.30 680.80 L 493.40 681.30 L 487.50 682.00 L 483.90 682.10 L 480.30 682.00 L 474.40 681.30 L 472.40 680.80 L 471.00 680.00 L 470.60 679.40 Z" fill="#b7bbc2" fill-rule="nonzero" group-id="1,13,40" id="椭圆_359-2" node-id="139" stroke="none" target-height="5.299988" target-width="26.5" target-x="470.6" target-y="676.8"></path><path d="M 472.00 680.50 L 473.60 679.70 L 477.80 679.10 L 483.70 678.90 L 489.60 679.10 L 495.10 680.10 L 495.40 680.50 L 495.10 680.80 L 493.80 681.30 L 489.60 681.80 L 483.70 682.00 L 477.80 681.80 L 473.60 681.30 L 472.00 680.50 Z" fill="#769be5" fill-rule="nonzero" group-id="1,13,41" id="椭圆_360-2" node-id="140" stroke="none" target-height="3.0999756" target-width="23.399994" target-x="472" target-y="678.9"></path><path d="M 488.90 671.10 L 488.10 668.30 L 486.00 665.40 L 485.50 662.30 L 485.90 659.70 L 488.10 658.10 L 489.20 656.00 L 489.30 654.90 L 488.90 653.90 L 488.20 653.30 L 485.50 652.00 L 484.80 651.20 L 484.30 650.00 L 484.10 648.50 L 484.40 644.40 L 484.10 643.40 L 483.40 642.80 L 482.20 642.50 L 481.00 642.60 L 478.60 643.70 L 477.80 644.50 L 476.70 646.20 L 473.90 648.10 L 473.80 649.20 L 475.50 652.30 L 473.90 653.80 L 472.90 656.80 L 471.10 658.30 L 470.90 659.00 L 471.50 664.10 L 470.50 667.70 L 470.10 672.10 L 470.40 673.30 L 471.10 674.20 L 472.60 674.90 L 475.10 675.40 L 477.10 675.40 L 486.10 674.50 L 487.40 674.00 L 488.40 673.40 L 488.90 672.50 L 488.90 671.10 Z" fill="#adbbb4" fill-rule="nonzero" group-id="1,13,42,107" id="路径_1168-3" node-id="142" stroke="none" target-height="32.900024" target-width="19.199982" target-x="470.1" target-y="642.5"></path><path d="M 480.90 645.30 L 478.70 660.40 L 478.30 670.40 L 479.10 677.80 L 480.90 682.00" fill="none" group-id="1,13,42,108" id="路径_1169-3" node-id="143" stroke="#ababab" stroke-linecap="butt" stroke-width="0.6" target-height="36.700012" target-width="2.600006" target-x="478.3" target-y="645.3"></path><path d="M 482.70 648.80 L 479.60 652.60 L 478.00 650.50" fill="none" group-id="1,13,42,109" id="路径_1170-3" node-id="144" stroke="#ababab" stroke-linecap="butt" stroke-width="0.6" target-height="3.7999878" target-width="4.700012" target-x="478" target-y="648.8"></path><path d="M 484.70 655.20 L 481.60 657.00 L 478.90 660.30 L 475.50 656.10" fill="none" group-id="1,13,42,110" id="路径_1171-3" node-id="145" stroke="#ababab" stroke-linecap="butt" stroke-width="0.6" target-height="5.0999756" target-width="9.200012" target-x="475.5" target-y="655.2"></path><path d="M 484.00 663.30 L 481.30 665.00 L 478.20 668.40 L 476.00 664.40 L 474.80 663.10 L 473.30 662.20" fill="none" group-id="1,13,42,111" id="路径_1172-3" node-id="146" stroke="#ababab" stroke-linecap="butt" stroke-width="0.6" target-height="6.200012" target-width="10.700012" target-x="473.3" target-y="662.2"></path><path d="M 481.90 670.50 L 480.20 671.50 L 478.50 673.90 L 473.90 672.10" fill="none" group-id="1,13,42,112" id="路径_1173-3" node-id="147" stroke="#ababab" stroke-linecap="butt" stroke-width="0.6" target-height="3.4000244" target-width="8" target-x="473.9" target-y="670.5"></path><path d="M 476.40 669.00 L 477.30 665.70 L 479.30 663.40 L 479.80 662.30 L 480.40 658.60 L 480.20 655.80 L 479.80 655.20 L 477.40 653.60 L 476.00 651.10 L 475.90 649.80 L 476.40 648.60 L 477.20 647.80 L 480.40 646.30 L 481.30 645.40 L 481.90 643.90 L 482.10 642.10 L 481.90 636.40 L 482.90 635.30 L 484.30 635.10 L 485.80 635.20 L 488.60 636.50 L 489.60 637.50 L 490.80 639.50 L 494.20 641.70 L 494.50 642.30 L 494.30 643.00 L 492.20 646.60 L 494.20 648.50 L 495.40 652.10 L 497.50 653.80 L 497.80 654.60 L 497.00 660.70 L 497.20 662.10 L 498.00 663.80 L 498.70 670.20 L 498.40 671.60 L 497.10 673.00 L 495.80 673.60 L 492.00 674.20 L 479.70 673.00 L 478.10 672.50 L 477.00 671.80 L 476.30 670.20 L 476.40 669.00 Z" fill="#cbd7d1" fill-rule="nonzero" group-id="1,13,43,113" id="路径_1168-4" node-id="149" stroke="none" target-height="39.100037" target-width="22.800018" target-x="475.9" target-y="635.1"></path><path d="M 485.90 638.40 L 487.50 647.50 L 488.50 656.40 L 489.00 666.20 L 488.30 675.30 L 487.70 678.00 L 485.90 682.00" fill="none" group-id="1,13,43,114" id="路径_1169-4" node-id="150" stroke="#707070" stroke-linecap="butt" stroke-width="0.6" target-height="43.599976" target-width="3.100006" target-x="485.9" target-y="638.4"></path><path d="M 483.80 642.50 L 487.40 647.10 L 489.30 644.50" fill="none" group-id="1,13,43,115" id="路径_1170-4" node-id="151" stroke="#707070" stroke-linecap="butt" stroke-width="0.6" target-height="4.5999756" target-width="5.5" target-x="483.8" target-y="642.5"></path><path d="M 481.40 650.10 L 483.30 651.00 L 485.00 652.20 L 488.30 656.20 L 492.30 651.20" fill="none" group-id="1,13,43,116" id="路径_1171-4" node-id="152" stroke="#707070" stroke-linecap="butt" stroke-width="0.6" target-height="6.1000366" target-width="10.899994" target-x="481.4" target-y="650.1"></path><path d="M 482.20 659.80 L 485.50 661.80 L 489.10 665.90 L 490.60 662.80 L 491.70 661.00 L 493.20 659.50 L 494.90 658.50" fill="none" group-id="1,13,43,117" id="路径_1172-4" node-id="153" stroke="#707070" stroke-linecap="butt" stroke-width="0.6" target-height="7.4000244" target-width="12.699982" target-x="482.2" target-y="658.5"></path><path d="M 484.70 668.40 L 486.70 669.50 L 488.80 672.30 L 494.20 670.20" fill="none" group-id="1,13,43,118" id="路径_1173-4" node-id="154" stroke="#707070" stroke-linecap="butt" stroke-width="0.6" target-height="3.8999634" target-width="9.5" target-x="484.7" target-y="668.4"></path><path d="M 502.00 375.80 L 505.50 376.40 L 508.50 378.10 L 510.60 380.70 L 511.40 382.30 L 512.00 385.80 L 511.80 478.70 L 510.60 481.90 L 508.50 484.50 L 505.50 486.30 L 502.00 486.90 L 366.10 486.90 L 362.60 486.30 L 359.70 484.50 L 357.50 481.90 L 356.70 480.40 L 356.10 476.90 L 356.10 385.80 L 356.70 382.30 L 358.50 379.30 L 361.10 377.10 L 362.60 376.40 L 366.10 375.80 Z" fill="#007dfe" fill-rule="nonzero" group-id="1,14,44" id="矩形_1555" node-id="156" stroke="none" target-height="111.100006" target-width="155.9" target-x="356.1" target-y="375.8"></path><path d="M 364.20 385.30 L 504.60 385.30 L 504.60 478.30 L 364.20 478.30 Z" fill="none" group-id="1,14,45,119" id="矩形_1519" node-id="158" stroke="none" target-height="93" target-width="140.4" target-x="364.2" target-y="385.3"></path><path d="M 434.30 455.70 L 476.90 415.10 L 504.60 478.30 L 364.20 478.30 L 396.70 440.60 Z" fill="#bed7ff" fill-rule="nonzero" group-id="1,14,45,120" id="路径_1242" node-id="159" stroke="none" target-height="63.19998" target-width="140.4" target-x="364.2" target-y="415.1"></path><path d="M 416.80 422.60 L 417.40 418.70 L 419.10 415.30 L 421.70 412.90 L 423.30 412.00 L 426.70 411.30 L 430.20 412.00 L 433.20 414.00 L 435.30 416.90 L 436.50 420.60 L 436.50 424.70 L 436.10 426.60 L 434.30 430.00 L 431.80 432.40 L 430.20 433.30 L 426.70 434.00 L 423.30 433.30 L 421.70 432.40 L 419.10 430.00 L 417.40 426.60 L 416.80 422.60 Z" fill="#bed7ff" fill-rule="nonzero" group-id="1,14,45,121" id="椭圆_380" node-id="160" stroke="none" target-height="22.700012" target-width="19.700012" target-x="416.8" target-y="411.3"></path></g></g></svg>