<?xml version="1.0" standalone="no"?><!DOCTYPE svg PUBLIC "-//W3C//DTD SVG 1.1//EN" "http://www.w3.org/Graphics/SVG/1.1/DTD/svg11.dtd"><svg height="1024" node-id="1" sillyvg="true" template-height="1024" template-width="1024" version="1.1" viewBox="0 0 1024 1024" width="1024" xmlns="http://www.w3.org/2000/svg" xmlns:xlink="http://www.w3.org/1999/xlink"><defs node-id="140"><linearGradient gradientUnits="objectBoundingBox" id="linear-gradient" node-id="5" spreadMethod="pad" x1="0" x2="1" y1="0.418" y2="0.457"><stop offset="0" stop-color="#c3d2ef"></stop><stop offset="1" stop-color="#ffffff"></stop></linearGradient><clipPath id="clip-数据整理-2" node-id="8"><path d="M 0.00 0.00 L 1024.00 0.00 L 1024.00 1024.00 L 0.00 1024.00 Z" fill="#000000" fill-rule="nonzero" node-id="149" stroke="none" target-height="1024" target-width="1024" target-x="0" target-y="0"></path></clipPath><clipPath id="clip-path" node-id="3"><path d="M 0.00 0.00 L 1024.00 0.00 L 1024.00 1024.00 L 0.00 1024.00 Z" fill="#000000" fill-rule="nonzero" id="数据整理" node-id="4" stroke="none" target-height="1024" target-width="1024" target-x="0" target-y="0"></path></clipPath></defs><g clip-path="url(#clip-数据整理-2)" id="数据整理-2" node-id="10"><path d="M 0.00 0.00 L 1024.00 0.00 L 1024.00 1024.00 L 0.00 1024.00 Z" fill="#ffffff" fill-rule="nonzero" node-id="157" stroke="none" target-height="1024" target-width="1024" target-x="0" target-y="0"></path><g clip-path="url(#clip-path)" group-id="1" id="数据整理-3" node-id="12"><path d="M 0.00 0.00 L 1024.00 0.00 L 1024.00 1024.00 L 0.00 1024.00 Z" fill="#ffffff" fill-rule="nonzero" group-id="1,2" id="数据整理-4" node-id="13" stroke="none" target-height="1024" target-width="1024" target-x="0" target-y="0"></path><path d="M 56.30 346.70 L 61.60 332.10 L 64.50 325.60 L 70.90 314.20 L 75.50 307.50 L 80.40 301.50 L 85.60 296.20 L 90.90 291.40 L 96.70 287.00 L 102.70 283.20 L 108.80 279.80 L 115.20 276.80 L 128.40 272.20 L 142.20 269.00 L 151.60 267.70 L 161.00 266.80 L 170.60 266.50 L 189.70 266.90 L 213.10 269.30 L 239.20 273.40 L 271.30 279.30 L 280.00 280.50 L 286.40 280.90 L 331.00 281.40 L 370.70 282.30 L 445.50 285.10 L 502.70 288.20 L 532.80 290.30 L 593.80 295.40 L 624.40 298.50 L 654.50 302.00 L 693.90 307.40 L 731.60 313.70 L 749.50 317.20 L 766.40 320.80 L 783.30 324.80 L 798.80 329.00 L 813.10 333.30 L 823.90 337.00 L 833.70 340.70 L 850.70 348.30 L 858.90 352.60 L 865.90 357.00 L 871.90 361.40 L 877.10 365.80 L 880.90 369.80 L 884.10 373.80 L 886.60 377.90 L 888.50 382.00 L 894.70 402.70 L 897.60 410.70 L 905.40 428.60 L 910.50 438.50 L 915.80 448.00 L 924.20 461.90 L 957.50 513.10 L 964.40 525.00 L 968.60 533.00 L 972.00 540.90 L 974.90 548.50 L 976.60 554.40 L 977.90 560.20 L 978.70 566.00 L 979.00 571.80 L 978.80 577.60 L 978.00 583.40 L 976.70 589.30 L 974.70 595.40 L 972.20 601.10 L 968.90 607.10 L 964.80 613.30 L 947.00 635.70 L 936.00 650.10 L 899.80 700.70 L 891.60 711.50 L 883.50 721.50 L 871.90 734.00 L 865.80 739.80 L 859.30 745.30 L 852.20 750.60 L 844.60 755.70 L 836.60 760.40 L 827.80 765.10 L 811.10 773.00 L 805.00 776.60 L 799.50 780.60 L 794.30 785.00 L 784.70 794.50 L 778.10 802.10 L 764.90 818.20 L 752.90 831.80 L 741.60 842.30 L 735.40 847.20 L 728.40 852.00 L 720.60 856.60 L 714.60 859.70 L 700.70 865.40 L 684.90 870.30 L 666.60 874.20 L 645.70 876.90 L 622.00 878.20 L 595.00 878.20 L 564.70 876.50 L 526.80 872.60 L 492.30 868.00 L 461.80 862.90 L 449.40 860.30 L 426.10 854.70 L 416.80 852.00 L 399.40 846.10 L 392.50 843.30 L 382.70 838.80 L 374.80 834.60 L 367.50 830.20 L 361.50 826.10 L 340.90 810.80 L 335.70 807.60 L 329.70 804.60 L 320.80 801.20 L 315.30 799.70 L 303.30 797.40 L 295.80 796.40 L 287.50 795.80 L 278.80 795.70 L 269.70 796.10 L 251.30 798.00 L 227.60 802.20 L 171.20 814.60 L 158.20 817.10 L 141.40 819.70 L 133.70 820.40 L 126.10 820.70 L 119.10 820.60 L 112.70 819.90 L 107.90 819.00 L 103.60 817.70 L 99.70 816.00 L 96.10 814.00 L 92.70 811.60 L 89.80 808.70 L 87.20 805.30 L 84.90 801.40 L 83.10 797.20 L 81.80 792.40 L 80.70 786.80 L 80.20 780.30 L 79.50 748.30 L 80.20 724.00 L 82.00 705.00 L 87.20 664.90 L 88.20 645.60 L 88.30 633.50 L 87.90 626.30 L 86.90 618.30 L 85.20 609.60 L 82.00 596.50 L 77.70 581.90 L 62.90 533.60 L 57.90 515.60 L 52.10 490.70 L 49.60 477.60 L 47.70 464.40 L 46.20 450.70 L 45.30 436.60 L 45.00 426.00 L 45.10 415.30 L 45.70 404.20 L 46.80 392.90 L 48.30 381.80 L 50.40 370.40 L 53.00 358.70 L 56.30 346.70 Z" fill="#f2f6fe" fill-rule="nonzero" group-id="1,3" id="路径_1166" node-id="14" stroke="none" target-height="611.7" target-width="934" target-x="45" target-y="266.5"></path><path d="M 250.40 153.50 L 250.40 139.20 L 236.00 139.20 L 234.80 138.90 L 233.90 138.30 L 233.20 137.30 L 233.00 136.10 L 233.20 134.90 L 233.90 133.90 L 234.80 133.30 L 236.00 133.00 L 250.40 133.00 L 250.40 118.70 L 250.60 117.50 L 251.30 116.50 L 252.30 115.90 L 253.50 115.60 L 254.70 115.90 L 255.60 116.50 L 256.30 117.50 L 256.50 118.70 L 256.50 133.00 L 270.90 133.00 L 272.10 133.30 L 273.10 133.90 L 273.70 134.90 L 274.00 136.10 L 273.70 137.30 L 273.10 138.30 L 272.10 138.90 L 270.90 139.20 L 256.50 139.20 L 256.50 153.50 L 256.30 154.70 L 255.60 155.70 L 254.70 156.40 L 253.50 156.60 L 252.30 156.40 L 251.30 155.70 L 250.60 154.70 L 250.40 153.50 Z" fill="#d1e6ff" fill-rule="nonzero" group-id="1,4" id="联合_163" node-id="15" stroke="none" target-height="41.000008" target-width="41" target-x="233" target-y="115.6"></path><path d="M 310.00 246.40 L 307.90 246.20 L 306.00 245.50 L 304.30 244.40 L 302.80 243.00 L 301.70 241.30 L 301.00 239.30 L 300.80 237.10 L 301.00 235.10 L 301.60 233.20 L 302.70 231.50 L 304.10 230.00 L 305.90 228.80 L 306.00 225.80 L 306.40 223.80 L 307.10 221.90 L 309.40 218.70 L 312.50 216.20 L 314.30 215.30 L 318.40 214.40 L 322.40 214.80 L 326.00 216.40 L 329.10 218.90 L 331.20 222.40 L 334.40 221.70 L 336.20 221.90 L 337.70 222.50 L 340.20 224.70 L 341.50 227.90 L 343.20 228.00 L 346.20 229.10 L 348.10 230.60 L 349.50 232.50 L 350.60 235.50 L 350.80 237.20 L 350.60 238.90 L 349.50 241.90 L 348.00 243.70 L 346.10 245.20 L 343.20 246.30 L 341.50 246.40 Z" fill="#e2efff" fill-rule="nonzero" group-id="1,5" id="联合_164" node-id="16" stroke="none" target-height="32" target-width="50" target-x="300.8" target-y="214.4"></path><path d="M 136.00 197.90 L 134.20 197.70 L 132.60 197.00 L 131.20 196.00 L 130.20 194.60 L 129.50 193.00 L 129.20 191.20 L 129.50 189.30 L 130.20 187.70 L 131.20 186.40 L 132.60 185.30 L 134.20 184.60 L 136.00 184.40 L 136.90 182.10 L 138.80 180.50 L 141.20 179.90 L 143.50 180.40 L 144.70 178.40 L 146.10 176.90 L 148.00 175.70 L 150.00 174.90 L 152.10 174.60 L 154.40 174.80 L 156.60 175.50 L 158.40 176.70 L 160.00 178.20 L 161.10 180.10 L 161.80 182.10 L 162.00 185.10 L 164.40 187.00 L 165.60 189.70 L 165.60 192.70 L 164.30 195.40 L 162.00 197.30 L 159.00 197.90 Z" fill="#e2efff" fill-rule="nonzero" group-id="1,6" id="联合_165" node-id="17" stroke="none" target-height="23.299988" target-width="36.40001" target-x="129.2" target-y="174.6"></path><path d="M 802.00 383.50 L 802.70 379.80 L 804.50 376.70 L 807.20 374.40 L 808.80 373.70 L 812.50 373.00 L 816.20 373.70 L 819.30 375.50 L 821.60 378.20 L 822.30 379.80 L 823.00 383.50 L 822.30 387.20 L 821.60 388.80 L 819.30 391.50 L 816.20 393.30 L 812.50 394.00 L 808.80 393.30 L 805.70 391.50 L 803.40 388.80 L 802.70 387.20 L 802.00 383.50 Z" fill="#ffffff" fill-rule="nonzero" group-id="1,7" id="椭圆_379" node-id="18" stroke="none" target-height="21" target-width="21" target-x="802" target-y="373"></path><path d="M 831.80 163.70 L 835.10 163.90 L 838.20 164.60 L 841.10 165.60 L 843.90 167.00 L 848.80 170.70 L 852.50 175.60 L 853.90 178.40 L 854.90 181.30 L 855.60 184.40 L 855.80 187.70 L 855.80 683.70 L 855.60 687.00 L 854.90 690.10 L 853.90 693.10 L 852.50 695.90 L 850.80 698.40 L 848.80 700.70 L 846.50 702.70 L 843.90 704.50 L 841.10 705.90 L 838.20 706.90 L 835.10 707.50 L 831.80 707.70 L 600.40 707.70 L 597.10 707.50 L 594.00 706.90 L 588.20 704.50 L 585.70 702.70 L 581.40 698.40 L 578.30 693.10 L 577.20 690.10 L 576.60 687.00 L 576.40 683.70 L 576.40 187.70 L 576.60 184.40 L 577.20 181.30 L 578.30 178.40 L 579.70 175.60 L 583.40 170.70 L 588.20 167.00 L 591.00 165.60 L 594.00 164.60 L 597.10 163.90 L 600.40 163.70 Z" fill="#458cfb" fill-rule="nonzero" group-id="1,8,13,49" id="矩形_1402" node-id="21" stroke="none" target-height="544" target-width="279.39996" target-x="576.4" target-y="163.7"></path><path d="M 827.30 171.50 L 830.90 171.80 L 834.30 172.70 L 837.40 174.20 L 840.20 176.20 L 842.60 178.50 L 844.50 181.40 L 846.00 184.50 L 846.90 187.80 L 847.30 191.50 L 847.30 680.00 L 846.90 683.60 L 846.00 687.00 L 844.50 690.10 L 842.60 692.90 L 840.20 695.30 L 837.40 697.30 L 834.30 698.70 L 830.90 699.60 L 827.30 700.00 L 604.70 700.00 L 601.00 699.60 L 597.70 698.70 L 594.60 697.30 L 591.80 695.30 L 589.40 692.90 L 587.40 690.10 L 585.90 687.00 L 585.00 683.60 L 584.70 680.00 L 584.70 191.50 L 585.00 187.80 L 585.90 184.50 L 587.40 181.40 L 589.40 178.50 L 591.80 176.20 L 594.60 174.20 L 597.70 172.70 L 601.00 171.80 L 604.70 171.50 Z" fill="#ffffff" fill-rule="nonzero" group-id="1,8,13,50" id="矩形_1404" node-id="22" stroke="none" target-height="528.5" target-width="262.59998" target-x="584.7" target-y="171.5"></path><path d="M 758.00 165.30 L 758.00 178.60 L 757.30 182.10 L 755.60 185.10 L 753.00 187.20 L 749.80 188.40 L 748.00 188.60 L 684.10 188.60 L 680.60 188.00 L 679.10 187.20 L 676.50 185.10 L 674.70 182.10 L 674.10 178.60 L 674.10 165.30 Z" fill="#458cfb" fill-rule="nonzero" group-id="1,8,13,51" id="矩形_1535" node-id="23" stroke="none" target-height="23.300003" target-width="83.900024" target-x="674.1" target-y="165.3"></path><path d="M 832.80 354.20 L 599.40 354.20 L 599.40 210.80 L 832.80 210.80 L 832.80 354.20 Z" fill="#ffffff" fill-rule="nonzero" group-id="1,8,14,52" node-id="201" stroke="none" target-height="143.40001" target-width="233.39996" target-x="599.4" target-y="210.8"></path><path d="M 599.90 211.30 L 599.90 353.70 L 832.30 353.70 L 832.30 211.30 L 599.90 211.30 M 598.90 210.30 L 833.30 210.30 L 833.30 354.70 L 598.90 354.70 L 598.90 210.30 Z" fill="#c5defb" fill-rule="nonzero" group-id="1,8,14,52" node-id="203" stroke="none" target-height="144.40001" target-width="234.39996" target-x="598.9" target-y="210.3"></path><path d="M 715.80 319.60 L 787.00 256.60 L 833.30 354.70 L 598.90 354.70 L 653.10 296.10 Z" fill="#bed7ff" fill-rule="nonzero" group-id="1,8,14,53" id="路径_1242" node-id="28" stroke="none" target-height="98.100006" target-width="234.39996" target-x="598.9" target-y="256.6"></path><path d="M 686.60 268.30 L 686.90 265.00 L 687.60 262.10 L 688.90 259.40 L 690.50 256.90 L 692.50 254.80 L 694.80 253.10 L 697.40 251.70 L 700.20 250.90 L 703.20 250.60 L 706.30 250.90 L 709.10 251.70 L 711.60 253.10 L 714.00 254.80 L 716.00 256.90 L 717.60 259.40 L 718.80 262.10 L 719.60 265.00 L 719.90 268.30 L 719.60 271.50 L 718.80 274.40 L 717.60 277.20 L 716.00 279.60 L 714.00 281.70 L 711.60 283.50 L 709.10 284.80 L 706.30 285.60 L 703.20 285.90 L 700.20 285.60 L 697.40 284.80 L 694.80 283.50 L 692.50 281.70 L 690.50 279.60 L 688.90 277.20 L 687.60 274.40 L 686.90 271.50 L 686.60 268.30 Z" fill="#bed7ff" fill-rule="nonzero" group-id="1,8,14,54" id="椭圆_380" node-id="29" stroke="none" target-height="35.299988" target-width="33.30005" target-x="686.6" target-y="250.6"></path><path d="M 598.70 396.80 L 598.90 394.50 L 599.50 392.40 L 600.60 390.40 L 602.00 388.60 L 603.80 387.20 L 605.80 386.10 L 608.10 385.40 L 610.30 385.20 L 612.60 385.40 L 614.70 386.10 L 616.70 387.10 L 618.50 388.60 L 620.00 390.40 L 621.10 392.40 L 621.70 394.60 L 621.90 396.80 L 621.70 399.00 L 621.10 401.30 L 619.90 403.40 L 618.50 405.10 L 616.80 406.50 L 614.80 407.60 L 612.60 408.20 L 610.30 408.50 L 606.20 407.70 L 602.80 405.70 L 600.20 402.70 L 599.40 400.90 L 598.70 396.80 Z" fill="#bed7ff" fill-rule="nonzero" group-id="1,8,15,55" id="椭圆_381" node-id="31" stroke="none" target-height="23.299988" target-width="23.200012" target-x="598.7" target-y="385.2"></path><path d="M 821.80 385.20 L 825.80 385.90 L 829.30 387.90 L 830.70 389.30 L 832.80 392.90 L 833.50 396.80 L 832.80 400.80 L 830.70 404.40 L 829.30 405.80 L 825.80 407.80 L 821.80 408.50 L 643.60 408.30 L 641.70 407.80 L 638.20 405.80 L 635.50 402.70 L 634.10 398.80 L 634.10 394.80 L 635.50 391.00 L 638.20 387.90 L 641.70 385.90 L 645.70 385.20 Z" fill="#bed7ff" fill-rule="nonzero" group-id="1,8,15,56" id="矩形_1536" node-id="32" stroke="none" target-height="23.299988" target-width="199.40002" target-x="634.1" target-y="385.2"></path><path d="M 828.30 420.60 L 829.70 420.80 L 831.90 422.10 L 833.20 424.30 L 833.40 425.70 L 833.20 427.10 L 831.90 429.30 L 829.70 430.60 L 828.30 430.80 L 603.80 430.80 L 602.40 430.60 L 600.20 429.30 L 598.90 427.10 L 598.70 425.70 L 598.90 424.30 L 600.20 422.10 L 602.40 420.80 L 603.80 420.60 Z" fill="#bed7ff" fill-rule="nonzero" group-id="1,8,15,57" id="矩形_1537" node-id="33" stroke="none" target-height="10.199982" target-width="234.70001" target-x="598.7" target-y="420.6"></path><path d="M 828.30 445.70 L 829.70 445.90 L 831.90 447.20 L 833.20 449.50 L 833.40 450.90 L 833.20 452.30 L 831.90 454.50 L 829.70 455.80 L 828.30 456.00 L 603.80 456.00 L 602.40 455.80 L 600.20 454.50 L 598.90 452.30 L 598.70 450.90 L 598.90 449.50 L 600.20 447.20 L 602.40 445.90 L 603.80 445.70 Z" fill="#bed7ff" fill-rule="nonzero" group-id="1,8,15,58" id="矩形_1538" node-id="34" stroke="none" target-height="10.299988" target-width="234.70001" target-x="598.7" target-y="445.7"></path><path d="M 828.30 468.10 L 829.70 468.30 L 831.90 469.60 L 833.20 471.80 L 833.40 473.20 L 833.20 474.60 L 831.90 476.90 L 829.70 478.20 L 828.30 478.40 L 603.80 478.40 L 602.40 478.20 L 600.20 476.90 L 598.90 474.60 L 598.70 473.20 L 598.90 471.80 L 600.20 469.60 L 602.40 468.30 L 603.80 468.10 Z" fill="#bed7ff" fill-rule="nonzero" group-id="1,8,15,59" id="矩形_1539" node-id="35" stroke="none" target-height="10.299988" target-width="234.70001" target-x="598.7" target-y="468.1"></path><path d="M 828.30 639.50 L 829.70 639.70 L 831.90 641.00 L 833.20 643.30 L 833.40 644.70 L 833.20 646.00 L 831.90 648.30 L 829.70 649.60 L 828.30 649.80 L 603.80 649.80 L 602.40 649.60 L 600.20 648.30 L 598.90 646.00 L 598.70 644.70 L 598.90 643.30 L 600.20 641.00 L 602.40 639.70 L 603.80 639.50 Z" fill="#bed7ff" fill-rule="nonzero" group-id="1,8,15,60" id="矩形_1545" node-id="36" stroke="none" target-height="10.299988" target-width="234.70001" target-x="598.7" target-y="639.5"></path><path d="M 828.30 661.90 L 829.70 662.10 L 831.90 663.40 L 833.20 665.60 L 833.40 667.00 L 833.20 668.40 L 831.90 670.60 L 829.70 671.90 L 828.30 672.10 L 603.80 672.10 L 602.40 671.90 L 600.20 670.60 L 598.90 668.40 L 598.70 667.00 L 598.90 665.60 L 600.20 663.40 L 602.40 662.10 L 603.80 661.90 Z" fill="#bed7ff" fill-rule="nonzero" group-id="1,8,15,61" id="矩形_1546" node-id="37" stroke="none" target-height="10.199951" target-width="234.70001" target-x="598.7" target-y="661.9"></path><path d="M 699.50 493.30 L 703.00 493.90 L 704.60 494.60 L 707.20 496.80 L 708.90 499.80 L 709.50 503.30 L 709.40 546.60 L 708.20 549.80 L 706.00 552.40 L 703.00 554.10 L 699.50 554.70 L 608.70 554.70 L 606.80 554.60 L 603.60 553.40 L 601.00 551.20 L 600.00 549.80 L 598.80 546.60 L 598.70 503.30 L 599.30 499.80 L 601.00 496.80 L 603.60 494.60 L 605.20 493.90 L 608.70 493.30 Z" fill="#bed7ff" fill-rule="nonzero" group-id="1,8,15,62" id="矩形_1540" node-id="38" stroke="none" target-height="61.400024" target-width="110.79999" target-x="598.7" target-y="493.3"></path><path d="M 818.10 493.30 L 819.70 493.50 L 822.30 495.00 L 823.30 496.30 L 823.90 497.70 L 824.10 499.30 L 823.90 501.00 L 823.30 502.40 L 822.30 503.60 L 821.10 504.50 L 819.70 505.10 L 818.10 505.40 L 728.60 505.40 L 727.00 505.10 L 724.30 503.60 L 723.40 502.40 L 722.80 501.00 L 722.60 499.30 L 722.80 497.70 L 723.40 496.30 L 724.30 495.00 L 725.60 494.10 L 727.00 493.50 L 728.60 493.30 Z" fill="#bed7ff" fill-rule="nonzero" group-id="1,8,15,63" id="矩形_1547" node-id="39" stroke="none" target-height="12.100006" target-width="101.5" target-x="722.6" target-y="493.3"></path><path d="M 818.10 517.50 L 819.70 517.70 L 821.10 518.30 L 822.30 519.30 L 823.30 520.50 L 823.90 521.90 L 824.10 523.50 L 823.90 525.20 L 823.30 526.60 L 822.30 527.80 L 821.10 528.80 L 819.70 529.40 L 818.10 529.60 L 728.60 529.60 L 727.00 529.40 L 725.60 528.80 L 724.30 527.80 L 722.80 525.20 L 722.60 523.50 L 722.80 521.90 L 724.30 519.30 L 725.60 518.30 L 727.00 517.70 L 728.60 517.50 Z" fill="#bed7ff" fill-rule="nonzero" group-id="1,8,15,64" id="矩形_1548" node-id="40" stroke="none" target-height="12.099976" target-width="101.5" target-x="722.6" target-y="517.5"></path><path d="M 818.10 541.70 L 819.70 541.90 L 822.30 543.50 L 823.30 544.70 L 823.90 546.10 L 824.10 547.80 L 823.90 549.40 L 823.30 550.80 L 822.30 552.00 L 821.10 553.00 L 819.70 553.60 L 818.10 553.80 L 728.60 553.80 L 727.00 553.60 L 725.60 553.00 L 724.30 552.00 L 723.40 550.80 L 722.80 549.40 L 722.60 547.80 L 722.80 546.10 L 723.40 544.70 L 724.30 543.50 L 725.60 542.50 L 727.00 541.90 L 728.60 541.70 Z" fill="#bed7ff" fill-rule="nonzero" group-id="1,8,15,65" id="矩形_1549" node-id="41" stroke="none" target-height="12.099976" target-width="101.5" target-x="722.6" target-y="541.7"></path><path d="M 705.50 566.90 L 707.10 567.20 L 708.30 568.00 L 709.20 569.30 L 709.50 570.90 L 709.50 587.10 L 709.20 588.70 L 708.30 589.90 L 707.10 590.80 L 705.50 591.10 L 602.70 591.10 L 601.10 590.80 L 599.80 589.90 L 599.00 588.70 L 598.70 587.10 L 598.70 570.90 L 599.00 569.30 L 599.80 568.00 L 601.10 567.20 L 602.70 566.90 Z" fill="#bed7ff" fill-rule="nonzero" group-id="1,8,15,66" id="矩形_1541" node-id="42" stroke="none" target-height="24.199951" target-width="110.79999" target-x="598.7" target-y="566.9"></path><path d="M 705.50 603.20 L 707.10 603.50 L 708.30 604.40 L 709.20 605.60 L 709.50 607.20 L 709.50 623.40 L 709.20 625.00 L 708.30 626.20 L 707.10 627.10 L 705.50 627.40 L 602.70 627.40 L 601.10 627.10 L 599.80 626.20 L 599.00 625.00 L 598.70 623.40 L 598.70 607.20 L 599.00 605.60 L 599.80 604.40 L 601.10 603.50 L 602.70 603.20 Z" fill="#bed7ff" fill-rule="nonzero" group-id="1,8,15,67" id="矩形_1544" node-id="43" stroke="none" target-height="24.200012" target-width="110.79999" target-x="598.7" target-y="603.2"></path><path d="M 829.40 566.90 L 831.00 567.20 L 832.30 568.00 L 833.10 569.30 L 833.40 570.90 L 833.40 587.10 L 833.10 588.70 L 832.30 589.90 L 831.00 590.80 L 829.40 591.10 L 726.60 591.10 L 725.00 590.80 L 723.70 589.90 L 722.90 588.70 L 722.60 587.10 L 722.60 570.90 L 722.90 569.30 L 723.70 568.00 L 725.00 567.20 L 726.60 566.90 Z" fill="#bed7ff" fill-rule="nonzero" group-id="1,8,15,68" id="矩形_1542" node-id="44" stroke="none" target-height="24.199951" target-width="110.80005" target-x="722.6" target-y="566.9"></path><path d="M 829.40 603.20 L 831.00 603.50 L 832.30 604.40 L 833.10 605.60 L 833.40 607.20 L 833.40 623.40 L 833.10 625.00 L 832.30 626.20 L 831.00 627.10 L 829.40 627.40 L 726.60 627.40 L 725.00 627.10 L 723.70 626.20 L 722.90 625.00 L 722.60 623.40 L 722.60 607.20 L 722.90 605.60 L 723.70 604.40 L 725.00 603.50 L 726.60 603.20 Z" fill="#bed7ff" fill-rule="nonzero" group-id="1,8,15,69" id="矩形_1543" node-id="45" stroke="none" target-height="24.200012" target-width="110.80005" target-x="722.6" target-y="603.2"></path><path d="M 380.60 305.30 L 384.10 306.00 L 387.00 307.70 L 389.20 310.30 L 389.90 311.80 L 390.60 315.30 L 390.60 511.40 L 389.90 514.90 L 389.20 516.50 L 387.00 519.10 L 384.10 520.80 L 380.60 521.40 L 157.50 521.40 L 154.00 520.80 L 151.10 519.10 L 148.90 516.50 L 148.20 514.90 L 147.50 511.40 L 147.50 315.30 L 148.20 311.80 L 149.90 308.90 L 152.50 306.70 L 154.00 306.00 L 157.50 305.30 Z" fill="#bcd5fb" fill-rule="nonzero" group-id="1,9,16" id="矩形_1433" node-id="47" stroke="none" target-height="216.10004" target-width="243.1" target-x="147.5" target-y="305.3"></path><path d="M 366.00 320.20 L 369.50 320.90 L 372.40 322.60 L 374.60 325.20 L 375.40 326.70 L 376.00 330.20 L 376.00 497.20 L 375.40 500.60 L 374.60 502.20 L 372.40 504.80 L 369.50 506.50 L 366.00 507.20 L 172.10 507.20 L 168.60 506.50 L 165.70 504.80 L 163.50 502.20 L 162.70 500.60 L 162.10 497.20 L 162.10 330.20 L 162.70 326.70 L 163.50 325.20 L 165.70 322.60 L 168.60 320.90 L 172.10 320.20 Z" fill="#ffffff" fill-rule="nonzero" group-id="1,9,17" id="矩形_1487" node-id="48" stroke="none" target-height="187" target-width="213.9" target-x="162.1" target-y="320.2"></path><path d="M 264.70 330.80 L 266.30 331.00 L 268.80 332.60 L 270.30 335.10 L 270.50 336.70 L 270.30 338.30 L 268.80 340.90 L 266.30 342.40 L 264.70 342.60 L 172.10 342.40 L 169.40 340.90 L 168.40 339.70 L 167.80 338.20 L 167.60 336.70 L 167.80 335.20 L 168.40 333.70 L 169.40 332.50 L 170.60 331.60 L 172.10 331.00 L 173.60 330.80 Z" fill="#cfe2fa" fill-rule="nonzero" group-id="1,9,18" id="矩形_1434" node-id="49" stroke="none" target-height="11.800018" target-width="102.899994" target-x="167.6" target-y="330.8"></path><path d="M 366.00 330.80 L 367.60 331.00 L 370.20 332.60 L 371.60 335.10 L 371.90 336.70 L 371.60 338.30 L 370.20 340.90 L 367.60 342.40 L 366.00 342.60 L 296.40 342.40 L 293.80 340.90 L 292.80 339.70 L 292.20 338.20 L 292.00 336.70 L 292.20 335.20 L 292.80 333.70 L 293.80 332.50 L 295.00 331.60 L 296.40 331.00 L 298.00 330.80 Z" fill="#5095fe" fill-rule="nonzero" group-id="1,9,19" id="矩形_1435" node-id="50" stroke="none" target-height="11.800018" target-width="79.899994" target-x="292" target-y="330.8"></path><path d="M 288.90 356.60 L 290.10 356.90 L 291.10 357.60 L 291.80 358.60 L 292.10 359.90 L 291.80 361.10 L 291.10 362.10 L 290.10 362.80 L 288.90 363.10 L 170.90 363.10 L 169.70 362.80 L 168.70 362.10 L 168.00 361.10 L 167.70 359.90 L 168.00 358.60 L 168.70 357.60 L 169.70 356.90 L 170.90 356.60 Z" fill="#5095fe" fill-rule="nonzero" group-id="1,9,20" id="矩形_1436" node-id="51" stroke="none" target-height="6.5" target-width="124.40001" target-x="167.7" target-y="356.6"></path><path d="M 230.50 369.60 L 231.80 369.80 L 232.80 370.50 L 233.50 371.50 L 233.70 372.80 L 233.50 374.00 L 232.80 375.10 L 231.80 375.80 L 230.50 376.00 L 170.90 376.00 L 169.70 375.80 L 168.70 375.10 L 168.00 374.00 L 167.70 372.80 L 168.00 371.50 L 168.70 370.50 L 169.70 369.80 L 170.90 369.60 Z" fill="#5095fe" fill-rule="nonzero" group-id="1,9,21" id="矩形_1437" node-id="52" stroke="none" target-height="6.399994" target-width="66" target-x="167.7" target-y="369.6"></path><path d="M 369.80 390.00 L 371.30 390.60 L 371.90 392.20 L 371.30 393.70 L 369.80 394.30 L 169.90 394.30 L 168.30 393.70 L 167.70 392.20 L 168.30 390.60 L 169.90 390.00 Z" fill="#cfe2fa" fill-rule="nonzero" group-id="1,9,22" id="矩形_1438" node-id="53" stroke="none" target-height="4.299988" target-width="204.2" target-x="167.7" target-y="390"></path><path d="M 369.80 409.40 L 371.30 410.00 L 371.90 411.50 L 371.30 413.10 L 369.80 413.70 L 169.90 413.70 L 168.30 413.10 L 167.70 411.50 L 168.30 410.00 L 169.90 409.40 Z" fill="#cfe2fa" fill-rule="nonzero" group-id="1,9,23" id="矩形_1439" node-id="54" stroke="none" target-height="4.3000183" target-width="204.2" target-x="167.7" target-y="409.4"></path><path d="M 369.80 428.80 L 371.30 429.40 L 371.90 430.90 L 371.30 432.40 L 369.80 433.10 L 169.90 433.10 L 168.30 432.40 L 167.70 430.90 L 168.30 429.40 L 169.90 428.80 Z" fill="#cfe2fa" fill-rule="nonzero" group-id="1,9,24" id="矩形_1440" node-id="55" stroke="none" target-height="4.3000183" target-width="204.2" target-x="167.7" target-y="428.8"></path><path d="M 369.20 447.10 L 371.00 447.70 L 372.00 449.30 L 371.60 451.10 L 371.00 451.90 L 369.20 452.50 L 170.40 452.50 L 169.40 452.20 L 168.50 451.70 L 168.00 450.80 L 167.80 449.80 L 168.00 448.70 L 168.50 447.90 L 170.40 447.10 Z" fill="#cfe2fa" fill-rule="nonzero" group-id="1,9,25" id="矩形_1441" node-id="56" stroke="none" target-height="5.399994" target-width="204.2" target-x="167.8" target-y="447.1"></path><path d="M 366.60 466.50 L 368.00 466.70 L 370.40 468.00 L 371.70 470.40 L 371.90 471.80 L 371.70 473.30 L 370.40 475.60 L 368.00 477.00 L 366.60 477.20 L 173.10 477.20 L 171.60 477.00 L 169.30 475.60 L 167.90 473.30 L 167.70 471.80 L 167.90 470.40 L 169.30 468.00 L 171.60 466.70 L 173.10 466.50 Z" fill="#cfe2fa" fill-rule="nonzero" group-id="1,9,26" id="矩形_1442" node-id="57" stroke="none" target-height="10.700012" target-width="204.2" target-x="167.7" target-y="466.5"></path><path d="M 273.90 477.20 L 275.50 477.50 L 278.00 479.00 L 279.50 481.50 L 279.70 483.10 L 279.50 484.70 L 278.00 487.30 L 275.50 488.80 L 273.90 489.10 L 173.60 489.10 L 172.10 488.90 L 170.60 488.30 L 169.40 487.40 L 168.40 486.10 L 167.80 484.70 L 167.60 483.10 L 167.80 481.60 L 168.40 480.20 L 169.40 478.90 L 170.60 478.00 L 172.10 477.40 L 173.60 477.20 Z" fill="#cfe2fa" fill-rule="nonzero" group-id="1,9,27" id="矩形_1443" node-id="58" stroke="none" target-height="11.899994" target-width="112.100006" target-x="167.6" target-y="477.2"></path><path d="M 349.70 489.10 L 351.10 489.30 L 353.50 490.60 L 354.80 493.00 L 355.00 494.40 L 354.80 495.90 L 353.50 498.30 L 351.10 499.60 L 349.70 499.80 L 173.10 499.80 L 171.60 499.60 L 169.30 498.30 L 167.90 495.90 L 167.70 494.40 L 167.90 493.00 L 169.30 490.60 L 171.60 489.30 L 173.10 489.10 Z" fill="#cfe2fa" fill-rule="nonzero" group-id="1,9,28" id="矩形_1444" node-id="59" stroke="none" target-height="10.699982" target-width="187.3" target-x="167.7" target-y="489.1"></path><path d="M 620.60 373.00 L 623.50 373.30 L 626.20 374.00 L 628.60 375.20 L 630.90 376.80 L 632.80 378.70 L 634.40 380.90 L 635.60 383.40 L 636.30 386.10 L 636.60 389.00 L 636.60 653.60 L 636.30 656.50 L 635.60 659.20 L 634.40 661.70 L 632.80 663.90 L 630.90 665.80 L 628.60 667.40 L 626.20 668.60 L 623.50 669.30 L 620.60 669.60 L 217.40 669.60 L 214.50 669.30 L 211.80 668.60 L 209.30 667.40 L 207.10 665.80 L 205.20 663.90 L 203.60 661.70 L 202.40 659.20 L 201.70 656.50 L 201.40 653.60 L 201.40 389.00 L 201.70 386.10 L 202.40 383.40 L 203.60 380.90 L 205.20 378.70 L 207.10 376.80 L 209.30 375.20 L 211.80 374.00 L 214.50 373.30 L 217.40 373.00 Z" fill="#458cfb" fill-rule="nonzero" group-id="1,10,29" id="矩形_1402-2" node-id="61" stroke="none" target-height="296.59998" target-width="435.19998" target-x="201.4" target-y="373"></path><path d="M 201.40 409.30 L 636.60 409.30 L 636.60 669.60 L 201.40 669.60 Z" fill="#e9f3ff" fill-rule="nonzero" group-id="1,10,30" id="矩形_1404-2" node-id="62" stroke="none" target-height="260.3" target-width="435.19998" target-x="201.4" target-y="409.3"></path><path d="M 636.60 669.60 L 636.60 679.60 L 636.40 681.50 L 635.20 684.70 L 634.20 686.10 L 631.60 688.30 L 628.40 689.50 L 626.60 689.60 L 211.40 689.60 L 209.60 689.50 L 206.40 688.30 L 203.80 686.10 L 202.80 684.70 L 201.60 681.50 L 201.40 679.60 L 201.40 669.60 Z" fill="#355466" fill-rule="nonzero" group-id="1,10,31" id="矩形_1515" node-id="63" stroke="none" target-height="20" target-width="435.19998" target-x="201.4" target-y="669.6"></path><path d="M 335.70 689.60 L 502.30 689.60 L 502.30 709.70 L 335.70 709.70 Z" fill="#294457" fill-rule="nonzero" group-id="1,10,32" id="矩形_1516" node-id="64" stroke="none" target-height="20.100037" target-width="166.59998" target-x="335.7" target-y="689.6"></path><path d="M 237.50 709.70 L 600.50 709.70 L 600.50 729.80 L 237.50 729.80 Z" fill="#355466" fill-rule="nonzero" group-id="1,10,33" id="矩形_1517" node-id="65" stroke="none" target-height="20.099976" target-width="363" target-x="237.5" target-y="709.7"></path><path d="M 217.00 392.70 L 217.30 390.60 L 218.00 388.80 L 219.20 387.20 L 220.80 386.00 L 222.60 385.20 L 224.70 384.90 L 226.80 385.20 L 228.60 386.00 L 230.10 387.20 L 231.40 388.80 L 232.10 390.60 L 232.40 392.70 L 232.10 394.70 L 231.40 396.60 L 230.10 398.10 L 228.60 399.30 L 226.80 400.10 L 224.70 400.40 L 222.60 400.10 L 220.80 399.30 L 219.20 398.10 L 218.00 396.60 L 217.30 394.70 L 217.00 392.70 Z" fill="#f92d2d" fill-rule="nonzero" group-id="1,10,34" id="椭圆_356" node-id="66" stroke="none" target-height="15.5" target-width="15.399994" target-x="217" target-y="384.9"></path><path d="M 248.60 392.30 L 248.90 390.10 L 249.80 388.20 L 251.20 386.60 L 253.10 385.50 L 255.20 385.00 L 257.40 385.10 L 259.40 385.80 L 261.10 387.10 L 262.40 388.80 L 263.10 390.90 L 263.20 393.00 L 262.70 395.10 L 261.60 397.00 L 260.00 398.40 L 258.10 399.30 L 255.90 399.60 L 254.00 399.40 L 252.20 398.60 L 250.70 397.50 L 249.60 396.00 L 248.80 394.30 L 248.60 392.30 Z" fill="#f9de2d" fill-rule="nonzero" group-id="1,10,35" id="椭圆_357" node-id="67" stroke="none" target-height="14.600006" target-width="14.600006" target-x="248.6" target-y="385"></path><path d="M 279.50 392.70 L 279.70 390.60 L 280.50 388.80 L 281.70 387.20 L 283.30 386.00 L 285.10 385.20 L 287.20 384.90 L 289.20 385.20 L 291.10 386.00 L 292.60 387.20 L 293.80 388.80 L 294.60 390.60 L 294.90 392.70 L 294.60 394.70 L 293.80 396.60 L 292.60 398.10 L 291.10 399.30 L 289.20 400.10 L 287.20 400.40 L 285.10 400.10 L 283.30 399.30 L 281.70 398.10 L 280.50 396.60 L 279.70 394.70 L 279.50 392.70 Z" fill="#18c45d" fill-rule="nonzero" group-id="1,10,36" id="椭圆_358" node-id="68" stroke="none" target-height="15.5" target-width="15.399994" target-x="279.5" target-y="384.9"></path><path d="M 210.60 418.60 L 627.40 418.60 L 627.40 660.30 L 210.60 660.30 Z" fill="#ffffff" fill-rule="nonzero" group-id="1,10,37" id="矩形_1518" node-id="69" stroke="none" target-height="241.69998" target-width="416.80002" target-x="210.6" target-y="418.6"></path><path d="M 414.00 531.50 L 220.70 531.50 L 220.70 425.10 L 414.00 425.10 L 414.00 531.50 Z" fill="#ffffff" fill-rule="nonzero" group-id="1,10,38,70" node-id="371" stroke="none" target-height="106.399994" target-width="193.3" target-x="220.7" target-y="425.1"></path><path d="M 221.20 425.60 L 221.20 531.00 L 413.50 531.00 L 413.50 425.60 L 221.20 425.60 M 220.20 424.60 L 414.50 424.60 L 414.50 532.00 L 220.20 532.00 L 220.20 424.60 Z" fill="#c5defb" fill-rule="nonzero" group-id="1,10,38,70" node-id="373" stroke="none" target-height="107.399994" target-width="194.3" target-x="220.2" target-y="424.6"></path><path d="M 317.10 505.90 L 376.10 459.00 L 414.50 532.00 L 220.20 532.00 L 265.10 488.40 Z" fill="#bed7ff" fill-rule="nonzero" group-id="1,10,38,71" id="路径_1242-2" node-id="74" stroke="none" target-height="73" target-width="194.3" target-x="220.2" target-y="459"></path><path d="M 292.90 467.70 L 293.10 465.30 L 293.70 463.10 L 294.80 461.10 L 297.80 457.70 L 301.80 455.40 L 304.10 454.80 L 306.70 454.60 L 309.20 454.80 L 311.50 455.40 L 315.60 457.70 L 318.60 461.10 L 319.60 463.10 L 320.20 465.30 L 320.50 467.70 L 320.20 470.10 L 319.60 472.30 L 318.60 474.30 L 317.20 476.20 L 313.60 479.00 L 311.50 480.00 L 309.20 480.60 L 306.70 480.80 L 304.10 480.60 L 301.80 480.00 L 297.80 477.70 L 294.80 474.30 L 293.70 472.30 L 293.10 470.10 L 292.90 467.70 Z" fill="#bed7ff" fill-rule="nonzero" group-id="1,10,38,72" id="椭圆_380-2" node-id="75" stroke="none" target-height="26.199982" target-width="27.600006" target-x="292.9" target-y="454.6"></path><path d="M 433.40 531.60 L 433.40 520.40 L 611.90 520.40 L 611.90 531.60 Z M 433.40 507.50 L 433.40 496.40 L 611.90 496.40 L 611.90 507.50 Z M 433.40 484.40 L 433.40 473.20 L 611.90 473.20 L 611.90 484.40 Z M 433.40 460.30 L 433.40 449.20 L 611.90 449.20 L 611.90 460.30 Z M 433.40 436.30 L 433.40 425.10 L 611.90 425.10 L 611.90 436.30 Z" fill="#bed7ff" fill-rule="nonzero" group-id="1,10,39" id="联合_171" node-id="76" stroke="none" target-height="106.49997" target-width="178.50003" target-x="433.4" target-y="425.1"></path><path d="M 389.20 596.20 L 405.10 596.20 L 405.10 643.20 L 389.20 643.20 Z" fill="#458cfb" fill-rule="nonzero" group-id="1,10,40,73" id="矩形_1445" node-id="78" stroke="none" target-height="47" target-width="15.899994" target-x="389.2" target-y="596.2"></path><path d="M 430.30 607.70 L 446.20 607.70 L 446.20 643.20 L 430.30 643.20 Z" fill="#458cfb" fill-rule="nonzero" group-id="1,10,40,74" id="矩形_1446" node-id="79" stroke="none" target-height="35.5" target-width="15.900024" target-x="430.3" target-y="607.7"></path><path d="M 472.30 583.80 L 488.20 583.80 L 488.20 643.20 L 472.30 643.20 Z" fill="#458cfb" fill-rule="nonzero" group-id="1,10,40,75" id="矩形_1447" node-id="80" stroke="none" target-height="59.400024" target-width="15.900024" target-x="472.3" target-y="583.8"></path><path d="M 513.40 607.70 L 529.30 607.70 L 529.30 643.20 L 513.40 643.20 Z" fill="#458cfb" fill-rule="nonzero" group-id="1,10,40,76" id="矩形_1448" node-id="81" stroke="none" target-height="35.5" target-width="15.899963" target-x="513.4" target-y="607.7"></path><path d="M 554.50 583.80 L 570.30 583.80 L 570.30 643.20 L 554.50 643.20 Z" fill="#458cfb" fill-rule="nonzero" group-id="1,10,40,77" id="矩形_1449" node-id="82" stroke="none" target-height="59.400024" target-width="15.799988" target-x="554.5" target-y="583.8"></path><path d="M 596.50 561.60 L 612.30 561.60 L 612.30 643.20 L 596.50 643.20 Z" fill="#458cfb" fill-rule="nonzero" group-id="1,10,40,78" id="矩形_1450" node-id="83" stroke="none" target-height="81.60004" target-width="15.799988" target-x="596.5" target-y="561.6"></path><path d="M 393.80 589.40 L 435.60 601.10 L 476.70 573.40 L 520.70 601.10 L 561.80 573.40 L 601.50 554.90" fill="none" group-id="1,10,40,79" id="路径_1200" node-id="84" stroke="#1e6ce5" stroke-linecap="butt" stroke-width="1" target-height="46.19995" target-width="207.70001" target-x="393.8" target-y="554.9"></path><path d="M 281.40 638.80 L 273.80 638.10 L 266.50 635.90 L 262.10 633.80 L 258.00 631.20 L 254.30 628.10 L 251.00 624.60 L 248.30 620.80 L 246.10 616.50 L 243.80 609.50 L 243.00 602.30 L 243.80 595.10 L 246.10 588.20 L 248.30 583.90 L 251.00 580.10 L 254.30 576.60 L 258.00 573.50 L 262.10 570.90 L 266.50 568.80 L 273.90 566.60 L 281.40 565.90 L 289.00 566.60 L 296.40 568.80 L 300.80 570.90 L 304.80 573.50 L 308.60 576.60 L 311.80 580.10 L 314.60 583.90 L 316.80 588.20 L 319.10 595.10 L 319.80 602.30 L 319.10 609.50 L 316.80 616.50 L 314.60 620.80 L 311.80 624.60 L 308.60 628.10 L 304.80 631.20 L 300.80 633.80 L 296.40 635.90 L 289.00 638.10 L 281.40 638.80 Z M 281.40 579.20 L 278.10 579.40 L 274.90 580.10 L 272.00 581.00 L 269.10 582.40 L 264.20 586.00 L 262.10 588.20 L 259.00 593.40 L 257.90 596.20 L 257.30 599.20 L 257.10 602.30 L 257.30 605.50 L 257.90 608.50 L 259.00 611.30 L 262.10 616.50 L 266.50 620.60 L 269.10 622.30 L 274.90 624.60 L 278.10 625.20 L 281.40 625.50 L 284.80 625.20 L 287.90 624.60 L 290.90 623.60 L 296.30 620.60 L 300.70 616.50 L 303.90 611.30 L 304.90 608.50 L 305.50 605.50 L 305.80 602.30 L 305.50 599.20 L 304.90 596.20 L 303.90 593.40 L 300.70 588.20 L 298.60 586.00 L 293.70 582.40 L 290.90 581.00 L 287.90 580.10 L 284.80 579.40 L 281.40 579.20 Z" fill="#458cfb" fill-rule="nonzero" group-id="1,10,41,80" id="减去_40" node-id="86" stroke="none" target-height="72.89996" target-width="76.79999" target-x="243" target-y="565.9"></path><path d="M 281.90 638.80 L 281.90 625.50 L 285.10 625.30 L 291.20 623.70 L 296.80 620.70 L 299.30 618.70 L 301.40 616.40 L 303.20 614.00 L 304.60 611.30 L 305.60 608.40 L 306.30 605.40 L 306.50 602.30 L 306.30 599.20 L 305.60 596.20 L 304.60 593.30 L 301.40 588.20 L 299.30 586.00 L 294.30 582.40 L 291.40 581.00 L 288.40 580.00 L 285.20 579.40 L 281.90 579.20 L 281.90 565.90 L 289.60 566.60 L 297.00 568.80 L 301.40 570.90 L 305.50 573.50 L 309.30 576.60 L 312.60 580.10 L 315.40 583.90 L 317.60 588.20 L 319.90 595.10 L 320.70 602.30 L 319.90 609.50 L 317.60 616.50 L 315.40 620.80 L 312.60 624.60 L 309.30 628.10 L 305.50 631.20 L 301.40 633.80 L 297.00 635.90 L 289.60 638.10 L 281.90 638.80 Z" fill="#fbb245" fill-rule="nonzero" group-id="1,10,41,81" id="减去_42" node-id="87" stroke="none" target-height="72.89996" target-width="38.80002" target-x="281.9" target-y="565.9"></path><path d="M 281.50 638.90 L 281.50 625.60 L 284.70 625.40 L 287.80 624.80 L 293.60 622.50 L 296.30 620.80 L 298.80 618.80 L 300.90 616.50 L 302.70 613.90 L 304.20 611.10 L 305.20 608.00 L 319.50 608.00 L 318.50 612.40 L 317.00 616.60 L 314.70 620.90 L 312.00 624.70 L 308.70 628.30 L 305.00 631.40 L 300.90 634.00 L 296.50 636.10 L 289.10 638.20 L 281.50 638.90 Z" fill="#c62bcb" fill-rule="nonzero" group-id="1,10,41,82" id="减去_45" node-id="88" stroke="none" target-height="30.900024" target-width="38" target-x="281.5" target-y="608"></path><path d="M 872.20 690.80 L 879.40 690.30 L 886.20 786.60 L 878.90 787.10 Z" fill="#919ad5" fill-rule="nonzero" group-id="1,11,42,83" id="矩形_1462" node-id="91" stroke="none" target-height="96.79999" target-width="14" target-x="872.2" target-y="690.3"></path><path d="M 844.60 690.80 L 851.80 690.30 L 858.60 786.60 L 851.40 787.10 Z" fill="#919ad5" fill-rule="nonzero" group-id="1,11,42,84" id="矩形_1464" node-id="92" stroke="none" target-height="96.79999" target-width="14" target-x="844.6" target-y="690.3"></path><path d="M 799.80 787.10 L 792.50 786.60 L 799.30 690.30 L 806.50 690.80 Z" fill="#b0b8ee" fill-rule="nonzero" group-id="1,11,42,85" id="矩形_1463" node-id="93" stroke="none" target-height="96.79999" target-width="14" target-x="792.5" target-y="690.3"></path><path d="M 772.20 787.10 L 765.00 786.60 L 771.70 690.30 L 778.90 690.80 Z" fill="#b0b8ee" fill-rule="nonzero" group-id="1,11,42,86" id="矩形_1465" node-id="94" stroke="none" target-height="96.79999" target-width="13.900024" target-x="765" target-y="690.3"></path><path d="M 916.80 560.80 L 884.00 690.40 L 772.40 689.90 L 803.50 635.50 L 813.70 560.80 Z" fill="#92a1dc" fill-rule="nonzero" group-id="1,11,42,87" id="路径_1216" node-id="95" stroke="none" target-height="129.60004" target-width="144.39996" target-x="772.4" target-y="560.8"></path><path d="M 773.60 692.80 L 771.90 692.50 L 770.60 691.60 L 769.70 690.30 L 769.30 688.60 L 769.70 687.00 L 770.60 685.60 L 771.90 684.70 L 773.60 684.40 L 880.40 684.40 L 912.60 564.20 L 913.40 562.70 L 914.60 561.70 L 916.10 561.20 L 917.70 561.30 L 919.20 562.10 L 920.20 563.20 L 920.80 564.70 L 920.70 566.40 L 888.00 688.80 L 887.30 690.20 L 886.20 691.40 L 884.90 692.30 L 883.40 692.80 Z" fill="#a7b5f4" fill-rule="nonzero" group-id="1,11,42,88" id="联合_167" node-id="96" stroke="none" target-height="131.59998" target-width="151.5" target-x="769.3" target-y="561.2"></path><path d="M 811.20 779.40 L 825.00 779.40 L 825.00 759.50 L 811.60 762.10 Z" fill="#c77760" fill-rule="nonzero" group-id="1,11,43,89,111" id="路径_1163" node-id="99" stroke="none" target-height="19.900024" target-width="13.799988" target-x="811.2" target-y="759.5"></path><path d="M 824.80 773.70 L 825.20 790.40 L 779.60 789.60 L 780.60 787.80 L 782.10 786.50 L 788.00 783.10 L 795.60 779.60 L 811.20 773.70 Z" fill="#272f31" fill-rule="nonzero" group-id="1,11,43,89,112" id="路径_1164" node-id="100" stroke="none" target-height="16.700012" target-width="45.600037" target-x="779.6" target-y="773.7"></path><path d="M 756.70 779.40 L 770.50 779.40 L 770.50 759.50 L 757.10 762.10 Z" fill="#c77760" fill-rule="nonzero" group-id="1,11,43,90,113" id="路径_1163-2" node-id="102" stroke="none" target-height="19.900024" target-width="13.799988" target-x="756.7" target-y="759.5"></path><path d="M 770.30 773.70 L 770.70 790.40 L 725.10 789.60 L 726.10 787.80 L 727.60 786.50 L 733.50 783.10 L 741.10 779.60 L 756.70 773.70 Z" fill="#272f31" fill-rule="nonzero" group-id="1,11,43,90,114" id="路径_1164-2" node-id="103" stroke="none" target-height="16.700012" target-width="45.600037" target-x="725.1" target-y="773.7"></path><path d="M 740.60 651.50 L 739.10 652.90 L 738.40 654.40 L 737.90 656.60 L 737.40 661.30 L 737.40 668.00 L 738.70 683.80 L 741.30 702.30 L 744.60 721.60 L 748.00 739.80 L 754.30 769.60 L 773.00 769.60 L 771.40 686.30 L 783.30 686.30 L 811.10 683.60 L 853.80 646.10 L 803.50 628.90 L 795.60 641.00 L 760.40 647.10 L 749.00 649.40 L 740.60 651.50 Z" fill="#121542" fill-rule="nonzero" group-id="1,11,43,91,115" id="路径_1214" node-id="105" stroke="none" target-height="140.69995" target-width="116.39996" target-x="737.4" target-y="628.9"></path><path d="M 786.90 659.20 L 786.00 660.60 L 785.30 663.00 L 784.90 666.70 L 785.10 672.70 L 787.30 689.20 L 789.20 698.80 L 793.70 718.80 L 798.70 738.40 L 807.90 771.40 L 826.40 771.40 L 819.70 689.40 L 837.10 687.40 L 849.20 685.00 L 855.00 683.50 L 860.50 681.60 L 864.90 679.50 L 867.60 677.80 L 869.40 676.10 L 870.60 674.30 L 871.90 669.00 L 872.10 666.00 L 871.80 661.30 L 870.90 656.60 L 868.50 647.80 L 864.90 638.70 L 829.30 645.80 L 820.50 647.20 L 807.00 650.20 L 797.60 653.20 L 793.40 655.00 L 789.60 657.10 L 786.90 659.20 Z" fill="#182260" fill-rule="nonzero" group-id="1,11,43,91,116" id="路径_1215" node-id="106" stroke="none" target-height="132.70001" target-width="87.19995" target-x="784.9" target-y="638.7"></path><path d="M 831.10 527.50 L 831.10 547.80 L 846.60 547.80 L 846.60 523.60 L 853.90 512.80 L 856.60 500.70 L 853.40 497.50 L 839.70 490.00 L 822.70 495.80 L 822.40 508.50 L 823.10 516.80 L 823.90 520.50 L 824.60 522.90 L 826.50 526.10 L 827.80 527.10 L 829.30 527.60 L 831.10 527.50 Z" fill="#fbb093" fill-rule="nonzero" group-id="1,11,43,92" id="路径_1201" node-id="107" stroke="none" target-height="57.799988" target-width="34.19995" target-x="822.4" target-y="490"></path><path d="M 817.50 493.20 L 817.60 491.20 L 818.50 488.20 L 819.90 486.30 L 823.40 483.60 L 825.20 482.70 L 829.70 481.50 L 841.10 481.20 L 847.60 482.30 L 850.00 483.30 L 852.70 485.30 L 855.10 487.80 L 857.00 490.70 L 858.30 493.80 L 858.80 495.90 L 858.70 500.10 L 857.50 504.60 L 855.90 508.90 L 853.90 513.00 L 851.70 516.10 L 851.30 516.00 L 851.20 515.00 L 853.10 507.50 L 852.90 504.80 L 852.20 504.10 L 850.20 504.10 L 848.50 505.50 L 847.80 506.80 L 847.20 509.30 L 846.20 505.50 L 844.40 501.60 L 843.10 499.90 L 841.40 498.60 L 839.40 497.90 L 834.80 497.50 L 829.00 498.20 L 824.50 499.50 L 821.50 499.40 L 819.30 498.20 L 818.50 497.20 L 817.90 495.60 L 817.50 493.20 Z" fill="#1d246a" fill-rule="nonzero" group-id="1,11,43,93" id="路径_1202" node-id="108" stroke="none" target-height="34.899963" target-width="41.299988" target-x="817.5" target-y="481.2"></path><path d="M 850.00 544.40 L 851.40 544.20 L 852.60 544.50 L 853.60 545.30 L 854.50 546.70 L 855.30 548.70 L 856.30 555.60 L 856.40 561.70 L 856.00 569.30 L 854.20 586.00 L 851.40 603.80 L 848.20 620.90 L 842.20 649.10 L 831.10 649.50 L 820.30 649.00 L 814.40 648.30 L 808.60 647.10 L 807.40 646.50 L 806.40 645.50 L 805.40 643.80 L 804.00 638.20 L 803.40 628.90 L 803.60 621.00 L 804.40 611.80 L 806.70 592.60 L 809.80 573.50 L 816.20 540.90 L 828.70 538.70 L 829.80 540.80 L 832.40 543.30 L 834.60 544.50 L 837.20 545.30 L 840.80 545.70 L 843.30 545.60 L 850.00 544.40 Z" fill="#4a6ffc" fill-rule="nonzero" group-id="1,11,43,94" id="路径_1204" node-id="109" stroke="none" target-height="110.79999" target-width="53" target-x="803.4" target-y="538.7"></path><path d="M 850.00 544.40 L 851.40 544.20 L 852.60 544.50 L 853.60 545.20 L 854.50 546.50 L 855.40 548.50 L 856.50 555.00 L 856.60 560.80 L 856.30 568.10 L 854.70 584.00 L 852.00 601.00 L 849.00 617.20 L 843.30 644.20 L 833.60 644.40 L 818.60 643.80 L 808.00 642.50 L 803.30 641.50 L 802.10 641.00 L 801.10 640.00 L 800.20 638.40 L 799.50 636.10 L 798.80 629.10 L 798.90 624.20 L 799.60 616.70 L 800.70 608.00 L 804.10 589.80 L 808.10 571.70 L 816.20 540.90 L 828.70 538.70 L 829.80 540.80 L 832.40 543.30 L 834.60 544.50 L 837.20 545.30 L 840.80 545.70 L 843.30 545.60 L 850.00 544.40 Z" fill="#ffffff" fill-rule="nonzero" group-id="1,11,43,95" id="路径_1205" node-id="110" stroke="none" target-height="105.70001" target-width="57.799988" target-x="798.8" target-y="538.7"></path><path d="M 750.80 525.90 L 750.30 522.70 L 750.20 515.10 L 749.50 513.40 L 748.40 513.20 L 747.30 514.60 L 746.30 518.50 L 745.30 524.30 L 737.50 512.20 L 734.80 509.20 L 733.90 508.80 L 732.40 509.40 L 731.50 510.30 L 729.30 514.10 L 727.80 518.70 L 727.60 521.00 L 727.80 522.70 L 729.50 527.10 L 732.20 532.80 L 736.80 540.20 L 737.90 541.30 L 746.00 546.60 L 750.80 540.40 L 751.40 532.50 L 750.80 525.90 Z" fill="#ffad92" fill-rule="nonzero" group-id="1,11,43,96,117" id="路径_1206" node-id="112" stroke="none" target-height="37.799988" target-width="23.800049" target-x="727.6" target-y="508.8"></path><path d="M 738.40 548.50 L 767.40 593.70 L 770.80 597.30 L 772.50 598.40 L 774.50 599.30 L 777.40 599.50 L 779.10 599.10 L 782.40 597.00 L 791.10 587.00 L 803.40 573.70 L 793.30 628.50 L 793.00 632.70 L 793.30 635.50 L 794.00 638.30 L 795.30 641.30 L 796.60 643.10 L 798.30 644.70 L 800.50 646.10 L 804.00 647.70 L 808.90 649.00 L 811.70 648.70 L 813.00 648.00 L 813.00 632.10 L 813.70 616.10 L 815.80 591.90 L 818.20 575.60 L 821.40 560.70 L 823.10 554.50 L 825.20 548.70 L 827.10 544.50 L 828.70 542.10 L 830.20 540.50 L 831.60 539.60 L 826.50 538.90 L 816.80 538.60 L 813.00 538.90 L 809.60 539.40 L 808.00 540.00 L 799.40 549.60 L 779.10 574.70 L 751.40 538.00 Z" fill="#182164" fill-rule="nonzero" group-id="1,11,43,96,118" id="路径_1207" node-id="113" stroke="none" target-height="111" target-width="93.19995" target-x="738.4" target-y="538"></path><path d="M 824.70 540.40 L 817.10 549.80 L 816.00 552.10 L 816.80 553.80 L 821.30 559.00 L 813.60 565.60 L 814.40 603.20 L 827.30 551.90 L 829.70 543.00 L 831.60 538.00 L 829.90 538.00 L 827.00 539.00 L 824.70 540.40 Z" fill="#3e63ef" fill-rule="nonzero" group-id="1,11,43,96,119" id="路径_1208" node-id="114" stroke="none" target-height="65.20001" target-width="18" target-x="813.6" target-y="538"></path><path d="M 844.50 655.40 L 838.60 655.20 L 836.50 654.80 L 836.00 654.40 L 835.60 641.70 L 835.80 609.20 L 836.00 602.90 L 837.50 590.20 L 842.20 559.10 L 845.00 545.90 L 846.60 541.40 L 847.60 540.50 L 855.50 540.80 L 861.70 541.70 L 866.20 543.00 L 869.60 544.40 L 872.10 546.10 L 874.00 547.90 L 883.80 561.70 L 888.30 568.80 L 895.60 581.70 L 899.60 590.60 L 900.90 594.30 L 901.50 597.10 L 901.80 602.70 L 901.20 605.50 L 900.10 608.10 L 899.10 609.60 L 896.60 611.90 L 865.60 625.80 L 867.80 654.40 L 844.50 655.40 Z M 868.70 580.20 L 865.00 606.80 L 870.80 604.80 L 877.90 601.90 L 881.10 599.90 L 881.50 599.10 L 880.30 596.20 L 877.20 591.40 L 868.70 580.20 Z" fill="#19225d" fill-rule="nonzero" group-id="1,11,43,97,120" id="减去_39" node-id="116" stroke="none" target-height="114.900024" target-width="66.20001" target-x="835.6" target-y="540.5"></path><path d="M 839.50 613.30 L 844.90 611.30 L 849.80 610.00 L 852.30 609.80 L 855.10 610.00 L 858.30 611.20 L 861.00 613.60 L 862.70 616.40 L 860.90 621.20 L 859.30 623.30 L 858.40 623.70 L 824.30 623.70 L 824.50 622.10 L 827.00 619.70 L 834.50 615.40 L 839.50 613.30 Z" fill="#ffb894" fill-rule="nonzero" group-id="1,11,43,97,121" id="路径_1212" node-id="117" stroke="none" target-height="13.900024" target-width="38.400024" target-x="824.3" target-y="609.8"></path><path d="M 842.30 555.40 L 840.10 566.20 L 836.90 588.40 L 835.60 603.30 L 835.60 608.70 L 836.10 614.40 L 851.30 571.50 L 847.50 562.40 L 856.10 556.10 L 846.90 540.40 L 844.30 547.80 L 842.30 555.40 Z" fill="#355bff" fill-rule="nonzero" group-id="1,11,43,97,122" id="路径_1213" node-id="118" stroke="none" target-height="74" target-width="20.5" target-x="835.6" target-y="540.4"></path><path d="M 859.00 611.30 L 861.90 613.80 L 863.10 615.40 L 864.10 618.60 L 863.50 621.50 L 862.10 623.80 L 861.20 624.70 L 860.30 625.20 L 859.60 625.00 L 858.30 623.30 L 855.50 609.80 L 859.00 611.30 Z" fill="#020937" fill-rule="nonzero" group-id="1,11,43,97,123" id="路径_1211" node-id="119" stroke="none" target-height="15.400024" target-width="8.599976" target-x="855.5" target-y="609.8"></path><path d="M 825.40 549.70 L 835.90 545.40 L 846.30 551.60 L 849.60 539.20 L 835.90 543.40 L 830.90 536.30 Z" fill="#ced0ff" fill-rule="nonzero" group-id="1,11,43,98" id="路径_1203" node-id="120" stroke="none" target-height="15.299988" target-width="24.199951" target-x="825.4" target-y="536.3"></path><path d="M 179.60 685.10 L 179.60 774.80 L 178.50 776.10 L 175.20 778.00 L 168.20 779.90 L 156.20 781.20 L 147.60 781.40 L 136.80 781.10 L 129.30 780.30 L 122.80 779.20 L 118.80 778.10 L 115.50 776.80 L 112.80 774.80 L 112.80 685.10 Z" fill="url(#linear-gradient)" fill-rule="nonzero" group-id="1,12,44" id="路径_1167" node-id="122" stroke="none" target-height="96.30005" target-width="66.8" target-x="112.8" target-y="685.1"></path><path d="M 112.50 685.40 L 112.70 684.60 L 113.50 683.80 L 115.10 682.80 L 118.00 681.80 L 122.30 680.70 L 133.00 679.30 L 146.20 678.80 L 159.30 679.30 L 170.00 680.70 L 174.30 681.80 L 177.20 682.80 L 178.80 683.80 L 179.60 684.60 L 179.80 685.40 L 179.60 686.20 L 178.80 687.10 L 177.20 688.00 L 174.30 689.10 L 170.00 690.10 L 159.30 691.50 L 146.20 692.10 L 133.00 691.50 L 122.30 690.10 L 118.00 689.10 L 115.10 688.00 L 113.50 687.10 L 112.70 686.20 L 112.50 685.40 Z" fill="#b7bbc2" fill-rule="nonzero" group-id="1,12,45" id="椭圆_359" node-id="123" stroke="none" target-height="13.299988" target-width="67.3" target-x="112.5" target-y="678.8"></path><path d="M 116.00 688.10 L 116.30 687.50 L 117.40 686.90 L 124.40 685.30 L 137.60 684.20 L 145.70 684.10 L 153.80 684.20 L 167.00 685.30 L 171.30 686.10 L 174.00 686.90 L 175.10 687.50 L 175.40 688.10 L 175.10 688.60 L 174.00 689.30 L 167.00 690.90 L 153.80 691.90 L 145.70 692.10 L 137.60 691.90 L 124.40 690.90 L 117.40 689.30 L 116.30 688.60 L 116.00 688.10 Z" fill="#769be5" fill-rule="nonzero" group-id="1,12,46" id="椭圆_360" node-id="124" stroke="none" target-height="8" target-width="59.399994" target-x="116" target-y="684.1"></path><path d="M 159.00 664.10 L 158.10 660.50 L 156.60 656.50 L 152.70 652.00 L 151.90 650.40 L 150.50 644.90 L 150.30 638.90 L 151.20 635.10 L 151.80 634.30 L 154.20 633.30 L 155.80 632.10 L 158.60 628.50 L 159.50 626.40 L 159.90 622.90 L 159.00 620.50 L 157.60 619.10 L 150.80 615.80 L 148.40 613.60 L 147.10 610.40 L 146.80 607.60 L 147.60 596.80 L 147.30 594.80 L 146.90 593.70 L 146.10 592.70 L 144.90 592.00 L 142.90 591.50 L 140.90 591.40 L 136.60 592.40 L 132.80 594.40 L 130.00 597.30 L 128.30 600.40 L 127.10 601.70 L 121.30 605.00 L 120.50 605.90 L 120.20 606.90 L 120.40 608.10 L 121.00 609.50 L 124.40 614.70 L 125.00 616.20 L 122.20 618.50 L 120.10 621.40 L 118.40 627.50 L 117.70 628.60 L 113.90 631.50 L 113.30 632.50 L 112.90 634.20 L 113.00 636.20 L 114.40 643.10 L 114.80 647.20 L 114.30 649.30 L 112.40 653.40 L 111.30 661.30 L 111.10 666.60 L 111.30 668.20 L 112.60 671.00 L 115.20 673.10 L 117.40 673.90 L 121.80 675.00 L 125.40 675.30 L 128.90 675.20 L 138.30 673.90 L 148.90 673.30 L 154.50 671.90 L 156.10 671.20 L 158.30 669.10 L 158.90 667.80 L 159.20 666.20 L 159.00 664.10 Z" fill="#adbbb4" fill-rule="nonzero" group-id="1,12,47,99" id="路径_1168" node-id="126" stroke="none" target-height="83.89996" target-width="48.799995" target-x="111.1" target-y="591.4"></path><path d="M 138.60 598.60 L 135.90 613.30 L 133.80 628.50 L 132.20 646.10 L 131.90 655.20 L 132.30 669.80 L 133.80 679.90 L 135.10 684.70 L 136.70 688.60 L 138.60 691.80" fill="none" group-id="1,12,47,100" id="路径_1169" node-id="127" stroke="#ababab" stroke-linecap="butt" stroke-width="0.6" target-height="93.20001" target-width="6.700012" target-x="131.9" target-y="598.6"></path><path d="M 143.10 607.30 L 135.30 617.20 L 131.20 611.70" fill="none" group-id="1,12,47,101" id="路径_1170" node-id="128" stroke="#ababab" stroke-linecap="butt" stroke-width="0.6" target-height="9.900024" target-width="11.900009" target-x="131.2" target-y="607.3"></path><path d="M 148.20 623.60 L 145.00 625.00 L 142.20 626.80 L 139.60 629.00 L 137.50 631.10 L 133.40 636.60 L 128.80 630.40 L 124.80 626.00" fill="none" group-id="1,12,47,102" id="路径_1171" node-id="129" stroke="#ababab" stroke-linecap="butt" stroke-width="0.6" target-height="13" target-width="23.399994" target-x="124.8" target-y="623.6"></path><path d="M 146.50 644.40 L 143.90 645.50 L 138.70 649.50 L 136.40 651.70 L 131.70 657.30 L 129.90 653.30 L 126.80 648.00 L 123.00 643.80 L 119.30 641.50" fill="none" group-id="1,12,47,103" id="路径_1172" node-id="130" stroke="#ababab" stroke-linecap="butt" stroke-width="0.6" target-height="15.799988" target-width="27.199997" target-x="119.3" target-y="641.5"></path><path d="M 141.20 662.70 L 139.60 663.20 L 136.40 665.60 L 132.40 671.20 L 120.80 666.80" fill="none" group-id="1,12,47,104" id="路径_1173" node-id="131" stroke="#ababab" stroke-linecap="butt" stroke-width="0.6" target-height="8.5" target-width="20.399994" target-x="120.8" target-y="662.7"></path><path d="M 127.00 658.90 L 128.00 654.60 L 129.80 649.80 L 130.60 648.60 L 134.50 644.50 L 135.30 643.00 L 136.10 640.70 L 137.20 635.30 L 137.40 629.70 L 137.20 627.10 L 136.00 624.00 L 135.30 623.30 L 132.70 622.20 L 130.80 620.80 L 129.00 618.90 L 127.50 616.50 L 126.40 614.00 L 125.90 611.50 L 125.90 609.90 L 127.00 607.00 L 128.70 605.40 L 136.70 601.40 L 139.50 598.80 L 141.10 595.00 L 141.50 591.60 L 140.60 578.80 L 140.90 576.50 L 141.40 575.10 L 142.40 574.00 L 143.80 573.20 L 147.30 572.40 L 149.20 572.50 L 152.00 573.00 L 154.80 574.10 L 157.30 575.50 L 159.50 577.20 L 161.30 579.20 L 163.40 583.20 L 164.90 584.60 L 171.80 588.60 L 172.80 589.70 L 173.20 590.80 L 172.90 592.20 L 172.20 593.90 L 168.10 600.10 L 167.50 601.90 L 170.80 604.80 L 173.10 607.80 L 174.00 610.00 L 175.30 615.30 L 176.10 616.70 L 180.60 620.10 L 181.40 621.20 L 181.80 623.30 L 181.70 625.70 L 180.10 633.90 L 179.60 638.80 L 180.20 641.30 L 181.90 644.60 L 182.40 646.10 L 183.70 655.60 L 184.00 661.90 L 183.70 663.80 L 182.10 667.10 L 180.90 668.40 L 179.00 669.50 L 176.50 670.60 L 169.70 672.00 L 162.70 672.00 L 151.60 670.60 L 138.90 669.80 L 135.50 669.10 L 132.40 668.20 L 130.50 667.30 L 127.80 664.80 L 127.10 663.20 L 126.80 661.30 L 127.00 658.90 Z" fill="#cbd7d1" fill-rule="nonzero" group-id="1,12,48,105" id="路径_1168-2" node-id="133" stroke="none" target-height="99.599976" target-width="58.1" target-x="125.9" target-y="572.4"></path><path d="M 151.30 580.90 L 153.80 594.70 L 157.10 617.70 L 158.70 636.10 L 159.20 654.90 L 158.90 663.80 L 157.50 674.90 L 156.40 679.80 L 155.00 684.50 L 153.30 688.50 L 151.30 691.80" fill="none" group-id="1,12,48,106" id="路径_1169-2" node-id="134" stroke="#707070" stroke-linecap="butt" stroke-width="0.6" target-height="110.89996" target-width="7.899994" target-x="151.3" target-y="580.9"></path><path d="M 145.80 591.40 L 155.10 603.10 L 160.00 596.50" fill="none" group-id="1,12,48,107" id="路径_1170-2" node-id="135" stroke="#707070" stroke-linecap="butt" stroke-width="0.6" target-height="11.699951" target-width="14.199997" target-x="145.8" target-y="591.4"></path><path d="M 139.80 610.70 L 144.70 613.00 L 150.00 617.10 L 154.70 622.20 L 157.50 626.10 L 164.00 617.40 L 167.70 613.60" fill="none" group-id="1,12,48,108" id="路径_1171-2" node-id="136" stroke="#707070" stroke-linecap="butt" stroke-width="0.6" target-height="15.399963" target-width="27.899994" target-x="139.8" target-y="610.7"></path><path d="M 141.80 635.40 L 146.00 637.40 L 151.20 641.50 L 153.80 644.10 L 159.50 650.80 L 161.50 646.00 L 165.30 639.70 L 169.80 634.70 L 174.20 632.00" fill="none" group-id="1,12,48,109" id="路径_1172-2" node-id="137" stroke="#707070" stroke-linecap="butt" stroke-width="0.6" target-height="18.799988" target-width="32.399994" target-x="141.8" target-y="632"></path><path d="M 148.20 657.20 L 150.10 657.80 L 152.00 659.00 L 153.80 660.70 L 155.40 662.50 L 158.60 667.30 L 172.40 662.00" fill="none" group-id="1,12,48,110" id="路径_1173-2" node-id="138" stroke="#707070" stroke-linecap="butt" stroke-width="0.6" target-height="10.099976" target-width="24.199997" target-x="148.2" target-y="657.2"></path></g></g></svg>