<?xml version="1.0" standalone="no"?><!DOCTYPE svg PUBLIC "-//W3C//DTD SVG 1.1//EN" "http://www.w3.org/Graphics/SVG/1.1/DTD/svg11.dtd"><svg height="1024" node-id="1" sillyvg="true" template-height="1024" template-width="1024" version="1.1" viewBox="0 0 1024 1024" width="1024" xmlns="http://www.w3.org/2000/svg" xmlns:xlink="http://www.w3.org/1999/xlink"><defs node-id="152"><linearGradient gradientUnits="objectBoundingBox" id="linearGradient1" node-id="154" spreadMethod="pad" x1="-0.1358235" x2="0.5" y1="0.5" y2="0.47203198"><stop offset="0" stop-color="#98d6fa"></stop><stop offset="1" stop-color="#47b0f1"></stop></linearGradient><linearGradient gradientUnits="objectBoundingBox" id="linearGradient-1" node-id="5" spreadMethod="pad" x1="-0.1358235" x2="0.5" y1="0.5" y2="0.47203198"><stop offset="0" stop-color="#98d6fa"></stop><stop offset="1" stop-color="#47b0f1"></stop></linearGradient><linearGradient gradientUnits="objectBoundingBox" id="linearGradient-2" node-id="8" spreadMethod="pad" x1="-0.0000000000000009337728" x2="1" y1="-0.031055901" y2="-0.031055901"><stop offset="0" stop-color="#fff5de"></stop><stop offset="1" stop-color="#fbd2ac"></stop></linearGradient><linearGradient gradientUnits="objectBoundingBox" id="linearGradient-3" node-id="11" spreadMethod="pad" x1="-0.1358235" x2="0.5" y1="0.5" y2="0.47628444"><stop offset="0" stop-color="#98d6fa"></stop><stop offset="1" stop-color="#47b0f1"></stop></linearGradient><linearGradient gradientUnits="objectBoundingBox" id="linearGradient2" node-id="179" spreadMethod="pad" x1="-0.1358235" x2="0.5" y1="0.5" y2="0.47629464"><stop offset="0" stop-color="#98d6fa"></stop><stop offset="1" stop-color="#47b0f1"></stop></linearGradient><linearGradient gradientUnits="objectBoundingBox" id="linearGradient-4" node-id="14" spreadMethod="pad" x1="-0.1358235" x2="0.5" y1="0.5" y2="0.47629464"><stop offset="0" stop-color="#98d6fa"></stop><stop offset="1" stop-color="#47b0f1"></stop></linearGradient><linearGradient gradientUnits="objectBoundingBox" id="linearGradient-5" node-id="17" spreadMethod="pad" x1="-0.1358235" x2="0.5" y1="0.5" y2="0.47629884"><stop offset="0" stop-color="#98d6fa"></stop><stop offset="1" stop-color="#47b0f1"></stop></linearGradient><linearGradient gradientUnits="objectBoundingBox" id="linearGradient-6" node-id="20" spreadMethod="pad" x1="-0.1358235" x2="0.5" y1="0.5" y2="0.4342302"><stop offset="0" stop-color="#98d6fa"></stop><stop offset="1" stop-color="#47b0f1"></stop></linearGradient><linearGradient gradientUnits="objectBoundingBox" id="linearGradient3" node-id="204" spreadMethod="pad" x1="0.43139893" x2="0.60336566" y1="-0.06451613" y2="0"><stop offset="0.031572677" stop-color="#afdef9"></stop><stop offset="1" stop-color="#7cc9f9"></stop></linearGradient><linearGradient gradientUnits="objectBoundingBox" id="linearGradient-8" node-id="26" spreadMethod="pad" x1="0.05920258" x2="0.5996637" y1="0.6085715" y2="0.37054223"><stop offset="0" stop-color="#98d6fa"></stop><stop offset="1" stop-color="#47b0f1"></stop></linearGradient><linearGradient gradientUnits="objectBoundingBox" id="linearGradient-9" node-id="29" spreadMethod="pad" x1="0.44492638" x2="0.58298296" y1="-0.06451613" y2="0"><stop offset="0.031572677" stop-color="#afdef9"></stop><stop offset="1" stop-color="#7cc9f9"></stop></linearGradient><linearGradient gradientUnits="objectBoundingBox" id="linearGradient-10" node-id="32" spreadMethod="pad" x1="0.28403884" x2="0.5" y1="0.8700848" y2="0.30481097"><stop offset="0" stop-color="#98d6fa"></stop><stop offset="1" stop-color="#47b0f1"></stop></linearGradient><linearGradient gradientUnits="objectBoundingBox" id="linearGradient-7" node-id="23" spreadMethod="pad" x1="0.43139893" x2="0.60336566" y1="-0.06451613" y2="0"><stop offset="0.031572677" stop-color="#afdef9"></stop><stop offset="1" stop-color="#7cc9f9"></stop></linearGradient><linearGradient gradientUnits="objectBoundingBox" id="linearGradient-11" node-id="35" spreadMethod="pad" x1="0.8017669" x2="0.40161258" y1="0.7812446" y2="0.012035675"><stop offset="0" stop-color="#98d6fa"></stop><stop offset="1" stop-color="#47b0f1"></stop></linearGradient><linearGradient gradientUnits="objectBoundingBox" id="linearGradient-12" node-id="38" spreadMethod="pad" x1="0.1696366" x2="0.73110634" y1="0.77603304" y2="0.27310416"><stop offset="0" stop-color="#98d6fa"></stop><stop offset="1" stop-color="#47b0f1"></stop></linearGradient><linearGradient gradientUnits="objectBoundingBox" id="linearGradient-13" node-id="41" spreadMethod="pad" x1="0" x2="0.849776" y1="0.6687911" y2="0.36125568"><stop offset="0" stop-color="#98d6fa"></stop><stop offset="1" stop-color="#47b0f1"></stop></linearGradient><linearGradient gradientUnits="objectBoundingBox" id="linearGradient-14" node-id="44" spreadMethod="pad" x1="0" x2="0.849776" y1="0.6436173" y2="0.38194832"><stop offset="0" stop-color="#98d6fa"></stop><stop offset="1" stop-color="#47b0f1"></stop></linearGradient><linearGradient gradientUnits="objectBoundingBox" id="linearGradient-15" node-id="47" spreadMethod="pad" x1="0" x2="0.849776" y1="0.63935465" y2="0.38545215"><stop offset="0" stop-color="#98d6fa"></stop><stop offset="1" stop-color="#47b0f1"></stop></linearGradient><linearGradient gradientUnits="objectBoundingBox" id="linearGradient-16" node-id="50" spreadMethod="pad" x1="1" x2="0" y1="-0.11764706" y2="-0.11764706"><stop offset="0" stop-color="#f5dda7"></stop><stop offset="1" stop-color="#fa9a41"></stop></linearGradient><linearGradient gradientUnits="objectBoundingBox" id="linearGradient-17" node-id="53" spreadMethod="pad" x1="0.5" x2="1.2718465" y1="0.28340417" y2="0.6884129"><stop offset="0" stop-color="#98d6fa"></stop><stop offset="1" stop-color="#47b0f1"></stop></linearGradient><linearGradient gradientUnits="objectBoundingBox" id="linearGradient-18" node-id="56" spreadMethod="pad" x1="0.5" x2="1.2718465" y1="0.021397227" y2="0.91632813"><stop offset="0" stop-color="#98d6fa"></stop><stop offset="1" stop-color="#47b0f1"></stop></linearGradient><linearGradient gradientUnits="objectBoundingBox" id="linearGradient-19" node-id="59" spreadMethod="pad" x1="0.27072358" x2="0.6696898" y1="0.2267636" y2="0.9064481"><stop offset="0" stop-color="#98d6fa"></stop><stop offset="1" stop-color="#47b0f1"></stop></linearGradient><linearGradient gradientUnits="objectBoundingBox" id="linearGradient-20" node-id="62" spreadMethod="pad" x1="0.43170565" x2="0.7126565" y1="0.076702476" y2="0.9064481"><stop offset="0" stop-color="#98d6fa"></stop><stop offset="1" stop-color="#47b0f1"></stop></linearGradient><linearGradient gradientUnits="objectBoundingBox" id="linearGradient-21" node-id="65" spreadMethod="pad" x1="0.15011948" x2="0.5" y1="0.3147246" y2="0.63610584"><stop offset="0" stop-color="#98d6fa"></stop><stop offset="1" stop-color="#47b0f1"></stop></linearGradient><linearGradient gradientUnits="objectBoundingBox" id="linearGradient-22" node-id="68" spreadMethod="pad" x1="0" x2="0.87005496" y1="0.40404868" y2="0.6427308"><stop offset="0" stop-color="#98d6fa"></stop><stop offset="1" stop-color="#47b0f1"></stop></linearGradient><linearGradient gradientUnits="objectBoundingBox" id="linearGradient-23" node-id="71" spreadMethod="pad" x1="0.31427655" x2="0.99999994" y1="0.43752554" y2="0.30132854"><stop offset="0" stop-color="#923629"></stop><stop offset="0.3" stop-color="#57352c"></stop><stop offset="0.5" stop-color="#42352c"></stop><stop offset="0.7" stop-color="#2c2422"></stop><stop offset="1" stop-color="#1d181c"></stop></linearGradient><linearGradient gradientUnits="objectBoundingBox" id="linearGradient-24" node-id="77" spreadMethod="pad" x1="0.13724975" x2="0.99999994" y1="-0.02805049" y2="-0.02805049"><stop offset="0" stop-color="#923629"></stop><stop offset="0.3" stop-color="#57352c"></stop><stop offset="0.5" stop-color="#42352c"></stop><stop offset="0.7" stop-color="#2c2422"></stop><stop offset="1" stop-color="#1d181c"></stop></linearGradient><linearGradient gradientUnits="objectBoundingBox" id="linearGradient-25" node-id="83" spreadMethod="pad" x1="0" x2="0.99418527" y1="-0.029698752" y2="-0.029698752"><stop offset="0" stop-color="#ffb859"></stop><stop offset="1" stop-color="#f97b61"></stop></linearGradient><linearGradient gradientUnits="objectBoundingBox" id="linearGradient-26" node-id="86" spreadMethod="pad" x1="-0.22360033" x2="0.5" y1="0.8700848" y2="0.30481097"><stop offset="0" stop-color="#98d6fa"></stop><stop offset="1" stop-color="#47b0f1"></stop></linearGradient><linearGradient gradientUnits="objectBoundingBox" id="linearGradient-27" node-id="89" spreadMethod="pad" x1="0.8408065" x2="0.06797705" y1="0.25430152" y2="1.2462928"><stop offset="0" stop-color="#98d6fa"></stop><stop offset="1" stop-color="#47b0f1"></stop></linearGradient><linearGradient gradientUnits="objectBoundingBox" id="linearGradient-28" node-id="92" spreadMethod="pad" x1="0.89443105" x2="0" y1="0.3207445" y2="1.0444766"><stop offset="0" stop-color="#98d6fa"></stop><stop offset="1" stop-color="#47b0f1"></stop></linearGradient><linearGradient gradientUnits="objectBoundingBox" id="linearGradient-29" node-id="95" spreadMethod="pad" x1="0.62333596" x2="0.34365332" y1="0.25430152" y2="1.2462928"><stop offset="0" stop-color="#98d6fa"></stop><stop offset="1" stop-color="#47b0f1"></stop></linearGradient><linearGradient gradientUnits="objectBoundingBox" id="linearGradient-30" node-id="98" spreadMethod="pad" x1="-0.54080534" x2="0.5" y1="0.6194856" y2="0.4369813"><stop offset="0" stop-color="#98d6fa"></stop><stop offset="1" stop-color="#47b0f1"></stop></linearGradient><linearGradient gradientUnits="objectBoundingBox" id="linearGradient-31" node-id="101" spreadMethod="pad" x1="0.89443105" x2="0" y1="0.44632095" y2="0.6630465"><stop offset="0" stop-color="#98d6fa"></stop><stop offset="1" stop-color="#47b0f1"></stop></linearGradient></defs><g node-id="372"><path d="M 0.00 0.00 L 1024.00 0.00 L 1024.00 1024.00 L 0.00 1024.00 Z" fill="#ffffff" fill-opacity="0" fill-rule="evenodd" group-id="1" id="矩形" node-id="105" stroke="none" target-height="1024" target-width="1024" target-x="0" target-y="0"></path></g><g node-id="373"><g node-id="377"><path d="M 76.80 581.80 L 72.00 559.40 L 67.80 535.60 L 64.20 506.80 L 62.30 480.30 L 62.10 458.20 L 62.40 447.00 L 63.20 435.80 L 64.40 424.60 L 66.10 413.40 L 68.20 402.50 L 70.90 391.90 L 73.40 384.00 L 76.20 376.30 L 79.30 368.90 L 82.80 361.80 L 86.70 354.80 L 91.00 348.20 L 95.70 341.90 L 100.90 335.90 L 106.50 330.30 L 112.60 325.10 L 119.20 320.30 L 126.40 315.90 L 132.30 312.90 L 138.70 310.10 L 145.40 307.60 L 152.70 305.40 L 160.40 303.50 L 178.10 300.10 L 194.90 297.30 L 210.70 295.10 L 226.70 293.30 L 256.00 290.80 L 277.20 289.70 L 333.40 287.30 L 356.00 285.50 L 366.40 284.30 L 376.70 282.70 L 386.60 280.50 L 396.00 278.00 L 402.90 275.70 L 409.70 273.00 L 416.30 270.00 L 422.80 266.50 L 428.90 262.70 L 435.10 258.40 L 441.10 253.50 L 464.00 232.30 L 478.40 220.40 L 490.80 211.80 L 496.90 208.20 L 502.50 205.40 L 507.70 203.20 L 513.00 201.40 L 518.20 200.10 L 528.20 198.70 L 538.70 198.50 L 546.80 199.00 L 575.60 201.60 L 582.90 201.90 L 590.30 201.50 L 597.80 200.60 L 605.20 199.20 L 612.70 197.40 L 620.20 195.20 L 634.70 189.80 L 652.30 181.60 L 662.10 176.40 L 680.00 165.80 L 708.70 147.00 L 721.40 140.80 L 730.30 137.20 L 743.60 132.80 L 759.10 128.80 L 776.30 126.10 L 785.10 125.30 L 794.30 125.00 L 803.80 125.30 L 818.10 126.90 L 832.70 130.20 L 839.90 132.40 L 847.00 135.20 L 854.30 138.60 L 861.50 142.50 L 868.40 146.90 L 875.30 151.90 L 882.20 157.70 L 889.00 164.20 L 894.10 169.60 L 904.10 182.10 L 913.90 197.00 L 922.50 213.10 L 926.70 222.20 L 930.80 232.10 L 938.20 253.20 L 944.60 276.50 L 947.60 289.50 L 950.40 303.50 L 951.90 326.90 L 954.30 374.00 L 955.10 412.60 L 954.60 442.10 L 953.90 456.60 L 952.70 470.50 L 949.70 493.80 L 948.00 503.30 L 943.80 520.80 L 941.10 529.40 L 938.10 537.40 L 934.90 544.90 L 931.30 551.80 L 928.10 557.30 L 924.60 562.30 L 921.00 567.00 L 917.10 571.30 L 907.60 580.30 L 903.20 585.10 L 899.80 589.70 L 897.10 594.00 L 894.80 598.80 L 893.20 603.30 L 892.20 607.60 L 891.80 611.70 L 891.90 616.00 L 892.40 620.00 L 893.40 624.00 L 894.90 627.80 L 898.90 635.00 L 904.30 641.70 L 908.50 645.70 L 913.10 649.40 L 918.10 652.80 L 923.30 655.80 L 928.70 658.40 L 934.10 660.60 L 939.70 662.40 L 945.10 663.80 L 953.50 665.30 L 956.00 666.20 L 958.00 667.40 L 959.50 668.90 L 960.70 670.60 L 961.60 673.10 L 962.00 675.90 L 961.80 679.30 L 961.00 683.40 L 957.90 691.30 L 955.50 695.90 L 952.30 701.00 L 947.80 707.30 L 942.30 714.10 L 935.80 721.30 L 928.80 728.20 L 921.00 735.20 L 912.30 742.40 L 903.30 749.20 L 893.50 755.80 L 883.00 762.30 L 875.00 766.80 L 858.00 775.10 L 843.70 781.10 L 836.30 783.70 L 826.40 786.80 L 810.80 791.10 L 790.70 796.10 L 769.10 800.90 L 743.80 806.00 L 717.30 810.90 L 687.90 815.70 L 657.50 820.10 L 624.90 824.20 L 602.90 826.60 L 556.90 830.60 L 509.90 833.40 L 485.90 834.20 L 461.90 834.60 L 438.00 834.50 L 414.00 834.00 L 390.10 832.90 L 366.50 831.30 L 343.20 829.10 L 325.70 827.10 L 308.60 824.70 L 291.90 821.90 L 275.50 818.80 L 259.10 815.20 L 243.20 811.20 L 227.90 806.80 L 213.00 802.00 L 204.40 798.00 L 196.20 793.60 L 188.40 788.90 L 181.00 783.70 L 173.80 778.20 L 167.00 772.40 L 160.50 766.30 L 154.40 759.90 L 146.60 751.00 L 139.40 741.80 L 132.80 732.30 L 126.60 722.50 L 120.80 712.60 L 115.60 702.60 L 110.70 692.40 L 102.20 672.50 L 96.80 657.60 L 92.20 643.60 L 88.20 629.90 L 82.20 606.10 L 76.80 581.80 Z" fill="#47b0f1" fill-opacity="0.05" fill-rule="nonzero" group-id="2,6" id="路径-58" node-id="107" stroke="none" target-height="709.6" target-width="899.9" target-x="62.1" target-y="125"></path></g><g node-id="378"><path d="M 158.00 329.00 L 161.10 330.60 L 162.30 331.70 L 163.80 334.70 L 164.00 336.50 L 163.70 339.50 L 163.00 341.30 L 161.80 342.80 L 160.30 344.00 L 158.50 344.70 L 156.50 345.00 L 77.50 345.00 L 75.50 344.70 L 73.70 344.00 L 72.20 342.80 L 71.00 341.30 L 70.30 339.50 L 70.00 337.50 L 70.30 334.50 L 71.00 332.70 L 72.20 331.20 L 73.70 330.00 L 75.50 329.30 L 77.50 329.00 L 109.00 329.00 L 110.90 328.70 L 112.50 328.10 L 113.90 327.00 L 115.00 325.70 L 115.70 324.10 L 116.00 322.00 L 115.70 320.10 L 115.10 318.50 L 114.00 317.10 L 112.70 316.00 L 111.10 315.30 L 109.20 315.00 L 106.00 315.00 L 104.30 314.30 L 101.70 312.30 L 100.20 309.30 L 100.00 306.50 L 100.30 304.50 L 101.00 302.70 L 102.20 301.20 L 103.70 300.00 L 105.50 299.30 L 107.50 299.00 L 186.50 299.00 L 188.50 299.30 L 190.30 300.00 L 191.80 301.20 L 193.00 302.70 L 193.70 304.50 L 194.00 307.50 L 193.70 309.50 L 193.00 311.30 L 191.80 312.80 L 190.30 314.00 L 188.50 314.70 L 186.50 315.00 L 155.00 315.00 L 153.10 315.30 L 151.50 315.90 L 150.10 317.00 L 149.00 318.30 L 148.30 319.90 L 148.00 321.80 L 148.30 323.90 L 148.90 325.50 L 150.00 326.90 L 151.30 328.00 L 152.90 328.70 L 154.80 329.00 L 158.00 329.00 Z" fill="url(#linearGradient1)" fill-opacity="0.1" fill-rule="nonzero" group-id="2,7" id="形状结合" node-id="108" stroke="none" target-height="46" target-width="124" target-x="70" target-y="299"></path></g><g node-id="379"><path d="M 858.00 159.00 L 861.10 160.60 L 862.30 161.70 L 863.80 164.70 L 864.00 166.50 L 863.70 169.50 L 863.00 171.30 L 861.80 172.80 L 860.30 174.00 L 858.50 174.70 L 856.50 175.00 L 777.50 175.00 L 775.50 174.70 L 773.70 174.00 L 772.20 172.80 L 771.00 171.30 L 770.30 169.50 L 770.00 167.50 L 770.30 164.50 L 771.00 162.70 L 772.20 161.20 L 773.70 160.00 L 775.50 159.30 L 777.50 159.00 L 809.00 159.00 L 810.90 158.70 L 812.50 158.10 L 813.90 157.00 L 815.00 155.70 L 815.70 154.10 L 816.00 152.00 L 815.70 150.10 L 815.10 148.50 L 814.00 147.10 L 812.70 146.00 L 811.10 145.30 L 809.20 145.00 L 806.00 145.00 L 804.30 144.30 L 801.70 142.30 L 800.20 139.30 L 800.00 136.50 L 800.30 134.50 L 801.00 132.70 L 802.20 131.20 L 803.70 130.00 L 805.50 129.30 L 807.50 129.00 L 886.50 129.00 L 888.50 129.30 L 890.30 130.00 L 891.80 131.20 L 893.00 132.70 L 893.70 134.50 L 894.00 137.50 L 893.70 139.50 L 893.00 141.30 L 891.80 142.80 L 890.30 144.00 L 888.50 144.70 L 886.50 145.00 L 855.00 145.00 L 853.10 145.30 L 851.50 145.90 L 850.10 147.00 L 849.00 148.30 L 848.30 149.90 L 848.00 151.80 L 848.30 153.90 L 848.90 155.50 L 850.00 156.90 L 851.30 158.00 L 852.90 158.70 L 854.80 159.00 L 858.00 159.00 Z" fill="url(#linearGradient-1)" fill-opacity="0.1" fill-rule="nonzero" group-id="2,8" id="形状结合" node-id="109" stroke="none" target-height="46" target-width="124" target-x="770" target-y="129"></path></g><path d="M 514.50 712.00 L 547.40 712.20 L 579.20 712.90 L 610.10 714.00 L 640.90 715.50 L 670.40 717.30 L 698.60 719.50 L 726.80 722.20 L 753.30 725.20 L 778.10 728.40 L 802.90 732.10 L 825.60 736.00 L 846.30 740.00 L 859.80 740.30 L 872.70 741.10 L 885.10 742.20 L 897.50 743.80 L 909.10 745.70 L 920.00 747.90 L 930.80 750.50 L 940.60 753.40 L 949.40 756.50 L 958.20 760.10 L 965.70 763.80 L 972.20 767.60 L 976.90 770.80 L 980.80 774.10 L 984.10 777.30 L 986.80 780.60 L 989.10 784.20 L 990.70 787.80 L 991.70 791.40 L 992.00 795.00 L 991.70 798.50 L 990.80 802.00 L 989.30 805.50 L 987.10 809.00 L 984.60 812.20 L 981.50 815.30 L 977.70 818.50 L 973.30 821.70 L 967.20 825.40 L 960.00 829.10 L 951.80 832.60 L 943.30 835.70 L 934.00 838.50 L 923.80 841.20 L 913.50 843.50 L 902.40 845.50 L 890.60 847.10 L 863.20 854.20 L 847.50 857.70 L 848.00 864.00 L 847.70 868.40 L 846.90 872.70 L 845.60 877.00 L 843.80 881.30 L 841.30 885.60 L 835.40 893.40 L 827.30 901.40 L 822.40 905.30 L 816.20 909.80 L 809.20 914.20 L 801.40 918.50 L 792.60 922.80 L 784.00 926.60 L 764.50 933.90 L 742.80 940.40 L 719.50 946.00 L 706.80 948.40 L 690.00 951.20 L 672.40 953.60 L 653.80 955.50 L 635.20 956.90 L 615.90 957.70 L 596.00 958.00 L 565.00 957.30 L 550.20 956.50 L 521.10 953.80 L 507.10 952.00 L 480.70 947.60 L 467.60 944.90 L 443.60 938.90 L 421.50 931.80 L 411.30 928.00 L 401.90 924.00 L 393.30 919.90 L 384.60 915.20 L 377.00 910.50 L 370.20 905.80 L 364.40 901.10 L 359.80 896.80 L 355.80 892.60 L 352.50 888.30 L 349.80 884.10 L 347.60 879.90 L 319.60 877.50 L 293.20 874.90 L 268.30 872.00 L 243.40 868.70 L 220.40 865.10 L 199.20 861.40 L 178.00 857.20 L 159.00 852.80 L 142.00 848.40 L 129.10 844.60 L 117.70 840.90 L 107.70 837.10 L 98.80 833.50 L 91.40 830.00 L 85.10 826.50 L 79.80 823.20 L 71.50 816.90 L 68.40 813.70 L 66.00 810.60 L 64.20 807.70 L 63.00 804.80 L 62.30 801.90 L 62.00 799.00 L 62.20 796.20 L 63.00 793.30 L 64.10 790.50 L 65.90 787.60 L 68.20 784.60 L 71.20 781.50 L 74.80 778.40 L 84.30 771.90 L 90.40 768.60 L 106.10 761.50 L 115.80 757.80 L 126.80 754.10 L 139.20 750.40 L 155.60 746.00 L 174.00 741.70 L 194.50 737.50 L 215.00 733.80 L 237.30 730.20 L 261.40 726.90 L 285.50 723.90 L 311.10 721.30 L 338.30 718.80 L 393.70 715.10 L 423.30 713.80 L 483.20 712.20 L 514.50 712.00 Z" fill="url(#linearGradient-2)" fill-rule="nonzero" group-id="2" id="形状结合" node-id="110" stroke="none" target-height="246" target-width="930" target-x="62" target-y="712"></path><g node-id="380"><path d="M 686.60 226.60 L 685.00 222.90 L 683.00 219.70 L 680.60 216.80 L 677.80 214.20 L 674.80 212.00 L 671.40 210.10 L 664.30 207.50 L 660.50 206.70 L 656.70 206.30 L 649.20 206.60 L 655.10 203.70 L 658.40 202.60 L 661.90 201.80 L 668.80 201.10 L 672.30 201.30 L 675.60 201.80 L 678.70 202.80 L 681.70 204.20 L 684.30 206.10 L 686.60 208.50 L 688.90 206.20 L 691.60 204.30 L 694.50 202.90 L 697.60 202.00 L 700.90 201.40 L 704.40 201.20 L 711.40 201.90 L 714.80 202.70 L 721.20 205.10 L 724.00 206.70 L 716.60 206.40 L 709.00 207.60 L 701.80 210.30 L 698.50 212.20 L 695.40 214.40 L 692.60 216.90 L 690.20 219.80 L 688.20 223.00 L 686.60 226.60 Z" fill="url(#linearGradient-3)" fill-rule="nonzero" group-id="2,9" id="路径" node-id="112" stroke="none" target-height="25.5" target-width="74.79999" target-x="649.2" target-y="201.1"></path><path d="M 770.00 214.10 L 768.90 211.50 L 765.90 207.30 L 763.90 205.50 L 761.00 203.50 L 757.90 201.90 L 754.50 200.80 L 751.00 200.20 L 747.50 200.00 L 744.10 200.20 L 747.10 198.70 L 750.50 197.40 L 754.10 196.70 L 757.70 196.40 L 760.10 196.50 L 764.60 197.60 L 768.40 199.90 L 770.00 201.60 L 771.60 199.90 L 775.50 197.70 L 780.00 196.60 L 782.40 196.50 L 786.00 196.70 L 789.60 197.50 L 793.00 198.70 L 796.00 200.30 L 792.50 200.00 L 789.10 200.30 L 785.50 200.90 L 782.10 202.10 L 779.00 203.60 L 776.10 205.60 L 773.60 208.00 L 771.60 210.80 L 770.00 214.10 Z" fill="url(#linearGradient2)" fill-rule="nonzero" group-id="2,9" id="路径" node-id="113" stroke="none" target-height="17.700012" target-width="51.900024" target-x="744.1" target-y="196.4"></path><path d="M 735.20 179.60 L 734.10 177.00 L 731.10 172.80 L 729.10 171.00 L 726.30 169.00 L 723.10 167.50 L 719.70 166.30 L 716.20 165.70 L 712.80 165.50 L 709.30 165.80 L 712.30 164.20 L 715.70 162.90 L 719.30 162.20 L 722.90 161.90 L 725.30 162.00 L 729.80 163.10 L 733.60 165.40 L 735.20 167.10 L 736.90 165.50 L 740.70 163.20 L 745.20 162.10 L 747.60 162.00 L 751.20 162.30 L 754.80 163.00 L 758.20 164.20 L 761.20 165.80 L 757.70 165.60 L 754.30 165.80 L 750.70 166.50 L 747.40 167.60 L 744.20 169.10 L 741.30 171.10 L 738.80 173.50 L 736.80 176.40 L 735.20 179.60 Z" fill="url(#linearGradient-4)" fill-rule="nonzero" group-id="2,9" id="路径" node-id="114" stroke="none" target-height="17.700012" target-width="51.900024" target-x="709.3" target-y="161.9"></path><path d="M 840.70 220.10 L 839.60 217.70 L 838.20 215.80 L 834.50 212.70 L 830.00 210.90 L 827.50 210.40 L 822.70 210.40 L 825.60 209.00 L 828.80 208.10 L 831.10 207.80 L 835.40 208.10 L 837.40 208.80 L 839.20 209.90 L 840.70 211.40 L 842.30 209.90 L 844.00 208.90 L 848.20 207.90 L 852.60 208.20 L 855.90 209.10 L 858.70 210.50 L 853.90 210.50 L 851.50 210.90 L 847.00 212.80 L 843.20 215.80 L 841.80 217.80 L 840.70 220.10 Z" fill="url(#linearGradient-5)" fill-rule="nonzero" group-id="2,9" id="路径" node-id="115" stroke="none" target-height="12.300003" target-width="36" target-x="822.7" target-y="207.8"></path></g><g node-id="381"><g node-id="385"><path d="M 54.20 676.40 L 46.30 673.20 L 39.60 671.00 L 34.00 669.60 L 29.20 669.10 L 25.20 669.10 L 21.90 669.60 L 19.00 670.60 L 16.60 672.00 L 14.60 673.80 L 12.90 676.10 L 11.50 678.90 L 10.50 682.40 L 9.80 686.70 L 9.70 691.80 L 10.10 698.00 L 11.40 702.80 L 12.80 706.60 L 14.50 709.60 L 16.30 712.00 L 18.30 713.70 L 20.40 715.00 L 26.40 722.60 L 31.10 729.40 L 34.70 735.30 L 37.30 740.50 L 39.10 745.10 L 40.20 749.10 L 41.40 756.80 L 42.60 761.10 L 45.40 766.30 L 47.20 768.70 L 49.40 770.80 L 51.90 772.70 L 54.90 774.20 L 58.00 775.30 L 61.60 776.00 L 65.80 776.30 L 70.00 776.00 L 74.80 775.10 L 84.90 772.40 L 89.00 771.90 L 92.70 772.00 L 96.20 772.70 L 99.40 774.00 L 102.50 775.80 L 105.50 778.30 L 108.30 781.50 L 111.00 785.60 L 113.60 790.60 L 116.00 796.80 L 118.20 804.30 L 122.60 809.50 L 127.30 814.30 L 132.50 818.70 L 138.10 822.70 L 144.20 826.20 L 150.80 829.30 L 157.90 832.10 L 165.60 834.30 L 174.00 836.10 L 183.00 837.50 L 192.80 838.30 L 203.40 838.50 L 214.90 838.20 L 227.40 837.10 L 236.50 835.90 L 243.80 834.30 L 249.60 832.60 L 254.10 830.60 L 257.60 828.50 L 260.10 826.40 L 262.00 824.10 L 263.20 821.70 L 263.90 819.10 L 264.00 816.20 L 263.50 813.10 L 262.30 809.50 L 260.30 805.50 L 257.20 800.80 L 252.80 795.40 L 246.90 789.30 L 239.30 782.30 L 229.50 774.30 L 217.40 765.20 L 204.80 760.40 L 194.80 757.00 L 178.50 752.80 L 176.50 751.70 L 174.60 750.20 L 173.00 748.10 L 171.50 745.50 L 170.30 742.10 L 169.30 737.80 L 168.70 732.50 L 168.30 722.70 L 167.60 719.80 L 166.30 716.90 L 164.60 714.30 L 162.30 711.80 L 159.40 709.30 L 155.70 707.00 L 151.10 704.90 L 140.10 700.80 L 135.70 698.60 L 132.30 696.30 L 129.80 693.90 L 127.90 691.40 L 126.70 688.80 L 126.00 686.00 L 125.90 683.00 L 126.40 679.70 L 123.30 675.60 L 120.20 672.40 L 117.20 670.00 L 114.20 668.30 L 111.20 667.20 L 108.10 666.70 L 104.90 666.70 L 101.60 667.30 L 98.00 668.60 L 94.20 670.50 L 85.40 676.60 L 81.00 679.00 L 77.00 680.70 L 73.20 681.70 L 69.70 682.20 L 66.40 682.10 L 63.20 681.50 L 60.20 680.30 L 57.10 678.70 L 54.20 676.40 Z" fill="url(#linearGradient-6)" fill-rule="nonzero" group-id="2,10,14" id="路径-61" node-id="117" stroke="none" target-height="171.79999" target-width="254.3" target-x="9.7" target-y="666.7"></path></g><g node-id="386"><path d="M 52.60 691.50 L 100.90 723.70 L 98.80 713.80 L 96.60 705.40 L 94.40 698.30 L 91.10 689.70 L 95.50 699.40 L 98.90 708.20 L 101.70 717.30 L 102.60 721.60 L 102.90 725.00 L 143.10 751.90 L 143.60 731.40 L 143.20 724.50 L 142.50 719.30 L 141.70 715.50 L 143.30 720.10 L 144.00 723.60 L 145.70 737.50 L 146.10 746.60 L 145.60 753.60 L 182.70 778.30 L 182.30 777.90 L 183.10 769.80 L 183.20 762.80 L 182.50 756.40 L 183.70 760.00 L 184.50 766.40 L 184.90 773.70 L 184.80 779.80 L 215.40 800.10 L 211.50 804.00 L 180.00 781.70 L 174.00 784.40 L 165.90 786.40 L 161.40 786.90 L 154.10 786.90 L 160.70 786.10 L 166.20 784.90 L 170.60 783.40 L 174.20 781.70 L 177.00 779.80 L 179.50 781.30 L 90.70 718.50 L 91.30 719.10 L 84.50 719.90 L 78.10 720.10 L 72.10 719.90 L 66.40 719.30 L 61.00 718.20 L 55.80 716.80 L 57.00 716.50 L 65.80 718.00 L 70.40 718.50 L 76.10 718.80 L 84.30 718.10 L 88.90 717.20 L 52.60 691.50 Z M 94.00 768.40 L 98.00 768.20 L 102.50 767.40 L 107.50 765.90 L 113.20 763.60 L 119.70 760.20 L 126.90 755.80 L 135.10 750.10 L 137.40 752.30 L 131.90 756.30 L 126.50 759.70 L 121.30 762.40 L 115.90 764.80 L 110.90 766.50 L 106.20 767.70 L 101.50 768.40 L 97.40 768.60 L 94.00 768.40 Z" fill="url(#linearGradient3)" fill-rule="nonzero" group-id="2,10,15" id="形状结合" node-id="118" stroke="none" target-height="114.29999" target-width="162.79999" target-x="52.6" target-y="689.7"></path></g><path d="M 89.60 607.30 L 82.10 602.50 L 75.80 599.00 L 70.40 596.60 L 65.80 595.10 L 61.90 594.30 L 58.70 594.20 L 55.90 594.50 L 53.50 595.30 L 51.40 596.50 L 49.50 598.20 L 48.00 600.50 L 46.60 603.30 L 45.60 606.90 L 44.90 611.40 L 44.60 616.90 L 44.80 623.80 L 50.10 645.00 L 52.00 654.30 L 53.20 662.40 L 53.50 667.70 L 53.50 672.80 L 52.70 680.50 L 52.90 687.50 L 54.40 695.10 L 57.40 703.20 L 59.50 707.20 L 62.20 711.20 L 65.20 714.90 L 68.90 718.60 L 73.20 722.10 L 80.40 726.60 L 84.80 728.60 L 95.70 732.90 L 100.50 735.30 L 104.30 737.70 L 107.10 740.10 L 109.20 742.60 L 110.70 745.00 L 111.60 747.40 L 112.00 750.00 L 111.80 752.70 L 111.10 755.60 L 109.80 758.80 L 107.70 762.30 L 107.20 765.70 L 107.20 769.00 L 107.80 772.10 L 109.00 775.20 L 110.70 778.20 L 113.00 781.20 L 116.20 784.20 L 120.20 787.20 L 125.20 790.30 L 131.30 793.30 L 138.80 796.30 L 147.80 799.30 L 158.50 802.20 L 171.10 805.00 L 185.90 807.70 L 198.10 809.40 L 208.20 810.50 L 216.30 810.90 L 227.90 810.60 L 235.60 809.40 L 239.20 808.20 L 241.90 806.80 L 244.00 805.30 L 245.60 803.70 L 246.80 801.80 L 247.60 799.70 L 248.10 797.40 L 248.10 794.80 L 247.60 791.40 L 246.60 787.50 L 245.00 783.30 L 241.90 776.90 L 238.00 769.90 L 229.00 755.50 L 223.50 749.60 L 219.50 744.60 L 217.20 741.20 L 214.00 735.30 L 212.50 730.80 L 211.60 726.60 L 211.10 722.30 L 211.20 714.70 L 212.80 703.80 L 212.90 700.00 L 212.60 696.20 L 211.10 691.40 L 209.70 689.00 L 207.90 686.80 L 205.60 684.70 L 202.40 682.60 L 199.00 680.80 L 194.70 679.20 L 185.70 676.50 L 182.50 675.00 L 179.60 673.00 L 177.00 670.50 L 174.60 667.50 L 172.40 664.00 L 170.50 659.70 L 168.90 654.60 L 167.60 648.70 L 166.60 641.70 L 166.20 633.60 L 165.40 630.60 L 164.10 628.00 L 162.50 625.90 L 160.40 624.10 L 157.80 622.60 L 154.50 621.50 L 150.60 620.80 L 145.70 620.50 L 139.80 620.90 L 132.70 621.90 L 124.20 623.80 L 120.60 624.20 L 117.10 624.20 L 113.50 623.60 L 109.80 622.50 L 106.10 620.90 L 102.20 618.60 L 98.20 615.60 L 94.00 611.90 L 89.60 607.30 Z" fill="url(#linearGradient-8)" fill-rule="nonzero" group-id="2,10" id="路径-65" node-id="119" stroke="none" target-height="216.70001" target-width="203.5" target-x="44.6" target-y="594.2"></path><g node-id="387"><path d="M 74.90 624.70 L 110.40 669.80 L 112.10 664.90 L 113.30 660.20 L 113.90 655.50 L 114.10 650.80 L 113.70 646.10 L 112.70 641.00 L 115.50 650.00 L 116.10 653.60 L 116.20 657.40 L 115.70 661.90 L 115.00 664.80 L 112.10 672.00 L 142.10 710.20 L 144.90 705.70 L 147.10 701.00 L 148.90 695.80 L 150.20 690.00 L 151.00 683.60 L 151.30 676.50 L 152.00 682.20 L 151.90 686.40 L 151.50 691.60 L 150.50 696.90 L 149.10 702.50 L 147.70 706.10 L 144.10 712.70 L 170.80 746.60 L 173.00 742.50 L 175.50 736.20 L 176.30 732.50 L 176.60 728.40 L 177.10 734.60 L 176.80 738.00 L 175.30 744.10 L 172.70 749.10 L 212.00 799.00 L 205.80 799.00 L 167.80 748.40 L 159.10 751.60 L 150.20 753.20 L 145.90 753.40 L 142.00 753.10 L 138.90 752.40 L 134.00 750.70 L 138.20 751.50 L 142.40 751.80 L 146.80 751.60 L 151.20 750.90 L 155.90 749.80 L 160.70 748.00 L 165.70 745.70 L 136.90 707.20 L 137.40 708.10 L 130.10 710.40 L 123.00 712.10 L 115.90 713.20 L 109.40 713.80 L 103.10 713.90 L 97.70 713.40 L 94.30 712.80 L 89.00 710.90 L 92.30 711.90 L 96.10 712.50 L 100.60 712.70 L 105.80 712.50 L 111.80 711.80 L 118.70 710.40 L 126.80 708.30 L 136.00 705.30 L 135.50 705.50 L 103.40 662.60 L 103.60 663.10 L 98.20 663.20 L 93.20 662.70 L 88.60 661.80 L 84.30 660.30 L 80.30 658.40 L 76.60 656.00 L 73.00 653.10 L 69.70 649.70 L 70.20 649.60 L 71.50 650.40 L 78.00 654.90 L 81.50 656.70 L 85.40 658.30 L 93.70 660.30 L 101.90 660.60 L 74.90 624.70 Z" fill="url(#linearGradient-9)" fill-rule="nonzero" group-id="2,10,16" id="形状结合" node-id="120" stroke="none" target-height="174.29999" target-width="142.3" target-x="69.7" target-y="624.7"></path></g><path d="M 199.20 608.80 L 202.80 604.30 L 206.00 601.10 L 208.90 599.00 L 211.60 597.70 L 214.20 597.10 L 216.60 597.10 L 219.00 597.70 L 221.50 599.00 L 224.00 601.10 L 226.70 604.10 L 229.60 608.30 L 232.60 614.00 L 233.70 619.30 L 235.70 635.20 L 237.40 640.00 L 238.80 642.10 L 240.60 644.10 L 243.10 646.20 L 245.90 647.90 L 249.60 649.70 L 258.50 653.10 L 261.70 654.90 L 264.20 656.80 L 266.10 658.90 L 267.50 661.10 L 268.40 663.60 L 268.80 666.20 L 268.80 669.20 L 268.10 672.50 L 266.80 676.30 L 264.80 680.70 L 261.80 685.70 L 260.40 689.50 L 259.80 692.70 L 259.80 695.50 L 260.40 697.90 L 261.50 700.10 L 263.10 702.00 L 265.30 703.70 L 268.40 705.30 L 275.10 707.50 L 277.10 708.80 L 278.60 710.30 L 279.60 712.10 L 280.20 714.30 L 280.30 716.90 L 279.80 720.20 L 278.50 724.30 L 276.30 729.30 L 272.90 735.40 L 268.10 742.80 L 265.90 748.50 L 264.70 753.10 L 264.30 756.80 L 264.50 759.90 L 265.30 762.30 L 266.40 764.30 L 270.50 768.00 L 274.90 773.10 L 278.10 778.90 L 279.30 782.20 L 280.30 785.90 L 280.90 790.20 L 281.00 794.50 L 280.60 799.30 L 279.60 804.90 L 278.10 810.30 L 275.70 816.40 L 272.40 823.40 L 270.30 826.90 L 265.70 832.40 L 263.30 834.50 L 259.80 836.80 L 256.10 838.40 L 252.40 839.40 L 248.50 839.90 L 244.50 839.90 L 240.50 839.40 L 236.60 838.50 L 228.90 835.70 L 223.40 832.90 L 218.40 829.60 L 213.90 825.90 L 210.30 822.30 L 208.20 819.60 L 205.60 815.00 L 204.60 811.70 L 203.90 808.30 L 203.70 804.80 L 204.00 799.40 L 207.20 778.30 L 207.40 773.70 L 207.20 770.80 L 206.60 768.30 L 205.60 766.00 L 202.50 762.60 L 200.20 760.90 L 187.20 753.40 L 179.80 748.20 L 174.90 742.90 L 173.00 739.90 L 171.60 736.50 L 170.60 732.60 L 170.30 729.70 L 171.00 722.70 L 172.00 718.50 L 179.60 708.10 L 183.00 703.00 L 184.70 698.50 L 185.00 693.20 L 183.80 686.80 L 182.30 682.90 L 177.40 673.00 L 170.90 661.70 L 170.50 660.10 L 170.50 658.40 L 171.20 656.40 L 174.40 651.00 L 180.20 642.10 L 183.50 638.30 L 187.00 633.30 L 190.80 626.90 L 194.90 618.80 L 199.20 608.80 Z" fill="url(#linearGradient-10)" fill-rule="nonzero" group-id="2,10" id="路径-96" node-id="121" stroke="none" target-height="242.80005" target-width="110.7" target-x="170.3" target-y="597.1"></path><path d="M 216.10 638.50 L 227.50 695.40 L 233.00 686.90 L 237.40 679.40 L 240.80 672.80 L 244.60 664.50 L 240.80 674.40 L 237.00 683.00 L 232.50 691.40 L 230.10 695.10 L 227.90 697.80 L 237.40 745.20 L 252.20 731.00 L 256.80 725.90 L 260.00 721.80 L 262.10 718.50 L 260.00 722.80 L 258.00 725.80 L 249.40 736.80 L 243.20 743.60 L 238.00 748.20 L 246.70 791.80 L 246.70 791.30 L 252.90 786.10 L 258.00 781.30 L 262.10 776.30 L 260.30 779.60 L 256.40 784.70 L 251.50 790.20 L 247.20 794.40 L 254.40 830.40 L 248.90 830.40 L 242.40 792.30 L 236.20 790.00 L 229.10 785.70 L 225.60 782.90 L 220.40 777.80 L 225.70 781.80 L 230.30 784.80 L 234.50 786.90 L 238.30 788.20 L 241.70 788.90 L 242.30 791.80 L 224.00 684.50 L 223.90 685.40 L 218.60 681.10 L 213.90 676.80 L 209.80 672.40 L 206.20 667.90 L 203.10 663.30 L 200.50 658.60 L 201.50 659.20 L 206.70 666.60 L 209.60 670.20 L 213.50 674.40 L 219.70 679.70 L 223.60 682.30 L 216.10 638.50 Z M 191.00 722.10 L 193.90 724.80 L 197.70 727.40 L 202.30 729.90 L 208.00 732.30 L 214.90 734.50 L 223.20 736.50 L 233.00 738.30 L 233.00 741.40 L 226.30 740.40 L 220.10 738.90 L 214.50 737.20 L 209.00 735.00 L 204.20 732.70 L 200.10 730.30 L 196.30 727.50 L 193.30 724.70 L 191.00 722.10 Z" fill="url(#linearGradient-7)" fill-rule="nonzero" group-id="2,10" id="形状结合" node-id="122" stroke="none" target-height="191.90002" target-width="71.100006" target-x="191" target-y="638.5"></path></g><g node-id="382"><path d="M 938.40 787.50 L 938.90 781.40 L 938.90 776.10 L 938.40 771.50 L 937.50 767.50 L 936.20 764.20 L 934.50 761.20 L 932.50 758.70 L 930.20 756.60 L 927.40 754.80 L 924.10 753.40 L 920.40 752.30 L 916.00 751.60 L 921.00 751.40 L 925.50 751.60 L 929.70 752.30 L 933.60 753.30 L 937.10 754.70 L 940.60 756.50 L 943.70 758.70 L 946.50 761.20 L 949.00 764.00 L 951.20 767.30 L 952.90 770.60 L 954.30 774.30 L 955.40 778.30 L 956.10 782.70 L 956.40 787.50 L 938.40 787.50 Z" fill="url(#linearGradient-11)" fill-rule="nonzero" group-id="2,11" id="路径-38" node-id="124" stroke="none" target-height="36.099976" target-width="40.400024" target-x="916" target-y="751.4"></path><path d="M 950.10 787.60 L 951.20 781.20 L 951.70 775.20 L 951.60 769.80 L 951.00 764.70 L 949.80 760.10 L 948.20 755.70 L 946.20 751.70 L 943.60 747.90 L 940.60 744.40 L 936.90 741.10 L 932.70 738.00 L 937.90 739.70 L 947.20 743.90 L 951.40 746.40 L 955.40 749.40 L 959.00 752.80 L 963.80 758.90 L 965.90 762.60 L 969.50 771.00 L 972.30 781.40 L 973.40 787.60 L 959.30 788.00 L 950.10 787.60 Z" fill="url(#linearGradient-12)" fill-rule="nonzero" group-id="2,11" id="路径-39" node-id="125" stroke="none" target-height="50" target-width="40.700012" target-x="932.7" target-y="738"></path><path d="M 977.10 788.00 L 976.70 781.70 L 977.00 776.30 L 977.80 771.60 L 979.00 767.50 L 980.60 763.90 L 982.70 760.80 L 985.10 758.20 L 988.00 755.90 L 991.40 754.00 L 995.40 752.50 L 1000.00 751.40 L 990.20 751.40 L 986.90 751.70 L 980.20 753.10 L 977.00 754.40 L 973.80 756.20 L 970.50 758.50 L 967.50 761.30 L 964.50 764.90 L 961.30 769.50 L 958.60 774.40 L 955.90 780.50 L 953.10 788.00 L 968.30 787.70 L 977.10 788.00 Z" fill="url(#linearGradient-13)" fill-rule="nonzero" group-id="2,11" id="路径-40" node-id="126" stroke="none" target-height="36.599976" target-width="46.900024" target-x="953.1" target-y="751.4"></path><path d="M 927.40 802.00 L 942.70 801.50 L 948.50 800.20 L 951.00 799.10 L 953.10 797.60 L 954.70 795.70 L 955.70 794.10 L 956.80 789.60 L 957.00 786.60 L 956.70 782.70 L 955.90 779.00 L 954.60 775.50 L 952.80 772.20 L 950.70 769.10 L 948.10 766.40 L 945.10 764.00 L 941.90 761.90 L 938.40 760.20 L 934.60 759.00 L 930.70 758.30 L 926.50 758.00 L 922.30 758.30 L 918.40 759.00 L 914.60 760.20 L 911.10 761.90 L 907.90 764.00 L 904.90 766.40 L 902.30 769.10 L 900.20 772.20 L 898.40 775.50 L 897.10 779.00 L 896.30 782.70 L 896.00 786.60 L 896.20 789.60 L 897.50 794.00 L 898.50 795.70 L 900.40 797.60 L 902.60 799.10 L 905.40 800.20 L 911.60 801.50 L 927.40 802.00 Z" fill="url(#linearGradient-14)" fill-rule="nonzero" group-id="2,11" id="椭圆形" node-id="127" stroke="none" target-height="44" target-width="61" target-x="896" target-y="758"></path><path d="M 960.60 802.00 L 971.10 801.60 L 975.30 800.20 L 977.60 798.10 L 978.30 796.70 L 979.00 792.60 L 978.70 789.40 L 977.80 786.40 L 976.40 783.70 L 974.50 781.20 L 972.30 779.20 L 969.60 777.40 L 966.70 776.10 L 963.50 775.30 L 960.00 775.00 L 956.50 775.30 L 953.30 776.10 L 950.40 777.40 L 947.70 779.20 L 945.50 781.20 L 943.60 783.70 L 942.20 786.40 L 941.30 789.40 L 941.00 792.60 L 941.20 794.90 L 941.80 796.70 L 942.60 798.10 L 945.10 800.20 L 949.70 801.60 L 960.60 802.00 Z" fill="url(#linearGradient-15)" fill-rule="nonzero" group-id="2,11" id="椭圆形备份-6" node-id="128" stroke="none" target-height="27" target-width="38" target-x="941" target-y="775"></path></g></g><g node-id="374"><path d="M 354.10 771.40 L 364.90 773.20 L 371.90 774.60 L 377.80 776.20 L 380.70 777.50 L 382.10 778.50 L 382.50 779.30 L 382.30 780.10 L 380.60 781.50 L 375.60 783.50 L 357.30 788.40 L 349.70 791.30 L 346.70 792.90 L 345.00 794.30 L 344.20 795.50 L 343.80 796.90 L 344.10 798.20 L 345.00 799.60 L 347.00 801.40 L 350.10 803.40 L 357.60 807.10 L 360.60 808.30 L 374.20 811.60 L 387.40 813.90 L 405.80 816.60 L 425.90 818.90 L 450.40 821.20 L 476.30 823.10 L 505.90 824.60 L 526.00 825.30 L 570.20 825.80 L 593.00 825.50 L 641.40 823.80 L 666.10 822.30 L 691.40 820.40 L 717.50 817.80 L 738.60 815.40 L 756.80 813.00 L 788.10 807.70 L 801.10 805.00 L 811.90 802.30 L 822.60 799.30 L 831.10 796.40 L 837.70 793.60 L 842.70 791.20 L 849.50 786.80 L 851.70 784.80 L 853.80 782.40 L 855.10 780.20 L 855.80 778.10 L 856.00 776.10 L 855.80 774.10 L 855.10 772.10 L 854.10 770.10 L 852.50 768.00 L 850.00 765.60 L 846.90 763.20 L 843.00 760.80 L 834.50 756.70 L 829.60 754.90 L 821.90 752.50 L 809.40 749.40 L 795.40 746.30 L 777.10 742.90 L 757.40 739.70 L 733.90 736.40 L 709.30 733.40 L 681.50 730.60 L 652.70 728.20 L 621.20 726.20 L 599.90 725.20 L 554.50 724.00 L 507.40 724.30 L 482.80 725.00 L 445.40 726.70 L 415.70 728.60 L 381.00 731.80 L 355.30 735.20 L 338.00 738.60 L 330.70 740.70 L 326.10 742.40 L 323.40 743.70 L 318.70 747.10 L 315.30 750.00 L 313.60 752.20 L 312.60 754.10 L 312.30 755.90 L 312.50 757.20 L 313.20 758.50 L 314.40 759.90 L 316.40 761.50 L 319.20 763.00 L 323.50 764.70 L 329.60 766.60 L 343.90 769.70 L 354.10 771.40 Z" fill="url(#linearGradient-16)" fill-opacity="0.4" fill-rule="nonzero" group-id="3" id="路径" node-id="129" stroke="none" target-height="101.79999" target-width="543.7" target-x="312.3" target-y="724"></path></g><g node-id="375"><g node-id="383"><path d="M 396.00 541.20 L 604.40 515.00 L 604.40 618.90 L 399.40 642.90 Z" fill="url(#linearGradient-17)" fill-rule="nonzero" group-id="4,12" id="路径" node-id="132" stroke="none" target-height="127.900024" target-width="208.40002" target-x="396" target-y="515"></path><path d="M 769.40 548.90 L 604.40 515.00 L 604.40 631.80 L 769.40 665.50 Z" fill="url(#linearGradient-18)" fill-rule="nonzero" group-id="4,12" id="路径" node-id="133" stroke="none" target-height="150.5" target-width="165" target-x="604.4" target-y="515"></path><path d="M 575.50 593.70 L 398.10 548.00 L 398.10 764.20 L 575.50 809.90 Z" fill="url(#linearGradient-19)" fill-rule="nonzero" group-id="4,12" id="路径" node-id="134" stroke="none" target-height="261.90002" target-width="177.4" target-x="398.1" target-y="548"></path><path d="M 767.30 554.20 L 573.40 592.80 L 574.60 809.90 L 767.30 766.90 Z" fill="url(#linearGradient-20)" fill-rule="nonzero" group-id="4,12" id="路径" node-id="135" stroke="none" target-height="255.70001" target-width="193.89996" target-x="573.4" target-y="554.2"></path><path d="M 573.40 593.70 L 769.10 552.10 L 810.70 628.80 L 611.70 675.90 Z" fill="url(#linearGradient-21)" fill-rule="nonzero" group-id="4,12" id="路径" node-id="136" stroke="none" target-height="123.80005" target-width="237.29999" target-x="573.4" target-y="552.1"></path><path d="M 573.40 592.80 L 395.90 543.80 L 350.70 620.00 L 520.70 675.90 Z" fill="url(#linearGradient-22)" fill-rule="nonzero" group-id="4,12" id="路径" node-id="137" stroke="none" target-height="132.10004" target-width="222.70001" target-x="350.7" target-y="543.8"></path></g><g node-id="384"><g node-id="388"><path d="M 806.40 626.00 L 809.50 620.40 L 811.30 619.00 L 812.60 618.60 L 814.50 618.70 L 818.40 619.70 L 820.10 620.70 L 821.20 621.90 L 829.20 635.90 L 832.50 643.70 L 833.20 646.20 L 833.40 649.30 L 833.10 650.30 L 832.30 651.30 L 831.30 651.90 L 829.90 652.10 L 826.90 651.30 L 825.00 650.30 L 822.30 648.20 L 819.50 645.10 L 808.70 630.10 L 806.40 626.00 Z" fill="#333333" fill-rule="nonzero" group-id="4,13,17" id="路径" node-id="139" stroke="none" target-height="33.5" target-width="27" target-x="806.4" target-y="618.6"></path></g><g node-id="389"><path d="M 813.40 592.00 L 816.50 586.40 L 818.30 585.00 L 819.60 584.60 L 821.50 584.70 L 825.40 585.70 L 827.10 586.70 L 828.20 587.90 L 836.20 601.90 L 839.50 609.70 L 840.20 612.20 L 840.40 615.30 L 840.10 616.30 L 839.30 617.30 L 838.30 617.90 L 836.90 618.10 L 833.90 617.30 L 832.00 616.30 L 829.30 614.20 L 826.50 611.10 L 815.70 596.10 L 813.40 592.00 Z" fill="#333333" fill-rule="nonzero" group-id="4,13,18" id="路径" node-id="140" stroke="none" target-height="33.5" target-width="27" target-x="813.4" target-y="584.6"></path></g><path d="M 723.90 554.80 L 729.10 555.50 L 733.90 556.80 L 738.20 558.50 L 742.30 560.60 L 746.00 563.20 L 749.40 566.20 L 752.60 569.80 L 755.50 573.90 L 758.10 578.60 L 760.50 583.90 L 762.50 590.00 L 764.20 596.90 L 765.20 598.60 L 767.30 603.90 L 768.30 605.60 L 769.60 607.00 L 772.10 608.40 L 773.90 608.80 L 776.90 609.00 L 781.40 608.60 L 786.60 606.40 L 792.50 603.10 L 799.30 598.70 L 807.20 592.80 L 816.10 585.40 L 818.80 586.60 L 820.90 588.00 L 822.40 589.70 L 823.60 591.70 L 824.30 594.00 L 824.60 596.60 L 824.40 599.70 L 820.70 603.40 L 813.00 609.90 L 799.40 620.70 L 777.40 637.20 L 772.80 639.40 L 768.70 640.90 L 764.90 641.80 L 761.50 642.00 L 758.40 641.70 L 755.40 641.00 L 752.70 639.70 L 750.10 637.90 L 747.60 635.60 L 745.20 632.50 L 742.90 628.70 L 739.50 620.80 L 737.60 617.10 L 734.70 612.60 L 730.60 607.40 L 725.10 601.30 L 717.90 594.10 L 708.70 585.80 L 697.30 576.20 L 723.90 554.80 Z" fill="url(#linearGradient-23)" fill-rule="nonzero" group-id="4,13" id="路径-114" node-id="141" stroke="none" target-height="87.20001" target-width="127.29999" target-x="697.3" target-y="554.8"></path><path d="M 709.40 552.80 L 713.90 553.40 L 718.10 554.70 L 722.20 556.40 L 726.10 558.80 L 729.90 561.80 L 733.60 565.50 L 737.20 569.90 L 740.70 575.20 L 744.10 581.50 L 747.40 588.80 L 750.50 597.40 L 756.10 617.30 L 757.00 619.70 L 758.20 621.70 L 759.70 623.20 L 762.50 624.50 L 764.60 624.90 L 783.70 622.30 L 810.70 619.40 L 813.10 620.80 L 814.90 622.20 L 816.20 623.80 L 817.00 625.60 L 817.40 627.50 L 817.30 629.80 L 816.70 632.40 L 815.40 635.40 L 809.20 638.70 L 802.20 641.40 L 791.30 645.10 L 775.10 650.00 L 769.00 651.40 L 763.40 652.00 L 758.40 652.10 L 753.90 651.60 L 749.80 650.60 L 746.10 649.10 L 742.70 647.20 L 739.60 644.80 L 736.70 641.80 L 734.10 638.30 L 728.90 632.80 L 719.60 624.10 L 704.80 611.00 L 682.40 592.20 L 709.40 552.80 Z" fill="url(#linearGradient-24)" fill-rule="nonzero" group-id="4,13" id="路径-113" node-id="142" stroke="none" target-height="99.29999" target-width="135" target-x="682.4" target-y="552.8"></path><path d="M 735.90 551.80 L 726.30 546.40 L 717.10 541.80 L 708.40 538.10 L 700.10 535.30 L 692.10 533.20 L 684.50 531.80 L 677.10 531.00 L 670.00 530.90 L 663.20 531.40 L 656.60 532.50 L 650.10 534.10 L 643.80 536.40 L 637.50 539.30 L 631.40 542.80 L 625.40 547.00 L 619.50 551.90 L 613.60 557.60 L 607.70 564.10 L 605.40 567.30 L 602.60 572.30 L 599.50 579.50 L 595.90 589.50 L 606.60 586.30 L 616.40 583.80 L 625.40 582.20 L 633.80 581.30 L 641.50 581.10 L 648.70 581.50 L 655.40 582.40 L 661.60 583.90 L 667.40 585.90 L 672.80 588.40 L 677.80 591.40 L 682.60 594.90 L 690.70 593.80 L 697.90 592.20 L 704.30 590.30 L 709.90 588.00 L 714.90 585.40 L 719.20 582.40 L 723.10 579.20 L 726.40 575.60 L 729.20 571.70 L 731.60 567.40 L 733.50 562.70 L 734.90 557.50 L 735.90 551.80 Z" fill="url(#linearGradient-25)" fill-rule="nonzero" group-id="4,13" id="路径-112" node-id="143" stroke="none" target-height="64" target-width="140" target-x="595.9" target-y="530.9"></path></g></g><g node-id="376"><path d="M 640.90 409.00 L 637.30 407.70 L 634.10 407.10 L 631.10 407.10 L 628.40 407.60 L 625.70 408.70 L 623.20 410.40 L 620.70 412.70 L 618.30 415.80 L 615.90 419.90 L 613.60 425.00 L 611.40 431.50 L 609.40 439.50 L 607.50 449.30 L 615.20 446.50 L 621.70 443.70 L 627.00 440.80 L 631.30 437.90 L 634.80 435.00 L 637.60 432.00 L 639.70 429.10 L 641.20 426.10 L 642.20 423.00 L 642.70 419.80 L 642.60 416.40 L 642.00 412.80 L 640.90 409.00 Z" fill="url(#linearGradient-26)" fill-rule="nonzero" group-id="5" id="路径-15" node-id="145" stroke="none" target-height="42.19998" target-width="35.200012" target-x="607.5" target-y="407.1"></path><path d="M 652.50 398.70 L 645.10 404.70 L 639.00 410.20 L 634.10 415.30 L 630.20 420.00 L 627.30 424.20 L 625.10 428.20" fill="none" group-id="5" id="路径-16" node-id="146" stroke="url(#linearGradient-27)" stroke-linecap="round" stroke-width="2" target-height="29.5" target-width="27.400024" target-x="625.1" target-y="398.7"></path><path d="M 813.30 269.00 L 805.10 281.90 L 797.50 293.00 L 790.40 302.60 L 783.70 310.70 L 777.60 317.50 L 771.80 323.20 L 766.50 327.90 L 761.50 331.60 L 756.90 334.50 L 748.80 338.60 L 745.10 340.00 L 741.60 340.80 L 737.90 341.20 L 734.60 341.20 L 731.40 340.80 L 728.30 339.90 L 725.70 338.70 L 723.40 337.20 L 721.40 335.40 L 719.90 333.30 L 718.80 330.90 L 718.40 328.40 L 718.30 325.50 L 718.70 322.70 L 719.40 320.10 L 720.20 318.40 L 722.50 315.80 L 723.90 314.90 L 725.60 314.40 L 727.70 314.20 L 729.70 314.40 L 732.20 315.10 L 735.30 316.50 L 737.40 318.10 L 739.10 319.90 L 740.30 321.90 L 741.80 326.50 L 742.00 329.00 L 741.90 332.70 L 741.20 336.50 L 740.10 340.30 L 737.00 346.90 L 735.30 349.50 L 732.50 352.50 L 728.60 356.00 L 719.30 362.90 L 714.10 366.10 L 703.40 371.40 L 698.30 373.30 L 694.90 374.30 L 689.30 375.00" fill="none" group-id="5" id="路径-2" node-id="147" stroke="url(#linearGradient-28)" stroke-linecap="round" stroke-width="2" target-height="106" target-width="124" target-x="689.3" target-y="269"></path><path d="M 340.40 490.10 L 340.50 497.60 L 340.00 504.60 L 339.00 511.00 L 337.60 516.90 L 335.70 522.40 L 333.40 527.60 L 330.70 532.30 L 327.50 536.80 L 323.90 540.90 L 319.80 544.70 L 315.30 548.30 L 310.20 551.50 L 304.50 554.50" fill="none" group-id="5" id="路径-17" node-id="148" stroke="url(#linearGradient-29)" stroke-linecap="round" stroke-width="2" target-height="64.399994" target-width="36" target-x="304.5" target-y="490.1"></path><path d="M 284.90 568.70 L 282.40 565.80 L 279.90 563.80 L 277.40 562.60 L 274.80 561.90 L 272.00 561.80 L 269.10 562.30 L 266.00 563.60 L 262.50 565.60 L 258.60 568.70 L 250.90 577.30 L 248.80 579.20 L 245.00 581.50 L 241.20 582.10 L 248.70 584.50 L 255.20 585.90 L 260.70 586.50 L 265.40 586.50 L 269.50 586.00 L 272.90 585.00 L 275.90 583.50 L 278.40 581.60 L 280.60 579.20 L 282.40 576.30 L 283.80 572.90 L 284.90 568.70 Z" fill="url(#linearGradient-30)" fill-rule="nonzero" group-id="5" id="路径-18" node-id="149" stroke="none" target-height="24.700012" target-width="43.699997" target-x="241.2" target-y="561.8"></path><path d="M 296.00 561.80 L 294.90 563.40 L 293.10 565.20 L 290.20 567.10 L 286.20 569.30 L 280.50 571.70 L 273.00 574.30 L 263.10 577.20" fill="none" group-id="5" id="路径-19" node-id="150" stroke="url(#linearGradient-31)" stroke-linecap="round" stroke-width="2" target-height="15.400024" target-width="32.899994" target-x="263.1" target-y="561.8"></path></g></svg>