<?xml version="1.0" standalone="no"?><!DOCTYPE svg PUBLIC "-//W3C//DTD SVG 1.1//EN" "http://www.w3.org/Graphics/SVG/1.1/DTD/svg11.dtd"><svg height="1024" node-id="1" sillyvg="true" template-height="1024" template-width="1024" version="1.1" viewBox="0 0 1024 1024" width="1024" xmlns="http://www.w3.org/2000/svg" xmlns:xlink="http://www.w3.org/1999/xlink"><defs node-id="149"><linearGradient gradientUnits="objectBoundingBox" id="linear-gradient" node-id="5" spreadMethod="pad" x1="0" x2="1" y1="0.418" y2="0.457"><stop offset="0" stop-color="#c3d2ef"></stop><stop offset="1" stop-color="#ffffff"></stop></linearGradient><clipPath id="clip-查看数据-2" node-id="8"><path d="M 0.00 0.00 L 1024.00 0.00 L 1024.00 1024.00 L 0.00 1024.00 Z" fill="#000000" fill-rule="nonzero" node-id="158" stroke="none" target-height="1024" target-width="1024" target-x="0" target-y="0"></path></clipPath><clipPath id="clip-path" node-id="3"><path d="M 0.00 0.00 L 1024.00 0.00 L 1024.00 1024.00 L 0.00 1024.00 Z" fill="#000000" fill-rule="nonzero" id="查看数据" node-id="4" stroke="none" target-height="1024" target-width="1024" target-x="0" target-y="0"></path></clipPath></defs><g clip-path="url(#clip-查看数据-2)" id="查看数据-2" node-id="10"><path d="M 0.00 0.00 L 1024.00 0.00 L 1024.00 1024.00 L 0.00 1024.00 Z" fill="#ffffff" fill-rule="nonzero" node-id="166" stroke="none" target-height="1024" target-width="1024" target-x="0" target-y="0"></path><g clip-path="url(#clip-path)" group-id="1" id="查看数据-3" node-id="12"><path d="M 0.00 0.00 L 1024.00 0.00 L 1024.00 1024.00 L 0.00 1024.00 Z" fill="#ffffff" fill-rule="nonzero" group-id="1,2" id="查看数据-4" node-id="13" stroke="none" target-height="1024" target-width="1024" target-x="0" target-y="0"></path><path d="M 56.30 346.70 L 61.60 332.10 L 64.50 325.60 L 70.90 314.20 L 75.50 307.50 L 80.40 301.50 L 85.60 296.20 L 90.90 291.40 L 96.70 287.00 L 102.70 283.20 L 108.80 279.80 L 115.20 276.80 L 128.40 272.20 L 142.20 269.00 L 151.60 267.70 L 161.00 266.80 L 170.60 266.50 L 189.70 266.90 L 213.10 269.30 L 239.20 273.40 L 271.30 279.30 L 280.00 280.50 L 286.40 280.90 L 331.00 281.40 L 370.70 282.30 L 445.50 285.10 L 502.70 288.20 L 532.80 290.30 L 593.80 295.40 L 624.40 298.50 L 654.50 302.00 L 693.90 307.40 L 731.60 313.70 L 749.50 317.20 L 766.40 320.80 L 783.30 324.80 L 798.80 329.00 L 813.10 333.30 L 823.90 337.00 L 833.70 340.70 L 850.70 348.30 L 858.90 352.60 L 865.90 357.00 L 871.90 361.40 L 877.10 365.80 L 880.90 369.80 L 884.10 373.80 L 886.60 377.90 L 888.50 382.00 L 894.70 402.70 L 897.60 410.70 L 905.40 428.60 L 910.50 438.50 L 915.80 448.00 L 924.20 461.90 L 957.50 513.10 L 964.40 525.00 L 968.60 533.00 L 972.00 540.90 L 974.90 548.50 L 976.60 554.40 L 977.90 560.20 L 978.70 566.00 L 979.00 571.80 L 978.80 577.60 L 978.00 583.40 L 976.70 589.30 L 974.70 595.40 L 972.20 601.10 L 968.90 607.10 L 964.80 613.30 L 947.00 635.70 L 936.00 650.10 L 899.80 700.70 L 891.60 711.50 L 883.50 721.50 L 871.90 734.00 L 865.80 739.80 L 859.30 745.30 L 852.20 750.60 L 844.60 755.70 L 836.60 760.40 L 827.80 765.10 L 811.10 773.00 L 805.00 776.60 L 799.50 780.60 L 794.30 785.00 L 784.70 794.50 L 778.10 802.10 L 764.90 818.20 L 752.90 831.80 L 741.60 842.30 L 735.40 847.20 L 728.40 852.00 L 720.60 856.60 L 714.60 859.70 L 700.70 865.40 L 684.90 870.30 L 666.60 874.20 L 645.70 876.90 L 622.00 878.20 L 595.00 878.20 L 564.70 876.50 L 526.80 872.60 L 492.30 868.00 L 461.80 862.90 L 449.40 860.30 L 426.10 854.70 L 416.80 852.00 L 399.40 846.10 L 392.50 843.30 L 382.70 838.80 L 374.80 834.60 L 367.50 830.20 L 361.50 826.10 L 340.90 810.80 L 335.70 807.60 L 329.70 804.60 L 320.80 801.20 L 315.30 799.70 L 303.30 797.40 L 295.80 796.40 L 287.50 795.80 L 278.80 795.70 L 269.70 796.10 L 251.30 798.00 L 227.60 802.20 L 171.20 814.60 L 158.20 817.10 L 141.40 819.70 L 133.70 820.40 L 126.10 820.70 L 119.10 820.60 L 112.70 819.90 L 107.90 819.00 L 103.60 817.70 L 99.70 816.00 L 96.10 814.00 L 92.70 811.60 L 89.80 808.70 L 87.20 805.30 L 84.90 801.40 L 83.10 797.20 L 81.80 792.40 L 80.70 786.80 L 80.20 780.30 L 79.50 748.30 L 80.20 724.00 L 82.00 705.00 L 87.20 664.90 L 88.20 645.60 L 88.30 633.50 L 87.90 626.30 L 86.90 618.30 L 85.20 609.60 L 82.00 596.50 L 77.70 581.90 L 62.90 533.60 L 57.90 515.60 L 52.10 490.70 L 49.60 477.60 L 47.70 464.40 L 46.20 450.70 L 45.30 436.60 L 45.00 426.00 L 45.10 415.30 L 45.70 404.20 L 46.80 392.90 L 48.30 381.80 L 50.40 370.40 L 53.00 358.70 L 56.30 346.70 Z" fill="#f2f6fe" fill-rule="nonzero" group-id="1,3" id="路径_1166" node-id="14" stroke="none" target-height="611.7" target-width="934" target-x="45" target-y="266.5"></path><path d="M 329.10 171.50 L 329.10 157.20 L 314.80 157.20 L 313.60 156.90 L 312.60 156.30 L 312.00 155.30 L 311.70 154.10 L 312.00 152.90 L 312.60 151.90 L 313.60 151.30 L 314.80 151.00 L 329.10 151.00 L 329.10 136.70 L 329.40 135.50 L 330.00 134.50 L 331.00 133.80 L 332.20 133.60 L 333.40 133.80 L 334.40 134.50 L 335.00 135.50 L 335.30 136.70 L 335.30 151.00 L 349.60 151.00 L 350.80 151.30 L 351.80 151.90 L 352.50 152.90 L 352.70 154.10 L 352.50 155.30 L 351.80 156.30 L 350.80 156.90 L 349.60 157.20 L 335.30 157.20 L 335.30 171.50 L 335.00 172.70 L 334.40 173.70 L 333.40 174.40 L 332.20 174.60 L 331.00 174.40 L 330.00 173.70 L 329.40 172.70 L 329.10 171.50 Z" fill="#d1e6ff" fill-rule="nonzero" group-id="1,4" id="联合_163" node-id="15" stroke="none" target-height="41" target-width="41" target-x="311.7" target-y="133.6"></path><path d="M 229.40 245.80 L 227.30 245.50 L 225.40 244.80 L 223.70 243.80 L 222.20 242.30 L 221.10 240.60 L 220.40 238.60 L 220.20 236.50 L 220.40 234.50 L 221.00 232.50 L 222.10 230.80 L 223.50 229.30 L 225.30 228.20 L 225.40 225.10 L 225.80 223.10 L 226.50 221.30 L 228.80 218.00 L 231.90 215.50 L 233.70 214.60 L 237.80 213.80 L 241.80 214.20 L 245.40 215.70 L 248.50 218.30 L 250.60 221.70 L 253.80 221.00 L 257.10 221.80 L 259.60 224.00 L 260.90 227.20 L 262.60 227.30 L 265.60 228.50 L 267.50 229.90 L 268.90 231.80 L 270.00 234.80 L 270.20 236.50 L 270.00 238.20 L 268.90 241.20 L 267.40 243.10 L 265.50 244.50 L 262.50 245.60 L 260.90 245.80 Z" fill="#e2efff" fill-rule="nonzero" group-id="1,5" id="联合_164" node-id="16" stroke="none" target-height="32" target-width="50.000015" target-x="220.2" target-y="213.8"></path><path d="M 404.40 253.10 L 402.60 252.90 L 401.00 252.20 L 399.60 251.10 L 398.50 249.80 L 397.90 248.20 L 397.60 246.30 L 397.90 244.50 L 398.50 242.90 L 399.60 241.50 L 401.00 240.50 L 402.50 239.80 L 404.40 239.60 L 405.30 237.20 L 407.10 235.60 L 409.60 235.00 L 411.90 235.60 L 413.00 233.60 L 414.50 232.00 L 416.30 230.80 L 418.40 230.10 L 420.50 229.80 L 422.80 230.00 L 425.00 230.70 L 426.80 231.90 L 428.30 233.40 L 429.50 235.20 L 430.20 237.30 L 430.40 240.30 L 432.70 242.20 L 434.00 244.90 L 434.00 247.90 L 432.70 250.60 L 430.30 252.40 L 427.40 253.10 Z" fill="#e2efff" fill-rule="nonzero" group-id="1,6" id="联合_165" node-id="17" stroke="none" target-height="23.300003" target-width="36.399994" target-x="397.6" target-y="229.8"></path><path d="M 578.10 310.30 L 581.00 310.50 L 583.70 311.30 L 586.20 312.50 L 588.40 314.10 L 590.30 316.00 L 591.90 318.20 L 593.10 320.70 L 593.80 323.40 L 594.10 326.30 L 594.10 640.90 L 593.80 643.80 L 593.10 646.40 L 591.90 648.90 L 590.30 651.20 L 588.40 653.10 L 586.20 654.70 L 583.70 655.90 L 581.00 656.60 L 578.10 656.90 L 127.30 656.90 L 124.40 656.60 L 121.70 655.90 L 119.30 654.70 L 117.00 653.10 L 115.10 651.20 L 113.50 648.90 L 112.30 646.40 L 111.60 643.80 L 111.30 640.90 L 111.30 326.30 L 111.60 323.40 L 112.30 320.70 L 113.50 318.20 L 115.10 316.00 L 117.00 314.10 L 119.30 312.50 L 121.70 311.30 L 124.40 310.50 L 127.30 310.30 Z" fill="#458cfb" fill-rule="nonzero" group-id="1,7,13" id="矩形_1402" node-id="19" stroke="none" target-height="346.60004" target-width="482.8" target-x="111.3" target-y="310.3"></path><path d="M 561.50 362.70 L 565.00 363.40 L 566.50 364.10 L 569.10 366.30 L 570.90 369.20 L 571.50 372.70 L 571.50 625.60 L 570.90 629.10 L 570.10 630.70 L 567.90 633.30 L 565.00 635.00 L 561.50 635.60 L 142.80 635.60 L 140.90 635.50 L 137.70 634.30 L 136.30 633.30 L 134.10 630.70 L 132.90 627.50 L 132.80 625.60 L 132.80 372.70 L 133.40 369.20 L 135.10 366.30 L 137.70 364.10 L 139.30 363.40 L 142.80 362.70 Z" fill="#cde2fc" fill-rule="nonzero" group-id="1,7,14" id="矩形_1404" node-id="20" stroke="none" target-height="272.89996" target-width="438.7" target-x="132.8" target-y="362.7"></path><path d="M 206.50 340.80 L 206.70 339.00 L 207.40 337.40 L 208.40 336.10 L 209.80 335.00 L 211.40 334.40 L 213.20 334.10 L 215.00 334.40 L 216.60 335.00 L 217.90 336.10 L 219.00 337.40 L 219.60 339.00 L 219.90 340.80 L 219.60 342.60 L 219.00 344.20 L 217.90 345.60 L 216.60 346.60 L 215.00 347.30 L 213.20 347.50 L 211.40 347.30 L 209.80 346.60 L 208.40 345.60 L 207.40 344.20 L 206.70 342.60 L 206.50 340.80 Z" fill="#152e77" fill-rule="nonzero" group-id="1,7,15,52" id="椭圆_365" node-id="22" stroke="none" target-height="13.399994" target-width="13.399994" target-x="206.5" target-y="334.1"></path><path d="M 486.60 340.80 L 486.80 339.00 L 487.50 337.40 L 488.50 336.10 L 489.90 335.00 L 491.50 334.40 L 493.30 334.10 L 495.10 334.40 L 496.70 335.00 L 498.00 336.10 L 499.10 337.40 L 499.70 339.00 L 500.00 340.80 L 499.70 342.60 L 499.10 344.20 L 498.00 345.60 L 496.70 346.60 L 495.10 347.30 L 493.30 347.50 L 491.50 347.30 L 489.90 346.60 L 488.50 345.60 L 487.50 344.20 L 486.80 342.60 L 486.60 340.80 Z" fill="#152e77" fill-rule="nonzero" group-id="1,7,15,53" id="椭圆_366" node-id="23" stroke="none" target-height="13.399994" target-width="13.399994" target-x="486.6" target-y="334.1"></path><path d="M 434.30 334.10 L 436.10 334.40 L 437.70 335.00 L 439.10 336.10 L 440.10 337.40 L 440.80 339.00 L 441.00 340.80 L 440.80 342.60 L 440.10 344.20 L 439.10 345.60 L 437.70 346.60 L 436.10 347.30 L 434.30 347.50 L 273.50 347.50 L 271.70 347.30 L 270.10 346.60 L 268.80 345.60 L 267.70 344.20 L 267.00 342.60 L 266.80 340.80 L 267.00 339.00 L 267.70 337.40 L 268.80 336.10 L 270.10 335.00 L 271.70 334.40 L 273.50 334.10 Z" fill="#152e77" fill-rule="nonzero" group-id="1,7,15,54" id="矩形_1431" node-id="24" stroke="none" target-height="13.399994" target-width="174.20001" target-x="266.8" target-y="334.1"></path><path d="M 248.70 393.10 L 252.20 393.70 L 255.20 395.40 L 257.40 398.00 L 258.10 399.60 L 258.70 403.10 L 258.60 465.30 L 257.40 468.50 L 255.20 471.10 L 252.20 472.90 L 248.70 473.50 L 188.30 473.50 L 184.80 472.90 L 183.30 472.10 L 180.70 469.90 L 179.00 467.00 L 178.30 463.50 L 178.50 401.30 L 179.70 398.00 L 181.90 395.40 L 184.80 393.70 L 188.30 393.10 Z" fill="#f1f7ff" fill-rule="nonzero" group-id="1,7,16,55" id="矩形_1432" node-id="26" stroke="none" target-height="80.399994" target-width="80.40001" target-x="178.3" target-y="393.1"></path><path d="M 198.40 434.00 L 198.80 430.40 L 199.70 427.20 L 201.10 424.20 L 203.00 421.40 L 205.30 419.10 L 208.10 417.20 L 211.10 415.70 L 214.30 414.90 L 217.90 414.50 L 221.40 414.90 L 224.70 415.70 L 227.70 417.20 L 230.40 419.10 L 232.70 421.40 L 234.70 424.20 L 236.10 427.20 L 237.00 430.40 L 237.30 434.00 L 237.00 437.50 L 236.10 440.80 L 234.70 443.80 L 232.70 446.50 L 230.40 448.80 L 227.70 450.70 L 224.70 452.20 L 221.40 453.10 L 217.90 453.40 L 214.30 453.10 L 211.10 452.20 L 208.10 450.70 L 205.30 448.80 L 203.00 446.50 L 201.10 443.80 L 199.70 440.80 L 198.80 437.50 L 198.40 434.00 Z" fill="none" group-id="1,7,16,56" node-id="218" stroke="none" target-height="38.899994" target-width="38.90001" target-x="198.4" target-y="414.5"></path><path d="M 217.90 416.50 L 213.30 417.10 L 209.20 418.80 L 207.30 420.10 L 205.50 421.60 L 202.80 425.30 L 201.00 429.40 L 200.60 431.60 L 200.40 434.00 L 201.00 438.50 L 202.80 442.70 L 204.00 444.50 L 205.50 446.30 L 209.20 449.10 L 213.30 450.80 L 215.60 451.20 L 217.90 451.40 L 222.40 450.80 L 226.60 449.10 L 228.40 447.80 L 230.20 446.30 L 233.00 442.70 L 234.70 438.50 L 235.20 436.30 L 235.30 434.00 L 234.70 429.40 L 233.00 425.30 L 231.70 423.40 L 230.20 421.60 L 226.60 418.80 L 222.40 417.10 L 217.90 416.50 M 217.90 414.50 L 221.40 414.90 L 224.70 415.70 L 227.70 417.20 L 230.40 419.10 L 232.70 421.40 L 234.70 424.20 L 236.10 427.20 L 237.00 430.40 L 237.30 434.00 L 237.00 437.50 L 236.10 440.80 L 234.70 443.80 L 232.70 446.50 L 230.40 448.80 L 227.70 450.70 L 224.70 452.20 L 221.40 453.10 L 217.90 453.40 L 214.30 453.10 L 211.10 452.20 L 208.10 450.70 L 205.30 448.80 L 203.00 446.50 L 201.10 443.80 L 199.70 440.80 L 198.80 437.50 L 198.40 434.00 L 198.80 430.40 L 199.70 427.20 L 201.10 424.20 L 203.00 421.40 L 205.30 419.10 L 208.10 417.20 L 211.10 415.70 L 214.30 414.90 L 217.90 414.50 Z" fill="#a1c7f6" fill-rule="nonzero" group-id="1,7,16,56" node-id="220" stroke="none" target-height="38.899994" target-width="38.90001" target-x="198.4" target-y="414.5"></path><path d="M 248.70 562.60 L 188.30 562.60 L 186.20 562.30 L 184.30 561.50 L 182.70 560.30 L 181.40 558.70 L 180.60 556.80 L 180.30 554.60 L 180.30 494.20 L 180.60 492.10 L 181.40 490.20 L 182.70 488.60 L 184.30 487.30 L 186.20 486.50 L 188.30 486.20 L 248.70 486.20 L 250.90 486.50 L 252.80 487.30 L 254.40 488.60 L 255.70 490.20 L 256.50 492.10 L 256.70 494.20 L 256.70 554.60 L 256.50 556.80 L 255.70 558.70 L 254.40 560.30 L 252.80 561.50 L 250.90 562.30 L 248.70 562.60 Z" fill="#4d91fd" fill-rule="nonzero" group-id="1,7,17,57" node-id="226" stroke="none" target-height="76.39996" target-width="76.40001" target-x="180.3" target-y="486.2"></path><path d="M 188.30 488.20 L 186.70 488.40 L 184.10 490.00 L 183.10 491.20 L 182.60 492.60 L 182.30 494.20 L 182.30 554.60 L 182.60 556.30 L 183.10 557.70 L 184.10 558.90 L 185.30 559.80 L 186.70 560.40 L 188.30 560.60 L 248.70 560.60 L 250.40 560.40 L 251.80 559.80 L 253.00 558.90 L 253.90 557.70 L 254.50 556.30 L 254.70 554.60 L 254.70 494.20 L 254.50 492.60 L 253.90 491.20 L 253.00 490.00 L 251.80 489.00 L 250.40 488.40 L 248.70 488.20 L 188.30 488.20 M 188.30 484.20 L 248.70 484.20 L 252.20 484.80 L 253.80 485.60 L 256.40 487.80 L 258.10 490.70 L 258.70 494.20 L 258.70 554.60 L 258.10 558.10 L 256.40 561.10 L 253.80 563.30 L 250.60 564.50 L 188.30 564.60 L 184.80 564.00 L 183.30 563.30 L 180.70 561.10 L 179.00 558.10 L 178.30 554.60 L 178.50 492.40 L 179.70 489.20 L 181.90 486.60 L 184.80 484.80 L 188.30 484.20 Z" fill="#eef5ff" fill-rule="nonzero" group-id="1,7,17,57" node-id="228" stroke="none" target-height="80.39996" target-width="80.40001" target-x="178.3" target-y="484.2"></path><path d="M 198.40 525.10 L 198.80 521.50 L 199.70 518.30 L 201.10 515.30 L 203.00 512.60 L 205.30 510.20 L 208.10 508.30 L 211.10 506.90 L 214.30 506.00 L 217.90 505.70 L 221.40 506.00 L 224.70 506.90 L 227.70 508.30 L 230.40 510.20 L 232.70 512.60 L 234.70 515.30 L 236.10 518.30 L 237.00 521.50 L 237.30 525.10 L 237.00 528.60 L 236.10 531.90 L 234.70 534.90 L 232.70 537.60 L 230.40 539.90 L 227.70 541.90 L 224.70 543.30 L 221.40 544.20 L 217.90 544.50 L 214.30 544.20 L 211.10 543.30 L 208.10 541.90 L 205.30 539.90 L 203.00 537.60 L 201.10 534.90 L 199.70 531.90 L 198.80 528.60 L 198.40 525.10 Z" fill="none" group-id="1,7,17,58" node-id="232" stroke="none" target-height="38.799988" target-width="38.90001" target-x="198.4" target-y="505.7"></path><path d="M 217.90 507.70 L 215.60 507.80 L 211.20 509.00 L 207.30 511.20 L 205.50 512.80 L 204.00 514.50 L 201.80 518.40 L 200.60 522.80 L 200.40 525.10 L 200.60 527.40 L 201.80 531.80 L 204.00 535.70 L 205.50 537.40 L 207.30 539.00 L 211.20 541.20 L 215.60 542.40 L 217.90 542.50 L 220.20 542.40 L 224.50 541.20 L 228.40 539.00 L 230.20 537.40 L 231.70 535.70 L 234.00 531.80 L 235.20 527.40 L 235.30 525.10 L 235.20 522.80 L 234.00 518.40 L 231.70 514.50 L 230.20 512.80 L 228.40 511.20 L 224.50 509.00 L 220.20 507.80 L 217.90 507.70 M 217.90 505.70 L 221.40 506.00 L 224.70 506.90 L 227.70 508.30 L 230.40 510.20 L 232.70 512.60 L 234.70 515.30 L 236.10 518.30 L 237.00 521.50 L 237.30 525.10 L 237.00 528.60 L 236.10 531.90 L 234.70 534.90 L 232.70 537.60 L 230.40 539.90 L 227.70 541.90 L 224.70 543.30 L 221.40 544.20 L 217.90 544.50 L 214.30 544.20 L 211.10 543.30 L 208.10 541.90 L 205.30 539.90 L 203.00 537.60 L 201.10 534.90 L 199.70 531.90 L 198.80 528.60 L 198.40 525.10 L 198.80 521.50 L 199.70 518.30 L 201.10 515.30 L 203.00 512.60 L 205.30 510.20 L 208.10 508.30 L 211.10 506.90 L 214.30 506.00 L 217.90 505.70 Z" fill="#a1c7f6" fill-rule="nonzero" group-id="1,7,17,58" node-id="234" stroke="none" target-height="38.799988" target-width="38.90001" target-x="198.4" target-y="505.7"></path><path d="M 368.00 393.10 L 371.50 393.70 L 374.50 395.40 L 376.70 398.00 L 377.40 399.60 L 378.00 403.10 L 377.90 465.30 L 376.70 468.50 L 374.50 471.10 L 371.50 472.90 L 368.00 473.50 L 307.60 473.50 L 304.10 472.90 L 302.60 472.10 L 300.00 469.90 L 298.20 467.00 L 297.60 463.50 L 297.80 401.30 L 299.00 398.00 L 301.20 395.40 L 304.10 393.70 L 307.60 393.10 Z" fill="#f1f7ff" fill-rule="nonzero" group-id="1,7,18,59" id="矩形_1432-3" node-id="38" stroke="none" target-height="80.399994" target-width="80.399994" target-x="297.6" target-y="393.1"></path><path d="M 317.70 434.00 L 318.00 430.40 L 318.90 427.20 L 320.40 424.20 L 322.30 421.40 L 324.60 419.10 L 327.30 417.20 L 330.40 415.70 L 333.60 414.90 L 337.10 414.50 L 340.70 414.90 L 343.90 415.70 L 347.00 417.20 L 349.70 419.10 L 352.00 421.40 L 353.90 424.20 L 355.40 427.20 L 356.30 430.40 L 356.60 434.00 L 356.30 437.50 L 355.40 440.80 L 353.90 443.80 L 352.00 446.50 L 349.70 448.80 L 347.00 450.70 L 343.90 452.20 L 340.70 453.10 L 337.10 453.40 L 333.60 453.10 L 330.40 452.20 L 327.30 450.70 L 324.60 448.80 L 322.30 446.50 L 320.40 443.80 L 318.90 440.80 L 318.00 437.50 L 317.70 434.00 Z" fill="none" group-id="1,7,18,60" node-id="244" stroke="none" target-height="38.899994" target-width="38.899994" target-x="317.7" target-y="414.5"></path><path d="M 337.10 416.50 L 332.60 417.10 L 328.40 418.80 L 326.60 420.10 L 324.80 421.60 L 322.00 425.30 L 320.30 429.40 L 319.90 431.60 L 319.70 434.00 L 320.30 438.50 L 322.00 442.70 L 323.30 444.50 L 324.80 446.30 L 328.40 449.10 L 332.60 450.80 L 334.80 451.20 L 337.10 451.40 L 341.70 450.80 L 345.80 449.10 L 347.70 447.80 L 349.50 446.30 L 352.30 442.70 L 354.00 438.50 L 354.40 436.30 L 354.60 434.00 L 354.00 429.40 L 352.30 425.30 L 351.00 423.40 L 349.50 421.60 L 345.80 418.80 L 341.70 417.10 L 337.10 416.50 M 337.10 414.50 L 340.70 414.90 L 343.90 415.70 L 347.00 417.20 L 349.70 419.10 L 352.00 421.40 L 353.90 424.20 L 355.40 427.20 L 356.30 430.40 L 356.60 434.00 L 356.30 437.50 L 355.40 440.80 L 353.90 443.80 L 352.00 446.50 L 349.70 448.80 L 347.00 450.70 L 343.90 452.20 L 340.70 453.10 L 337.10 453.40 L 333.60 453.10 L 330.40 452.20 L 327.30 450.70 L 324.60 448.80 L 322.30 446.50 L 320.40 443.80 L 318.90 440.80 L 318.00 437.50 L 317.70 434.00 L 318.00 430.40 L 318.90 427.20 L 320.40 424.20 L 322.30 421.40 L 324.60 419.10 L 327.30 417.20 L 330.40 415.70 L 333.60 414.90 L 337.10 414.50 Z" fill="#a1c7f6" fill-rule="nonzero" group-id="1,7,18,60" node-id="246" stroke="none" target-height="38.899994" target-width="38.899994" target-x="317.7" target-y="414.5"></path><path d="M 368.00 562.60 L 307.60 562.60 L 305.50 562.30 L 303.60 561.50 L 302.00 560.30 L 300.70 558.70 L 299.90 556.80 L 299.60 554.60 L 299.60 494.20 L 299.90 492.10 L 300.70 490.20 L 302.00 488.60 L 303.60 487.30 L 305.50 486.50 L 307.60 486.20 L 368.00 486.20 L 370.20 486.50 L 372.10 487.30 L 373.70 488.60 L 374.90 490.20 L 375.70 492.10 L 376.00 494.20 L 376.00 554.60 L 375.70 556.80 L 374.90 558.70 L 373.70 560.30 L 372.10 561.50 L 370.20 562.30 L 368.00 562.60 Z" fill="#4d91fd" fill-rule="nonzero" group-id="1,7,19,61" node-id="252" stroke="none" target-height="76.39996" target-width="76.399994" target-x="299.6" target-y="486.2"></path><path d="M 307.60 488.20 L 306.00 488.40 L 304.60 489.00 L 303.40 490.00 L 301.80 492.60 L 301.60 494.20 L 301.60 554.60 L 301.80 556.30 L 303.40 558.90 L 304.60 559.80 L 306.00 560.40 L 307.60 560.60 L 368.00 560.60 L 369.70 560.40 L 371.00 559.80 L 372.30 558.90 L 373.80 556.30 L 374.00 554.60 L 374.00 494.20 L 373.80 492.60 L 373.20 491.20 L 372.30 490.00 L 369.70 488.40 L 368.00 488.20 L 307.60 488.20 M 307.60 484.20 L 368.00 484.20 L 371.50 484.80 L 373.10 485.60 L 375.70 487.80 L 377.40 490.70 L 378.00 494.20 L 377.90 556.50 L 376.70 559.70 L 374.50 562.30 L 371.50 564.00 L 368.00 564.60 L 307.60 564.60 L 304.10 564.00 L 302.60 563.30 L 300.00 561.10 L 298.20 558.10 L 297.60 554.60 L 297.80 492.40 L 299.00 489.20 L 301.20 486.60 L 304.10 484.80 L 307.60 484.20 Z" fill="#eef5ff" fill-rule="nonzero" group-id="1,7,19,61" node-id="254" stroke="none" target-height="80.39996" target-width="80.399994" target-x="297.6" target-y="484.2"></path><path d="M 317.70 525.10 L 318.00 521.50 L 318.90 518.30 L 320.40 515.30 L 322.30 512.60 L 324.60 510.20 L 327.30 508.30 L 330.40 506.90 L 333.60 506.00 L 337.10 505.70 L 340.70 506.00 L 343.90 506.90 L 347.00 508.30 L 349.70 510.20 L 352.00 512.60 L 353.90 515.30 L 355.40 518.30 L 356.30 521.50 L 356.60 525.10 L 356.30 528.60 L 355.40 531.90 L 353.90 534.90 L 352.00 537.60 L 349.70 539.90 L 347.00 541.90 L 343.90 543.30 L 340.70 544.20 L 337.10 544.50 L 333.60 544.20 L 330.40 543.30 L 327.30 541.90 L 324.60 539.90 L 322.30 537.60 L 320.40 534.90 L 318.90 531.90 L 318.00 528.60 L 317.70 525.10 Z" fill="none" group-id="1,7,19,62" node-id="258" stroke="none" target-height="38.799988" target-width="38.899994" target-x="317.7" target-y="505.7"></path><path d="M 337.10 507.70 L 334.80 507.80 L 330.50 509.00 L 326.60 511.20 L 324.80 512.80 L 323.30 514.50 L 321.00 518.40 L 319.90 522.80 L 319.70 525.10 L 319.90 527.40 L 321.00 531.80 L 323.30 535.70 L 324.80 537.40 L 326.60 539.00 L 330.50 541.20 L 334.80 542.40 L 337.10 542.50 L 339.50 542.40 L 343.80 541.20 L 347.70 539.00 L 349.50 537.40 L 351.00 535.70 L 353.30 531.80 L 354.40 527.40 L 354.60 525.10 L 354.40 522.80 L 353.30 518.40 L 351.00 514.50 L 349.50 512.80 L 347.70 511.20 L 343.80 509.00 L 339.50 507.80 L 337.10 507.70 M 337.10 505.70 L 340.70 506.00 L 343.90 506.90 L 347.00 508.30 L 349.70 510.20 L 352.00 512.60 L 353.90 515.30 L 355.40 518.30 L 356.30 521.50 L 356.60 525.10 L 356.30 528.60 L 355.40 531.90 L 353.90 534.90 L 352.00 537.60 L 349.70 539.90 L 347.00 541.90 L 343.90 543.30 L 340.70 544.20 L 337.10 544.50 L 333.60 544.20 L 330.40 543.30 L 327.30 541.90 L 324.60 539.90 L 322.30 537.60 L 320.40 534.90 L 318.90 531.90 L 318.00 528.60 L 317.70 525.10 L 318.00 521.50 L 318.90 518.30 L 320.40 515.30 L 322.30 512.60 L 324.60 510.20 L 327.30 508.30 L 330.40 506.90 L 333.60 506.00 L 337.10 505.70 Z" fill="#a1c7f6" fill-rule="nonzero" group-id="1,7,19,62" node-id="260" stroke="none" target-height="38.799988" target-width="38.899994" target-x="317.7" target-y="505.7"></path><path d="M 674.80 458.50 L 656.20 426.20 L 632.70 426.20 L 629.00 425.80 L 625.70 424.90 L 622.60 423.50 L 619.80 421.50 L 617.40 419.10 L 615.40 416.30 L 613.90 413.20 L 613.00 409.80 L 612.70 406.20 L 612.70 302.20 L 613.00 298.50 L 613.90 295.20 L 615.40 292.10 L 617.40 289.30 L 619.80 286.90 L 622.60 284.90 L 625.70 283.40 L 629.00 282.50 L 632.70 282.20 L 909.70 282.20 L 913.30 282.50 L 916.70 283.40 L 919.80 284.90 L 922.60 286.90 L 925.00 289.30 L 926.90 292.10 L 928.40 295.20 L 929.30 298.50 L 929.70 302.20 L 929.70 406.20 L 929.30 409.80 L 928.40 413.20 L 926.90 416.30 L 925.00 419.10 L 922.60 421.50 L 919.80 423.50 L 916.70 424.90 L 913.30 425.80 L 909.70 426.20 L 702.00 426.20 L 681.00 459.40 L 679.20 460.40 L 677.20 460.30 L 675.40 459.30 L 674.80 458.50 Z" fill="#bcd5fb" fill-rule="nonzero" group-id="1,8,20" id="联合_170" node-id="50" stroke="none" target-height="178.19998" target-width="317" target-x="612.7" target-y="282.2"></path><path d="M 629.70 303.20 L 773.70 303.20 L 773.70 313.20 L 629.70 313.20 Z" fill="#ffffff" fill-rule="nonzero" group-id="1,8,21,63" id="矩形_1472" node-id="52" stroke="none" target-height="10" target-width="144" target-x="629.7" target-y="303.2"></path><path d="M 629.70 325.20 L 773.70 325.20 L 773.70 335.20 L 629.70 335.20 Z" fill="#ffffff" fill-rule="nonzero" group-id="1,8,21,64" id="矩形_1473" node-id="53" stroke="none" target-height="10" target-width="144" target-x="629.7" target-y="325.2"></path><path d="M 629.70 347.20 L 705.70 347.20 L 705.70 357.20 L 629.70 357.20 Z" fill="#ffffff" fill-rule="nonzero" group-id="1,8,21,65" id="矩形_1474" node-id="54" stroke="none" target-height="10" target-width="76" target-x="629.7" target-y="347.2"></path><path d="M 736.70 389.20 L 739.10 389.50 L 741.20 390.40 L 743.00 391.80 L 744.40 393.60 L 745.30 395.80 L 745.70 398.20 L 745.30 400.60 L 744.40 402.70 L 743.00 404.50 L 741.20 406.00 L 739.10 406.90 L 736.70 407.20 L 638.70 407.20 L 636.30 406.90 L 634.10 406.00 L 632.30 404.50 L 630.90 402.70 L 630.00 400.60 L 629.70 398.20 L 630.00 395.80 L 630.90 393.60 L 632.30 391.80 L 634.10 390.40 L 636.30 389.50 L 638.70 389.20 Z" fill="#458cfb" fill-rule="nonzero" group-id="1,8,21,66" id="矩形_1475" node-id="55" stroke="none" target-height="18" target-width="116" target-x="629.7" target-y="389.2"></path><path d="M 855.70 407.20 L 846.50 406.40 L 838.00 404.10 L 830.00 400.40 L 826.30 398.10 L 819.50 392.50 L 813.80 385.90 L 811.30 382.20 L 807.30 374.30 L 804.70 365.50 L 803.70 356.40 L 804.30 347.50 L 806.30 338.90 L 807.80 334.90 L 811.90 327.10 L 817.20 320.20 L 823.70 314.20 L 831.20 309.30 L 835.40 307.30 L 840.50 305.40 L 845.60 304.20 L 850.60 303.40 L 855.70 303.20 L 860.70 303.40 L 865.70 304.20 L 870.50 305.40 L 875.20 307.00 L 879.70 309.10 L 884.00 311.60 L 888.10 314.60 L 891.90 317.90 L 895.30 321.60 L 898.40 325.70 L 901.10 330.10 L 903.50 335.00 L 905.30 340.10 L 906.60 345.10 L 907.40 350.10 L 907.60 355.20 L 907.40 360.30 L 906.70 365.20 L 905.50 370.00 L 903.80 374.70 L 901.70 379.30 L 899.20 383.60 L 896.30 387.60 L 892.90 391.40 L 889.30 394.90 L 885.20 398.00 L 880.80 400.70 L 875.90 403.10 L 871.00 404.90 L 866.00 406.20 L 860.90 406.90 L 855.70 407.20 Z M 855.70 322.20 L 851.10 322.50 L 846.90 323.40 L 842.80 324.80 L 839.00 326.70 L 835.50 329.10 L 832.30 331.80 L 829.50 335.00 L 827.20 338.50 L 825.30 342.30 L 823.90 346.40 L 823.00 350.60 L 822.70 355.20 L 823.00 359.70 L 823.90 364.00 L 825.30 368.00 L 827.20 371.90 L 829.50 375.30 L 832.30 378.50 L 835.50 381.30 L 839.00 383.70 L 842.80 385.60 L 846.90 387.00 L 851.10 387.90 L 855.70 388.20 L 860.20 387.90 L 864.50 387.00 L 868.50 385.60 L 872.40 383.70 L 875.80 381.30 L 879.00 378.50 L 881.80 375.30 L 884.20 371.90 L 886.10 368.00 L 887.50 364.00 L 888.40 359.70 L 888.70 355.20 L 888.40 350.70 L 887.50 346.40 L 886.10 342.30 L 884.10 338.50 L 881.80 335.00 L 879.00 331.90 L 875.80 329.10 L 872.30 326.70 L 868.50 324.80 L 864.50 323.40 L 860.20 322.50 L 855.70 322.20 Z" fill="#458cfb" fill-rule="nonzero" group-id="1,8,22,67" id="减去_40" node-id="57" stroke="none" target-height="104" target-width="103.89996" target-x="803.7" target-y="303.2"></path><path d="M 855.70 407.20 L 855.70 388.20 L 860.00 387.90 L 864.20 387.10 L 868.30 385.70 L 872.20 383.80 L 875.70 381.40 L 879.00 378.50 L 881.90 375.20 L 884.30 371.70 L 886.20 367.80 L 887.60 363.70 L 888.40 359.50 L 888.70 355.20 L 888.40 350.70 L 887.50 346.40 L 886.10 342.30 L 884.10 338.50 L 881.80 335.00 L 879.00 331.90 L 875.80 329.10 L 872.30 326.70 L 868.50 324.80 L 864.50 323.40 L 860.20 322.50 L 855.70 322.20 L 855.70 303.20 L 860.90 303.40 L 866.00 304.20 L 871.00 305.50 L 875.90 307.30 L 880.50 309.50 L 884.70 312.00 L 888.70 315.00 L 892.40 318.40 L 895.80 322.10 L 898.80 326.10 L 901.40 330.40 L 903.60 334.90 L 905.40 339.90 L 906.70 344.90 L 907.40 350.00 L 907.70 355.20 L 907.40 360.40 L 906.70 365.40 L 905.40 370.40 L 903.60 375.40 L 901.40 380.00 L 898.80 384.20 L 895.80 388.20 L 892.40 392.00 L 888.70 395.30 L 884.70 398.30 L 880.50 400.90 L 875.90 403.10 L 871.00 404.90 L 866.00 406.20 L 860.90 406.90 L 855.70 407.20 Z" fill="#fbb245" fill-rule="nonzero" group-id="1,8,22,68" id="减去_42" node-id="58" stroke="none" target-height="104" target-width="52" target-x="855.7" target-y="303.2"></path><path d="M 855.70 407.20 L 855.70 388.20 L 860.00 387.90 L 864.20 387.10 L 868.30 385.70 L 872.20 383.80 L 875.70 381.40 L 879.00 378.50 L 881.90 375.10 L 884.40 371.40 L 886.30 367.40 L 887.70 363.20 L 907.10 363.20 L 906.20 367.40 L 903.60 375.40 L 901.40 380.00 L 898.80 384.20 L 895.80 388.20 L 892.40 392.00 L 888.70 395.30 L 884.70 398.30 L 880.50 400.90 L 875.90 403.10 L 871.00 404.90 L 866.00 406.20 L 860.90 406.90 L 855.70 407.20 Z" fill="#c62bcb" fill-rule="nonzero" group-id="1,8,22,69" id="减去_45" node-id="59" stroke="none" target-height="44" target-width="51.399963" target-x="855.7" target-y="363.2"></path><path d="M 256.80 648.20 L 256.80 751.00 L 255.60 752.50 L 251.80 754.60 L 248.10 755.80 L 243.80 756.80 L 237.40 757.70 L 230.10 758.30 L 220.20 758.50 L 210.20 758.30 L 202.70 757.70 L 195.90 756.80 L 187.00 754.70 L 182.20 752.50 L 180.40 751.00 L 180.40 648.20 Z" fill="url(#linear-gradient)" fill-rule="nonzero" group-id="1,9,23" id="路径_1167" node-id="61" stroke="none" target-height="110.29999" target-width="76.399994" target-x="180.4" target-y="648.2"></path><path d="M 180.00 648.60 L 180.30 647.70 L 181.20 646.70 L 183.00 645.70 L 186.30 644.40 L 191.30 643.20 L 203.50 641.60 L 218.60 641.00 L 233.60 641.60 L 245.80 643.20 L 250.80 644.40 L 254.10 645.70 L 256.00 646.70 L 256.90 647.70 L 257.10 648.60 L 256.90 649.50 L 256.00 650.50 L 254.10 651.60 L 250.80 652.80 L 245.80 654.00 L 233.60 655.60 L 218.60 656.20 L 203.50 655.60 L 191.30 654.00 L 186.30 652.80 L 183.00 651.60 L 181.20 650.50 L 180.30 649.50 L 180.00 648.60 Z" fill="#b7bbc2" fill-rule="nonzero" group-id="1,9,24" id="椭圆_359" node-id="62" stroke="none" target-height="15.200012" target-width="77.100006" target-x="180" target-y="641"></path><path d="M 184.00 651.70 L 185.00 650.60 L 186.70 649.90 L 194.00 648.40 L 204.80 647.50 L 218.10 647.10 L 231.30 647.50 L 242.10 648.40 L 249.40 649.90 L 251.10 650.60 L 252.10 651.70 L 251.10 652.80 L 249.40 653.40 L 242.10 654.90 L 231.30 655.90 L 218.10 656.20 L 204.80 655.90 L 194.00 654.90 L 186.70 653.40 L 185.00 652.80 L 184.00 651.70 Z" fill="#769be5" fill-rule="nonzero" group-id="1,9,25" id="椭圆_360" node-id="63" stroke="none" target-height="9.100037" target-width="68.100006" target-x="184" target-y="647.1"></path><path d="M 233.30 624.20 L 232.30 620.10 L 230.60 615.50 L 229.80 614.30 L 226.00 610.40 L 225.30 608.90 L 224.50 606.70 L 223.50 601.60 L 223.20 596.10 L 223.50 593.60 L 224.60 590.60 L 225.20 589.90 L 227.80 588.90 L 229.60 587.50 L 231.30 585.70 L 232.80 583.50 L 233.90 581.00 L 234.40 578.60 L 234.40 577.00 L 233.30 574.30 L 231.70 572.70 L 223.90 568.90 L 221.20 566.40 L 219.70 562.80 L 219.30 559.50 L 220.20 547.10 L 219.90 544.90 L 219.40 543.60 L 218.50 542.50 L 217.10 541.70 L 214.60 541.10 L 211.90 541.00 L 209.20 541.60 L 206.50 542.60 L 204.10 543.90 L 202.00 545.60 L 200.30 547.50 L 198.20 551.30 L 196.70 552.70 L 190.20 556.60 L 189.20 557.60 L 188.80 558.70 L 189.10 560.00 L 189.70 561.60 L 193.70 567.60 L 194.30 569.40 L 191.00 572.10 L 188.90 575.10 L 188.00 577.10 L 186.80 582.30 L 186.00 583.60 L 181.60 586.80 L 180.90 588.00 L 180.50 589.90 L 180.60 592.30 L 182.20 600.20 L 182.60 604.80 L 182.10 607.30 L 180.40 610.40 L 180.00 612.00 L 178.70 621.00 L 178.40 627.10 L 178.70 629.00 L 180.20 632.10 L 181.40 633.40 L 183.20 634.50 L 185.60 635.50 L 192.20 636.90 L 198.90 636.90 L 209.60 635.50 L 221.80 634.70 L 228.10 633.20 L 229.90 632.30 L 232.50 629.90 L 233.20 628.40 L 233.50 626.60 L 233.30 624.20 Z" fill="#adbbb4" fill-rule="nonzero" group-id="1,9,26,70" id="路径_1168" node-id="65" stroke="none" target-height="95.900024" target-width="56" target-x="178.4" target-y="541"></path><path d="M 209.90 549.20 L 207.50 562.40 L 204.30 584.60 L 202.70 602.30 L 202.20 620.40 L 202.60 628.90 L 203.90 639.70 L 206.30 648.90 L 208.00 652.70 L 209.90 656.00" fill="none" group-id="1,9,26,71" id="路径_1169" node-id="66" stroke="#ababab" stroke-linecap="butt" stroke-width="0.6" target-height="106.79999" target-width="7.699997" target-x="202.2" target-y="549.2"></path><path d="M 215.10 559.20 L 206.20 570.50 L 201.50 564.20" fill="none" group-id="1,9,26,72" id="路径_1170" node-id="67" stroke="#ababab" stroke-linecap="butt" stroke-width="0.6" target-height="11.299988" target-width="13.600006" target-x="201.5" target-y="559.2"></path><path d="M 220.90 577.90 L 216.20 580.00 L 211.10 584.00 L 206.60 589.00 L 203.90 592.70 L 197.60 584.30 L 194.10 580.60" fill="none" group-id="1,9,26,73" id="路径_1171" node-id="68" stroke="#ababab" stroke-linecap="butt" stroke-width="0.6" target-height="14.799988" target-width="26.799988" target-x="194.1" target-y="577.9"></path><path d="M 219.00 601.60 L 216.00 603.00 L 212.90 605.00 L 210.00 607.50 L 207.40 610.00 L 202.00 616.50 L 200.00 611.90 L 196.40 605.70 L 192.00 600.90 L 187.80 598.40" fill="none" group-id="1,9,26,74" id="路径_1172" node-id="69" stroke="#ababab" stroke-linecap="butt" stroke-width="0.6" target-height="18.099976" target-width="31.199997" target-x="187.8" target-y="598.4"></path><path d="M 212.90 622.70 L 211.00 623.20 L 207.40 625.90 L 205.90 627.70 L 202.80 632.30 L 189.50 627.30" fill="none" group-id="1,9,26,75" id="路径_1173" node-id="70" stroke="#ababab" stroke-linecap="butt" stroke-width="0.6" target-height="9.599976" target-width="23.399994" target-x="189.5" target-y="622.7"></path><path d="M 196.60 618.20 L 197.80 613.30 L 199.80 607.90 L 200.80 606.50 L 205.20 601.80 L 206.10 600.10 L 207.10 597.40 L 208.30 591.30 L 208.60 584.80 L 208.30 581.80 L 207.00 578.30 L 206.20 577.50 L 203.90 576.60 L 200.90 574.60 L 198.90 572.40 L 197.20 569.80 L 195.90 566.90 L 195.30 564.00 L 195.30 562.10 L 195.80 560.40 L 196.60 558.90 L 198.50 557.00 L 200.70 555.70 L 207.80 552.50 L 209.90 550.80 L 211.00 549.40 L 212.80 545.10 L 213.30 541.20 L 213.20 537.30 L 212.20 526.50 L 212.50 523.90 L 213.20 522.30 L 214.20 521.10 L 215.90 520.10 L 219.90 519.20 L 222.00 519.30 L 225.30 519.90 L 228.40 521.10 L 231.40 522.80 L 235.30 526.20 L 238.90 532.20 L 242.10 534.60 L 247.90 537.80 L 249.30 539.40 L 249.50 540.30 L 249.20 541.90 L 248.40 543.80 L 243.70 550.90 L 243.00 553.00 L 246.80 556.30 L 249.40 559.80 L 250.40 562.30 L 251.60 567.60 L 252.20 569.00 L 254.20 571.10 L 258.10 573.80 L 259.10 575.80 L 259.40 577.50 L 259.30 580.30 L 257.40 589.70 L 256.90 595.20 L 257.50 598.10 L 259.50 601.90 L 260.00 603.70 L 261.50 614.40 L 261.90 621.70 L 261.60 623.90 L 260.80 625.80 L 259.80 627.60 L 258.30 629.10 L 256.20 630.40 L 253.30 631.60 L 245.50 633.30 L 237.50 633.30 L 224.80 631.60 L 210.30 630.70 L 206.30 630.00 L 202.80 628.90 L 200.60 627.80 L 198.90 626.50 L 197.60 625.00 L 196.70 623.20 L 196.40 621.00 L 196.60 618.20 Z" fill="#cbd7d1" fill-rule="nonzero" group-id="1,9,27,76" id="路径_1168-2" node-id="72" stroke="none" target-height="114.099976" target-width="66.59999" target-x="195.3" target-y="519.2"></path><path d="M 224.40 529.00 L 227.30 544.70 L 231.10 571.10 L 233.00 592.20 L 233.50 603.00 L 233.60 613.70 L 233.10 623.80 L 231.50 636.60 L 230.30 642.10 L 228.70 647.60 L 226.70 652.10 L 224.40 656.00" fill="none" group-id="1,9,27,77" id="路径_1169-2" node-id="73" stroke="#707070" stroke-linecap="butt" stroke-width="0.6" target-height="127" target-width="9.200012" target-x="224.4" target-y="529"></path><path d="M 218.20 540.90 L 228.80 554.40 L 234.50 546.90" fill="none" group-id="1,9,27,78" id="路径_1170-2" node-id="74" stroke="#707070" stroke-linecap="butt" stroke-width="0.6" target-height="13.5" target-width="16.300003" target-x="218.2" target-y="540.9"></path><path d="M 211.30 563.10 L 217.00 565.70 L 223.00 570.40 L 228.40 576.30 L 231.50 580.70 L 239.00 570.70 L 243.20 566.40" fill="none" group-id="1,9,27,79" id="路径_1171-2" node-id="75" stroke="#707070" stroke-linecap="butt" stroke-width="0.6" target-height="17.600037" target-width="31.899994" target-x="211.3" target-y="563.1"></path><path d="M 213.60 591.40 L 216.50 592.60 L 222.30 596.50 L 227.40 601.40 L 233.80 609.00 L 238.10 599.90 L 242.20 594.10 L 246.60 589.80 L 250.70 587.50" fill="none" group-id="1,9,27,80" id="路径_1172-2" node-id="76" stroke="#707070" stroke-linecap="butt" stroke-width="0.6" target-height="21.5" target-width="37.09999" target-x="213.6" target-y="587.5"></path><path d="M 220.90 616.40 L 223.80 617.40 L 227.30 620.30 L 229.10 622.40 L 232.90 627.90 L 248.70 621.80" fill="none" group-id="1,9,27,81" id="路径_1173-2" node-id="77" stroke="#707070" stroke-linecap="butt" stroke-width="0.6" target-height="11.5" target-width="27.800003" target-x="220.9" target-y="616.4"></path><path d="M 727.00 197.20 L 729.90 197.50 L 732.60 198.20 L 735.00 199.40 L 737.30 201.00 L 739.20 202.90 L 740.80 205.10 L 742.00 207.60 L 742.70 210.30 L 743.00 213.20 L 743.00 707.80 L 742.70 710.70 L 742.00 713.40 L 740.80 715.90 L 739.20 718.10 L 737.30 720.00 L 735.00 721.60 L 732.60 722.80 L 729.90 723.50 L 727.00 723.80 L 517.10 723.80 L 514.20 723.50 L 511.50 722.80 L 509.00 721.60 L 506.80 720.00 L 504.90 718.10 L 503.30 715.90 L 502.10 713.40 L 501.40 710.70 L 501.10 707.80 L 501.10 213.20 L 501.40 210.30 L 502.10 207.60 L 503.30 205.10 L 504.90 202.90 L 506.80 201.00 L 509.00 199.40 L 511.50 198.20 L 514.20 197.50 L 517.10 197.20 Z" fill="#458cfb" fill-rule="nonzero" group-id="1,10,28" id="矩形_1402-2" node-id="79" stroke="none" target-height="526.6" target-width="241.9" target-x="501.1" target-y="197.2"></path><path d="M 714.50 240.00 L 718.00 240.60 L 719.60 241.40 L 722.20 243.60 L 723.90 246.50 L 724.50 250.00 L 724.50 694.30 L 723.90 697.80 L 722.20 700.80 L 719.60 702.90 L 718.00 703.70 L 714.50 704.30 L 529.70 704.30 L 527.80 704.10 L 524.60 702.90 L 522.00 700.80 L 520.30 697.80 L 519.70 694.30 L 519.70 250.00 L 520.30 246.50 L 522.00 243.60 L 524.60 241.40 L 526.20 240.60 L 529.70 240.00 Z" fill="#cde2fc" fill-rule="nonzero" group-id="1,10,29" id="矩形_1404-2" node-id="80" stroke="none" target-height="464.3" target-width="204.79999" target-x="519.7" target-y="240"></path><path d="M 533.90 222.10 L 534.10 220.60 L 535.50 218.30 L 537.90 216.90 L 539.40 216.70 L 540.80 216.90 L 543.20 218.30 L 544.60 220.60 L 544.80 222.10 L 544.60 223.60 L 543.20 226.00 L 540.80 227.40 L 539.40 227.60 L 537.90 227.40 L 535.50 226.00 L 534.10 223.60 L 533.90 222.10 Z" fill="#152e77" fill-rule="nonzero" group-id="1,10,30,82" id="椭圆_365-2" node-id="82" stroke="none" target-height="10.900009" target-width="10.899963" target-x="533.9" target-y="216.7"></path><path d="M 699.00 222.10 L 699.20 220.60 L 700.60 218.30 L 703.00 216.90 L 704.50 216.70 L 705.90 216.90 L 708.30 218.30 L 709.70 220.60 L 709.90 222.10 L 709.70 223.60 L 708.30 226.00 L 705.90 227.40 L 704.50 227.60 L 703.00 227.40 L 700.60 226.00 L 699.20 223.60 L 699.00 222.10 Z" fill="#152e77" fill-rule="nonzero" group-id="1,10,30,83" id="椭圆_366-2" node-id="83" stroke="none" target-height="10.900009" target-width="10.900024" target-x="699" target-y="216.7"></path><path d="M 665.10 216.70 L 666.60 216.90 L 669.00 218.30 L 670.40 220.60 L 670.60 222.10 L 670.40 223.60 L 669.00 226.00 L 666.60 227.40 L 665.10 227.60 L 577.60 227.60 L 576.10 227.40 L 573.80 226.00 L 572.40 223.60 L 572.20 222.10 L 572.40 220.60 L 573.80 218.30 L 576.10 216.90 L 577.60 216.70 Z" fill="#152e77" fill-rule="nonzero" group-id="1,10,30,84" id="矩形_1431-2" node-id="84" stroke="none" target-height="10.900009" target-width="98.39996" target-x="572.2" target-y="216.7"></path><path d="M 695.10 263.80 L 698.60 264.40 L 701.50 266.10 L 703.70 268.70 L 704.40 270.30 L 705.10 273.80 L 705.10 454.30 L 704.40 457.80 L 703.70 459.40 L 701.50 462.00 L 698.60 463.70 L 695.10 464.30 L 548.80 464.30 L 545.30 463.70 L 543.70 463.00 L 541.10 460.80 L 539.40 457.80 L 538.80 454.30 L 538.80 273.80 L 539.40 270.30 L 541.10 267.30 L 543.70 265.10 L 545.30 264.40 L 548.80 263.80 Z" fill="#ffffff" fill-rule="nonzero" group-id="1,10,31,85" id="矩形_1433" node-id="86" stroke="none" target-height="200.5" target-width="166.29999" target-x="538.8" target-y="263.8"></path><path d="M 617.20 281.50 L 618.70 281.70 L 621.20 283.20 L 622.70 285.70 L 622.90 287.20 L 622.70 288.80 L 621.20 291.30 L 618.70 292.80 L 617.20 293.00 L 556.80 292.80 L 554.20 291.40 L 553.30 290.20 L 552.70 288.70 L 552.70 285.80 L 553.30 284.30 L 554.20 283.10 L 556.80 281.70 L 558.30 281.50 Z" fill="#cfe2fa" fill-rule="nonzero" group-id="1,10,31,86" id="矩形_1434" node-id="87" stroke="none" target-height="11.5" target-width="70.20001" target-x="552.7" target-y="281.5"></path><path d="M 686.50 281.50 L 688.10 281.70 L 690.60 283.10 L 691.60 284.30 L 692.40 287.20 L 692.20 288.70 L 691.60 290.20 L 690.60 291.40 L 688.10 292.80 L 686.50 293.00 L 641.90 292.80 L 639.30 291.40 L 638.40 290.20 L 637.80 288.70 L 637.80 285.80 L 638.40 284.30 L 639.30 283.10 L 641.90 281.70 L 643.50 281.50 Z" fill="#5095fe" fill-rule="nonzero" group-id="1,10,31,87" id="矩形_1435" node-id="88" stroke="none" target-height="11.5" target-width="54.600037" target-x="637.8" target-y="281.5"></path><path d="M 634.50 306.70 L 635.40 306.80 L 636.80 307.60 L 637.30 308.20 L 637.80 309.80 L 637.30 311.40 L 636.80 312.10 L 635.40 312.90 L 634.50 313.00 L 555.70 313.00 L 554.90 312.90 L 553.40 312.10 L 552.90 311.40 L 552.50 309.80 L 552.90 308.20 L 553.40 307.60 L 554.90 306.80 L 555.70 306.70 Z" fill="#5095fe" fill-rule="nonzero" group-id="1,10,31,88" id="矩形_1436" node-id="89" stroke="none" target-height="6.299988" target-width="85.29999" target-x="552.5" target-y="306.7"></path><path d="M 594.60 319.30 L 595.40 319.40 L 596.90 320.20 L 597.40 320.80 L 597.90 322.40 L 597.40 324.10 L 596.90 324.70 L 595.40 325.50 L 594.60 325.60 L 554.90 325.50 L 553.40 324.70 L 552.90 324.10 L 552.60 323.30 L 552.60 321.60 L 553.40 320.20 L 554.90 319.40 L 555.70 319.30 Z" fill="#5095fe" fill-rule="nonzero" group-id="1,10,31,89" id="矩形_1437" node-id="90" stroke="none" target-height="6.3000183" target-width="45.30005" target-x="552.6" target-y="319.3"></path><path d="M 690.20 339.30 L 691.70 339.90 L 692.30 341.40 L 691.70 342.80 L 690.20 343.50 L 554.70 343.50 L 553.20 342.80 L 552.60 341.40 L 553.20 339.90 L 554.70 339.30 Z" fill="#cfe2fa" fill-rule="nonzero" group-id="1,10,31,90" id="矩形_1438" node-id="91" stroke="none" target-height="4.200012" target-width="139.70001" target-x="552.6" target-y="339.3"></path><path d="M 690.20 358.20 L 691.70 358.80 L 692.30 360.30 L 691.70 361.80 L 690.20 362.40 L 554.70 362.40 L 553.20 361.80 L 552.60 360.30 L 553.20 358.80 L 554.70 358.20 Z" fill="#cfe2fa" fill-rule="nonzero" group-id="1,10,31,91" id="矩形_1439" node-id="92" stroke="none" target-height="4.1999817" target-width="139.70001" target-x="552.6" target-y="358.2"></path><path d="M 690.20 377.10 L 691.70 377.70 L 692.30 379.20 L 691.70 380.70 L 690.20 381.30 L 554.70 381.30 L 553.20 380.70 L 552.60 379.20 L 553.20 377.70 L 554.70 377.10 Z" fill="#cfe2fa" fill-rule="nonzero" group-id="1,10,31,92" id="矩形_1440" node-id="93" stroke="none" target-height="4.1999817" target-width="139.70001" target-x="552.6" target-y="377.1"></path><path d="M 689.70 394.90 L 691.50 395.70 L 692.30 397.60 L 691.50 399.40 L 689.70 400.20 L 555.20 400.20 L 553.50 399.60 L 552.60 398.00 L 552.90 396.20 L 553.50 395.50 L 555.20 394.90 Z" fill="#cfe2fa" fill-rule="nonzero" group-id="1,10,31,93" id="矩形_1441" node-id="94" stroke="none" target-height="5.3000183" target-width="139.70001" target-x="552.6" target-y="394.9"></path><path d="M 687.10 413.90 L 688.50 414.10 L 690.80 415.40 L 692.10 417.70 L 692.30 419.10 L 692.10 420.50 L 690.80 422.80 L 688.50 424.20 L 687.10 424.40 L 557.80 424.40 L 556.40 424.20 L 554.10 422.80 L 552.80 420.50 L 552.60 419.10 L 552.80 417.70 L 554.10 415.40 L 556.40 414.10 L 557.80 413.90 Z" fill="#cfe2fa" fill-rule="nonzero" group-id="1,10,31,94" id="矩形_1442" node-id="95" stroke="none" target-height="10.5" target-width="139.70001" target-x="552.6" target-y="413.9"></path><path d="M 623.50 424.40 L 625.00 424.60 L 627.50 426.10 L 629.00 428.60 L 629.20 430.10 L 629.00 431.70 L 627.50 434.20 L 625.00 435.70 L 623.50 435.90 L 556.80 435.70 L 554.20 434.30 L 553.30 433.10 L 552.70 431.60 L 552.70 428.60 L 553.30 427.20 L 554.20 426.00 L 556.80 424.50 L 558.30 424.40 Z" fill="#cfe2fa" fill-rule="nonzero" group-id="1,10,31,95" id="矩形_1443" node-id="96" stroke="none" target-height="11.5" target-width="76.5" target-x="552.7" target-y="424.4"></path><path d="M 675.50 435.90 L 676.90 436.10 L 679.20 437.50 L 680.50 439.70 L 680.70 441.20 L 680.50 442.60 L 679.20 444.90 L 676.90 446.20 L 675.50 446.40 L 557.80 446.40 L 556.40 446.20 L 554.10 444.90 L 552.80 442.60 L 552.60 441.20 L 552.80 439.70 L 554.10 437.50 L 556.40 436.10 L 557.80 435.90 Z" fill="#cfe2fa" fill-rule="nonzero" group-id="1,10,31,96" id="矩形_1444" node-id="97" stroke="none" target-height="10.5" target-width="128.10004" target-x="552.6" target-y="435.9"></path><path d="M 695.10 480.80 L 698.60 481.40 L 701.50 483.10 L 703.70 485.70 L 704.40 487.30 L 705.10 490.80 L 705.10 671.40 L 704.40 674.90 L 702.70 677.80 L 700.10 680.00 L 698.60 680.70 L 695.10 681.40 L 548.80 681.40 L 545.30 680.70 L 543.70 680.00 L 541.10 677.80 L 539.40 674.90 L 538.80 671.40 L 538.80 490.80 L 539.40 487.30 L 541.10 484.30 L 543.70 482.10 L 545.30 481.40 L 548.80 480.80 Z" fill="#ffffff" fill-rule="nonzero" group-id="1,10,32,97" id="矩形_1433-2" node-id="99" stroke="none" target-height="200.60004" target-width="166.29999" target-x="538.8" target-y="480.8"></path><path d="M 617.00 498.60 L 618.50 498.90 L 620.90 500.20 L 622.20 502.60 L 622.50 504.10 L 622.20 505.60 L 620.90 508.00 L 618.50 509.40 L 617.00 509.60 L 557.90 509.60 L 556.50 509.40 L 555.20 508.80 L 553.20 506.90 L 552.50 504.10 L 552.70 502.60 L 554.10 500.20 L 556.50 498.90 L 557.90 498.60 Z" fill="#cfe2fa" fill-rule="nonzero" group-id="1,10,32,98" id="矩形_1434-2" node-id="100" stroke="none" target-height="11" target-width="70" target-x="552.5" target-y="498.6"></path><path d="M 687.00 498.60 L 688.40 498.90 L 690.80 500.20 L 692.20 502.60 L 692.40 504.10 L 692.20 505.60 L 690.80 508.00 L 688.40 509.40 L 687.00 509.60 L 643.20 509.60 L 641.70 509.40 L 640.50 508.80 L 638.50 506.90 L 637.80 504.10 L 638.00 502.60 L 639.40 500.20 L 641.70 498.90 L 643.20 498.60 Z" fill="#5095fe" fill-rule="nonzero" group-id="1,10,32,99" id="矩形_1435-2" node-id="101" stroke="none" target-height="11" target-width="54.600037" target-x="637.8" target-y="498.6"></path><path d="M 634.50 523.80 L 635.80 524.10 L 636.80 524.80 L 637.50 525.80 L 637.80 527.10 L 637.50 528.40 L 636.80 529.40 L 635.80 530.10 L 634.50 530.40 L 555.80 530.40 L 554.50 530.10 L 553.40 529.40 L 552.70 528.40 L 552.50 527.10 L 552.70 525.80 L 553.40 524.80 L 554.50 524.10 L 555.80 523.80 Z" fill="#5095fe" fill-rule="nonzero" group-id="1,10,32,100" id="矩形_1436-2" node-id="102" stroke="none" target-height="6.6000366" target-width="85.29999" target-x="552.5" target-y="523.8"></path><path d="M 594.00 535.80 L 595.30 536.10 L 596.30 536.80 L 597.00 537.80 L 597.30 539.10 L 597.00 540.40 L 596.30 541.40 L 595.30 542.10 L 594.00 542.40 L 555.80 542.40 L 554.50 542.10 L 553.40 541.40 L 552.70 540.40 L 552.50 539.10 L 552.70 537.80 L 553.40 536.80 L 554.50 536.10 L 555.80 535.80 Z" fill="#5095fe" fill-rule="nonzero" group-id="1,10,32,101" id="矩形_1437-2" node-id="103" stroke="none" target-height="6.6000366" target-width="44.799988" target-x="552.5" target-y="535.8"></path><path d="M 690.20 556.60 L 691.80 557.20 L 692.40 558.80 L 691.80 560.30 L 690.20 561.00 L 554.70 561.00 L 553.10 560.30 L 552.50 558.80 L 553.10 557.20 L 554.70 556.60 Z" fill="#cfe2fa" fill-rule="nonzero" group-id="1,10,32,102" id="矩形_1438-2" node-id="104" stroke="none" target-height="4.4000244" target-width="139.90002" target-x="552.5" target-y="556.6"></path><path d="M 690.20 575.20 L 691.80 575.80 L 692.40 577.40 L 691.80 578.90 L 690.20 579.60 L 554.70 579.60 L 553.10 578.90 L 552.50 577.40 L 553.10 575.80 L 554.70 575.20 Z" fill="#cfe2fa" fill-rule="nonzero" group-id="1,10,32,103" id="矩形_1439-2" node-id="105" stroke="none" target-height="4.3999634" target-width="139.90002" target-x="552.5" target-y="575.2"></path><path d="M 690.20 593.80 L 691.80 594.40 L 692.40 596.00 L 691.80 597.50 L 690.20 598.10 L 554.70 598.10 L 553.10 597.50 L 552.50 596.00 L 553.10 594.40 L 554.70 593.80 Z" fill="#cfe2fa" fill-rule="nonzero" group-id="1,10,32,104" id="矩形_1440-2" node-id="106" stroke="none" target-height="4.299988" target-width="139.90002" target-x="552.5" target-y="593.8"></path><path d="M 690.20 612.40 L 691.80 613.00 L 692.40 614.50 L 691.80 616.10 L 690.20 616.70 L 554.70 616.70 L 553.10 616.10 L 552.50 614.50 L 553.10 613.00 L 554.70 612.40 Z" fill="#cfe2fa" fill-rule="nonzero" group-id="1,10,32,105" id="矩形_1441-2" node-id="107" stroke="none" target-height="4.299988" target-width="139.90002" target-x="552.5" target-y="612.4"></path><path d="M 687.00 630.90 L 688.50 631.20 L 690.80 632.50 L 692.20 634.90 L 692.40 636.40 L 692.20 637.90 L 690.80 640.30 L 688.50 641.70 L 687.00 641.90 L 557.90 641.90 L 556.50 641.70 L 554.10 640.30 L 552.70 637.90 L 552.50 636.40 L 552.70 634.90 L 554.10 632.50 L 556.50 631.20 L 557.90 630.90 Z" fill="#cfe2fa" fill-rule="nonzero" group-id="1,10,32,106" id="矩形_1442-2" node-id="108" stroke="none" target-height="11" target-width="139.90002" target-x="552.5" target-y="630.9"></path><path d="M 623.50 641.90 L 625.00 642.10 L 627.40 643.50 L 628.80 645.90 L 629.00 647.30 L 628.80 648.80 L 627.40 651.20 L 625.00 652.60 L 623.50 652.80 L 557.90 652.80 L 556.50 652.60 L 555.20 652.10 L 553.20 650.10 L 552.50 647.30 L 552.70 645.90 L 554.10 643.50 L 556.50 642.10 L 557.90 641.90 Z" fill="#cfe2fa" fill-rule="nonzero" group-id="1,10,32,107" id="矩形_1443-2" node-id="109" stroke="none" target-height="10.899963" target-width="76.5" target-x="552.5" target-y="641.9"></path><path d="M 674.90 652.80 L 676.40 653.00 L 678.80 654.40 L 680.20 656.80 L 680.40 658.30 L 680.20 659.80 L 678.80 662.10 L 676.40 663.50 L 674.90 663.70 L 557.90 663.70 L 556.50 663.50 L 554.10 662.10 L 552.70 659.80 L 552.50 658.30 L 552.70 656.80 L 554.10 654.40 L 556.50 653.00 L 557.90 652.80 Z" fill="#cfe2fa" fill-rule="nonzero" group-id="1,10,32,108" id="矩形_1444-2" node-id="110" stroke="none" target-height="10.900024" target-width="127.900024" target-x="552.5" target-y="652.8"></path><path d="M 426.60 750.90 L 417.10 750.90 L 417.10 737.10 L 426.40 738.90 Z" fill="#c77760" fill-rule="nonzero" group-id="1,11,33,109,121" id="路径_1163" node-id="114" stroke="none" target-height="13.800049" target-width="9.5" target-x="417.1" target-y="737.1"></path><path d="M 417.20 747.00 L 416.90 758.50 L 448.50 757.90 L 447.50 756.40 L 443.80 754.00 L 434.30 749.70 L 426.60 747.00 Z" fill="#272f31" fill-rule="nonzero" group-id="1,11,33,109,122" id="路径_1164" node-id="115" stroke="none" target-height="11.5" target-width="31.600006" target-x="416.9" target-y="747"></path><path d="M 488.60 750.90 L 479.10 750.90 L 479.10 737.10 L 488.40 738.90 Z" fill="#c77760" fill-rule="nonzero" group-id="1,11,33,110,123" id="路径_1163-2" node-id="117" stroke="none" target-height="13.800049" target-width="9.5" target-x="479.1" target-y="737.1"></path><path d="M 479.20 747.00 L 478.90 758.50 L 510.50 757.90 L 509.50 756.40 L 505.80 754.00 L 496.30 749.70 L 488.60 747.00 Z" fill="#272f31" fill-rule="nonzero" group-id="1,11,33,110,124" id="路径_1164-2" node-id="118" stroke="none" target-height="11.5" target-width="31.600006" target-x="478.9" target-y="747"></path><path d="M 422.80 668.90 L 420.60 688.50 L 416.50 743.30 L 429.50 743.50 L 441.40 680.10 L 445.10 658.20 L 448.10 634.90 L 450.40 608.30 L 467.40 662.30 L 476.50 741.10 L 490.60 741.10 L 487.00 656.90 L 482.40 622.50 L 473.60 562.50 L 425.50 569.50 L 424.70 632.50 L 423.60 661.40 L 422.80 668.90 Z" fill="#151f5d" fill-rule="nonzero" group-id="1,11,33,111" id="路径_1199" node-id="119" stroke="none" target-height="181" target-width="74.100006" target-x="416.5" target-y="562.5"></path><path d="M 455.40 467.20 L 454.10 468.40 L 452.60 469.20 L 448.00 470.20 L 448.70 488.80 L 435.30 488.80 L 436.10 470.20 L 434.20 468.60 L 432.50 466.80 L 431.20 464.70 L 429.90 460.60 L 429.80 452.70 L 430.60 447.20 L 431.30 444.80 L 432.80 442.00 L 434.30 441.40 L 443.90 443.40 L 456.40 446.90 L 456.60 458.80 L 456.30 463.90 L 455.40 467.20 Z" fill="#be6d5c" fill-rule="nonzero" group-id="1,11,34" id="路径_1188" node-id="120" stroke="none" target-height="47.399994" target-width="26.800018" target-x="429.8" target-y="441.4"></path><path d="M 433.40 467.70 L 435.10 468.40 L 439.50 468.70 L 447.40 467.40 L 448.30 461.20 L 448.90 458.90 L 450.10 455.80 L 451.40 455.00 L 454.50 454.60 L 456.10 454.10 L 457.40 453.30 L 458.40 452.10 L 458.80 450.70 L 458.80 449.20 L 457.30 444.90 L 457.50 444.40 L 460.70 442.40 L 461.40 441.60 L 461.90 440.60 L 462.10 439.20 L 461.20 437.20 L 458.40 434.80 L 456.20 433.50 L 451.50 431.90 L 449.20 431.60 L 444.10 432.00 L 439.40 431.40 L 437.40 431.40 L 433.20 432.30 L 431.30 433.10 L 429.80 434.20 L 428.70 435.60 L 427.30 439.80 L 425.80 442.40 L 425.50 443.40 L 425.10 447.90 L 425.50 454.20 L 426.10 457.50 L 427.10 460.70 L 428.60 463.60 L 429.90 465.20 L 431.50 466.60 L 433.40 467.70 Z" fill="#192360" fill-rule="nonzero" group-id="1,11,35" id="路径_1189" node-id="121" stroke="none" target-height="37.30002" target-width="37" target-x="425.1" target-y="431.4"></path><path d="M 448.50 478.80 L 454.20 478.80 L 452.40 481.10 L 449.40 483.90 L 447.30 485.10 L 445.00 485.90 L 442.30 486.10 L 439.50 485.70 L 434.50 483.90 L 432.40 482.70 L 428.10 479.60 L 435.60 479.50 L 438.50 480.40 L 442.60 481.00 L 446.10 480.40 L 448.50 478.80 Z" fill="#ffffff" fill-rule="nonzero" group-id="1,11,36" id="路径_1190" node-id="122" stroke="none" target-height="7.3000183" target-width="26.100006" target-x="428.1" target-y="478.8"></path><path d="M 424.10 571.20 L 432.30 573.90 L 440.90 575.50 L 445.80 575.80 L 451.20 575.70 L 456.00 575.10 L 464.40 573.40 L 471.50 570.80 L 474.10 569.30 L 476.50 567.50 L 478.00 565.60 L 478.90 563.60 L 477.70 558.60 L 476.20 556.00 L 424.10 567.30 Z" fill="#ffffff" fill-rule="nonzero" group-id="1,11,37" id="路径_1192" node-id="123" stroke="none" target-height="19.799988" target-width="54.799988" target-x="424.1" target-y="556"></path><path d="M 404.90 589.80 L 408.00 592.90 L 411.90 595.20 L 413.80 595.80 L 415.30 595.90 L 416.60 595.10 L 416.90 594.30 L 416.20 590.70 L 410.40 578.20 L 408.50 568.70 L 400.50 570.60 L 400.50 574.80 L 401.60 580.60 L 402.90 585.50 L 404.90 589.80 Z" fill="#c46956" fill-rule="nonzero" group-id="1,11,38" id="路径_1194" node-id="124" stroke="none" target-height="27.200012" target-width="16.399994" target-x="400.5" target-y="568.7"></path><path d="M 399.50 579.10 L 403.20 579.70 L 405.70 579.70 L 408.40 579.30 L 411.20 578.30 L 409.80 571.40 L 399.50 574.20 Z" fill="#ffffff" fill-rule="nonzero" group-id="1,11,39" id="路径_1195" node-id="125" stroke="none" target-height="8.299988" target-width="11.700012" target-x="399.5" target-y="571.4"></path><path d="M 402.60 513.60 L 398.30 523.90 L 396.40 530.70 L 396.10 533.70 L 396.50 547.60 L 397.90 573.80 L 403.30 575.00 L 405.60 575.20 L 410.00 574.70 L 411.70 573.80 L 411.40 562.20 L 409.90 536.20 L 421.30 511.20 L 421.30 510.50 L 419.40 502.40 L 417.40 495.50 L 415.40 489.90 L 414.10 487.50 L 412.80 489.50 L 410.60 494.30 L 402.60 513.60 Z" fill="#4165ff" fill-rule="nonzero" group-id="1,11,40" id="路径_1193" node-id="126" stroke="none" target-height="87.70001" target-width="25.199982" target-x="396.1" target-y="487.5"></path><path d="M 511.70 437.20 L 512.40 430.40 L 512.70 429.80 L 513.40 429.70 L 514.00 430.10 L 514.60 431.20 L 515.30 435.90 L 518.80 424.10 L 519.80 422.30 L 520.40 422.20 L 522.40 423.20 L 521.00 433.30 L 526.30 436.00 L 528.50 438.20 L 528.90 439.30 L 528.20 443.10 L 526.50 446.70 L 525.40 448.00 L 522.40 450.90 L 518.30 452.00 L 514.70 447.00 L 513.10 444.10 L 511.80 439.70 L 511.70 437.20 Z" fill="#b36a59" fill-rule="nonzero" group-id="1,11,41" id="路径_1197" node-id="127" stroke="none" target-height="29.799988" target-width="17.200012" target-x="511.7" target-y="422.2"></path><path d="M 514.00 445.90 L 521.90 446.80 L 524.30 447.90 L 524.60 449.20 L 522.60 452.70 L 521.10 454.20 L 512.90 450.20 L 513.40 447.90 Z" fill="#ffffff" fill-rule="nonzero" group-id="1,11,42" id="路径_1198" node-id="128" stroke="none" target-height="8.300018" target-width="11.699951" target-x="512.9" target-y="445.9"></path><path d="M 494.80 478.30 L 500.20 470.00 L 513.40 448.10 L 518.00 447.90 L 521.70 448.20 L 523.30 448.80 L 524.40 449.50 L 524.60 451.10 L 523.10 456.30 L 517.50 469.50 L 508.20 488.50 L 506.70 490.60 L 505.40 491.70 L 503.50 492.90 L 501.30 493.70 L 498.20 494.30 L 469.00 498.10 L 457.00 483.40 L 464.70 479.50 L 486.40 479.00 L 494.80 478.30 Z" fill="#3e68f8" fill-rule="nonzero" group-id="1,11,43" id="路径_1196" node-id="129" stroke="none" target-height="50.200012" target-width="67.599976" target-x="457" target-y="447.9"></path><path d="M 414.00 487.90 L 415.50 490.60 L 416.70 494.00 L 418.10 501.30 L 418.70 508.30 L 418.70 515.70 L 424.10 567.80 L 428.80 569.50 L 433.60 570.80 L 438.50 571.60 L 443.40 572.00 L 448.40 571.90 L 453.40 571.40 L 461.10 569.60 L 468.60 566.30 L 474.80 562.30 L 478.10 559.20 L 476.10 523.70 L 474.30 502.40 L 473.30 497.60 L 471.00 496.30 L 469.20 494.90 L 467.90 493.40 L 466.40 490.70 L 465.60 488.00 L 465.30 485.20 L 465.40 479.60 L 461.10 478.80 L 456.80 478.60 L 452.50 479.00 L 450.40 481.10 L 448.00 482.60 L 445.30 483.70 L 442.40 484.10 L 440.40 484.10 L 436.60 483.10 L 433.30 481.00 L 431.80 479.60 L 426.40 479.90 L 421.50 481.10 L 419.10 482.20 L 415.70 484.80 L 414.00 487.90 Z" fill="#1a2261" fill-rule="nonzero" group-id="1,11,44" id="路径_1191" node-id="130" stroke="none" target-height="93.399994" target-width="64.100006" target-x="414" target-y="478.6"></path><path d="M 802.20 478.30 L 789.90 477.00 L 788.50 459.20 L 801.40 464.90 Z" fill="#f9b272" fill-rule="nonzero" group-id="1,12,45" id="路径_1174" node-id="132" stroke="none" target-height="19.099976" target-width="13.700012" target-x="788.5" target-y="459.2"></path><path d="M 794.00 430.80 L 788.80 431.60 L 784.90 433.60 L 782.00 436.30 L 779.20 440.90 L 777.60 446.40 L 775.30 469.20 L 811.20 469.20 L 811.20 446.40 L 810.10 442.30 L 809.10 440.10 L 806.20 435.80 L 804.00 433.90 L 801.30 432.30 L 799.20 431.50 L 794.00 430.80 Z" fill="#18255a" fill-rule="nonzero" group-id="1,12,46" id="路径_1175" node-id="133" stroke="none" target-height="38.400024" target-width="35.900024" target-x="775.3" target-y="430.8"></path><path d="M 718.60 451.70 L 716.60 445.90 L 715.80 444.30 L 714.60 443.10 L 714.00 443.10 L 713.60 443.50 L 714.20 448.40 L 713.90 450.00 L 712.70 450.50 L 711.60 450.30 L 710.10 449.00 L 709.50 447.40 L 709.20 445.00 L 709.20 437.90 L 708.70 437.10 L 708.10 437.40 L 707.20 438.50 L 704.90 443.80 L 704.30 452.10 L 704.70 456.40 L 705.40 458.30 L 707.80 462.30 L 709.60 464.30 L 711.80 466.00 L 715.10 467.60 L 716.90 467.90 L 718.60 467.80 L 719.70 467.30 L 720.40 466.70 L 720.80 465.40 L 720.70 463.80 L 719.20 461.00 L 719.60 456.30 L 718.60 451.70 Z" fill="#f9b272" fill-rule="nonzero" group-id="1,12,47" id="路径_1181" node-id="134" stroke="none" target-height="30.799988" target-width="16.5" target-x="704.3" target-y="437.1"></path><path d="M 825.20 588.10 L 824.10 588.80 L 823.20 588.80 L 822.40 588.10 L 821.40 586.40 L 819.90 580.30 L 819.20 573.10 L 819.50 567.50 L 821.80 562.60 L 823.20 558.70 L 824.30 553.70 L 825.30 553.20 L 826.40 553.50 L 827.80 554.20 L 831.30 557.00 L 830.70 566.40 L 828.80 579.10 L 827.00 585.10 L 825.20 588.10 Z" fill="#f1ab7a" fill-rule="nonzero" group-id="1,12,48" id="路径_1187" node-id="135" stroke="none" target-height="35.599976" target-width="12.099976" target-x="819.2" target-y="553.2"></path><path d="M 815.00 664.50 L 816.20 670.10 L 818.80 695.10 L 820.80 724.80 L 821.10 740.50 L 821.00 742.50 L 820.30 745.00 L 819.30 746.70 L 816.80 748.90 L 813.50 749.90 L 812.00 738.40 L 809.30 722.10 L 806.80 712.00 L 804.00 704.30 L 802.70 699.20 L 800.80 688.80 L 798.50 673.10 L 796.40 663.60 L 796.10 659.70 L 796.50 654.30 L 797.20 651.30 L 797.90 649.60 L 800.10 646.80 L 802.30 645.30 L 807.40 643.20 L 809.90 642.60 L 815.80 641.90 L 814.80 648.30 L 814.10 657.30 L 814.50 662.70 L 815.00 664.50 Z" fill="#fca677" fill-rule="nonzero" group-id="1,12,49,112" id="路径_1183" node-id="137" stroke="none" target-height="108" target-width="25" target-x="796.1" target-y="641.9"></path><path d="M 821.30 761.70 L 817.70 761.70 L 817.70 750.60 L 808.70 758.60 L 806.10 761.90 L 789.80 762.10 L 791.40 758.20 L 792.70 756.10 L 794.80 753.90 L 797.30 752.00 L 804.30 748.40 L 807.10 746.60 L 813.00 741.80 L 821.30 741.50 Z" fill="#2c353a" fill-rule="nonzero" group-id="1,12,49,113" id="路径_1184" node-id="138" stroke="none" target-height="20.599976" target-width="31.5" target-x="789.8" target-y="741.5"></path><path d="M 759.30 657.20 L 765.30 743.70 L 765.70 745.90 L 766.60 748.30 L 768.10 749.40 L 770.10 749.20 L 771.30 748.70 L 774.10 746.40 L 775.70 715.80 L 776.70 704.90 L 778.70 690.80 L 779.60 678.90 L 779.80 661.10 L 779.20 652.20 L 778.80 649.00 L 778.40 648.00 L 777.70 647.40 L 772.10 645.40 L 762.60 643.10 L 760.60 649.00 L 759.50 653.60 L 759.30 657.20 Z" fill="#fba572" fill-rule="nonzero" group-id="1,12,49,114" id="路径_1186" node-id="139" stroke="none" target-height="106.30005" target-width="20.5" target-x="759.3" target-y="643.1"></path><path d="M 775.00 761.70 L 771.30 761.70 L 771.30 750.60 L 762.40 758.60 L 759.70 761.90 L 743.50 762.10 L 745.00 758.20 L 746.40 756.10 L 748.40 753.90 L 750.90 752.00 L 757.90 748.40 L 760.70 746.60 L 766.60 741.80 L 775.00 741.50 Z" fill="#2c353a" fill-rule="nonzero" group-id="1,12,49,115" id="路径_1185" node-id="140" stroke="none" target-height="20.599976" target-width="31.5" target-x="743.5" target-y="741.5"></path><path d="M 824.80 593.40 L 822.50 654.80 L 815.90 656.40 L 810.50 657.20 L 804.50 657.80 L 791.60 657.90 L 779.30 656.60 L 772.90 655.40 L 766.00 653.70 L 758.60 651.40 L 760.50 633.00 L 762.80 614.70 L 765.50 596.50 L 768.80 578.40 L 772.50 560.30 L 773.30 557.50 L 774.30 555.20 L 776.70 552.00 L 778.80 550.50 L 781.00 549.50 L 783.60 549.00 L 789.00 549.20 L 791.90 549.90 L 796.30 551.20 L 804.60 555.10 L 815.70 562.10 L 818.60 567.60 L 822.10 576.40 L 824.30 585.60 L 824.80 593.40 Z" fill="#192360" fill-rule="nonzero" group-id="1,12,50" id="路径_1182" node-id="141" stroke="none" target-height="108.900024" target-width="66.20001" target-x="758.6" target-y="549"></path><path d="M 787.40 473.10 L 786.40 479.00 L 808.70 479.20 L 804.50 473.10 Z" fill="#15155f" fill-rule="nonzero" group-id="1,12,51,116" id="路径_1176" node-id="143" stroke="none" target-height="6.100006" target-width="22.299988" target-x="786.4" target-y="473.1"></path><path d="M 818.50 564.00 L 796.20 564.40 L 784.80 564.20 L 775.10 563.60 L 771.40 563.00 L 769.50 562.40 L 771.20 558.90 L 772.00 558.00 L 773.10 557.50 L 816.60 559.10 Z" fill="#ffffff" fill-rule="nonzero" group-id="1,12,51,117" id="路径_1180" node-id="144" stroke="none" target-height="6.9000244" target-width="49" target-x="769.5" target-y="557.5"></path><path d="M 824.80 489.00 L 838.10 520.10 L 832.80 554.60 L 823.10 554.60 L 824.80 526.50 L 820.00 511.80 L 818.90 509.20 L 817.70 507.40 L 816.80 509.50 L 816.30 512.50 L 815.10 528.50 L 815.00 546.80 L 815.90 556.40 L 816.60 559.20 L 810.50 560.10 L 797.80 561.00 L 780.90 560.90 L 770.30 560.30 L 769.80 523.00 L 766.70 515.00 L 765.70 509.50 L 765.80 506.70 L 766.40 503.20 L 767.80 498.70 L 769.10 496.50 L 740.90 497.70 L 715.60 471.60 L 722.60 463.40 L 743.80 481.40 L 767.80 478.40 L 787.10 475.60 L 797.00 474.90 L 803.60 475.10 L 808.40 475.60 L 814.40 476.80 L 817.80 478.90 L 821.50 483.10 L 824.80 489.00 Z" fill="#3e62fe" fill-rule="nonzero" group-id="1,12,51,118" id="路径_1177" node-id="145" stroke="none" target-height="97.600006" target-width="122.5" target-x="715.6" target-y="463.4"></path><path d="M 719.20 459.80 L 711.00 467.80 L 716.30 472.40 L 722.90 463.60 Z" fill="#111d67" fill-rule="nonzero" group-id="1,12,51,119" id="路径_1178" node-id="146" stroke="none" target-height="12.600006" target-width="11.900024" target-x="711" target-y="459.8"></path><path d="M 832.80 558.40 L 821.60 558.40 L 823.60 553.90 L 832.80 554.50 Z" fill="#131957" fill-rule="nonzero" group-id="1,12,51,120" id="路径_1179" node-id="147" stroke="none" target-height="4.5" target-width="11.200012" target-x="821.6" target-y="553.9"></path></g></g></svg>