<?xml version="1.0" standalone="no"?><!DOCTYPE svg PUBLIC "-//W3C//DTD SVG 1.1//EN" "http://www.w3.org/Graphics/SVG/1.1/DTD/svg11.dtd"><svg height="1024" node-id="1" sillyvg="true" template-height="1024" template-width="1024" version="1.1" viewBox="0 0 1024 1024" width="1024" xmlns="http://www.w3.org/2000/svg" xmlns:xlink="http://www.w3.org/1999/xlink"><defs node-id="152"><linearGradient gradientUnits="objectBoundingBox" id="linearGradient1" node-id="154" spreadMethod="pad" x1="0" x2="1" y1="0.418" y2="0.457"><stop offset="0" stop-color="#c3d2ef"></stop><stop offset="1" stop-color="#ffffff"></stop></linearGradient><linearGradient gradientUnits="objectBoundingBox" id="linear-gradient" node-id="5" spreadMethod="pad" x1="0" x2="1" y1="0.418" y2="0.457"><stop offset="0" stop-color="#c3d2ef"></stop><stop offset="1" stop-color="#ffffff"></stop></linearGradient><clipPath id="clip-会议办公-2" node-id="8"><path d="M 0.00 0.00 L 1024.00 0.00 L 1024.00 1024.00 L 0.00 1024.00 Z" fill="#000000" fill-rule="nonzero" node-id="168" stroke="none" target-height="1024" target-width="1024" target-x="0" target-y="0"></path></clipPath><clipPath id="clip-path" node-id="3"><path d="M 0.00 0.00 L 1024.00 0.00 L 1024.00 1024.00 L 0.00 1024.00 Z" fill="#000000" fill-rule="nonzero" id="会议办公" node-id="4" stroke="none" target-height="1024" target-width="1024" target-x="0" target-y="0"></path></clipPath></defs><g clip-path="url(#clip-会议办公-2)" id="会议办公-2" node-id="10"><path d="M 0.00 0.00 L 1024.00 0.00 L 1024.00 1024.00 L 0.00 1024.00 Z" fill="#ffffff" fill-rule="nonzero" node-id="176" stroke="none" target-height="1024" target-width="1024" target-x="0" target-y="0"></path><g clip-path="url(#clip-path)" group-id="1" id="会议办公-3" node-id="12"><path d="M 0.00 0.00 L 1024.00 0.00 L 1024.00 1024.00 L 0.00 1024.00 Z" fill="#ffffff" fill-rule="nonzero" group-id="1,2" id="会议办公-4" node-id="13" stroke="none" target-height="1024" target-width="1024" target-x="0" target-y="0"></path><path d="M 56.30 346.70 L 61.60 332.10 L 64.50 325.60 L 70.90 314.20 L 75.50 307.50 L 80.40 301.50 L 85.60 296.20 L 90.90 291.40 L 96.70 287.00 L 102.70 283.20 L 108.80 279.80 L 115.20 276.80 L 128.40 272.20 L 142.20 269.00 L 151.60 267.70 L 161.00 266.80 L 170.60 266.50 L 189.70 266.90 L 213.10 269.30 L 239.20 273.40 L 271.30 279.30 L 280.00 280.50 L 286.40 280.90 L 331.00 281.40 L 370.70 282.30 L 445.50 285.10 L 502.70 288.20 L 532.80 290.30 L 593.80 295.40 L 624.40 298.50 L 654.50 302.00 L 693.90 307.40 L 731.60 313.70 L 749.50 317.20 L 766.40 320.80 L 783.30 324.80 L 798.80 329.00 L 813.10 333.30 L 823.90 337.00 L 833.70 340.70 L 850.70 348.30 L 858.90 352.60 L 865.90 357.00 L 871.90 361.40 L 877.10 365.80 L 880.90 369.80 L 884.10 373.80 L 886.60 377.90 L 888.50 382.00 L 894.70 402.70 L 897.60 410.70 L 905.40 428.60 L 910.50 438.50 L 915.80 448.00 L 924.20 461.90 L 957.50 513.10 L 964.40 525.00 L 968.60 533.00 L 972.00 540.90 L 974.90 548.50 L 976.60 554.40 L 977.90 560.20 L 978.70 566.00 L 979.00 571.80 L 978.80 577.60 L 978.00 583.40 L 976.70 589.30 L 974.70 595.40 L 972.20 601.10 L 968.90 607.10 L 964.80 613.30 L 947.00 635.70 L 936.00 650.10 L 899.80 700.70 L 891.60 711.50 L 883.50 721.50 L 871.90 734.00 L 865.80 739.80 L 859.30 745.30 L 852.20 750.60 L 844.60 755.70 L 836.60 760.40 L 827.80 765.10 L 811.10 773.00 L 805.00 776.60 L 799.50 780.60 L 794.30 785.00 L 784.70 794.50 L 778.10 802.10 L 764.90 818.20 L 752.90 831.80 L 741.60 842.30 L 735.40 847.20 L 728.40 852.00 L 720.60 856.60 L 714.60 859.70 L 700.70 865.40 L 684.90 870.30 L 666.60 874.20 L 645.70 876.90 L 622.00 878.20 L 595.00 878.20 L 564.70 876.50 L 526.80 872.60 L 492.30 868.00 L 461.80 862.90 L 449.40 860.30 L 426.10 854.70 L 416.80 852.00 L 399.40 846.10 L 392.50 843.30 L 382.70 838.80 L 374.80 834.60 L 367.50 830.20 L 361.50 826.10 L 340.90 810.80 L 335.70 807.60 L 329.70 804.60 L 320.80 801.20 L 315.30 799.70 L 303.30 797.40 L 295.80 796.40 L 287.50 795.80 L 278.80 795.70 L 269.70 796.10 L 251.30 798.00 L 227.60 802.20 L 171.20 814.60 L 158.20 817.10 L 141.40 819.70 L 133.70 820.40 L 126.10 820.70 L 119.10 820.60 L 112.70 819.90 L 107.90 819.00 L 103.60 817.70 L 99.70 816.00 L 96.10 814.00 L 92.70 811.60 L 89.80 808.70 L 87.20 805.30 L 84.90 801.40 L 83.10 797.20 L 81.80 792.40 L 80.70 786.80 L 80.20 780.30 L 79.50 748.30 L 80.20 724.00 L 82.00 705.00 L 87.20 664.90 L 88.20 645.60 L 88.30 633.50 L 87.90 626.30 L 86.90 618.30 L 85.20 609.60 L 82.00 596.50 L 77.70 581.90 L 62.90 533.60 L 57.90 515.60 L 52.10 490.70 L 49.60 477.60 L 47.70 464.40 L 46.20 450.70 L 45.30 436.60 L 45.00 426.00 L 45.10 415.30 L 45.70 404.20 L 46.80 392.90 L 48.30 381.80 L 50.40 370.40 L 53.00 358.70 L 56.30 346.70 Z" fill="#f2f6fe" fill-rule="nonzero" group-id="1,3" id="路径_1166" node-id="14" stroke="none" target-height="611.7" target-width="934" target-x="45" target-y="266.5"></path><path d="M 206.70 173.50 L 206.70 159.20 L 192.30 159.20 L 191.10 158.90 L 190.10 158.30 L 189.50 157.30 L 189.20 156.10 L 189.50 154.90 L 190.10 153.90 L 191.10 153.30 L 192.30 153.00 L 206.70 153.00 L 206.70 138.70 L 206.90 137.50 L 207.60 136.50 L 208.50 135.90 L 209.70 135.60 L 210.90 135.90 L 211.90 136.50 L 212.60 137.50 L 212.80 138.70 L 212.80 153.00 L 227.20 153.00 L 228.40 153.30 L 229.30 153.90 L 230.00 154.90 L 230.20 156.10 L 230.00 157.30 L 229.30 158.30 L 228.40 158.90 L 227.20 159.20 L 212.80 159.20 L 212.80 173.50 L 212.60 174.70 L 211.90 175.70 L 210.90 176.40 L 209.70 176.60 L 208.50 176.40 L 207.60 175.70 L 206.90 174.70 L 206.70 173.50 Z" fill="#d1e6ff" fill-rule="nonzero" group-id="1,4" id="联合_163" node-id="15" stroke="none" target-height="41" target-width="41" target-x="189.2" target-y="135.6"></path><path d="M 266.30 266.40 L 264.20 266.20 L 262.30 265.50 L 260.50 264.40 L 259.10 263.00 L 258.00 261.30 L 257.30 259.30 L 257.00 257.10 L 257.20 255.10 L 257.90 253.20 L 259.00 251.50 L 260.40 250.00 L 262.10 248.80 L 262.20 245.80 L 262.70 243.80 L 263.40 241.90 L 265.60 238.70 L 268.70 236.20 L 270.60 235.30 L 274.70 234.40 L 278.60 234.80 L 282.30 236.40 L 285.30 238.90 L 287.50 242.40 L 290.70 241.70 L 294.00 242.50 L 296.50 244.70 L 297.80 247.90 L 299.50 248.00 L 302.40 249.10 L 304.30 250.60 L 305.80 252.50 L 306.90 255.50 L 307.00 257.20 L 306.90 258.90 L 305.80 261.90 L 304.30 263.70 L 302.40 265.20 L 299.40 266.30 L 297.70 266.40 Z" fill="#e2efff" fill-rule="nonzero" group-id="1,5" id="联合_164" node-id="16" stroke="none" target-height="32" target-width="50" target-x="257" target-y="234.4"></path><path d="M 92.30 217.90 L 90.50 217.70 L 88.90 217.00 L 87.50 216.00 L 86.40 214.60 L 85.80 213.00 L 85.50 211.20 L 85.80 209.30 L 86.40 207.70 L 87.50 206.40 L 88.90 205.30 L 90.40 204.60 L 92.30 204.40 L 93.20 202.10 L 95.00 200.50 L 97.50 199.90 L 99.80 200.40 L 100.90 198.40 L 102.40 196.90 L 104.20 195.70 L 106.30 194.90 L 108.40 194.60 L 110.70 194.80 L 112.90 195.50 L 114.70 196.70 L 116.20 198.20 L 117.40 200.10 L 118.10 202.10 L 118.30 205.10 L 120.70 207.00 L 121.90 209.70 L 121.90 212.70 L 120.60 215.40 L 118.20 217.30 L 115.30 217.90 Z" fill="#e2efff" fill-rule="nonzero" group-id="1,6" id="联合_165" node-id="17" stroke="none" target-height="23.299988" target-width="36.4" target-x="85.5" target-y="194.6"></path><path d="M 73.00 343.00 L 288.00 343.00 L 288.00 663.00 L 73.00 663.00 Z" fill="#d0e3fb" fill-rule="nonzero" group-id="1,7,15" id="矩形_1492" node-id="19" stroke="none" target-height="320" target-width="215" target-x="73" target-y="343"></path><path d="M 84.00 358.00 L 277.00 358.00 L 277.00 648.00 L 84.00 648.00 Z" fill="#ffffff" fill-rule="nonzero" group-id="1,7,16" id="矩形_1493" node-id="20" stroke="none" target-height="290" target-width="193" target-x="84" target-y="358"></path><path d="M 73.00 420.00 L 288.00 420.00 L 288.00 433.00 L 73.00 433.00 Z" fill="#d0e3fb" fill-rule="nonzero" group-id="1,7,17" id="矩形_1494" node-id="21" stroke="none" target-height="13" target-width="215" target-x="73" target-y="420"></path><path d="M 73.00 532.00 L 288.00 532.00 L 288.00 545.00 L 73.00 545.00 Z" fill="#d0e3fb" fill-rule="nonzero" group-id="1,7,18" id="矩形_1495" node-id="22" stroke="none" target-height="13" target-width="215" target-x="73" target-y="532"></path><path d="M 84.00 545.00 L 277.00 545.00 L 277.00 648.00 L 84.00 648.00 Z" fill="#e4effc" fill-rule="nonzero" group-id="1,7,19" id="矩形_1511" node-id="23" stroke="none" target-height="103" target-width="193" target-x="84" target-y="545"></path><path d="M 141.00 368.00 L 157.00 368.00 L 157.00 420.00 L 141.00 420.00 Z" fill="#d0e3fb" fill-rule="nonzero" group-id="1,7,20" id="矩形_1496" node-id="24" stroke="none" target-height="52" target-width="16" target-x="141" target-y="368"></path><path d="M 125.00 386.00 L 141.00 386.00 L 141.00 420.00 L 125.00 420.00 Z" fill="#d0e3fb" fill-rule="nonzero" group-id="1,7,21" id="矩形_1497" node-id="25" stroke="none" target-height="34" target-width="16" target-x="125" target-y="386"></path><path d="M 109.00 386.00 L 125.00 386.00 L 125.00 420.00 L 109.00 420.00 Z" fill="#d0e3fb" fill-rule="nonzero" group-id="1,7,22" id="矩形_1500" node-id="26" stroke="none" target-height="34" target-width="16" target-x="109" target-y="386"></path><path d="M 102.10 386.00 L 109.00 387.30 L 102.50 420.70 L 95.60 419.40 Z" fill="#d0e3fb" fill-rule="nonzero" group-id="1,7,23" id="矩形_1501" node-id="27" stroke="none" target-height="34.700012" target-width="13.400002" target-x="95.6" target-y="386"></path><path d="M 162.00 364.00 L 170.00 364.00 L 170.00 420.00 L 162.00 420.00 Z" fill="#d0e3fb" fill-rule="nonzero" group-id="1,7,24" id="矩形_1498" node-id="28" stroke="none" target-height="56" target-width="8" target-x="162" target-y="364"></path><path d="M 218.00 401.00 L 263.00 401.00 L 263.00 420.00 L 218.00 420.00 Z" fill="#d0e3fb" fill-rule="nonzero" group-id="1,7,25" id="矩形_1499" node-id="29" stroke="none" target-height="19" target-width="45" target-x="218" target-y="401"></path><path d="M 218.00 460.00 L 263.00 460.00 L 263.00 532.00 L 218.00 532.00 Z" fill="#d0e3fb" fill-rule="nonzero" group-id="1,7,26" id="矩形_1502" node-id="30" stroke="none" target-height="72" target-width="45" target-x="218" target-y="460"></path><path d="M 202.00 471.00 L 218.00 471.00 L 218.00 532.00 L 202.00 532.00 Z" fill="#d0e3fb" fill-rule="nonzero" group-id="1,7,27" id="矩形_1503" node-id="31" stroke="none" target-height="61" target-width="16" target-x="202" target-y="471"></path><path d="M 194.00 480.00 L 202.00 480.00 L 202.00 532.00 L 194.00 532.00 Z" fill="#d0e3fb" fill-rule="nonzero" group-id="1,7,28" id="矩形_1504" node-id="32" stroke="none" target-height="52" target-width="8" target-x="194" target-y="480"></path><path d="M 84.00 480.00 L 104.00 480.00 L 104.00 532.00 L 84.00 532.00 Z" fill="#d0e3fb" fill-rule="nonzero" group-id="1,7,29" id="矩形_1509" node-id="33" stroke="none" target-height="52" target-width="20" target-x="84" target-y="480"></path><path d="M 104.00 467.00 L 117.00 467.00 L 117.00 532.00 L 104.00 532.00 Z" fill="#d0e3fb" fill-rule="nonzero" group-id="1,7,30" id="矩形_1510" node-id="34" stroke="none" target-height="65" target-width="13" target-x="104" target-y="467"></path><path d="M 175.50 479.90 L 183.20 481.90 L 169.70 532.20 L 162.00 530.10 Z" fill="#d0e3fb" fill-rule="nonzero" group-id="1,7,31" id="矩形_1506" node-id="35" stroke="none" target-height="52.30002" target-width="21.199997" target-x="162" target-y="479.9"></path><path d="M 164.90 479.90 L 172.60 481.90 L 159.10 532.20 L 151.40 530.10 Z" fill="#d0e3fb" fill-rule="nonzero" group-id="1,7,32" id="矩形_1507" node-id="36" stroke="none" target-height="52.30002" target-width="21.200012" target-x="151.4" target-y="479.9"></path><path d="M 151.90 479.90 L 159.60 481.90 L 146.10 532.20 L 138.40 530.10 Z" fill="#d0e3fb" fill-rule="nonzero" group-id="1,7,33" id="矩形_1508" node-id="37" stroke="none" target-height="52.30002" target-width="21.200012" target-x="138.4" target-y="479.9"></path><path d="M 183.00 452.00 L 194.00 452.00 L 194.00 532.00 L 183.00 532.00 Z" fill="#d0e3fb" fill-rule="nonzero" group-id="1,7,34" id="矩形_1505" node-id="38" stroke="none" target-height="80" target-width="11" target-x="183" target-y="452"></path><path d="M 158.00 592.00 L 158.30 590.40 L 159.20 589.20 L 160.40 588.30 L 162.00 588.00 L 163.60 588.30 L 164.80 589.20 L 165.70 590.40 L 166.00 592.00 L 165.70 593.60 L 164.80 594.80 L 163.60 595.70 L 162.00 596.00 L 160.40 595.70 L 159.20 594.80 L 158.30 593.60 L 158.00 592.00 Z" fill="#ffffff" fill-rule="nonzero" group-id="1,7,35" id="椭圆_377" node-id="39" stroke="none" target-height="8" target-width="8" target-x="158" target-y="588"></path><path d="M 195.00 592.00 L 195.30 590.40 L 196.20 589.20 L 197.40 588.30 L 199.00 588.00 L 200.60 588.30 L 201.80 589.20 L 202.70 590.40 L 203.00 592.00 L 202.70 593.60 L 201.80 594.80 L 200.60 595.70 L 199.00 596.00 L 197.40 595.70 L 196.20 594.80 L 195.30 593.60 L 195.00 592.00 Z" fill="#ffffff" fill-rule="nonzero" group-id="1,7,36" id="椭圆_378" node-id="40" stroke="none" target-height="8" target-width="8" target-x="195" target-y="588"></path><path d="M 917.10 238.30 L 920.10 238.50 L 922.70 239.30 L 925.20 240.40 L 927.50 242.00 L 929.40 243.90 L 931.00 246.20 L 932.10 248.70 L 932.90 251.30 L 933.10 254.30 L 933.10 647.30 L 932.90 650.20 L 932.10 652.90 L 931.00 655.30 L 929.40 657.60 L 927.50 659.50 L 925.20 661.10 L 922.70 662.30 L 920.10 663.00 L 917.10 663.30 L 357.10 663.30 L 354.20 663.00 L 351.60 662.30 L 349.10 661.10 L 346.80 659.50 L 344.90 657.60 L 343.30 655.30 L 342.10 652.90 L 341.40 650.20 L 341.10 647.30 L 341.10 254.30 L 341.40 251.30 L 342.10 248.70 L 343.30 246.20 L 344.90 243.90 L 346.80 242.00 L 349.10 240.40 L 351.60 239.30 L 354.20 238.50 L 357.10 238.30 Z" fill="#458cfb" fill-rule="nonzero" group-id="1,8,37" id="矩形_1402" node-id="42" stroke="none" target-height="425" target-width="592" target-x="341.1" target-y="238.3"></path><path d="M 890.10 238.30 L 893.40 238.60 L 896.40 239.40 L 899.20 240.70 L 901.80 242.50 L 903.90 244.70 L 905.70 247.20 L 907.00 250.00 L 907.80 253.00 L 908.10 256.30 L 908.10 645.30 L 907.80 648.50 L 907.00 651.60 L 905.70 654.30 L 903.90 656.90 L 901.80 659.00 L 899.20 660.80 L 896.40 662.10 L 893.40 663.00 L 890.10 663.30 L 335.10 663.30 L 331.90 663.00 L 328.90 662.10 L 326.10 660.80 L 323.50 659.00 L 321.40 656.90 L 319.60 654.30 L 318.30 651.60 L 317.50 648.50 L 317.10 645.30 L 317.10 256.30 L 317.50 253.00 L 318.30 250.00 L 319.60 247.20 L 321.40 244.70 L 323.50 242.50 L 326.10 240.70 L 328.90 239.40 L 331.90 238.60 L 335.10 238.30 Z" fill="#c3d8ff" fill-rule="nonzero" group-id="1,8,38" id="矩形_1403" node-id="43" stroke="none" target-height="425" target-width="591" target-x="317.1" target-y="238.3"></path><path d="M 871.10 265.30 L 874.60 265.90 L 876.20 266.60 L 878.80 268.80 L 880.50 271.80 L 881.10 275.30 L 881.10 628.30 L 880.50 631.80 L 878.80 634.70 L 876.20 636.90 L 874.60 637.60 L 871.10 638.30 L 353.10 638.30 L 349.60 637.60 L 346.70 635.90 L 344.50 633.30 L 343.80 631.80 L 343.10 628.30 L 343.10 275.30 L 343.80 271.80 L 344.50 270.20 L 346.70 267.60 L 349.60 265.90 L 353.10 265.30 Z" fill="#ffffff" fill-rule="nonzero" group-id="1,8,39" id="矩形_1404" node-id="44" stroke="none" target-height="373" target-width="538" target-x="343.1" target-y="265.3"></path><path d="M 356.10 298.80 L 356.80 295.10 L 358.60 292.00 L 361.30 289.70 L 363.00 288.90 L 366.60 288.30 L 370.30 288.90 L 373.40 290.70 L 375.70 293.50 L 377.00 296.80 L 377.00 300.70 L 376.50 302.40 L 374.70 305.50 L 371.90 307.80 L 370.30 308.60 L 366.60 309.30 L 363.00 308.60 L 359.90 306.80 L 357.60 304.10 L 356.80 302.40 L 356.10 298.80 Z" fill="#f92d2d" fill-rule="nonzero" group-id="1,8,40" id="椭圆_356" node-id="45" stroke="none" target-height="21" target-width="20.899994" target-x="356.1" target-y="288.3"></path><path d="M 399.10 298.30 L 399.80 294.80 L 400.50 293.20 L 402.70 290.60 L 405.60 288.90 L 409.10 288.30 L 412.60 288.90 L 415.60 290.60 L 417.80 293.20 L 419.00 296.40 L 419.00 300.10 L 418.50 301.80 L 416.80 304.70 L 414.20 306.90 L 412.60 307.60 L 409.10 308.30 L 405.60 307.60 L 402.70 305.90 L 400.50 303.30 L 399.80 301.80 L 399.10 298.30 Z" fill="#f9de2d" fill-rule="nonzero" group-id="1,8,41" id="椭圆_357" node-id="46" stroke="none" target-height="20" target-width="19.899994" target-x="399.1" target-y="288.3"></path><path d="M 441.10 298.80 L 441.80 295.10 L 443.60 292.00 L 446.30 289.70 L 448.00 288.90 L 451.60 288.30 L 455.30 288.90 L 458.40 290.70 L 460.70 293.50 L 462.00 296.80 L 462.00 300.70 L 461.50 302.40 L 459.70 305.50 L 456.90 307.80 L 455.30 308.60 L 451.60 309.30 L 448.00 308.60 L 444.90 306.80 L 442.60 304.10 L 441.80 302.40 L 441.10 298.80 Z" fill="#18c45d" fill-rule="nonzero" group-id="1,8,42" id="椭圆_358" node-id="47" stroke="none" target-height="21" target-width="20.899994" target-x="441.1" target-y="288.3"></path><path d="M 575.10 295.30 L 650.10 295.30 L 650.10 303.30 L 575.10 303.30 Z" fill="#c3d8ff" fill-rule="nonzero" group-id="1,8,43" id="矩形_1405" node-id="48" stroke="none" target-height="8" target-width="75" target-x="575.1" target-y="295.3"></path><path d="M 356.10 442.30 L 599.10 442.30 L 599.10 456.30 L 356.10 456.30 Z" fill="#c3d8ff" fill-rule="nonzero" group-id="1,8,44" id="矩形_1411" node-id="49" stroke="none" target-height="14" target-width="242.99997" target-x="356.1" target-y="442.3"></path><path d="M 356.10 468.30 L 599.10 468.30 L 599.10 480.30 L 356.10 480.30 Z" fill="#c3d8ff" fill-rule="nonzero" group-id="1,8,45" id="矩形_1412" node-id="50" stroke="none" target-height="12" target-width="242.99997" target-x="356.1" target-y="468.3"></path><path d="M 356.10 493.30 L 599.10 493.30 L 599.10 506.30 L 356.10 506.30 Z" fill="#c3d8ff" fill-rule="nonzero" group-id="1,8,46" id="矩形_1413" node-id="51" stroke="none" target-height="13" target-width="242.99997" target-x="356.1" target-y="493.3"></path><path d="M 663.10 295.30 L 738.10 295.30 L 738.10 303.30 L 663.10 303.30 Z" fill="#c3d8ff" fill-rule="nonzero" group-id="1,8,47" id="矩形_1406" node-id="52" stroke="none" target-height="8" target-width="75" target-x="663.1" target-y="295.3"></path><path d="M 750.10 295.30 L 826.10 295.30 L 826.10 303.30 L 750.10 303.30 Z" fill="#c3d8ff" fill-rule="nonzero" group-id="1,8,48" id="矩形_1407" node-id="53" stroke="none" target-height="8" target-width="76" target-x="750.1" target-y="295.3"></path><path d="M 356.10 348.30 L 431.10 348.30 L 431.10 423.30 L 356.10 423.30 Z" fill="#c3d8ff" fill-rule="nonzero" group-id="1,8,49" id="矩形_1408" node-id="54" stroke="none" target-height="75" target-width="75" target-x="356.1" target-y="348.3"></path><path d="M 356.10 527.30 L 599.10 527.30 L 599.10 617.30 L 356.10 617.30 Z" fill="#c3d8ff" fill-rule="nonzero" group-id="1,8,50" id="矩形_1414" node-id="55" stroke="none" target-height="90" target-width="242.99997" target-x="356.1" target-y="527.3"></path><path d="M 625.10 348.30 L 868.10 348.30 L 868.10 617.30 L 625.10 617.30 Z" fill="#c3d8ff" fill-rule="nonzero" group-id="1,8,51" id="矩形_1415" node-id="56" stroke="none" target-height="269" target-width="243" target-x="625.1" target-y="348.3"></path><path d="M 441.10 348.30 L 516.10 348.30 L 516.10 423.30 L 441.10 423.30 Z" fill="#c3d8ff" fill-rule="nonzero" group-id="1,8,52" id="矩形_1409" node-id="57" stroke="none" target-height="75" target-width="74.99997" target-x="441.1" target-y="348.3"></path><path d="M 525.10 348.30 L 599.10 348.30 L 599.10 423.30 L 525.10 423.30 Z" fill="#c3d8ff" fill-rule="nonzero" group-id="1,8,53" id="矩形_1410" node-id="58" stroke="none" target-height="75" target-width="74" target-x="525.1" target-y="348.3"></path><path d="M 484.10 533.60 L 484.10 568.90 L 483.40 569.60 L 480.90 570.60 L 475.70 571.30 L 471.50 571.40 L 462.70 570.80 L 460.00 570.10 L 457.90 568.90 L 457.90 533.60 Z" fill="url(#linearGradient1)" fill-rule="nonzero" group-id="1,9,54" id="路径_1167" node-id="60" stroke="none" target-height="37.80005" target-width="26.200012" target-x="457.9" target-y="533.6"></path><path d="M 457.80 533.70 L 458.10 533.10 L 459.60 532.40 L 461.50 531.90 L 467.40 531.20 L 471.00 531.10 L 474.60 531.20 L 480.50 531.90 L 482.40 532.40 L 483.90 533.10 L 484.20 533.70 L 483.90 534.30 L 482.40 535.10 L 480.50 535.60 L 474.60 536.30 L 471.00 536.40 L 467.40 536.30 L 461.50 535.60 L 459.60 535.10 L 458.10 534.30 L 457.80 533.70 Z" fill="#b7bbc2" fill-rule="nonzero" group-id="1,9,55" id="椭圆_359" node-id="61" stroke="none" target-height="5.300049" target-width="26.400024" target-x="457.8" target-y="531.1"></path><path d="M 459.10 534.80 L 460.70 534.00 L 464.90 533.40 L 470.80 533.20 L 476.70 533.40 L 480.90 534.00 L 482.20 534.40 L 482.50 534.80 L 482.20 535.10 L 480.90 535.60 L 476.70 536.10 L 470.80 536.40 L 464.90 536.10 L 460.70 535.60 L 459.10 534.80 Z" fill="#769be5" fill-rule="nonzero" group-id="1,9,56" id="椭圆_360" node-id="62" stroke="none" target-height="3.2000122" target-width="23.399994" target-x="459.1" target-y="533.2"></path><path d="M 476.00 525.40 L 475.20 522.60 L 473.10 519.70 L 472.60 516.60 L 473.00 514.00 L 475.20 512.40 L 476.30 510.30 L 476.40 509.20 L 476.00 508.20 L 475.30 507.60 L 472.60 506.30 L 471.90 505.50 L 471.40 504.30 L 471.20 502.80 L 471.50 498.70 L 471.30 497.70 L 470.50 497.10 L 469.30 496.80 L 468.10 496.90 L 465.80 498.00 L 464.90 498.80 L 463.80 500.50 L 461.00 502.40 L 460.90 503.50 L 462.70 506.60 L 461.00 508.10 L 460.00 511.10 L 458.20 512.60 L 458.00 513.30 L 458.70 518.40 L 457.60 522.00 L 457.20 526.40 L 457.50 527.60 L 458.20 528.50 L 459.70 529.20 L 462.20 529.70 L 464.20 529.70 L 473.20 528.80 L 474.50 528.30 L 475.50 527.70 L 476.00 526.80 L 476.00 525.40 Z" fill="#adbbb4" fill-rule="nonzero" group-id="1,9,57,68" id="路径_1168" node-id="64" stroke="none" target-height="32.900024" target-width="19.199982" target-x="457.2" target-y="496.8"></path><path d="M 468.00 499.60 L 465.80 514.70 L 465.40 524.70 L 466.30 532.10 L 468.00 536.30" fill="none" group-id="1,9,57,69" id="路径_1169" node-id="65" stroke="#ababab" stroke-linecap="butt" stroke-width="0.6" target-height="36.69998" target-width="2.600006" target-x="465.4" target-y="499.6"></path><path d="M 469.80 503.10 L 466.70 506.90 L 465.10 504.80" fill="none" group-id="1,9,57,70" id="路径_1170" node-id="66" stroke="#ababab" stroke-linecap="butt" stroke-width="0.6" target-height="3.7999878" target-width="4.6999817" target-x="465.1" target-y="503.1"></path><path d="M 471.80 509.50 L 468.80 511.30 L 466.00 514.60 L 462.60 510.40" fill="none" group-id="1,9,57,71" id="路径_1171" node-id="67" stroke="#ababab" stroke-linecap="butt" stroke-width="0.6" target-height="5.0999756" target-width="9.199982" target-x="462.6" target-y="509.5"></path><path d="M 471.10 517.60 L 468.40 519.30 L 465.30 522.70 L 463.10 518.70 L 461.90 517.40 L 460.40 516.50" fill="none" group-id="1,9,57,72" id="路径_1172" node-id="68" stroke="#ababab" stroke-linecap="butt" stroke-width="0.6" target-height="6.200012" target-width="10.700012" target-x="460.4" target-y="516.5"></path><path d="M 469.00 524.80 L 467.40 525.80 L 465.60 528.20 L 461.00 526.40" fill="none" group-id="1,9,57,73" id="路径_1173" node-id="69" stroke="#ababab" stroke-linecap="butt" stroke-width="0.6" target-height="3.4000244" target-width="8" target-x="461" target-y="524.8"></path><path d="M 463.50 523.30 L 464.40 520.10 L 466.40 517.70 L 466.90 516.60 L 467.60 512.90 L 467.30 510.10 L 466.90 509.50 L 464.50 507.90 L 463.10 505.40 L 463.00 504.10 L 463.50 503.00 L 464.40 502.10 L 467.50 500.60 L 468.40 499.70 L 469.00 498.20 L 469.20 496.40 L 469.00 490.70 L 470.10 489.60 L 471.40 489.40 L 472.90 489.50 L 475.70 490.80 L 476.70 491.80 L 478.00 493.80 L 481.40 496.00 L 481.60 496.60 L 481.40 497.30 L 479.40 501.00 L 481.30 502.80 L 482.50 506.40 L 484.60 508.20 L 484.90 508.90 L 484.10 515.00 L 484.30 516.40 L 485.20 518.10 L 485.80 524.50 L 485.50 525.90 L 484.20 527.30 L 482.90 527.90 L 479.10 528.50 L 466.80 527.40 L 465.30 526.80 L 464.10 526.10 L 463.40 524.50 L 463.50 523.30 Z" fill="#cbd7d1" fill-rule="nonzero" group-id="1,9,58,74" id="路径_1168-2" node-id="71" stroke="none" target-height="39.100006" target-width="22.799988" target-x="463" target-y="489.4"></path><path d="M 473.00 492.70 L 474.60 501.80 L 475.60 510.70 L 476.10 520.50 L 475.50 529.60 L 474.80 532.30 L 473.00 536.30" fill="none" group-id="1,9,58,75" id="路径_1169-2" node-id="72" stroke="#707070" stroke-linecap="butt" stroke-width="0.6" target-height="43.599976" target-width="3.100006" target-x="473" target-y="492.7"></path><path d="M 470.90 496.80 L 474.50 501.40 L 476.40 498.80" fill="none" group-id="1,9,58,76" id="路径_1170-2" node-id="73" stroke="#707070" stroke-linecap="butt" stroke-width="0.6" target-height="4.600006" target-width="5.5" target-x="470.9" target-y="496.8"></path><path d="M 468.50 504.40 L 470.40 505.30 L 472.10 506.50 L 475.40 510.50 L 479.40 505.50" fill="none" group-id="1,9,58,77" id="路径_1171-2" node-id="74" stroke="#707070" stroke-linecap="butt" stroke-width="0.6" target-height="6.100006" target-width="10.899994" target-x="468.5" target-y="504.4"></path><path d="M 469.30 514.10 L 472.60 516.10 L 476.20 520.20 L 478.80 515.30 L 480.30 513.80 L 482.00 512.80" fill="none" group-id="1,9,58,78" id="路径_1172-2" node-id="75" stroke="#707070" stroke-linecap="butt" stroke-width="0.6" target-height="7.4000244" target-width="12.700012" target-x="469.3" target-y="512.8"></path><path d="M 471.80 522.70 L 473.80 523.80 L 475.90 526.60 L 481.30 524.60" fill="none" group-id="1,9,58,79" id="路径_1173-2" node-id="76" stroke="#707070" stroke-linecap="butt" stroke-width="0.6" target-height="3.8999634" target-width="9.5" target-x="471.8" target-y="522.7"></path><path d="M 722.40 644.50 L 729.70 644.00 L 736.50 740.90 L 729.20 741.40 Z" fill="#919ad5" fill-rule="nonzero" group-id="1,10,59,80" id="矩形_1462" node-id="79" stroke="none" target-height="97.400024" target-width="14.099976" target-x="722.4" target-y="644"></path><path d="M 694.70 644.50 L 701.90 644.00 L 708.70 740.90 L 701.50 741.40 Z" fill="#919ad5" fill-rule="nonzero" group-id="1,10,59,81" id="矩形_1464" node-id="80" stroke="none" target-height="97.400024" target-width="14" target-x="694.7" target-y="644"></path><path d="M 649.60 741.30 L 642.30 740.80 L 649.10 644.00 L 656.40 644.50 Z" fill="#b0b8ee" fill-rule="nonzero" group-id="1,10,59,82" id="矩形_1463" node-id="81" stroke="none" target-height="97.29999" target-width="14.100037" target-x="642.3" target-y="644"></path><path d="M 621.90 741.30 L 614.60 740.80 L 621.40 644.00 L 628.60 644.50 Z" fill="#b0b8ee" fill-rule="nonzero" group-id="1,10,59,83" id="矩形_1465" node-id="82" stroke="none" target-height="97.29999" target-width="14" target-x="614.6" target-y="644"></path><path d="M 767.30 513.80 L 734.30 644.10 L 622.00 643.60 L 653.30 588.90 L 663.60 513.80 Z" fill="#92a1dc" fill-rule="nonzero" group-id="1,10,59,84" id="路径_1216" node-id="83" stroke="none" target-height="130.29999" target-width="145.29999" target-x="622" target-y="513.8"></path><path d="M 623.30 646.60 L 621.60 646.20 L 620.30 645.30 L 619.30 644.00 L 619.00 642.30 L 619.30 640.60 L 620.30 639.30 L 621.60 638.40 L 623.30 638.10 L 730.70 638.10 L 763.00 517.20 L 763.50 516.10 L 765.00 514.50 L 767.20 513.90 L 769.30 514.50 L 770.90 516.10 L 771.40 518.30 L 771.20 519.40 L 738.30 642.50 L 737.60 643.90 L 736.50 645.10 L 735.20 646.00 L 733.70 646.60 Z" fill="#a7b5f4" fill-rule="nonzero" group-id="1,10,59,85" id="联合_167" node-id="84" stroke="none" target-height="132.69995" target-width="152.40002" target-x="619" target-y="513.9"></path><path d="M 661.10 733.60 L 675.00 733.60 L 675.00 713.60 L 661.50 716.20 Z" fill="#c77760" fill-rule="nonzero" group-id="1,10,60,86,121" id="路径_1163" node-id="87" stroke="none" target-height="20" target-width="13.900024" target-x="661.1" target-y="713.6"></path><path d="M 674.80 727.90 L 675.20 744.70 L 629.30 743.90 L 630.40 742.00 L 631.80 740.80 L 637.70 737.30 L 645.40 733.80 L 661.10 727.90 Z" fill="#272f31" fill-rule="nonzero" group-id="1,10,60,86,122" id="路径_1164" node-id="88" stroke="none" target-height="16.799988" target-width="45.900024" target-x="629.3" target-y="727.9"></path><path d="M 606.30 733.60 L 620.20 733.60 L 620.20 713.60 L 606.70 716.20 Z" fill="#c77760" fill-rule="nonzero" group-id="1,10,60,87,123" id="路径_1163-2" node-id="90" stroke="none" target-height="20" target-width="13.900024" target-x="606.3" target-y="713.6"></path><path d="M 620.00 727.90 L 620.40 744.70 L 574.50 743.90 L 575.60 742.00 L 577.00 740.80 L 582.90 737.30 L 590.60 733.80 L 606.30 727.90 Z" fill="#272f31" fill-rule="nonzero" group-id="1,10,60,87,124" id="路径_1164-2" node-id="91" stroke="none" target-height="16.799988" target-width="45.900024" target-x="574.5" target-y="727.9"></path><path d="M 590.10 605.00 L 588.60 606.40 L 587.90 607.90 L 587.30 610.10 L 586.90 614.80 L 586.90 621.60 L 588.20 637.50 L 590.80 656.10 L 594.10 675.50 L 597.60 693.80 L 603.90 723.70 L 622.60 723.70 L 621.10 640.00 L 633.00 640.00 L 661.00 637.30 L 703.90 599.60 L 653.30 582.20 L 645.40 594.40 L 610.00 600.60 L 598.50 602.90 L 590.10 605.00 Z" fill="#121542" fill-rule="nonzero" group-id="1,10,60,88,125" id="路径_1214" node-id="93" stroke="none" target-height="141.5" target-width="117" target-x="586.9" target-y="582.2"></path><path d="M 636.60 612.80 L 635.30 615.20 L 634.70 620.30 L 634.90 626.30 L 635.80 634.40 L 637.10 642.90 L 639.00 652.60 L 643.50 672.70 L 648.50 692.40 L 657.80 725.60 L 676.40 725.60 L 669.60 643.20 L 687.10 641.10 L 699.30 638.70 L 705.10 637.20 L 710.70 635.30 L 715.10 633.20 L 717.80 631.40 L 719.60 629.70 L 720.80 627.90 L 721.70 625.40 L 722.20 622.60 L 722.30 619.60 L 722.00 614.90 L 721.20 610.10 L 718.70 601.30 L 715.10 592.10 L 679.30 599.20 L 670.50 600.70 L 656.90 603.70 L 647.40 606.70 L 643.20 608.50 L 639.40 610.60 L 636.60 612.80 Z" fill="#182260" fill-rule="nonzero" group-id="1,10,60,88,126" id="路径_1215" node-id="94" stroke="none" target-height="133.5" target-width="87.599976" target-x="634.7" target-y="592.1"></path><path d="M 681.10 480.30 L 681.10 500.70 L 696.70 500.70 L 696.70 476.40 L 704.00 465.50 L 706.80 453.40 L 703.50 450.20 L 689.70 442.60 L 672.70 448.50 L 672.40 461.20 L 673.10 469.60 L 673.80 473.30 L 674.60 475.60 L 676.50 478.90 L 677.80 480.00 L 679.30 480.40 L 681.10 480.30 Z" fill="#fbb093" fill-rule="nonzero" group-id="1,10,60,89" id="路径_1201" node-id="95" stroke="none" target-height="58.100006" target-width="34.399963" target-x="672.4" target-y="442.6"></path><path d="M 667.40 445.80 L 667.50 443.80 L 668.50 440.80 L 669.80 438.90 L 673.30 436.20 L 675.20 435.30 L 679.70 434.00 L 691.20 433.80 L 697.70 434.80 L 700.10 435.90 L 702.80 437.90 L 705.20 440.40 L 707.10 443.30 L 708.50 446.40 L 709.00 448.60 L 708.90 452.80 L 707.70 457.30 L 706.10 461.60 L 704.10 465.70 L 701.80 468.80 L 701.50 468.70 L 701.40 467.80 L 703.30 460.20 L 703.00 457.50 L 702.30 456.80 L 700.30 456.80 L 698.60 458.20 L 697.90 459.50 L 697.30 462.00 L 696.20 458.20 L 694.50 454.30 L 693.10 452.50 L 691.50 451.30 L 689.50 450.50 L 684.80 450.10 L 679.00 450.90 L 674.50 452.10 L 671.50 452.10 L 669.30 450.80 L 668.40 449.80 L 667.80 448.20 L 667.40 445.80 Z" fill="#1d246a" fill-rule="nonzero" group-id="1,10,60,90" id="路径_1202" node-id="96" stroke="none" target-height="35" target-width="41.599976" target-x="667.4" target-y="433.8"></path><path d="M 700.10 497.30 L 701.50 497.10 L 702.70 497.50 L 703.70 498.20 L 704.60 499.60 L 705.40 501.70 L 706.50 508.60 L 706.60 514.70 L 706.20 522.40 L 704.30 539.20 L 701.50 557.00 L 698.30 574.20 L 692.20 602.60 L 681.10 603.00 L 670.20 602.50 L 664.30 601.70 L 658.50 600.60 L 657.30 600.00 L 656.20 598.90 L 655.30 597.30 L 653.80 591.60 L 653.30 582.30 L 653.50 574.30 L 654.20 565.10 L 656.60 545.70 L 659.70 526.50 L 666.10 493.80 L 678.70 491.60 L 679.80 493.60 L 682.40 496.20 L 684.70 497.40 L 687.30 498.20 L 693.40 498.50 L 700.10 497.30 Z" fill="#4a6ffc" fill-rule="nonzero" group-id="1,10,60,91" id="路径_1204" node-id="97" stroke="none" target-height="111.399994" target-width="53.299988" target-x="653.3" target-y="491.6"></path><path d="M 700.10 497.30 L 701.50 497.10 L 702.70 497.40 L 703.80 498.10 L 704.70 499.40 L 705.50 501.40 L 706.20 504.20 L 706.60 507.90 L 706.80 513.80 L 706.50 521.10 L 704.80 537.10 L 702.20 554.20 L 699.10 570.60 L 693.30 597.70 L 683.60 597.80 L 668.60 597.30 L 657.90 596.00 L 653.20 595.00 L 651.90 594.40 L 650.90 593.40 L 650.00 591.80 L 649.30 589.50 L 648.60 582.50 L 648.70 577.60 L 649.40 570.00 L 650.60 561.30 L 653.90 542.90 L 658.00 524.80 L 666.10 493.80 L 678.70 491.60 L 679.80 493.60 L 682.40 496.20 L 684.70 497.40 L 687.30 498.20 L 690.80 498.60 L 693.40 498.50 L 700.10 497.30 Z" fill="#ffffff" fill-rule="nonzero" group-id="1,10,60,92" id="路径_1205" node-id="98" stroke="none" target-height="106.19998" target-width="58.200012" target-x="648.6" target-y="491.6"></path><path d="M 600.30 478.70 L 599.90 475.50 L 599.70 467.90 L 599.10 466.10 L 598.50 465.80 L 597.90 465.90 L 596.90 467.40 L 595.90 471.30 L 594.90 477.10 L 587.00 464.90 L 584.30 461.90 L 583.40 461.50 L 581.90 462.10 L 581.00 463.00 L 578.70 466.80 L 577.30 471.50 L 577.00 473.80 L 577.20 475.50 L 578.90 479.90 L 581.70 485.60 L 586.30 493.10 L 587.40 494.20 L 595.50 499.60 L 600.30 493.30 L 601.00 485.40 L 600.30 478.70 Z" fill="#ffad92" fill-rule="nonzero" group-id="1,10,60,93,127" id="路径_1206" node-id="100" stroke="none" target-height="38.100006" target-width="24" target-x="577" target-y="461.5"></path><path d="M 587.90 501.40 L 617.00 546.80 L 620.40 550.50 L 622.10 551.60 L 624.20 552.50 L 627.20 552.70 L 628.80 552.30 L 632.20 550.20 L 640.90 540.20 L 653.20 526.80 L 643.10 581.90 L 642.80 586.00 L 643.10 588.90 L 643.80 591.70 L 645.10 594.70 L 646.40 596.50 L 648.10 598.10 L 650.40 599.60 L 653.90 601.20 L 658.80 602.40 L 661.60 602.20 L 662.90 601.50 L 662.90 585.50 L 663.60 569.40 L 665.70 545.10 L 668.20 528.60 L 671.30 513.70 L 673.10 507.40 L 675.10 501.70 L 677.10 497.40 L 678.70 495.00 L 680.20 493.40 L 681.60 492.50 L 676.50 491.80 L 666.70 491.50 L 662.90 491.70 L 659.50 492.30 L 657.80 492.80 L 649.30 502.50 L 628.90 527.70 L 601.00 490.90 Z" fill="#182164" fill-rule="nonzero" group-id="1,10,60,93,128" id="路径_1207" node-id="101" stroke="none" target-height="111.50003" target-width="93.69995" target-x="587.9" target-y="490.9"></path><path d="M 674.70 493.30 L 667.00 502.80 L 665.90 505.00 L 666.80 506.70 L 671.20 512.00 L 663.50 518.70 L 664.30 556.40 L 677.30 504.90 L 679.70 495.90 L 681.60 490.90 L 679.90 490.90 L 677.00 491.90 L 674.70 493.30 Z" fill="#3e63ef" fill-rule="nonzero" group-id="1,10,60,93,129" id="路径_1208" node-id="102" stroke="none" target-height="65.50003" target-width="18.099976" target-x="663.5" target-y="490.9"></path><path d="M 694.50 608.90 L 688.60 608.70 L 686.50 608.30 L 686.00 607.90 L 685.70 595.10 L 685.80 562.40 L 686.00 556.20 L 687.50 543.30 L 692.20 512.10 L 695.10 498.80 L 696.70 494.30 L 697.60 493.30 L 705.60 493.60 L 711.90 494.60 L 716.40 495.80 L 719.80 497.30 L 722.40 499.00 L 724.20 500.80 L 734.10 514.70 L 738.60 521.90 L 746.00 534.80 L 750.00 543.70 L 751.30 547.50 L 751.90 550.30 L 752.20 555.90 L 751.60 558.70 L 750.50 561.40 L 749.50 562.90 L 747.00 565.20 L 715.80 579.10 L 718.00 607.90 L 694.50 608.90 Z M 718.90 533.30 L 715.20 560.10 L 721.00 558.10 L 728.20 555.10 L 731.40 553.10 L 731.80 552.30 L 730.60 549.30 L 727.40 544.50 L 718.90 533.30 Z" fill="#19225d" fill-rule="nonzero" group-id="1,10,60,94,130" id="减去_39" node-id="104" stroke="none" target-height="115.60004" target-width="66.5" target-x="685.7" target-y="493.3"></path><path d="M 689.50 566.60 L 694.90 564.60 L 699.90 563.20 L 702.40 563.00 L 705.20 563.30 L 708.50 564.50 L 711.20 566.90 L 712.90 569.70 L 711.10 574.50 L 709.50 576.60 L 708.60 577.00 L 674.20 577.00 L 674.50 575.50 L 677.00 573.00 L 684.50 568.70 L 689.50 566.60 Z" fill="#ffb894" fill-rule="nonzero" group-id="1,10,60,94,131" id="路径_1212" node-id="105" stroke="none" target-height="14" target-width="38.700012" target-x="674.2" target-y="563"></path><path d="M 692.40 508.40 L 690.20 519.20 L 686.90 541.60 L 685.70 556.50 L 685.70 561.90 L 686.20 567.70 L 701.40 524.50 L 697.60 515.40 L 706.20 509.00 L 697.00 493.20 L 694.40 500.70 L 692.40 508.40 Z" fill="#355bff" fill-rule="nonzero" group-id="1,10,60,94,132" id="路径_1213" node-id="106" stroke="none" target-height="74.5" target-width="20.5" target-x="685.7" target-y="493.2"></path><path d="M 709.10 564.60 L 712.10 567.10 L 713.30 568.70 L 714.30 571.90 L 713.70 574.80 L 712.30 577.10 L 711.40 578.10 L 710.40 578.50 L 709.70 578.40 L 708.40 576.60 L 705.60 563.00 L 709.10 564.60 Z" fill="#020937" fill-rule="nonzero" group-id="1,10,60,94,133" id="路径_1211" node-id="107" stroke="none" target-height="15.5" target-width="8.700012" target-x="705.6" target-y="563"></path><path d="M 675.40 502.60 L 685.90 498.30 L 696.40 504.50 L 699.70 492.10 L 685.90 496.30 L 680.90 489.10 Z" fill="#ced0ff" fill-rule="nonzero" group-id="1,10,60,95" id="路径_1203" node-id="108" stroke="none" target-height="15.399994" target-width="24.299988" target-x="675.4" target-y="489.1"></path><path d="M 634.00 764.10 L 634.00 586.70 L 218.50 586.70 L 218.50 764.10 L 205.10 764.10 L 205.10 586.70 L 130.40 586.70 L 130.40 574.40 L 744.90 574.40 L 744.90 586.70 L 647.40 586.70 L 647.40 764.10 Z" fill="#000519" fill-rule="nonzero" group-id="1,11" id="联合_168" node-id="109" stroke="none" target-height="189.69995" target-width="614.5" target-x="130.4" target-y="574.4"></path><path d="M 566.70 574.40 L 544.40 527.60 L 570.00 527.60 L 590.20 570.00 L 637.00 570.00 L 637.00 574.40 Z" fill="#3a5295" fill-rule="nonzero" group-id="1,12" id="联合_169" node-id="110" stroke="none" target-height="46.80005" target-width="92.599976" target-x="544.4" target-y="527.6"></path><path d="M 928.40 623.30 L 928.40 719.10 L 927.20 720.50 L 923.70 722.50 L 916.20 724.50 L 910.20 725.30 L 903.50 725.80 L 894.20 726.10 L 884.90 725.80 L 871.60 724.50 L 863.30 722.50 L 858.80 720.50 L 857.10 719.10 L 857.10 623.30 Z" fill="url(#linear-gradient)" fill-rule="nonzero" group-id="1,13,61" id="路径_1167-2" node-id="112" stroke="none" target-height="102.79999" target-width="71.30005" target-x="857.1" target-y="623.3"></path><path d="M 856.70 623.60 L 857.00 622.80 L 857.80 621.90 L 859.60 620.90 L 862.60 619.70 L 867.30 618.60 L 878.70 617.10 L 892.70 616.50 L 906.70 617.10 L 918.10 618.60 L 922.80 619.70 L 925.80 620.90 L 927.60 621.90 L 928.40 622.80 L 928.70 623.60 L 928.40 624.50 L 927.60 625.40 L 925.80 626.40 L 922.80 627.50 L 918.10 628.60 L 906.70 630.20 L 892.70 630.70 L 878.70 630.20 L 867.30 628.60 L 862.60 627.50 L 859.50 626.40 L 857.80 625.40 L 857.00 624.50 L 856.70 623.60 Z" fill="#b7bbc2" fill-rule="nonzero" group-id="1,13,62" id="椭圆_359-2" node-id="113" stroke="none" target-height="14.200012" target-width="72" target-x="856.7" target-y="616.5"></path><path d="M 860.50 626.50 L 860.80 625.90 L 862.00 625.20 L 864.80 624.30 L 869.40 623.50 L 883.60 622.40 L 892.20 622.20 L 900.90 622.40 L 915.00 623.50 L 919.60 624.30 L 922.40 625.20 L 923.60 625.90 L 923.90 626.50 L 923.60 627.10 L 922.40 627.80 L 919.60 628.60 L 915.00 629.40 L 900.90 630.60 L 892.20 630.70 L 883.60 630.60 L 869.40 629.40 L 864.80 628.60 L 862.00 627.80 L 860.80 627.10 L 860.50 626.50 Z" fill="#769be5" fill-rule="nonzero" group-id="1,13,63" id="椭圆_360-2" node-id="114" stroke="none" target-height="8.5" target-width="63.400024" target-x="860.5" target-y="622.2"></path><path d="M 906.40 600.90 L 905.50 597.00 L 903.90 592.80 L 899.70 588.00 L 898.80 586.20 L 897.40 580.40 L 897.10 574.00 L 898.00 569.90 L 898.80 569.00 L 901.30 568.00 L 903.00 566.70 L 906.00 562.90 L 906.90 560.60 L 907.40 556.90 L 906.40 554.30 L 904.90 552.90 L 897.70 549.30 L 895.10 546.90 L 893.70 543.60 L 893.30 540.50 L 894.20 529.00 L 893.90 526.90 L 893.40 525.70 L 892.60 524.70 L 891.30 523.90 L 889.00 523.30 L 886.50 523.30 L 883.90 523.80 L 881.50 524.70 L 879.20 526.00 L 877.20 527.60 L 875.60 529.40 L 873.70 532.90 L 872.30 534.20 L 866.20 537.80 L 865.30 538.70 L 865.00 539.80 L 865.20 541.00 L 865.80 542.50 L 869.50 548.10 L 870.10 549.80 L 867.10 552.20 L 864.80 555.30 L 863.10 561.80 L 862.30 563.00 L 858.20 566.00 L 857.60 567.10 L 857.20 568.90 L 857.30 571.10 L 858.80 578.50 L 859.20 582.80 L 858.70 585.10 L 856.70 589.40 L 855.50 597.90 L 855.20 603.60 L 855.50 605.30 L 856.90 608.20 L 858.10 609.40 L 859.70 610.50 L 862.00 611.40 L 868.10 612.70 L 874.30 612.70 L 884.30 611.40 L 895.70 610.70 L 901.60 609.20 L 903.30 608.40 L 905.60 606.20 L 906.30 604.80 L 906.60 603.10 L 906.40 600.90 Z" fill="#adbbb4" fill-rule="nonzero" group-id="1,13,64,96" id="路径_1168-3" node-id="116" stroke="none" target-height="89.400024" target-width="52.200012" target-x="855.2" target-y="523.3"></path><path d="M 884.60 530.90 L 881.80 546.70 L 879.50 562.90 L 877.80 581.70 L 877.50 591.40 L 877.90 606.90 L 879.50 617.80 L 880.90 622.80 L 882.60 627.00 L 884.60 630.50" fill="none" group-id="1,13,64,97" id="路径_1169-3" node-id="117" stroke="#ababab" stroke-linecap="butt" stroke-width="0.6" target-height="99.599976" target-width="7.0999756" target-x="877.5" target-y="530.9"></path><path d="M 889.50 540.30 L 881.20 550.80 L 876.70 544.90" fill="none" group-id="1,13,64,98" id="路径_1170-3" node-id="118" stroke="#ababab" stroke-linecap="butt" stroke-width="0.6" target-height="10.5" target-width="12.799988" target-x="876.7" target-y="540.3"></path><path d="M 894.90 557.60 L 891.50 559.10 L 888.50 561.10 L 885.70 563.40 L 883.50 565.70 L 879.10 571.50 L 873.20 563.60 L 869.90 560.20" fill="none" group-id="1,13,64,99" id="路径_1171-3" node-id="119" stroke="#ababab" stroke-linecap="butt" stroke-width="0.6" target-height="13.900024" target-width="25" target-x="869.9" target-y="557.6"></path><path d="M 893.10 579.80 L 890.30 581.10 L 884.70 585.20 L 882.30 587.60 L 877.30 593.70 L 875.40 589.30 L 872.00 583.60 L 867.90 579.20 L 864.00 576.80" fill="none" group-id="1,13,64,100" id="路径_1172-3" node-id="120" stroke="#ababab" stroke-linecap="butt" stroke-width="0.6" target-height="16.900024" target-width="29.099976" target-x="864" target-y="576.8"></path><path d="M 887.40 599.40 L 885.70 599.90 L 882.30 602.50 L 878.00 608.40 L 865.60 603.70" fill="none" group-id="1,13,64,101" id="路径_1173-3" node-id="121" stroke="#ababab" stroke-linecap="butt" stroke-width="0.6" target-height="9" target-width="21.800049" target-x="865.6" target-y="599.4"></path><path d="M 872.30 595.30 L 873.30 590.70 L 875.20 585.70 L 876.10 584.30 L 880.30 579.90 L 881.10 578.40 L 882.00 575.90 L 883.10 570.20 L 883.40 564.10 L 883.10 561.40 L 881.90 558.00 L 881.10 557.30 L 879.00 556.50 L 876.30 554.60 L 874.40 552.60 L 872.80 550.10 L 871.60 547.40 L 871.00 544.80 L 871.00 543.00 L 871.50 541.40 L 872.30 539.90 L 874.00 538.20 L 882.60 534.00 L 884.60 532.40 L 885.60 531.20 L 887.30 527.10 L 887.80 523.50 L 886.80 509.80 L 887.10 507.30 L 887.60 505.90 L 888.70 504.70 L 890.20 503.80 L 893.90 503.00 L 895.90 503.10 L 898.90 503.70 L 901.90 504.80 L 904.60 506.30 L 907.00 508.10 L 908.80 510.20 L 911.20 514.50 L 912.70 516.10 L 920.00 520.30 L 921.30 521.80 L 921.50 522.70 L 921.30 524.10 L 920.50 525.90 L 916.10 532.50 L 915.40 534.50 L 919.00 537.50 L 921.50 540.80 L 922.40 543.10 L 924.10 549.40 L 925.90 551.40 L 929.50 553.80 L 930.50 555.70 L 930.70 559.90 L 928.90 568.60 L 928.40 573.80 L 929.00 576.50 L 930.80 580.00 L 931.30 581.70 L 932.70 591.70 L 933.10 598.50 L 932.80 600.50 L 931.10 604.00 L 929.70 605.40 L 927.80 606.70 L 925.00 607.80 L 917.80 609.30 L 910.40 609.30 L 898.50 607.80 L 885.00 606.90 L 881.30 606.20 L 878.00 605.20 L 876.00 604.20 L 873.10 601.60 L 872.30 600.00 L 872.00 597.90 L 872.30 595.30 Z" fill="#cbd7d1" fill-rule="nonzero" group-id="1,13,65,102" id="路径_1168-4" node-id="123" stroke="none" target-height="106.29999" target-width="62.099976" target-x="871" target-y="503"></path><path d="M 898.20 512.10 L 900.90 526.80 L 904.30 551.30 L 906.10 571.00 L 906.70 591.10 L 906.30 600.50 L 904.80 612.40 L 903.70 617.60 L 902.10 622.60 L 900.30 626.90 L 898.20 630.50" fill="none" group-id="1,13,65,103" id="路径_1169-4" node-id="124" stroke="#707070" stroke-linecap="butt" stroke-width="0.6" target-height="118.400024" target-width="8.5" target-x="898.2" target-y="512.1"></path><path d="M 892.40 523.20 L 902.30 535.70 L 907.50 528.70" fill="none" group-id="1,13,65,104" id="路径_1170-4" node-id="125" stroke="#707070" stroke-linecap="butt" stroke-width="0.6" target-height="12.5" target-width="15.099976" target-x="892.4" target-y="523.2"></path><path d="M 886.00 543.90 L 891.20 546.30 L 896.80 550.70 L 901.80 556.20 L 904.80 560.30 L 911.70 551.00 L 915.70 546.90" fill="none" group-id="1,13,65,105" id="路径_1171-4" node-id="126" stroke="#707070" stroke-linecap="butt" stroke-width="0.6" target-height="16.399963" target-width="29.700012" target-x="886" target-y="543.9"></path><path d="M 888.10 570.30 L 890.80 571.40 L 896.20 575.00 L 902.90 581.70 L 906.90 586.70 L 910.90 578.20 L 914.70 572.70 L 917.10 570.30 L 919.70 568.10 L 922.70 566.60" fill="none" group-id="1,13,65,106" id="路径_1172-4" node-id="127" stroke="#707070" stroke-linecap="butt" stroke-width="0.6" target-height="20.100037" target-width="34.600037" target-x="888.1" target-y="566.6"></path><path d="M 894.80 593.50 L 897.60 594.50 L 900.90 597.20 L 902.60 599.10 L 906.00 604.30 L 920.80 598.60" fill="none" group-id="1,13,65,107" id="路径_1173-4" node-id="128" stroke="#707070" stroke-linecap="butt" stroke-width="0.6" target-height="10.799988" target-width="26" target-x="894.8" target-y="593.5"></path><path d="M 375.30 519.40 L 376.00 516.50 L 376.20 514.20 L 375.80 508.70 L 375.90 507.60 L 376.30 506.80 L 377.40 506.30 L 378.30 506.30 L 379.50 507.50 L 380.50 511.10 L 381.00 514.90 L 381.70 516.60 L 383.40 514.70 L 392.40 502.50 L 393.40 501.80 L 394.30 501.70 L 395.10 502.10 L 396.00 503.50 L 396.90 505.70 L 397.20 508.30 L 397.10 511.20 L 395.90 516.70 L 393.40 523.60 L 391.80 527.00 L 388.80 531.60 L 386.30 533.70 L 376.00 539.30 L 373.50 528.40 L 373.80 525.40 L 375.30 519.40 Z" fill="#ffa271" fill-rule="nonzero" group-id="1,14,66,108" id="路径_1228" node-id="131" stroke="none" target-height="37.599976" target-width="23.700012" target-x="373.5" target-y="501.7"></path><path d="M 318.80 619.90 L 340.50 619.80 L 342.00 620.00 L 343.00 620.50 L 345.80 623.70 L 347.30 626.30 L 348.40 629.40 L 349.50 636.30 L 349.10 643.30 L 348.40 647.00 L 345.50 656.00 L 333.80 657.00 L 317.10 657.50 L 307.00 657.00 L 302.30 656.20 L 265.40 633.20 L 271.80 600.50 L 316.70 614.70 L 316.30 617.20 L 316.40 618.10 L 317.60 619.60 L 318.80 619.90 Z" fill="#172065" fill-rule="nonzero" group-id="1,14,66,109" id="路径_1230" node-id="132" stroke="none" target-height="57" target-width="84.100006" target-x="265.4" target-y="600.5"></path><path d="M 276.10 493.80 L 296.20 493.80 L 296.20 517.00 L 276.10 517.00 Z" fill="#ffae80" fill-rule="nonzero" group-id="1,14,66,110,134" id="矩形_1512" node-id="134" stroke="none" target-height="23.200012" target-width="20.100006" target-x="276.1" target-y="493.8"></path><path d="M 298.00 506.90 L 298.50 509.00 L 298.60 511.10 L 298.20 513.20 L 274.30 512.80 L 273.10 509.30 L 276.50 506.70 L 281.50 504.80 L 287.20 504.30 L 290.20 504.60 L 293.80 505.40 L 298.00 506.90 Z" fill="#06083b" fill-rule="nonzero" group-id="1,14,66,110,135" id="路径_1225" node-id="135" stroke="none" target-height="8.900024" target-width="25.5" target-x="273.1" target-y="504.3"></path><path d="M 311.30 499.40 L 311.80 499.40 L 312.30 498.90 L 312.70 497.50 L 313.30 491.30 L 313.20 487.20 L 312.30 477.60 L 311.50 472.80 L 309.10 464.20 L 308.00 461.60 L 305.50 458.20 L 300.80 454.70 L 295.00 452.00 L 291.90 451.20 L 288.60 450.80 L 285.30 450.90 L 282.00 451.40 L 278.70 452.60 L 274.10 455.40 L 271.80 457.50 L 269.60 460.10 L 267.60 463.10 L 266.10 466.30 L 265.00 469.60 L 264.00 474.90 L 263.60 480.10 L 264.20 489.70 L 266.20 499.40 L 298.00 498.60 L 306.70 498.70 L 311.30 499.40 Z" fill="#182162" fill-rule="nonzero" group-id="1,14,66,110,136" id="路径_1224" node-id="136" stroke="none" target-height="48.600006" target-width="49.69998" target-x="263.6" target-y="450.8"></path><path d="M 316.60 615.30 L 269.60 616.10 L 271.40 599.20 L 309.10 602.10 L 316.70 607.40 Z" fill="#ffffff" fill-rule="nonzero" group-id="1,14,66,110,137" id="路径_1229" node-id="137" stroke="none" target-height="16.899963" target-width="47.100006" target-x="269.6" target-y="599.2"></path><path d="M 372.00 528.10 L 382.60 537.70 L 376.50 542.10 L 368.30 532.50 Z" fill="#06083b" fill-rule="nonzero" group-id="1,14,66,110,138" id="路径_1227" node-id="138" stroke="none" target-height="14" target-width="14.300018" target-x="368.3" target-y="528.1"></path><path d="M 248.90 520.30 L 250.90 517.90 L 253.20 515.80 L 258.80 512.30 L 265.10 510.10 L 269.90 509.10 L 274.50 508.80 L 291.60 508.80 L 300.80 509.10 L 308.30 510.00 L 312.30 511.70 L 314.50 513.40 L 317.60 516.30 L 320.90 520.00 L 338.40 542.30 L 346.70 554.10 L 368.30 531.60 L 379.10 540.70 L 354.00 575.20 L 350.90 578.00 L 349.30 578.80 L 347.40 579.20 L 344.60 579.00 L 342.90 578.30 L 339.70 575.90 L 330.80 565.10 L 316.70 549.40 L 316.70 608.30 L 276.60 609.40 L 257.60 582.20 L 257.60 549.40 L 248.90 565.60 L 232.50 561.60 L 242.40 534.50 L 245.90 526.10 L 248.90 520.30 Z" fill="#3f61ff" fill-rule="nonzero" group-id="1,14,66,110,139" id="路径_1226" node-id="139" stroke="none" target-height="100.60004" target-width="146.6" target-x="232.5" target-y="508.8"></path><path d="M 364.40 623.30 L 367.90 624.00 L 370.30 625.10 L 372.70 626.60 L 375.30 629.10 L 378.10 633.50 L 379.30 636.70 L 380.20 639.90 L 380.70 644.00 L 381.20 662.70 L 382.10 680.30 L 385.00 718.80 L 387.70 751.00 L 378.70 752.50 L 358.90 664.10 L 357.00 662.20 L 352.90 659.70 L 342.60 654.50 L 342.60 623.30 Z" fill="#ffa37f" fill-rule="nonzero" group-id="1,14,66,111" id="路径_1231" node-id="140" stroke="none" target-height="129.20001" target-width="45.100006" target-x="342.6" target-y="623.3"></path><path d="M 315.20 748.00 L 316.50 748.50 L 323.50 748.70 L 337.30 694.50 L 342.70 671.50 L 343.50 666.80 L 343.10 665.60 L 341.90 664.50 L 340.30 663.50 L 333.80 661.00 L 328.60 659.80 L 320.10 665.30 L 315.20 748.00 Z" fill="#ffa27a" fill-rule="nonzero" group-id="1,14,66,112" id="路径_1232" node-id="141" stroke="none" target-height="88.900024" target-width="28.299988" target-x="315.2" target-y="659.8"></path><path d="M 375.90 773.50 L 380.60 773.50 L 380.60 759.50 L 386.90 764.90 L 391.80 769.60 L 395.10 773.80 L 415.50 774.00 L 413.60 769.00 L 411.90 766.50 L 409.30 763.70 L 407.40 762.10 L 404.90 760.60 L 397.40 756.80 L 393.80 754.50 L 386.40 748.50 L 375.90 748.20 Z" fill="#2c353a" fill-rule="nonzero" group-id="1,14,66,113" id="路径_1233" node-id="142" stroke="none" target-height="25.799988" target-width="39.600006" target-x="375.9" target-y="748.2"></path><path d="M 312.40 773.50 L 317.00 773.50 L 317.00 759.50 L 323.40 764.90 L 328.20 769.60 L 331.60 773.80 L 352.00 774.00 L 350.10 769.00 L 348.30 766.50 L 345.80 763.70 L 343.80 762.10 L 341.40 760.60 L 333.80 756.80 L 330.30 754.50 L 322.90 748.50 L 312.40 748.20 Z" fill="#2c353a" fill-rule="nonzero" group-id="1,14,66,114" id="路径_1234" node-id="143" stroke="none" target-height="25.799988" target-width="39.600006" target-x="312.4" target-y="748.2"></path><path d="M 235.90 774.80 L 244.80 774.80 L 258.80 668.80 L 251.10 668.80 Z" fill="#8a95d3" fill-rule="nonzero" group-id="1,14,67,115" id="路径_1237" node-id="145" stroke="none" target-height="106" target-width="22.899994" target-x="235.9" target-y="668.8"></path><path d="M 278.90 774.80 L 287.80 774.80 L 301.90 668.80 L 294.20 668.80 Z" fill="#8a95d3" fill-rule="nonzero" group-id="1,14,67,116" id="路径_1238" node-id="146" stroke="none" target-height="106" target-width="23" target-x="278.9" target-y="668.8"></path><path d="M 333.00 774.80 L 324.10 774.80 L 310.00 668.80 L 317.70 668.80 Z" fill="#8a95d3" fill-rule="nonzero" group-id="1,14,67,117" id="路径_1239" node-id="147" stroke="none" target-height="106" target-width="23" target-x="310" target-y="668.8"></path><path d="M 376.00 774.80 L 367.10 774.80 L 353.10 668.80 L 360.80 668.80 Z" fill="#8a95d3" fill-rule="nonzero" group-id="1,14,67,118" id="路径_1240" node-id="148" stroke="none" target-height="106" target-width="22.899994" target-x="353.1" target-y="668.8"></path><path d="M 231.20 554.00 L 247.20 553.00 L 264.10 552.70 L 267.70 553.90 L 269.90 555.20 L 273.90 559.10 L 276.90 564.20 L 279.30 570.90 L 282.90 588.70 L 286.50 603.90 L 297.40 645.10 L 299.70 648.20 L 301.90 650.20 L 305.70 652.40 L 308.40 653.50 L 314.40 654.60 L 339.00 654.40 L 370.80 654.70 L 373.10 657.00 L 374.20 658.80 L 374.90 661.60 L 374.30 665.10 L 373.30 667.10 L 371.60 669.50 L 251.50 670.00 L 248.00 669.30 L 245.80 668.40 L 243.20 666.70 L 240.00 663.60 L 236.80 658.70 L 233.90 651.60 L 232.40 646.20 L 227.60 624.40 L 224.60 608.80 L 218.90 574.40 L 218.90 568.10 L 219.40 564.80 L 220.40 561.70 L 221.40 559.70 L 224.20 556.50 L 226.10 555.40 L 228.40 554.50 L 231.20 554.00 Z" fill="#98a6e8" fill-rule="nonzero" group-id="1,14,67,119" id="路径_1235" node-id="149" stroke="none" target-height="117.29999" target-width="156" target-x="218.9" target-y="552.7"></path><path d="M 231.20 554.00 L 251.20 552.80 L 259.30 552.70 L 262.90 553.90 L 265.10 555.20 L 267.60 557.40 L 270.60 561.30 L 273.40 567.20 L 274.50 570.90 L 278.10 588.90 L 281.70 604.50 L 292.60 647.50 L 295.10 650.60 L 297.40 652.60 L 301.30 654.80 L 304.00 655.90 L 310.10 657.00 L 335.80 656.70 L 370.80 657.10 L 373.10 658.60 L 374.20 659.90 L 374.90 662.20 L 374.40 665.30 L 371.60 669.50 L 251.50 670.00 L 248.00 669.30 L 245.80 668.40 L 243.30 666.70 L 240.00 663.60 L 236.80 658.70 L 233.90 651.60 L 232.40 646.20 L 227.60 624.40 L 224.60 608.80 L 218.90 574.40 L 218.90 568.10 L 219.40 564.80 L 220.40 561.70 L 221.40 559.70 L 224.20 556.50 L 226.10 555.40 L 228.40 554.50 L 231.20 554.00 Z" fill="#a3b1f2" fill-rule="nonzero" group-id="1,14,67,120" id="路径_1236" node-id="150" stroke="none" target-height="117.29999" target-width="156" target-x="218.9" target-y="552.7"></path></g></g></svg>